<svg xmlns="http://www.w3.org/2000/svg" viewBox="0 0 360 360"><defs><style>.cls-1{fill:#ededed;}.cls-2{fill:#b2b2b2;}</style></defs><title>t-do-2</title><g id="Lager_2" data-name="Lager 2"><g id="Lager_1-2" data-name="Lager 1"><rect class="cls-1" width="360" height="360"/><path d="M46.55,55.2V58H32.65V30h3V55.2Z"/><path d="M48.26,48.2v-.4c0-6.67,3.93-10.4,8.84-10.4s8.83,3.73,8.83,10.4v.4c0,6.67-3.93,10.4-8.83,10.4S48.26,54.87,48.26,48.2Zm14.87-.1v-.2c0-5.27-2.67-8.1-6-8.1s-6,2.83-6,8.1v.2c0,5.27,2.67,8.1,6,8.1S63.13,53.37,63.13,48.1Z"/><path d="M70,38h2.6v4.8a8,8,0,0,1,7.57-5v2.8c-4.53,0-7.37,3.4-7.37,8.2V58H70Z"/><path d="M91,58.6c-5,0-9-3.73-9-10.4v-.4c0-6.67,3.93-10.4,8.83-10.4s8.83,3.73,8.83,10.37v.77H84.74c.07,4.73,2.63,7.67,6.37,7.67a5.71,5.71,0,0,0,5.4-3.47l2.67.53A8.5,8.5,0,0,1,91,58.6Zm5.83-11.94c-.27-4.6-2.9-7-6-7s-5.77,2.43-6,7Z"/><path d="M103.47,38h2.6v3.2a6.37,6.37,0,0,1,5.8-3.6,5.64,5.64,0,0,1,5.53,3.93,6.45,6.45,0,0,1,6-3.93c3.87,0,6.57,2.87,6.57,7.37V58h-2.8V45.5c0-3.4-1.7-5.5-4.27-5.5-2.9,0-4.77,2.57-4.77,5.93V58h-2.8V45.5c0-3.4-1.67-5.5-4.27-5.5-2.87,0-4.77,2.57-4.77,5.93V58h-2.8Z"/><path d="M143.27,31.19h3.07v3.2h-3.07Zm.13,6.8h2.8V58h-2.8Z"/><path d="M151.19,38h2.57v3.67a6.9,6.9,0,0,1,6.5-4.07c4.43,0,8.3,3.3,8.3,10v.8c0,6.7-3.9,10-8.24,10A6.76,6.76,0,0,1,154,54.47V66h-2.8Zm14.57,10.1v-.2c0-5.13-2.63-7.9-6-7.9s-5.9,2.77-5.9,7.9v.2c0,5.17,2.6,7.9,5.9,7.9S165.76,53.27,165.76,48.1Z"/><path d="M170.79,53.27l2.4-1a5.88,5.88,0,0,0,5.8,3.87c2.73,0,4.7-1.3,4.7-3.57s-1.8-3-4.17-3.47L177,48.63c-3.23-.6-5.67-2.07-5.67-5.17,0-3.27,2.6-5.87,7.13-5.87A8.41,8.41,0,0,1,186.19,42l-2.37,1a5.65,5.65,0,0,0-5.3-3.17c-2.63,0-4.47,1.37-4.47,3.47,0,1.93,1.57,2.77,3.6,3.13l2.53.47c3.8.7,6.27,2.23,6.27,5.47,0,3.47-2.8,6-7.4,6A8.52,8.52,0,0,1,170.79,53.27Z"/><path d="M205,58h-2.6V54.8a6.54,6.54,0,0,1-6.07,3.6c-4.1,0-6.8-2.87-6.8-7.37V38h2.8V50.4c0,3.5,1.87,5.57,4.67,5.57,3.1,0,5.2-2.53,5.2-5.9V38H205Z"/><path d="M209.92,38h2.6v3.2a6.37,6.37,0,0,1,5.8-3.6,5.65,5.65,0,0,1,5.54,3.93,6.45,6.45,0,0,1,6-3.93c3.87,0,6.57,2.87,6.57,7.37V58h-2.8V45.5c0-3.4-1.7-5.5-4.27-5.5-2.9,0-4.77,2.57-4.77,5.93V58h-2.8V45.5c0-3.4-1.67-5.5-4.27-5.5-2.87,0-4.77,2.57-4.77,5.93V58h-2.8Z"/><path d="M30.31,88.4v-.8c0-6.7,3.9-10,8.24-10a6.76,6.76,0,0,1,6.33,3.93V70h2.8V98H45.12V94.33a6.9,6.9,0,0,1-6.5,4.07C34.18,98.4,30.31,95.1,30.31,88.4ZM45,88.1v-.2c0-5.17-2.6-7.9-5.9-7.9s-6,2.73-6,7.9v.2c0,5.13,2.63,7.9,6,7.9S45,93.23,45,88.1Z"/><path d="M51.6,88.2v-.4c0-6.67,3.93-10.4,8.84-10.4s8.83,3.73,8.83,10.4v.4c0,6.67-3.93,10.4-8.83,10.4S51.6,94.87,51.6,88.2Zm14.87-.1v-.2c0-5.27-2.67-8.1-6-8.1s-6,2.83-6,8.1v.2c0,5.27,2.67,8.1,6,8.1S66.47,93.37,66.47,88.1Z"/><path d="M73.18,93.66V70H76V93.16c0,1.77.7,2.43,2,2.43h1V98h-1.7C74.84,98,73.18,96.73,73.18,93.66Z"/><path d="M80.6,88.2v-.4c0-6.67,3.93-10.4,8.84-10.4s8.83,3.73,8.83,10.4v.4c0,6.67-3.93,10.4-8.83,10.4S80.6,94.87,80.6,88.2Zm14.87-.1v-.2c0-5.27-2.67-8.1-6-8.1s-6,2.83-6,8.1v.2c0,5.27,2.67,8.1,6,8.1S95.47,93.37,95.47,88.1Z"/><path d="M102.38,78H105v4.8a8,8,0,0,1,7.57-5v2.8c-4.53,0-7.37,3.4-7.37,8.2V98h-2.8Z"/><path d="M123,93.27l2.4-1a5.88,5.88,0,0,0,5.8,3.87c2.73,0,4.7-1.3,4.7-3.57s-1.8-3-4.17-3.47l-2.57-.47c-3.23-.6-5.67-2.07-5.67-5.17,0-3.27,2.6-5.87,7.13-5.87A8.41,8.41,0,0,1,138.38,82L136,83a5.65,5.65,0,0,0-5.3-3.17c-2.63,0-4.47,1.37-4.47,3.47,0,1.93,1.57,2.77,3.6,3.13l2.53.47c3.8.7,6.27,2.23,6.27,5.47,0,3.47-2.8,6-7.4,6A8.52,8.52,0,0,1,123,93.27Z"/><path d="M142,71.19H145v3.2H142Zm.13,6.8h2.8V98h-2.8Z"/><path d="M151.44,93.13V80.4h-3.37V78h3.47V72h2.6v6h5.73v2.4h-5.63V92.6c0,2.13,1,3,2.7,3h2.93V98h-3.6C153.41,98,151.44,96.53,151.44,93.13Z"/><path d="M170.94,92.86V92.6c0-3.3,2.43-6.07,7.4-6.07h5.77v-1.6c0-3.2-1.77-5.07-4.8-5.07a5.33,5.33,0,0,0-5.2,3.53l-2.57-.53a7.9,7.9,0,0,1,7.9-5.27c4.67,0,7.37,2.77,7.37,7.17V98h-2.6V94.8a7.85,7.85,0,0,1-6.8,3.6C173.64,98.4,170.94,96.2,170.94,92.86Zm13.17-2.67V88.4h-5.43c-3.27,0-4.93,1.73-4.93,4s1.8,3.77,4.33,3.77A5.84,5.84,0,0,0,184.11,90.2Z"/><path d="M191.71,78h2.6v3.2a6.37,6.37,0,0,1,5.8-3.6,5.65,5.65,0,0,1,5.54,3.93,6.45,6.45,0,0,1,6-3.93c3.87,0,6.57,2.87,6.57,7.37V98h-2.8V85.5c0-3.4-1.7-5.5-4.27-5.5-2.9,0-4.77,2.57-4.77,5.93V98h-2.8V85.5c0-3.4-1.67-5.5-4.27-5.5-2.87,0-4.77,2.57-4.77,5.93V98h-2.8Z"/><path d="M230.86,98.6c-5,0-9-3.73-9-10.4v-.4c0-6.67,3.93-10.4,8.83-10.4s8.83,3.73,8.83,10.37v.77H224.56c.07,4.73,2.63,7.67,6.37,7.67a5.71,5.71,0,0,0,5.4-3.47l2.67.53A8.5,8.5,0,0,1,230.86,98.6Zm5.83-11.94c-.27-4.6-2.9-7-6-7s-5.77,2.43-6,7Z"/><path d="M244.36,93.13V80.4H241V78h3.47V72h2.6v6h5.73v2.4h-5.63V92.6c0,2.13,1,3,2.7,3h2.93V98h-3.6C246.33,98,244.36,96.53,244.36,93.13Z"/><path d="M259,94.4v5.53c0,2-1.2,3.07-3.47,3.07v-1.6c1.13,0,1.6-.43,1.6-1.57v-2h-1.2V94.4Z"/><path d="M30.31,128.2v-.4c0-6.57,3.93-10.2,8.64-10.2a8.08,8.08,0,0,1,7.83,5.9l-2.6.53a5.58,5.58,0,0,0-5.23-4c-3.17,0-5.83,2.7-5.83,7.9v.2c0,5.2,2.67,7.9,5.83,7.9a5.58,5.58,0,0,0,5.23-4l2.6.53a8,8,0,0,1-7.83,5.9C34.25,138.4,30.31,134.8,30.31,128.2Z"/><path d="M48.94,128.2v-.4c0-6.67,3.93-10.4,8.83-10.4s8.83,3.73,8.83,10.4v.4c0,6.67-3.93,10.4-8.83,10.4S48.94,134.87,48.94,128.2Zm14.87-.1v-.2c0-5.27-2.67-8.1-6-8.1s-6,2.83-6,8.1v.2c0,5.27,2.67,8.1,6,8.1S63.81,133.37,63.81,128.1Z"/><path d="M70.53,118h2.6v3.2a6.54,6.54,0,0,1,6.07-3.6c4.1,0,6.8,2.87,6.8,7.37v13H83.2V125.6c0-3.5-1.87-5.6-4.67-5.6-3.1,0-5.2,2.57-5.2,5.93V138h-2.8Z"/><path d="M89.07,133.27l2.4-1a5.88,5.88,0,0,0,5.8,3.87c2.73,0,4.7-1.3,4.7-3.57s-1.8-3-4.17-3.47l-2.57-.47c-3.23-.6-5.67-2.07-5.67-5.17,0-3.27,2.6-5.87,7.13-5.87a8.41,8.41,0,0,1,7.77,4.43l-2.37,1a5.65,5.65,0,0,0-5.3-3.17c-2.63,0-4.47,1.37-4.47,3.47,0,1.93,1.57,2.77,3.6,3.13l2.53.47c3.8.7,6.27,2.23,6.27,5.47,0,3.47-2.8,6-7.4,6A8.52,8.52,0,0,1,89.07,133.27Z"/><path d="M116.18,138.6c-5,0-9-3.73-9-10.4v-.4c0-6.67,3.93-10.4,8.83-10.4s8.83,3.73,8.83,10.37v.77H109.87c.07,4.73,2.63,7.67,6.37,7.67a5.71,5.71,0,0,0,5.4-3.47l2.67.53A8.5,8.5,0,0,1,116.18,138.6ZM122,126.66c-.27-4.6-2.9-7-6-7s-5.77,2.43-6,7Z"/><path d="M127.6,128.2v-.4c0-6.57,3.93-10.2,8.63-10.2a8.08,8.08,0,0,1,7.83,5.9l-2.6.53a5.58,5.58,0,0,0-5.23-4c-3.17,0-5.83,2.7-5.83,7.9v.2c0,5.2,2.67,7.9,5.83,7.9a5.58,5.58,0,0,0,5.23-4l2.6.53a8,8,0,0,1-7.83,5.9C131.54,138.4,127.6,134.8,127.6,128.2Z"/><path d="M148.89,133.13V120.4h-3.37V118H149v-6h2.6v6h5.73v2.4h-5.63v12.2c0,2.13,1,3,2.7,3h2.93V138h-3.6C150.85,138,148.89,136.53,148.89,133.13Z"/><path d="M167.92,138.6c-5,0-9-3.73-9-10.4v-.4c0-6.67,3.93-10.4,8.84-10.4s8.83,3.73,8.83,10.37v.77H161.62c.07,4.73,2.63,7.67,6.37,7.67a5.71,5.71,0,0,0,5.4-3.47l2.67.53A8.5,8.5,0,0,1,167.92,138.6Zm5.83-11.94c-.27-4.6-2.9-7-6-7s-5.77,2.43-6,7Z"/><path d="M181.42,133.13V120.4h-3.37V118h3.47v-6h2.6v6h5.73v2.4h-5.63v12.2c0,2.13,1,3,2.7,3h2.93V138h-3.6C183.39,138,181.42,136.53,181.42,133.13Z"/><path d="M208.25,138h-2.6v-3.2a6.54,6.54,0,0,1-6.07,3.6c-4.1,0-6.8-2.87-6.8-7.37V118h2.8v12.4c0,3.5,1.87,5.57,4.67,5.57,3.1,0,5.2-2.53,5.2-5.9V118h2.8Z"/><path d="M221.2,138.6c-5,0-9-3.73-9-10.4v-.4c0-6.67,3.93-10.4,8.84-10.4s8.83,3.73,8.83,10.37v.77H214.9c.07,4.73,2.63,7.67,6.37,7.67a5.71,5.71,0,0,0,5.4-3.47l2.67.53A8.5,8.5,0,0,1,221.2,138.6ZM227,126.66c-.27-4.6-2.9-7-6-7s-5.77,2.43-6,7Z"/><path d="M233.82,118h2.6v4.8a8,8,0,0,1,7.57-5v2.8c-4.53,0-7.37,3.4-7.37,8.2V138h-2.8Z"/><path d="M30.81,172.86v-.27c0-3.3,2.43-6.07,7.4-6.07H44v-1.6c0-3.2-1.77-5.07-4.8-5.07A5.33,5.33,0,0,0,34,163.4l-2.57-.53a7.9,7.9,0,0,1,7.9-5.27c4.67,0,7.37,2.77,7.37,7.17V178h-2.6v-3.2a7.85,7.85,0,0,1-6.8,3.6C33.51,178.4,30.81,176.2,30.81,172.86ZM44,170.2v-1.8H38.55c-3.27,0-4.93,1.73-4.93,4s1.8,3.77,4.33,3.77A5.84,5.84,0,0,0,44,170.2Z"/><path d="M50.54,168.4v-.8c0-6.7,3.9-10,8.24-10a6.76,6.76,0,0,1,6.33,3.93V150h2.8v28H65.34v-3.67a6.9,6.9,0,0,1-6.5,4.07C54.41,178.4,50.54,175.1,50.54,168.4Zm14.67-.3v-.2c0-5.17-2.6-7.9-5.9-7.9s-6,2.73-6,7.9v.2c0,5.13,2.63,7.9,6,7.9S65.21,173.23,65.21,168.1Z"/><path d="M72.8,151.19h3.07v3.2H72.8Zm.13,6.8h2.8v20h-2.8Z"/><path d="M80.71,158h2.57v3.67a6.9,6.9,0,0,1,6.5-4.07c4.43,0,8.3,3.3,8.3,10v.8c0,6.7-3.9,10-8.24,10a6.76,6.76,0,0,1-6.33-3.93V186h-2.8Zm14.57,10.1v-.2c0-5.13-2.63-7.9-6-7.9s-5.9,2.77-5.9,7.9v.2c0,5.17,2.6,7.9,5.9,7.9S95.28,173.27,95.28,168.1Z"/><path d="M101.87,151.19h3.07v3.2h-3.07ZM102,158h2.8v20H102Z"/><path d="M108.25,173.27l2.4-1a5.88,5.88,0,0,0,5.8,3.87c2.73,0,4.7-1.3,4.7-3.57s-1.8-3-4.17-3.47l-2.57-.47c-3.23-.6-5.67-2.07-5.67-5.17,0-3.27,2.6-5.87,7.13-5.87a8.41,8.41,0,0,1,7.77,4.43l-2.37,1a5.65,5.65,0,0,0-5.3-3.17c-2.63,0-4.47,1.37-4.47,3.47,0,1.93,1.57,2.77,3.6,3.13l2.53.47c3.8.7,6.27,2.23,6.27,5.47,0,3.47-2.8,6-7.4,6A8.52,8.52,0,0,1,108.25,173.27Z"/><path d="M126.31,168.2v-.4c0-6.57,3.93-10.2,8.63-10.2a8.08,8.08,0,0,1,7.83,5.9l-2.6.53a5.58,5.58,0,0,0-5.23-4c-3.17,0-5.83,2.7-5.83,7.9v.2c0,5.2,2.67,7.9,5.83,7.9a5.58,5.58,0,0,0,5.23-4l2.6.53a8,8,0,0,1-7.83,5.9C130.25,178.4,126.31,174.8,126.31,168.2Z"/><path d="M145.89,151.19H149v3.2h-3.07ZM146,158h2.8v20H146Z"/><path d="M153.8,158h2.6v3.2a6.54,6.54,0,0,1,6.07-3.6c4.1,0,6.8,2.87,6.8,7.37v13h-2.8V165.6c0-3.5-1.87-5.6-4.67-5.6-3.1,0-5.2,2.57-5.2,5.93V178h-2.8Z"/><path d="M172.42,180.93a5.23,5.23,0,0,1,3.07-4.77,3.66,3.66,0,0,1-1.8-3.2,3.89,3.89,0,0,1,2.93-3.73,5.91,5.91,0,0,1-2.77-5.07c0-3.8,3.07-6.63,7.13-6.63a8,8,0,0,1,2.73.47h6.07v2.23h-3.33a5.3,5.3,0,0,1,1.67,3.93c0,3.8-3,6.67-7.1,6.67h-2.47c-1.63,0-2.43.83-2.43,2s.8,2,2.4,2h5.8c3.63,0,6.13,2.53,6.13,5.7,0,3.33-2.73,6.07-6.9,6.07h-4.47C174.92,186.6,172.42,184,172.42,180.93Zm10.84,3.47c2.87,0,4.6-1.63,4.6-3.77s-1.57-3.6-4-3.6h-4.83a3.73,3.73,0,0,0-4,3.63c0,2.07,1.63,3.73,4.5,3.73Zm2.37-20.2a4.64,4.64,0,1,0-4.63,4.53A4.52,4.52,0,0,0,185.62,164.2Z"/><path d="M210,178.6c-5,0-9-3.73-9-10.4v-.4c0-6.67,3.93-10.4,8.84-10.4s8.83,3.73,8.83,10.37v.77H203.69c.07,4.73,2.63,7.67,6.37,7.67a5.71,5.71,0,0,0,5.4-3.47l2.67.53A8.5,8.5,0,0,1,210,178.6Zm5.83-11.94c-.27-4.6-2.9-7-6-7s-5.77,2.43-6,7Z"/><path d="M222.39,173.66V150h2.8v23.17c0,1.77.7,2.43,2,2.43h1V178h-1.7C224.06,178,222.39,176.73,222.39,173.66Z"/><path d="M231.29,151.19h3.07v3.2h-3.07Zm.13,6.8h2.8v20h-2.8Z"/><path d="M240.76,173.13V160.4h-3.37V158h3.47v-6h2.6v6h5.73v2.4h-5.63v12.2c0,2.13,1,3,2.7,3h2.93V178h-3.6C242.72,178,240.76,176.53,240.76,173.13Z"/><path d="M255.36,174.4v5.53c0,2-1.2,3.07-3.47,3.07v-1.6c1.13,0,1.6-.43,1.6-1.57v-2h-1.2V174.4Z"/><path d="M29.81,213.27l2.4-1a5.88,5.88,0,0,0,5.8,3.87c2.73,0,4.7-1.3,4.7-3.57s-1.8-3-4.17-3.47L36,208.63c-3.23-.6-5.67-2.07-5.67-5.17,0-3.27,2.6-5.87,7.13-5.87A8.41,8.41,0,0,1,45.22,202l-2.37,1a5.65,5.65,0,0,0-5.3-3.17c-2.63,0-4.47,1.37-4.47,3.47,0,1.93,1.57,2.77,3.6,3.13l2.53.47c3.8.7,6.27,2.23,6.27,5.47,0,3.47-2.8,6-7.4,6A8.52,8.52,0,0,1,29.81,213.27Z"/><path d="M56.92,218.6c-5,0-9-3.73-9-10.4v-.4c0-6.67,3.93-10.4,8.83-10.4s8.83,3.73,8.83,10.37v.77H50.61c.07,4.73,2.63,7.67,6.37,7.67a5.71,5.71,0,0,0,5.4-3.47l2.67.53A8.5,8.5,0,0,1,56.92,218.6Zm5.83-11.94c-.27-4.6-2.9-7-6-7s-5.77,2.43-6,7Z"/><path d="M68.34,208.4v-.8c0-6.7,3.9-10,8.24-10a6.76,6.76,0,0,1,6.33,3.93V190h2.8v28H83.15v-3.67a6.9,6.9,0,0,1-6.5,4.07C72.21,218.4,68.34,215.1,68.34,208.4ZM83,208.1v-.2c0-5.17-2.6-7.9-5.9-7.9s-6,2.73-6,7.9v.2c0,5.13,2.63,7.9,6,7.9S83,213.23,83,208.1Z"/><path d="M98.14,208.4v-.8c0-6.7,3.9-10,8.24-10a6.76,6.76,0,0,1,6.33,3.93V190h2.8v28h-2.57v-3.67a6.9,6.9,0,0,1-6.5,4.07C102,218.4,98.14,215.1,98.14,208.4Zm14.67-.3v-.2c0-5.17-2.6-7.9-5.9-7.9s-6,2.73-6,7.9v.2c0,5.13,2.63,7.9,6,7.9S112.81,213.23,112.81,208.1Z"/><path d="M120.4,191.19h3.07v3.2H120.4Zm.13,6.8h2.8v20h-2.8Z"/><path d="M127.38,212.86v-.27c0-3.3,2.43-6.07,7.4-6.07h5.77v-1.6c0-3.2-1.77-5.07-4.8-5.07a5.33,5.33,0,0,0-5.2,3.53l-2.57-.53a7.9,7.9,0,0,1,7.9-5.27c4.67,0,7.37,2.77,7.37,7.17V218h-2.6v-3.2a7.85,7.85,0,0,1-6.8,3.6C130.08,218.4,127.38,216.2,127.38,212.86Zm13.17-2.67v-1.8h-5.43c-3.27,0-4.93,1.73-4.93,4s1.8,3.77,4.33,3.77A5.84,5.84,0,0,0,140.55,210.2Z"/><path d="M148.15,198h2.6v3.2a6.37,6.37,0,0,1,5.8-3.6,5.64,5.64,0,0,1,5.53,3.93,6.45,6.45,0,0,1,6-3.93c3.87,0,6.57,2.87,6.57,7.37v13h-2.8V205.5c0-3.4-1.7-5.5-4.27-5.5-2.9,0-4.77,2.57-4.77,5.93V218H160V205.5c0-3.4-1.67-5.5-4.27-5.5-2.87,0-4.77,2.57-4.77,5.93V218h-2.8Z"/><path d="M187.95,198h2.6v3.2a6.54,6.54,0,0,1,6.07-3.6c4.1,0,6.8,2.87,6.8,7.37v13h-2.8V205.6c0-3.5-1.87-5.6-4.67-5.6-3.1,0-5.2,2.57-5.2,5.93V218h-2.8Z"/><path d="M207,208.2v-.4c0-6.67,3.93-10.4,8.84-10.4s8.83,3.73,8.83,10.4v.4c0,6.67-3.93,10.4-8.83,10.4S207,214.87,207,208.2Zm14.87-.1v-.2c0-5.27-2.67-8.1-6-8.1s-6,2.83-6,8.1v.2c0,5.27,2.67,8.1,6,8.1S221.89,213.37,221.89,208.1Z"/><path d="M228.61,198h2.6v3.2a6.54,6.54,0,0,1,6.07-3.6c4.1,0,6.8,2.87,6.8,7.37v13h-2.8V205.6c0-3.5-1.87-5.6-4.67-5.6-3.1,0-5.2,2.57-5.2,5.93V218h-2.8Z"/><path d="M264,218h-2.6v-3.2a6.54,6.54,0,0,1-6.07,3.6c-4.1,0-6.8-2.87-6.8-7.37V198h2.8v12.4c0,3.5,1.87,5.57,4.67,5.57,3.1,0,5.2-2.53,5.2-5.9V198H264Z"/><path d="M31.61,238h2.6v3.2a6.37,6.37,0,0,1,5.8-3.6,5.65,5.65,0,0,1,5.54,3.93,6.45,6.45,0,0,1,6-3.93c3.87,0,6.57,2.87,6.57,7.37v13h-2.8V245.5c0-3.4-1.7-5.5-4.27-5.5-2.9,0-4.77,2.57-4.77,5.93V258h-2.8V245.5c0-3.4-1.67-5.5-4.27-5.5-2.87,0-4.77,2.57-4.77,5.93V258h-2.8Z"/><path d="M62.84,238h2.6v3.2a6.37,6.37,0,0,1,5.8-3.6,5.64,5.64,0,0,1,5.53,3.93,6.45,6.45,0,0,1,6-3.93c3.87,0,6.57,2.87,6.57,7.37v13h-2.8V245.5c0-3.4-1.7-5.5-4.27-5.5-2.9,0-4.77,2.57-4.77,5.93V258h-2.8V245.5c0-3.4-1.67-5.5-4.27-5.5-2.87,0-4.77,2.57-4.77,5.93V258h-2.8Z"/><path d="M93.54,263.57H95c1.87,0,2.77-.87,3.6-3.13l1.23-3.3L91.54,238h3.1l4.83,11.54c.57,1.4,1.2,2.8,1.83,4.53.5-1.77.93-3.23,1.43-4.63l3.9-11.44h2.9l-8.47,23.44c-1.1,3-2.9,4.57-5.77,4.57H93.54Z"/><path d="M121.81,238h2.6v3.2a6.54,6.54,0,0,1,6.07-3.6c4.1,0,6.8,2.87,6.8,7.37v13h-2.8V245.6c0-3.5-1.87-5.6-4.67-5.6-3.1,0-5.2,2.57-5.2,5.93V258h-2.8Z"/><path d="M141.89,231.19H145v3.2h-3.07ZM142,238h2.8v20H142Z"/><path d="M152.37,254.33V258H149.8V230h2.8v11.54a6.76,6.76,0,0,1,6.33-3.93c4.33,0,8.24,3.3,8.24,10v.8c0,6.7-3.87,10-8.3,10A6.9,6.9,0,0,1,152.37,254.33Zm12-6.23v-.2c0-5.17-2.63-7.9-6-7.9s-5.9,2.73-5.9,7.9v.2c0,5.13,2.6,7.9,5.9,7.9S164.37,253.23,164.37,248.1Z"/><path d="M186.56,245v13h-2.8V245.6c0-3.5-1.87-5.57-4.67-5.57-3.1,0-5.2,2.53-5.2,5.9V258h-2.8V230h2.8v10.87a6.52,6.52,0,0,1,5.87-3.27C183.86,237.6,186.56,240.46,186.56,245Z"/><path d="M207.62,258.6c-5,0-9-3.73-9-10.4v-.4c0-6.67,3.93-10.4,8.84-10.4s8.83,3.73,8.83,10.37v.77H201.32c.07,4.73,2.63,7.67,6.37,7.67a5.71,5.71,0,0,0,5.4-3.47l2.67.53A8.5,8.5,0,0,1,207.62,258.6Zm5.83-11.94c-.27-4.6-2.9-7-6-7s-5.77,2.43-6,7Z"/><path d="M235.19,258h-2.6v-3.2a6.54,6.54,0,0,1-6.07,3.6c-4.1,0-6.8-2.87-6.8-7.37V238h2.8v12.4c0,3.5,1.87,5.57,4.67,5.57,3.1,0,5.2-2.53,5.2-5.9V238h2.8Z"/><path d="M240.07,231.19h3.07v3.2h-3.07Zm.13,6.8H243v20h-2.8Z"/><path d="M246.44,253.27l2.4-1a5.88,5.88,0,0,0,5.8,3.87c2.73,0,4.7-1.3,4.7-3.57s-1.8-3-4.17-3.47l-2.57-.47c-3.23-.6-5.67-2.07-5.67-5.17,0-3.27,2.6-5.87,7.13-5.87a8.41,8.41,0,0,1,7.77,4.43l-2.37,1a5.65,5.65,0,0,0-5.3-3.17c-2.63,0-4.47,1.37-4.47,3.47,0,1.93,1.57,2.77,3.6,3.13l2.53.47c3.8.7,6.27,2.23,6.27,5.47,0,3.47-2.8,6-7.4,6A8.52,8.52,0,0,1,246.44,253.27Z"/><path d="M31.61,278h2.6v3.2a6.37,6.37,0,0,1,5.8-3.6,5.65,5.65,0,0,1,5.54,3.93,6.45,6.45,0,0,1,6-3.93c3.87,0,6.57,2.87,6.57,7.37v13h-2.8V285.5c0-3.4-1.7-5.5-4.27-5.5-2.9,0-4.77,2.57-4.77,5.93V298h-2.8V285.5c0-3.4-1.67-5.5-4.27-5.5-2.87,0-4.77,2.57-4.77,5.93V298h-2.8Z"/><path d="M61.73,288.2v-.4c0-6.67,3.93-10.4,8.83-10.4s8.83,3.73,8.83,10.4v.4c0,6.67-3.93,10.4-8.83,10.4S61.73,294.87,61.73,288.2Zm14.87-.1v-.2c0-5.27-2.67-8.1-6-8.1s-6,2.83-6,8.1v.2c0,5.27,2.67,8.1,6,8.1S76.6,293.37,76.6,288.1Z"/><path d="M82.28,288.4v-.8c0-6.7,3.9-10,8.24-10a6.76,6.76,0,0,1,6.33,3.93V270h2.8v28H97.08v-3.67a6.9,6.9,0,0,1-6.5,4.07C86.14,298.4,82.28,295.1,82.28,288.4Zm14.67-.3v-.2c0-5.17-2.6-7.9-5.9-7.9s-6,2.73-6,7.9v.2c0,5.13,2.63,7.9,6,7.9S96.95,293.23,96.95,288.1Z"/><path d="M114.88,293.13V280.4h-3.37V278H115v-6h2.6v6h5.73v2.4h-5.63v12.2c0,2.13,1,3,2.7,3h2.93V298h-3.6C116.84,298,114.88,296.53,114.88,293.13Z"/><path d="M126.36,271.19h3.07v3.2h-3.07Zm.13,6.8h2.8v20h-2.8Z"/><path d="M134.27,278h2.6v3.2a6.54,6.54,0,0,1,6.07-3.6c4.1,0,6.8,2.87,6.8,7.37v13h-2.8V285.6c0-3.5-1.87-5.6-4.67-5.6-3.1,0-5.2,2.57-5.2,5.93V298h-2.8Z"/><path d="M153.35,288.2v-.4c0-6.57,3.93-10.2,8.64-10.2a8.08,8.08,0,0,1,7.83,5.9l-2.6.53a5.58,5.58,0,0,0-5.23-4c-3.17,0-5.83,2.7-5.83,7.9v.2c0,5.2,2.67,7.9,5.83,7.9a5.58,5.58,0,0,0,5.23-4l2.6.53a8,8,0,0,1-7.83,5.9C157.28,298.4,153.35,294.8,153.35,288.2Z"/><path d="M172.92,271.19H176v3.2h-3.07Zm.13,6.8h2.8v20h-2.8Z"/><path d="M179.74,288.4v-.8c0-6.7,3.9-10,8.24-10a6.76,6.76,0,0,1,6.33,3.93V270h2.8v28h-2.57v-3.67a6.9,6.9,0,0,1-6.5,4.07C183.61,298.4,179.74,295.1,179.74,288.4Zm14.67-.3v-.2c0-5.17-2.6-7.9-5.9-7.9s-6,2.73-6,7.9v.2c0,5.13,2.63,7.9,6,7.9S194.41,293.23,194.41,288.1Z"/><path d="M217.29,298h-2.6v-3.2a6.54,6.54,0,0,1-6.07,3.6c-4.1,0-6.8-2.87-6.8-7.37V278h2.8v12.4c0,3.5,1.87,5.57,4.67,5.57,3.1,0,5.2-2.53,5.2-5.9V278h2.8Z"/><path d="M222.23,278h2.6v3.2a6.54,6.54,0,0,1,6.07-3.6c4.1,0,6.8,2.87,6.8,7.37v13h-2.8V285.6c0-3.5-1.87-5.6-4.67-5.6-3.1,0-5.2,2.57-5.2,5.93V298h-2.8Z"/><path d="M243.52,293.13V280.4h-3.37V278h3.47v-6h2.6v6H252v2.4h-5.63v12.2c0,2.13,1,3,2.7,3H252V298h-3.6C245.49,298,243.52,296.53,243.52,293.13Z"/><path d="M255.28,294.4h3.07V298h-3.07Z"/><rect class="cls-2" x="29.5" width="1" height="360"/></g></g></svg>