<svg xml:space="preserve" style="enable-background:new 0 0 360 361.4;" viewBox="0 0 360 361.4" y="0px" x="0px" id="Layer_1" version="1.1" xmlns:xlink="http://www.w3.org/1999/xlink" xmlns="http://www.w3.org/2000/svg">
<style type="text/css">
	.st0{fill:#EDEDED;}
	.st1{fill:#FFFFFF;stroke:#000000;stroke-miterlimit:10;}
	.st2{fill:#CBCBCB;}
	.st3{fill:#EF3529;}
</style>
<g id="Lager_2">
	<g id="Lager_1-2">
		<rect height="360" width="360" class="st0" y="1.4"></rect>
		<path d="M125.9,155.1l-13,9.7c-5.2-4.2-11.7-6.4-18.4-6.3c-4.5,0-8.9,1.3-9.7,4.5c-0.8,3.2,2.2,5.5,7.1,6.7    c5.6,1.5,10.7,2.8,18.5,5.1c11.6,3.3,19.6,8.4,19.6,20c0,16.1-14.3,24.5-33.4,24.5s-32.2-10-36.1-14.6l13.7-10.2    c9.6,8.4,16.3,9.6,21.9,9.6c6.4,0,12.4-1.4,13.2-5c0.6-2.9-1.8-5.2-7.3-6.5c-6.2-1.4-11.4-2.6-17.2-4.1    c-15.8-4.1-20.2-13.4-20.2-21.6c0-11.4,10.6-23,29.9-23C106,143.5,117.2,147.6,125.9,155.1 M208,144.7h-56.8v73.5h60.1v-16.7    h-40.1v-13.4H198v-16.7h-26.7v-10H208L208,144.7z M137.8,234.9h3.3V128h-3.3V234.9z M218,234.9h3.3V128H218V234.9z M231.4,218.2    h47.2c12.6,0,22.9-7.6,22.9-19.8c0-9.5-6.2-15.8-14.9-18.6c-0.3,0-0.6,0-0.8,0c0.3,0,0.6-0.1,0.8-0.2c6.6-2.7,10.8-9.1,10.5-16.2    c0-11.4-10.1-18.6-22.5-18.6h-43.2L231.4,218.2z M251.4,158h17.1c3.7,0,6.7,3,6.7,6.7s-3,6.7-6.7,6.7h-17.1V158z M271.4,201.5h-20    v-13.4h20c3.7,0,6.7,3,6.7,6.7C278.1,198.5,275.1,201.5,271.4,201.5z" class="st1"></path>
		<rect height="1" width="1" class="st2" y="0" x="89.5"></rect>
		
			<rect height="1" width="506.3" class="st3" transform="matrix(0.7071 -0.7071 0.7071 0.7071 -75.5482 180.4174)" y="180.9" x="-73.1"></rect>
		
			<rect height="506.3" width="1" class="st3" transform="matrix(0.7071 -0.7071 0.7071 0.7071 -75.5503 180.4124)" y="-71.7" x="179.5"></rect>
	</g>
</g>
</svg>