<svg xmlns="http://www.w3.org/2000/svg" viewBox="0 0 360 360"><defs><style>.cls-1{fill:#ededed;}</style></defs><title>t-do-1</title><g id="Lager_2" data-name="Lager 2"><g id="Lager_1-2" data-name="Lager 1"><rect class="cls-1" width="360" height="360"/><path d="M30.43,51.6l5.07-2a6.14,6.14,0,0,0,5.9,4.07c2.77,0,5-1.37,5-3.8,0-2.2-1.73-3.1-3.37-3.4l-3.83-.7c-3.8-.7-8.24-2.53-8.24-7.8v-.3c0-4.57,3.93-8.07,9.8-8.07a11.32,11.32,0,0,1,10.54,6.3l-5.07,2a6.08,6.08,0,0,0-5.57-3.57c-2.67,0-4.2,1.53-4.2,3.5s1.5,2.9,3.83,3.33l3.83.7c3.63.67,7.77,2.4,7.77,7.4v.27c0,5.3-4.57,8.87-10.5,8.87C36.74,58.4,32.4,56.23,30.43,51.6Z"/><path d="M60.88,35.13V41.2h9.74V46H60.88v6.9H72.62V58H55.38V30H72.62v5.13Z"/><path d="M97.06,49.56v.27c0,5.2-4.37,8.17-9.67,8.17H76.69V30H87c5.23,0,9.07,2.83,9.07,7.77V38a6.14,6.14,0,0,1-2.77,5.33A6.49,6.49,0,0,1,97.06,49.56ZM82.19,34.76V41.4h4.43c2.67,0,4.27-1.23,4.27-3.33s-1.6-3.3-4.27-3.3ZM91.56,49.5c0-2.37-1.7-3.7-4.5-3.7H82.19v7.44h4.87C89.86,53.23,91.56,51.9,91.56,49.5Z"/><path d="M106.75,51.6l5.07-2a6.14,6.14,0,0,0,5.9,4.07c2.77,0,5-1.37,5-3.8,0-2.2-1.73-3.1-3.37-3.4l-3.83-.7c-3.8-.7-8.23-2.53-8.23-7.8v-.3c0-4.57,3.93-8.07,9.8-8.07a11.32,11.32,0,0,1,10.54,6.3l-5.07,2A6.08,6.08,0,0,0,117,34.33c-2.67,0-4.2,1.53-4.2,3.5s1.5,2.9,3.83,3.33l3.83.7c3.63.67,7.77,2.4,7.77,7.4v.27c0,5.3-4.57,8.87-10.5,8.87C113.05,58.4,108.72,56.23,106.75,51.6Z"/><path d="M130.39,52.56V52.3c0-3.27,2.3-6.37,7.74-6.37h5v-.6c0-2.4-1.3-3.7-3.53-3.7a3.77,3.77,0,0,0-3.83,2.57L131,43.33c1.6-4.3,5.17-5.73,8.83-5.73,5.23,0,8.24,2.9,8.24,7.53V58h-4.77V55.8a8.39,8.39,0,0,1-6.24,2.6C132.92,58.4,130.39,55.9,130.39,52.56Zm12.7-2.77v-.57h-4.33c-2.23,0-3.23,1-3.23,2.53s1.17,2.6,3,2.6A4.31,4.31,0,0,0,143.09,49.8Z"/><path d="M152.38,38h4.77v2.2a6.41,6.41,0,0,1,5.43-2.6c4.33,0,7.07,2.93,7.07,7.37V58h-5.13V46.2c0-2.7-1.23-4.2-3.33-4.2-2.27,0-3.67,1.87-3.67,4.53V58h-5.13Z"/><path d="M172.26,53.1l4.4-1.73a4.62,4.62,0,0,0,4.53,3c2.07,0,3.2-.9,3.2-2.23s-1.1-1.83-2.53-2.1l-3-.53c-4.43-.83-6.2-2.83-6.2-5.5,0-3.3,2.57-6.4,7.94-6.4a9.42,9.42,0,0,1,8.57,4.6L184.8,44a4.23,4.23,0,0,0-4-2.33c-2,0-3,.9-3,2.1,0,1,.87,1.6,2.4,1.9l3,.53c4.43.87,6.37,2.73,6.37,5.67,0,3.5-2.7,6.57-8.1,6.57A9.7,9.7,0,0,1,172.26,53.1Z"/><path d="M48.44,89.8H37.17L34.43,98h-3L41,70h3.73l9.57,28H51.17Zm-.9-2.6L44.14,77c-.43-1.33-.9-2.73-1.33-4.57-.43,1.83-.9,3.23-1.33,4.57l-3.4,10.2Z"/><path d="M56.72,92.86V92.6c0-3.3,2.43-6.07,7.4-6.07h5.77v-1.6c0-3.2-1.77-5.07-4.8-5.07a5.33,5.33,0,0,0-5.2,3.53l-2.57-.53a7.9,7.9,0,0,1,7.9-5.27c4.67,0,7.37,2.77,7.37,7.17V98H70V94.8a7.85,7.85,0,0,1-6.8,3.6C59.42,98.4,56.72,96.2,56.72,92.86ZM69.89,90.2V88.4H64.46c-3.27,0-4.93,1.73-4.93,4s1.8,3.77,4.33,3.77A5.84,5.84,0,0,0,69.89,90.2Z"/><path d="M96.35,90v.27c0,4.93-4,7.7-8.87,7.7H78.11V70H87c4.63,0,8.37,2.63,8.37,7.3v.27a6.19,6.19,0,0,1-3.8,5.87A6.66,6.66,0,0,1,96.35,90ZM81.11,72.59v9.8h5.7c3.17,0,5.67-1.7,5.67-4.9s-2.5-4.9-5.67-4.9ZM93.35,90.1c0-3.43-2.57-5.3-6-5.3H81.11V95.4h6.24C90.78,95.4,93.35,93.53,93.35,90.1Z"/><path d="M102.89,94.33V98h-2.57V70h2.8V81.53a6.76,6.76,0,0,1,6.33-3.93c4.33,0,8.24,3.3,8.24,10v.8c0,6.7-3.87,10-8.3,10A6.9,6.9,0,0,1,102.89,94.33Zm12-6.23v-.2c0-5.17-2.63-7.9-6-7.9s-5.9,2.73-5.9,7.9v.2c0,5.13,2.6,7.9,5.9,7.9S114.9,93.23,114.9,88.1Z"/><path d="M120.62,84.3v-.6c0-9,4.93-14.1,11-14.1,4.1,0,7.64,2.27,9.44,6.83l-2.83.83c-1.37-3.33-3.83-4.87-6.6-4.87-4.57,0-8,4-8,11.4v.4c0,7.44,3.47,11.4,8,11.4,2.77,0,5.23-1.53,6.6-4.87l2.83.83c-1.77,4.57-5.33,6.83-9.44,6.83C125.55,98.4,120.62,93.33,120.62,84.3Z"/><path d="M143.36,88.2v-.4c0-6.57,3.93-10.2,8.64-10.2a8.08,8.08,0,0,1,7.83,5.9l-2.6.53A5.58,5.58,0,0,0,152,80c-3.17,0-5.83,2.7-5.83,7.9v.2c0,5.2,2.67,7.9,5.83,7.9a5.58,5.58,0,0,0,5.23-4l2.6.53A8,8,0,0,1,152,98.4C147.3,98.4,143.36,94.8,143.36,88.2Z"/><path d="M184,83.7v.6c0,9.2-5,13.7-12.34,13.7h-8V70h8C179,70,184,74.49,184,83.7Zm-3,.1c0-7.6-3.63-11-9.33-11h-5V95.2h5c5.7,0,9.33-3.4,9.33-11Z"/><path d="M186.83,88.4v-.8c0-6.7,3.9-10,8.24-10a6.76,6.76,0,0,1,6.33,3.93V70h2.8V98h-2.57V94.33a6.9,6.9,0,0,1-6.5,4.07C190.7,98.4,186.83,95.1,186.83,88.4Zm14.67-.3v-.2c0-5.17-2.6-7.9-5.9-7.9s-6,2.73-6,7.9v.2c0,5.13,2.63,7.9,6,7.9S201.5,93.23,201.5,88.1Z"/><path d="M212.76,72.79v9.5h10.5v2.6h-10.5V95.2h12.5V98h-15.5V70h15.5v2.8Z"/><path d="M236.18,98.6c-5,0-9-3.73-9-10.4v-.4c0-6.67,3.93-10.4,8.84-10.4s8.83,3.73,8.83,10.37v.77H229.88c.07,4.73,2.63,7.67,6.37,7.67a5.71,5.71,0,0,0,5.4-3.47l2.67.53A8.5,8.5,0,0,1,236.18,98.6ZM242,86.66c-.27-4.6-2.9-7-6-7s-5.77,2.43-6,7Z"/><path d="M36.9,112.79v9.8H47.4v2.8H36.9V138h-3V110H49.4v2.8Z"/><path d="M53.71,120.4H49.84V118h4v-2.83c0-3.8,2.47-5.17,5.13-5.17h2.7v2.4h-2.3c-1.77,0-2.93.8-2.93,3.07V118h5.23v2.4H56.51V138h-2.8Z"/><path d="M64.05,124.3v-.6c0-9,5-14.1,11.67-14.1a9.94,9.94,0,0,1,9.47,6l-2.9.83a7.13,7.13,0,0,0-6.6-4c-5,0-8.63,3.93-8.63,11.4v.4c0,7.54,3.67,11.4,8.5,11.4,4.4,0,7.37-3.1,7.37-7.8v-2.23h-8v-2.4H85.73V138h-2.6v-4.13a8.31,8.31,0,0,1-7.83,4.53C69.19,138.4,64.05,133.46,64.05,124.3Z"/><path d="M89.06,140.93a5.23,5.23,0,0,1,3.07-4.77,3.66,3.66,0,0,1-1.8-3.2,3.89,3.89,0,0,1,2.93-3.73,5.91,5.91,0,0,1-2.77-5.07c0-3.8,3.07-6.63,7.13-6.63a8,8,0,0,1,2.73.47h6.07v2.23h-3.33a5.3,5.3,0,0,1,1.67,3.93c0,3.8-3,6.67-7.1,6.67H95.19c-1.63,0-2.43.83-2.43,2s.8,2,2.4,2H101c3.63,0,6.13,2.53,6.13,5.7,0,3.33-2.73,6.07-6.9,6.07H95.72C91.56,146.6,89.06,144,89.06,140.93Zm10.84,3.47c2.87,0,4.6-1.63,4.6-3.77s-1.57-3.6-4-3.6H95.69a3.73,3.73,0,0,0-4,3.63c0,2.07,1.63,3.73,4.5,3.73Zm2.37-20.2a4.64,4.64,0,1,0-4.63,4.53A4.52,4.52,0,0,0,102.26,124.2Z"/><path d="M128.53,110v28h-3V125h-12v13h-3V110h3v12.2h12V110Z"/><path d="M149.57,125v13h-2.8V125.6c0-3.5-1.87-5.57-4.67-5.57-3.1,0-5.2,2.53-5.2,5.9V138h-2.8V110h2.8v10.87a6.52,6.52,0,0,1,5.87-3.27C146.87,117.6,149.57,120.46,149.57,125Z"/><path d="M154.91,110h3v28h-3Z"/><path d="M163.37,111.19h3.07v3.2h-3.07Zm.13,6.8h2.8v20h-2.8Z"/><path d="M169.35,132.43l2.8-.77c1,2.83,2.83,3.93,4.93,3.93,2.43,0,4.77-1.3,4.77-6.13V110h3v19.67c0,6.44-3.7,8.74-7.7,8.74C173.48,138.4,170.61,136.37,169.35,132.43Z"/><path d="M187.93,146v-2.4h.77c1.13,0,1.63-.43,1.63-2V118h2.8v24.14c0,2.73-1.5,3.87-3.6,3.87Zm2.27-34.81h3.07v3.2H190.2Z"/><path d="M198.73,110h3v13.44c.7-1.07,1.47-2.1,2.17-3L212,110h3.4l-9.2,11.77L218.17,138h-3.6l-10.4-14.07-2.43,3V138h-3Z"/><path d="M221.52,110h2.8v17.3l8.94-9.3h3.43l-8,8.3,8.6,11.7H234l-7.27-9.9-2.5,2.53V138h-2.7Z"/><path d="M47.8,175.2V178H33.9V150h3V175.2Z"/><path d="M50.95,173.66V150h2.8v23.17c0,1.77.7,2.43,2,2.43h1V178h-1.7C52.62,178,50.95,176.73,50.95,173.66Z"/><path d="M84.39,178h-3V154.66c-.73,1.4-1.73,3-2.9,4.93l-6.17,10.2-6.2-10.2c-1.17-1.9-2.17-3.57-2.9-5V178H60.39V150h3.23l8.8,14.5,8.8-14.5h3.17Z"/><path d="M90,158h2.6v3.2a6.37,6.37,0,0,1,5.8-3.6,5.65,5.65,0,0,1,5.54,3.93,6.45,6.45,0,0,1,6-3.93c3.87,0,6.57,2.87,6.57,7.37v13h-2.8V165.5c0-3.4-1.7-5.5-4.27-5.5-2.9,0-4.77,2.57-4.77,5.93V178h-2.8V165.5c0-3.4-1.67-5.5-4.27-5.5-2.87,0-4.77,2.57-4.77,5.93V178H90Z"/><path d="M142.83,150v28H139.6l-14.94-23.21V178h-2.83V150h3.23L140,173.2V150Z"/><path d="M148.4,158H151v3.2a6.54,6.54,0,0,1,6.07-3.6c4.1,0,6.8,2.87,6.8,7.37v13h-2.8V165.6c0-3.5-1.87-5.6-4.67-5.6-3.1,0-5.2,2.57-5.2,5.93V178h-2.8Z"/><path d="M167.6,164.3v-.6c0-9.2,5-14.3,11.34-14.3s11.34,5.1,11.34,14.3v.6c0,9.2-5,14.3-11.34,14.3S167.6,173.5,167.6,164.3Zm19.67-.1v-.4c0-7.6-3.63-11.6-8.33-11.6s-8.33,4-8.33,11.6v.4c0,7.6,3.63,11.6,8.33,11.6S187.27,171.8,187.27,164.2Z"/><path d="M193.13,168.2v-.4c0-6.67,3.93-10.4,8.84-10.4s8.83,3.73,8.83,10.4v.4c0,6.67-3.93,10.4-8.83,10.4S193.13,174.87,193.13,168.2Zm14.87-.1v-.2c0-5.27-2.67-8.1-6-8.1s-6,2.83-6,8.1v.2c0,5.27,2.67,8.1,6,8.1S208,173.37,208,168.1Z"/><path d="M232.64,157.69V158c0,5-3.5,7.73-8.57,7.73h-5.73V178h-3V150h8.74C229.14,150,232.64,152.76,232.64,157.69Zm-3,.13c0-3.43-2.27-5.23-5.67-5.23h-5.6v10.5h5.6C227.34,163.1,229.61,161.26,229.61,157.83Z"/><path d="M236,158h2.57v3.67a6.9,6.9,0,0,1,6.5-4.07c4.43,0,8.3,3.3,8.3,10v.8c0,6.7-3.9,10-8.24,10a6.76,6.76,0,0,1-6.33-3.93V186H236Zm14.57,10.1v-.2c0-5.13-2.63-7.9-6-7.9s-5.9,2.77-5.9,7.9v.2c0,5.17,2.6,7.9,5.9,7.9S250.62,173.27,250.62,168.1Z"/><path d="M54.24,204.3c0,4.73-1.33,8.4-3.47,10.8l3.37,4.9H50.87l-2.13-3.13a10.43,10.43,0,0,1-5.83,1.73c-6.33,0-11.34-5.1-11.34-14.3v-.6c0-9.2,5-14.3,11.34-14.3s11.33,5.1,11.33,14.3Zm-3-.5c0-7.6-3.63-11.6-8.33-11.6s-8.33,4-8.33,11.6v.4c0,7.6,3.63,11.6,8.33,11.6a7.05,7.05,0,0,0,4.2-1.3L41.3,206h3.17L49,212.6a14.58,14.58,0,0,0,2.2-8.4Z"/><path d="M71.84,214.47a6.76,6.76,0,0,1-6.33,3.93c-4.33,0-8.24-3.3-8.24-10v-.8c0-6.7,3.9-10,8.27-10a7,7,0,0,1,6.53,4.2V198h2.57v28h-2.8Zm.1-6.37v-.2c0-5.13-2.6-7.9-5.9-7.9s-6,2.77-6,7.9v.2c0,5.17,2.63,7.9,6,7.9S71.94,213.27,71.94,208.1Z"/><path d="M86,204.83H83.2V218h-3V190h9.44c4.57,0,8,2.67,8,7.37v.2c0,4.67-3.47,7.27-8,7.27H89.5L99.67,218h-3.6Zm-2.77-2.4h6.27c3.07,0,5.17-1.8,5.17-4.93s-2.1-4.87-5.17-4.87H83.2Z"/><path d="M103.2,198h2.6v4.8a8,8,0,0,1,7.57-5v2.8c-4.53,0-7.37,3.4-7.37,8.2V218h-2.8Z"/><path d="M115.27,212.4l2.73-1.13a7.94,7.94,0,0,0,7.5,4.53c4,0,6.87-2.1,6.87-5.53,0-3.23-2.6-4.5-5-5l-3.83-.7c-3.87-.7-7.67-2.47-7.67-7.27v-.27c0-4.57,4-7.6,9.24-7.6a10.73,10.73,0,0,1,9.8,5.77l-2.73,1.13a7.89,7.89,0,0,0-7.17-4.3c-3.47,0-6.2,2-6.2,5.2,0,3.07,2.4,4.27,5.33,4.83l3.83.7c3.73.67,7.4,2.5,7.4,7.07v.27c0,5-4.1,8.27-9.87,8.27C121,218.4,117.23,216.43,115.27,212.4Z"/><path d="M137.49,213.27l2.4-1a5.88,5.88,0,0,0,5.8,3.87c2.73,0,4.7-1.3,4.7-3.57s-1.8-3-4.17-3.47l-2.57-.47c-3.23-.6-5.67-2.07-5.67-5.17,0-3.27,2.6-5.87,7.13-5.87A8.41,8.41,0,0,1,152.9,202l-2.37,1a5.65,5.65,0,0,0-5.3-3.17c-2.63,0-4.47,1.37-4.47,3.47,0,1.93,1.57,2.77,3.6,3.13l2.53.47c3.8.7,6.27,2.23,6.27,5.47,0,3.47-2.8,6-7.4,6A8.52,8.52,0,0,1,137.49,213.27Z"/><path d="M170.94,192.79h-8V218h-3V192.79H152V190h18.9Z"/><path d="M175.08,213.13V200.4h-3.37V198h3.47v-6h2.6v6h5.73v2.4h-5.63v12.2c0,2.13,1,3,2.7,3h2.93V218h-3.6C177,218,175.08,216.53,175.08,213.13Z"/><path d="M186.87,209.1V190h3v18.77c0,5.07,2.83,7,6.5,7,3.37,0,6.5-2,6.5-7V190h3v19.1c0,6.43-4.4,9.5-9.5,9.5C191,218.6,186.87,215.53,186.87,209.1Z"/><path d="M226.34,218h-2.6v-3.2a6.54,6.54,0,0,1-6.07,3.6c-4.1,0-6.8-2.87-6.8-7.37V198h2.8v12.4c0,3.5,1.87,5.57,4.67,5.57,3.1,0,5.2-2.53,5.2-5.9V198h2.8Z"/><path d="M31.6,230h3.2l6.87,20.07c.43,1.33.9,2.77,1.33,4.6.43-1.83.9-3.27,1.33-4.6L51.2,230h3l-9.8,28h-3Z"/><path d="M55.51,238h3.1l4.67,13a40.84,40.84,0,0,1,1.33,4,40.61,40.61,0,0,1,1.33-4l4.67-13h2.9l-7.6,20h-2.8Z"/><path d="M106.39,230l-6.3,28H97.22l-4.63-17.07c-.6-2.27-1.1-4.2-1.5-6.23-.4,2-.9,4-1.5,6.23L85,258h-2.9l-6.3-28h3.1l3.77,16.9c.47,2.27.87,4.13,1.17,6.13.43-2,.87-3.87,1.47-6.13L89.85,230h2.63L97,246.9c.6,2.23,1.07,4.17,1.47,6.13.33-2,.7-3.9,1.2-6.13l3.73-16.9Z"/><path d="M108.72,238h3.07l3.7,12.2c.37,1.17.7,2.3,1.13,4.07.5-1.77.83-2.87,1.23-4.07l3.87-12.2h2.6l3.93,12.2c.37,1.2.73,2.37,1.23,4.07.43-1.7.8-2.87,1.17-4.07l3.8-12.2h2.87l-6.57,20h-2.6L124,245c-.33-1-.67-2.17-1-3.57-.33,1.4-.7,2.57-1,3.57l-4.13,13h-2.6Z"/><path d="M146.43,243.2,138,230h3.43l4.37,6.9c1,1.67,1.87,3.07,2.43,4.13.6-1.07,1.43-2.43,2.5-4.13l4.37-6.9h3.23L150,243l9.54,15H156.1l-5.54-8.74c-1-1.67-1.87-3.07-2.43-4.1-.6,1-1.43,2.43-2.5,4.1L140.1,258h-3.23Z"/><path d="M176.67,258l-3-4.4c-.87-1.33-1.73-2.6-2.57-4.07-.87,1.47-1.73,2.77-2.63,4.07l-3,4.4h-3.13l7.24-10.34L162.94,238h3.33l3,4.4c.7,1.07,1.33,2.1,2,3.27.67-1.17,1.3-2.23,2-3.27l3-4.4h3.13l-6.63,9.54L180,258Z"/><path d="M189.3,245.66l-9-15.67h3.4l5.07,9q1.3,2.35,2.1,4.2c.57-1.27,1.27-2.6,2.17-4.2l5.07-9h3.2l-9,15.67V258h-3Z"/><path d="M203.83,263.57h1.5c1.87,0,2.77-.87,3.6-3.13l1.23-3.3L201.83,238h3.1l4.83,11.54c.57,1.4,1.2,2.8,1.83,4.53.5-1.77.93-3.23,1.43-4.63l3.9-11.44h2.9l-8.47,23.44c-1.1,3-2.9,4.57-5.77,4.57h-1.77Z"/><path d="M219.57,255.37l11.9-18.17c1.13-1.7,2.2-3.2,3.1-4.4H219.91V230H238v2.63l-11.9,18.17c-1.13,1.7-2.2,3.2-3.1,4.4h15.34V258h-18.8Z"/><path d="M241.29,255.8l11.47-15.4H241.29V238h14.94v2.2l-11.47,15.4h11.47V258H241.29Z"/></g></g></svg>