<svg xml:space="preserve" style="enable-background:new 0 0 566.9 566.9;" viewBox="0 0 566.9 566.9" y="0px" x="0px" id="Layer_1" version="1.0" xmlns:xlink="http://www.w3.org/1999/xlink" xmlns="http://www.w3.org/2000/svg">
<style type="text/css">
	.st0{fill:#EFF0F0;}
	.st1{fill:#003824;}
	.st2{fill:none;stroke:#FF0202;stroke-width:2;stroke-miterlimit:10;}
</style>
<rect height="566.9" width="566.9" class="st0" y="0"></rect>
<g>
	<path d="M110,274H71.3v43.7H58.1v-96.8h13.1v40.9H110v-40.9h13.1v96.8H110V274z" class="st1"></path>
	<path d="M165.7,319.7c-17.7,0-32.1-13-32.1-36.1v-1.2c0-23,14.1-36.1,31.5-36.1c17.3,0,31.5,13,31.5,36.1v3.2h-50.9   c0.2,14.5,8.8,23.5,20.5,23.5c7.1,0,13.7-3.5,17.2-10.6l11.5,2.2C189.6,313.1,178.3,319.7,165.7,319.7z M184.1,277.6   c-0.9-14.2-9.4-21.5-19.1-21.5c-9.8,0-18.2,7.4-19.1,21.5H184.1z" class="st1"></path>
	<path d="M200.2,299.5v-0.9c0-11.3,8.2-21.3,25.8-21.3h19.1v-4.5c0-10.1-5.6-16-15.2-16c-7.7,0-13.5,3.9-16.5,11.2   l-11.3-2.2c5.2-13.4,16.1-18.7,28.3-18.7c16.8,0,26.4,9.7,26.4,25.2v45.3h-11.4v-9.9c-4.4,6.1-11.9,11.3-22.8,11.3   C209.3,319,200.2,311.1,200.2,299.5z M225.9,309.3c10.9,0,19.2-7.8,19.2-19v-5h-17.6c-10,0-15.1,5.2-15.1,12.2   C212.4,304.8,217.8,309.3,225.9,309.3z" class="st1"></path>
	<path d="M264.3,284.8v-3.5c0-22.9,13.7-34.2,28.8-34.2c9.8,0,17.1,5,20.9,11.9v-38.1h12.2v96.8h-11.3v-10.8   c-3.8,7-11.2,12.2-21.5,12.2C278,319,264.3,307.7,264.3,284.8z M295.5,308.5c10.6,0,18.9-8.8,18.9-25.1v-0.7   c0-16.5-8.3-25.1-18.9-25.1c-10.6,0-19,8.6-19,25.1v0.7C276.5,299.8,284.9,308.5,295.5,308.5z" class="st1"></path>
	<path d="M337.3,301.7v-80.9h12.3v78.6c0,5.5,2.2,7.7,6.3,7.7h3.7v10.5h-6.8C343.5,317.6,337.3,312.7,337.3,301.7z" class="st1"></path>
	<path d="M364.4,223.8h12.9v13.4h-12.9V223.8z M364.7,248.5h12.2v69.1h-12.2V248.5z" class="st1"></path>
	<path d="M388,248.5h11.3v9.9c4.4-7.7,12.1-11.3,20.3-11.3c14.4,0,23.7,10,23.7,25.5v45.1h-12.2v-42.2   c0-11.2-5.8-17.9-14.7-17.9c-9.7,0-16.1,8.2-16.1,19v41H388V248.5z" class="st1"></path>
	<path d="M482.1,319.7c-17.7,0-32.1-13-32.1-36.1v-1.2c0-23,14.1-36.1,31.5-36.1c17.3,0,31.5,13,31.5,36.1v3.2h-50.9   c0.2,14.5,8.8,23.5,20.5,23.5c7.1,0,13.7-3.5,17.2-10.6l11.5,2.2C506.1,313.1,494.8,319.7,482.1,319.7z M500.5,277.6   c-0.9-14.2-9.4-21.5-19.1-21.5c-9.8,0-18.2,7.4-19.1,21.5H500.5z" class="st1"></path>
</g>
<line y2="79.9" x2="487" y1="487" x1="79.9" class="st2"></line>
<line y2="487" x2="487" y1="79.9" x1="79.9" class="st2"></line>
</svg>