<svg viewBox="0 0 360 361.4" version="1.1" id="Layer_1" xmlns="http://www.w3.org/2000/svg">
  
  <defs>
    <style>
      .st0 {
        fill: #00613e;
      }

      .st1 {
        fill: #cbcbcb;
      }

      .st2 {
        fill: #ededed;
      }

      .st3 {
        fill: #ef3529;
      }
    </style>
  </defs>
  <g id="Lager_2">
    <g id="Lager_1-2">
      <rect height="360" width="360" y="1.4" class="st2"></rect>
      <path d="M125.9,155.1l-13,9.7c-5.2-4.2-11.7-6.4-18.4-6.3-4.5,0-8.9,1.3-9.7,4.5-.8,3.2,2.2,5.5,7.1,6.7,5.6,1.5,10.7,2.8,18.5,5.1,11.6,3.3,19.6,8.4,19.6,20s-14.3,24.5-33.4,24.5-32.2-10-36.1-14.6l13.7-10.2c9.6,8.4,16.3,9.6,21.9,9.6s12.4-1.4,13.2-5c.6-2.9-1.8-5.2-7.3-6.5-6.2-1.4-11.4-2.6-17.2-4.1-15.8-4.1-20.2-13.4-20.2-21.6s10.6-23,29.9-23c11.5-.4,22.7,3.7,31.4,11.2M208,144.7h-56.8v73.5h60.1v-16.7h-40.1v-13.4h26.8v-16.7h-26.7v-10h36.7v-16.7ZM137.8,234.9h3.3v-106.9h-3.3v106.9ZM218,234.9h3.3v-106.9h-3.3v106.9ZM231.4,218.2h47.2c12.6,0,22.9-7.6,22.9-19.8s-6.2-15.8-14.9-18.6h-.8c.3,0,.6-.1.8-.2,6.6-2.7,10.8-9.1,10.5-16.2,0-11.4-10.1-18.6-22.5-18.6h-43.2v73.4ZM251.4,158h17.1c3.7,0,6.7,3,6.7,6.7s-3,6.7-6.7,6.7h-17.1v-13.4ZM271.4,201.5h-20v-13.4h20c3.7,0,6.7,3,6.7,6.7s-3,6.7-6.7,6.7Z" class="st0"></path>
      <rect height="1" width="1" y="0" x="89.5" class="st1"></rect>
      <rect transform="translate(-75.5 180.4) rotate(-45)" height="1" width="506.3" y="180.9" x="-73.1" class="st3"></rect>
      <rect transform="translate(-75.6 180.4) rotate(-45)" height="506.3" width="1" y="-71.7" x="179.5" class="st3"></rect>
    </g>
  </g>
</svg>