<svg xml:space="preserve" style="enable-background:new 0 0 195.5 42.6;" viewBox="0 0 195.5 42.6" y="0px" x="0px" id="Layer_1" version="1.1" xmlns:xlink="http://www.w3.org/1999/xlink" xmlns="http://www.w3.org/2000/svg">
<g>
	<path d="M10,1.4L8.1,9.8H6.6L5.5,5.9C5.3,5.2,5.2,4.7,5.1,4C5,4.7,4.9,5.2,4.7,5.9L3.6,9.8H2L0.2,1.4h1.7l0.8,3.9   C2.8,5.9,2.9,6.5,3,7.1c0.1-0.6,0.2-1.2,0.4-1.8l1-3.9h1.4l1,3.9C7,5.9,7.2,6.5,7.3,7.1c0.1-0.6,0.2-1.2,0.3-1.8l0.8-3.9H10z"></path>
	<path d="M12.9,10c-1.6,0-2.9-1.1-2.9-3.1V6.8c0-2,1.3-3.1,2.9-3.1c1.6,0,2.9,1.1,2.9,3.2v0.4h-4.3c0,0.9,0.7,1.5,1.5,1.5   c0.5,0,1-0.2,1.2-0.7l1.4,0.3C15.1,9.4,14,10,12.9,10z M14.2,6.2c-0.1-0.9-0.7-1.3-1.3-1.3s-1.2,0.5-1.3,1.3H14.2z"></path>
	<path d="M21.6,10c-1.6,0-2.9-1.1-2.9-3.1V6.8c0-2,1.3-3.1,2.9-3.1c1.6,0,2.9,1.1,2.9,3.2v0.4h-4.3c0,0.9,0.7,1.5,1.5,1.5   c0.5,0,1-0.2,1.2-0.7l1.4,0.3C23.9,9.4,22.8,10,21.6,10z M22.9,6.2c-0.1-0.9-0.7-1.3-1.3-1.3s-1.2,0.5-1.3,1.3H22.9z"></path>
	<path d="M29,9.8l-0.5-0.7c-0.2-0.4-0.5-0.8-0.8-1.3c-0.3,0.5-0.5,0.9-0.8,1.3l-0.5,0.7h-1.7l2.2-3.1l-2-2.9h1.8l0.5,0.7   c0.2,0.3,0.4,0.6,0.6,1c0.2-0.4,0.4-0.8,0.6-1l0.5-0.7h1.7l-2,2.8l2.2,3.2H29z"></path>
	<path d="M31.5,1.5h1.6v1.6h-1.6V1.5z M31.5,3.8h1.5v6h-1.5V3.8z"></path>
	<path d="M33.8,8.4l1.3-0.5c0.3,0.6,0.7,0.9,1.4,0.9c0.6,0,1-0.3,1-0.7c0-0.4-0.3-0.5-0.8-0.6l-0.9-0.2c-1.3-0.2-1.9-0.8-1.9-1.6   c0-1,0.8-1.9,2.4-1.9c1,0,2,0.4,2.6,1.4l-1.3,0.5c-0.3-0.5-0.7-0.7-1.2-0.7c-0.6,0-0.9,0.3-0.9,0.6c0,0.3,0.2,0.5,0.7,0.6l0.9,0.2   C38.4,6.5,39,7.1,39,8c0,1-0.8,2-2.4,2C35.5,10,34.4,9.6,33.8,8.4z"></path>
	<path d="M40.1,8V5.2h-0.8V3.8h0.9V2h1.4v1.8h1.5v1.3h-1.5v2.6c0,0.5,0.3,0.7,0.7,0.7h0.8v1.3H42C40.9,9.8,40.1,9.2,40.1,8z"></path>
	<path d="M46.8,8V5.2H46V3.8h0.9V2h1.4v1.8h1.5v1.3h-1.5v2.6c0,0.5,0.3,0.7,0.7,0.7h0.8v1.3h-1.2C47.5,9.8,46.8,9.2,46.8,8z"></path>
	<path d="M50.3,6.9V6.8c0-2,1.3-3.1,2.9-3.1c1.6,0,2.9,1.1,2.9,3.1v0.1c0,2-1.3,3.1-2.9,3.1C51.6,10,50.3,8.9,50.3,6.9z M53.2,8.7   c0.7,0,1.3-0.6,1.3-1.8V6.8C54.6,5.6,54,5,53.2,5s-1.3,0.6-1.3,1.8v0.1C51.9,8.1,52.5,8.7,53.2,8.7z"></path>
	<path d="M59.4,3.8h1.4v0.6c0.3-0.4,0.9-0.7,1.7-0.7c1.3,0,2.6,1,2.6,2.9v0.4c0,1.9-1.2,2.9-2.5,2.9c-0.8,0-1.3-0.3-1.6-0.7v3h-1.5   V3.8z M62.3,8.6c0.8,0,1.3-0.6,1.3-1.8V6.8C63.6,5.7,63,5,62.3,5c-0.8,0-1.3,0.6-1.3,1.8v0.1C60.9,8,61.5,8.6,62.3,8.6z"></path>
	<path d="M65.7,6.9V6.8c0-2,1.3-3.1,2.9-3.1c1.6,0,2.9,1.1,2.9,3.1v0.1c0,2-1.3,3.1-2.9,3.1C67,10,65.7,8.9,65.7,6.9z M68.6,8.7   c0.7,0,1.3-0.6,1.3-1.8V6.8C70,5.6,69.4,5,68.6,5s-1.3,0.6-1.3,1.8v0.1C67.3,8.1,67.9,8.7,68.6,8.7z"></path>
	<path d="M72,8.4l1.3-0.5c0.3,0.6,0.7,0.9,1.4,0.9c0.6,0,1-0.3,1-0.7c0-0.4-0.3-0.5-0.8-0.6l-0.9-0.2c-1.3-0.2-1.9-0.8-1.9-1.6   c0-1,0.8-1.9,2.4-1.9c1,0,2,0.4,2.6,1.4l-1.3,0.5c-0.3-0.5-0.7-0.7-1.2-0.7c-0.6,0-0.9,0.3-0.9,0.6c0,0.3,0.2,0.5,0.7,0.6l0.9,0.2   c1.3,0.3,1.9,0.8,1.9,1.7c0,1-0.8,2-2.4,2C73.6,10,72.6,9.6,72,8.4z"></path>
	<path d="M77.9,1.5h1.6v1.6h-1.6V1.5z M77.9,3.8h1.5v6h-1.5V3.8z"></path>
	<path d="M81.1,8V5.2h-0.8V3.8h0.9V2h1.4v1.8h1.5v1.3h-1.5v2.6c0,0.5,0.3,0.7,0.7,0.7h0.8v1.3h-1.2C81.8,9.8,81.1,9.2,81.1,8z"></path>
	<path d="M84.9,1.5h1.6v1.6h-1.6V1.5z M84.9,3.8h1.5v6h-1.5V3.8z"></path>
	<path d="M87.1,3.8h1.7l1,3.1c0.1,0.3,0.2,0.7,0.3,1.2c0.1-0.5,0.2-0.9,0.3-1.2l1-3.1h1.6l-2.2,6h-1.5L87.1,3.8z"></path>
	<path d="M96.3,10c-1.6,0-2.9-1.1-2.9-3.1V6.8c0-2,1.3-3.1,2.9-3.1c1.6,0,2.9,1.1,2.9,3.2v0.4h-4.3c0,0.9,0.7,1.5,1.5,1.5   c0.5,0,1-0.2,1.2-0.7l1.4,0.3C98.6,9.4,97.5,10,96.3,10z M97.6,6.2c-0.1-0.9-0.7-1.3-1.3-1.3c-0.7,0-1.2,0.5-1.3,1.3H97.6z"></path>
	<path d="M100,8.3V1.4h1.5V8c0,0.4,0.2,0.5,0.4,0.5h0.3v1.3h-0.7C100.6,9.8,100,9.3,100,8.3z"></path>
	<path d="M103.2,10.9h0.6c0.4,0,0.7-0.1,0.9-0.7l0.1-0.3l-2.4-6.1h1.7l1.1,3.2c0.1,0.3,0.2,0.7,0.4,1.2c0.1-0.5,0.2-0.9,0.3-1.2   l0.9-3.1h1.6l-2.3,6.9c-0.3,1-1,1.5-2,1.5h-0.7V10.9z"></path>
	<path d="M111,8.4l1.3-0.5c0.3,0.6,0.7,0.9,1.4,0.9c0.6,0,1-0.3,1-0.7c0-0.4-0.3-0.5-0.8-0.6L113,7.3c-1.3-0.2-1.9-0.8-1.9-1.6   c0-1,0.8-1.9,2.4-1.9c1,0,2,0.4,2.6,1.4l-1.3,0.5c-0.3-0.5-0.7-0.7-1.2-0.7c-0.6,0-0.9,0.3-0.9,0.6c0,0.3,0.2,0.5,0.7,0.6l0.9,0.2   c1.3,0.3,1.9,0.8,1.9,1.7c0,1-0.8,2-2.4,2C112.7,10,111.6,9.6,111,8.4z"></path>
	<path d="M122.2,5.9v3.9h-1.5V6.3c0-0.8-0.4-1.3-1-1.3c-0.7,0-1.1,0.6-1.1,1.4v3.4H117V1.4h1.5v2.9c0.4-0.4,0.9-0.6,1.5-0.6   C121.3,3.7,122.2,4.6,122.2,5.9z"></path>
	<path d="M123.1,8.2L123.1,8.2c0-1.1,0.7-2,2.3-2h1.5V6c0-0.7-0.4-1.1-1.1-1.1c-0.6,0-1,0.3-1.1,0.8l-1.4-0.3   c0.5-1.3,1.5-1.7,2.6-1.7c1.6,0,2.5,0.9,2.5,2.3v3.9H127V9.2c-0.4,0.4-1,0.8-1.9,0.8C123.9,10,123.1,9.2,123.1,8.2z M125.5,8.7   c0.8,0,1.4-0.5,1.4-1.4V7.2h-1.3c-0.7,0-1,0.3-1,0.8C124.6,8.4,125,8.7,125.5,8.7z"></path>
	<path d="M129.7,3.8h1.4v0.6c0.3-0.4,0.9-0.7,1.7-0.7c1.3,0,2.6,1,2.6,2.9v0.4c0,1.9-1.2,2.9-2.5,2.9c-0.8,0-1.3-0.3-1.6-0.7v3h-1.5   V3.8z M132.5,8.6c0.8,0,1.3-0.6,1.3-1.8V6.8c0-1.1-0.6-1.8-1.3-1.8c-0.8,0-1.3,0.6-1.3,1.8v0.1C131.2,8,131.8,8.6,132.5,8.6z"></path>
	<path d="M138.9,10c-1.6,0-2.9-1.1-2.9-3.1V6.8c0-2,1.3-3.1,2.9-3.1c1.6,0,2.9,1.1,2.9,3.2v0.4h-4.3c0,0.9,0.7,1.5,1.5,1.5   c0.5,0,1-0.2,1.2-0.7l1.4,0.3C141.2,9.4,140.1,10,138.9,10z M140.2,6.2c-0.1-0.9-0.7-1.3-1.3-1.3c-0.7,0-1.2,0.5-1.3,1.3H140.2z"></path>
	<path d="M145.5,8V5.2h-0.8V3.8h0.9V2h1.4v1.8h1.5v1.3H147v2.6c0,0.5,0.3,0.7,0.7,0.7h0.8v1.3h-1.2C146.2,9.8,145.5,9.2,145.5,8z"></path>
	<path d="M154.6,5.9v3.9H153V6.3c0-0.8-0.4-1.3-1-1.3c-0.7,0-1.1,0.6-1.1,1.4v3.4h-1.5V1.4h1.5v2.9c0.4-0.4,0.9-0.6,1.5-0.6   C153.7,3.7,154.6,4.6,154.6,5.9z"></path>
	<path d="M158.3,10c-1.6,0-2.9-1.1-2.9-3.1V6.8c0-2,1.3-3.1,2.9-3.1c1.6,0,2.9,1.1,2.9,3.2v0.4h-4.3c0,0.9,0.7,1.5,1.5,1.5   c0.5,0,1-0.2,1.2-0.7l1.4,0.3C160.6,9.4,159.5,10,158.3,10z M159.6,6.2c-0.1-0.9-0.7-1.3-1.3-1.3c-0.7,0-1.2,0.5-1.3,1.3H159.6z"></path>
	<path d="M165,5.2h-1V3.8h1V3.3c0-1.3,0.9-1.8,1.9-1.8h0.9v1.3h-0.7c-0.4,0-0.7,0.2-0.7,0.7v0.4h1.4v1.3h-1.3v4.7H165V5.2z"></path>
	<path d="M173.8,9.8h-1.4V9.2c-0.4,0.6-1,0.8-1.6,0.8c-1.3,0-2.1-0.9-2.1-2.2V3.8h1.5v3.5c0,0.8,0.4,1.3,1,1.3   c0.7,0,1.1-0.6,1.1-1.4V3.8h1.5V9.8z"></path>
	<path d="M175.5,8V5.2h-0.8V3.8h0.9V2h1.4v1.8h1.5v1.3H177v2.6c0,0.5,0.3,0.7,0.7,0.7h0.8v1.3h-1.2C176.2,9.8,175.5,9.2,175.5,8z"></path>
	<path d="M184.4,9.8H183V9.2c-0.4,0.6-1,0.8-1.6,0.8c-1.3,0-2.1-0.9-2.1-2.2V3.8h1.5v3.5c0,0.8,0.4,1.3,1,1.3c0.7,0,1.1-0.6,1.1-1.4   V3.8h1.5V9.8z"></path>
	<path d="M185.8,3.8h1.4v1c0.4-0.7,1.2-1,2.1-1v1.5c-1.3,0-2,0.8-2,2.1v2.5h-1.5V3.8z"></path>
	<path d="M192.7,10c-1.6,0-2.9-1.1-2.9-3.1V6.8c0-2,1.3-3.1,2.9-3.1c1.6,0,2.9,1.1,2.9,3.2v0.4h-4.3c0,0.9,0.7,1.5,1.5,1.5   c0.5,0,1-0.2,1.2-0.7l1.4,0.3C194.9,9.4,193.8,10,192.7,10z M194,6.2c-0.1-0.9-0.7-1.3-1.3-1.3c-0.7,0-1.2,0.5-1.3,1.3H194z"></path>
	<path d="M-0.2,18.2h1.7l0.7,2.6c0.1,0.3,0.2,0.6,0.3,1.3c0.2-0.6,0.3-0.9,0.4-1.2l0.7-2.6h1.4l0.8,2.6c0.1,0.3,0.2,0.6,0.4,1.2   c0.1-0.6,0.2-0.9,0.3-1.2l0.7-2.6h1.6l-2,6H5.5l-0.9-3.1c-0.1-0.2-0.1-0.5-0.2-0.9c-0.1,0.4-0.2,0.7-0.2,0.9l-0.9,3.1H1.8   L-0.2,18.2z"></path>
	<path d="M9.6,15.9h1.6v1.6H9.6V15.9z M9.6,18.2h1.5v6H9.6V18.2z"></path>
	<path d="M12.7,22.4v-2.9h-0.8v-1.3h0.9v-1.8h1.4v1.8h1.5v1.3h-1.5v2.6c0,0.5,0.3,0.7,0.7,0.7h0.8v1.3h-1.2   C13.5,24.2,12.7,23.6,12.7,22.4z"></path>
	<path d="M21.8,20.3v3.9h-1.5v-3.5c0-0.8-0.4-1.3-1-1.3c-0.7,0-1.1,0.6-1.1,1.4v3.4h-1.5v-8.4h1.5v2.9c0.4-0.4,0.9-0.6,1.5-0.6   C21,18.1,21.8,19,21.8,20.3z"></path>
	<path d="M25.4,18.2h1.4v1c0.4-0.7,1.2-1,2.1-1v1.5c-1.3,0-2,0.8-2,2.1v2.5h-1.5V18.2z"></path>
	<path d="M32.3,24.4c-1.6,0-2.9-1.1-2.9-3.1v-0.1c0-2,1.3-3.1,2.9-3.1c1.6,0,2.9,1.1,2.9,3.2v0.4h-4.3c0,0.9,0.7,1.5,1.5,1.5   c0.5,0,1-0.2,1.2-0.7l1.4,0.3C34.6,23.8,33.5,24.4,32.3,24.4z M33.6,20.6c-0.1-0.9-0.7-1.3-1.3-1.3s-1.2,0.5-1.3,1.3H33.6z"></path>
	<path d="M35.6,22.8l1.3-0.5c0.3,0.6,0.7,0.9,1.4,0.9c0.6,0,1-0.3,1-0.7c0-0.4-0.3-0.5-0.8-0.6l-0.9-0.2c-1.3-0.2-1.9-0.8-1.9-1.6   c0-1,0.8-1.9,2.4-1.9c1,0,2,0.4,2.6,1.4L39.3,20c-0.3-0.5-0.7-0.7-1.2-0.7c-0.6,0-0.9,0.3-0.9,0.6c0,0.3,0.2,0.5,0.7,0.6l0.9,0.2   c1.3,0.3,1.9,0.8,1.9,1.7c0,1-0.8,2-2.4,2C37.3,24.4,36.2,24,35.6,22.8z"></path>
	<path d="M41.5,18.2H43v0.6c0.3-0.4,0.9-0.7,1.7-0.7c1.3,0,2.6,1,2.6,2.9v0.4c0,1.9-1.2,2.9-2.5,2.9c-0.8,0-1.3-0.3-1.6-0.7v3h-1.5   V18.2z M44.4,23c0.8,0,1.3-0.6,1.3-1.8v-0.1c0-1.1-0.6-1.8-1.3-1.8c-0.8,0-1.3,0.6-1.3,1.8v0.1C43,22.4,43.6,23,44.4,23z"></path>
	<path d="M47.8,21.3v-0.1c0-2,1.3-3.1,2.9-3.1c1.6,0,2.9,1.1,2.9,3.1v0.1c0,2-1.3,3.1-2.9,3.1C49.1,24.4,47.8,23.3,47.8,21.3z    M50.7,23.1c0.7,0,1.3-0.6,1.3-1.8v-0.1c0-1.2-0.6-1.8-1.3-1.8s-1.3,0.6-1.3,1.8v0.1C49.4,22.5,50,23.1,50.7,23.1z"></path>
	<path d="M54.6,18.2H56v0.7c0.4-0.6,1-0.8,1.6-0.8c1.3,0,2.1,0.9,2.1,2.2v3.9h-1.5v-3.5c0-0.8-0.4-1.3-1-1.3c-0.7,0-1.1,0.6-1.1,1.4   v3.4h-1.5V18.2z"></path>
	<path d="M60.4,22.8l1.3-0.5c0.3,0.6,0.7,0.9,1.4,0.9c0.6,0,1-0.3,1-0.7c0-0.4-0.3-0.5-0.8-0.6l-0.9-0.2c-1.3-0.2-1.9-0.8-1.9-1.6   c0-1,0.8-1.9,2.4-1.9c1,0,2,0.4,2.6,1.4L64.2,20c-0.3-0.5-0.7-0.7-1.2-0.7c-0.6,0-0.9,0.3-0.9,0.6c0,0.3,0.2,0.5,0.7,0.6l0.9,0.2   c1.3,0.3,1.9,0.8,1.9,1.7c0,1-0.8,2-2.4,2C62.1,24.4,61,24,60.4,22.8z"></path>
	<path d="M66.3,15.9h1.6v1.6h-1.6V15.9z M66.3,18.2h1.5v6h-1.5V18.2z"></path>
	<path d="M70.6,23.6v0.6h-1.4v-8.4h1.5v3c0.3-0.4,0.9-0.7,1.6-0.7c1.3,0,2.5,1,2.5,2.9v0.4c0,1.9-1.2,2.9-2.6,2.9   C71.4,24.4,70.9,24,70.6,23.6z M72,23c0.8,0,1.3-0.6,1.3-1.8v-0.1c0-1.2-0.6-1.8-1.3-1.8c-0.8,0-1.3,0.6-1.3,1.8v0.1   C70.6,22.4,71.2,23,72,23z"></path>
	<path d="M75.7,22.7v-6.8h1.5v6.6c0,0.4,0.1,0.5,0.4,0.5H78v1.3h-0.7C76.3,24.2,75.7,23.7,75.7,22.7z"></path>
	<path d="M81.4,24.4c-1.6,0-2.9-1.1-2.9-3.1v-0.1c0-2,1.3-3.1,2.9-3.1c1.6,0,2.9,1.1,2.9,3.2v0.4H80c0,0.9,0.7,1.5,1.5,1.5   c0.5,0,1-0.2,1.2-0.7l1.4,0.3C83.7,23.8,82.6,24.4,81.4,24.4z M82.7,20.6c-0.1-0.9-0.7-1.3-1.3-1.3s-1.2,0.5-1.3,1.3H82.7z"></path>
	<path d="M87.4,22.6L87.4,22.6c0-1.1,0.7-2,2.3-2h1.5v-0.2c0-0.7-0.4-1.1-1.1-1.1c-0.6,0-1,0.3-1.1,0.8l-1.4-0.3   c0.5-1.3,1.5-1.7,2.6-1.7c1.6,0,2.5,0.9,2.5,2.3v3.9h-1.4v-0.7c-0.4,0.4-1,0.8-1.9,0.8C88.1,24.4,87.4,23.6,87.4,22.6z M89.8,23.1   c0.8,0,1.4-0.5,1.4-1.4v-0.2h-1.3c-0.7,0-1,0.3-1,0.8C88.9,22.8,89.3,23.1,89.8,23.1z"></path>
	<path d="M93.6,21.5V21c0-1.9,1.2-2.9,2.5-2.9c0.8,0,1.3,0.3,1.6,0.7v-3h1.5v8.4h-1.4v-0.6c-0.3,0.4-0.9,0.7-1.7,0.7   C94.8,24.4,93.6,23.4,93.6,21.5z M96.5,23c0.8,0,1.3-0.6,1.3-1.8v-0.1c0-1.2-0.6-1.8-1.3-1.8c-0.8,0-1.3,0.6-1.3,1.8v0.1   C95.1,22.4,95.7,23,96.5,23z"></path>
	<path d="M100.1,18.2h1.7l1,3.1c0.1,0.3,0.2,0.7,0.3,1.2c0.1-0.5,0.2-0.9,0.3-1.2l1-3.1h1.6l-2.2,6h-1.5L100.1,18.2z"></path>
	<path d="M106.7,15.9h1.6v1.6h-1.6V15.9z M106.7,18.2h1.5v6h-1.5V18.2z"></path>
	<path d="M109.2,21.3v-0.1c0-2,1.3-3.1,2.8-3.1c1.2,0,2.2,0.7,2.6,2l-1.4,0.3c-0.2-0.6-0.7-0.9-1.2-0.9c-0.7,0-1.3,0.6-1.3,1.8v0.1   c0,1.2,0.6,1.8,1.3,1.8c0.5,0,1-0.3,1.2-0.9l1.4,0.3c-0.4,1.3-1.4,2-2.6,2C110.5,24.4,109.2,23.3,109.2,21.3z"></path>
	<path d="M118,24.4c-1.6,0-2.9-1.1-2.9-3.1v-0.1c0-2,1.3-3.1,2.9-3.1s2.9,1.1,2.9,3.2v0.4h-4.3c0,0.9,0.7,1.5,1.5,1.5   c0.5,0,1-0.2,1.2-0.7l1.4,0.3C120.2,23.8,119.1,24.4,118,24.4z M119.2,20.6c-0.1-0.9-0.7-1.3-1.3-1.3c-0.7,0-1.2,0.5-1.3,1.3H119.2   z"></path>
	<path d="M123.9,22.6L123.9,22.6c0-1.1,0.7-2,2.3-2h1.5v-0.2c0-0.7-0.4-1.1-1.1-1.1c-0.6,0-1,0.3-1.1,0.8l-1.4-0.3   c0.5-1.3,1.5-1.7,2.6-1.7c1.6,0,2.5,0.9,2.5,2.3v3.9h-1.4v-0.7c-0.4,0.4-1,0.8-1.9,0.8C124.6,24.4,123.9,23.6,123.9,22.6z    M126.3,23.1c0.8,0,1.4-0.5,1.4-1.4v-0.2h-1.3c-0.7,0-1,0.3-1,0.8C125.4,22.8,125.8,23.1,126.3,23.1z"></path>
	<path d="M130.5,18.2h1.4v0.7c0.4-0.6,1-0.8,1.6-0.8c1.3,0,2.1,0.9,2.1,2.2v3.9h-1.5v-3.5c0-0.8-0.4-1.3-1-1.3   c-0.7,0-1.1,0.6-1.1,1.4v3.4h-1.5V18.2z"></path>
	<path d="M136.5,21.5V21c0-1.9,1.2-2.9,2.5-2.9c0.8,0,1.3,0.3,1.6,0.7v-3h1.5v8.4h-1.4v-0.6c-0.3,0.4-0.9,0.7-1.7,0.7   C137.7,24.4,136.5,23.4,136.5,21.5z M139.4,23c0.8,0,1.3-0.6,1.3-1.8v-0.1c0-1.2-0.6-1.8-1.3-1.8c-0.8,0-1.3,0.6-1.3,1.8v0.1   C138,22.4,138.6,23,139.4,23z"></path>
	<path d="M145.5,21.3v-0.1c0-2,1.3-3.1,2.8-3.1c1.2,0,2.2,0.7,2.6,2l-1.4,0.3c-0.2-0.6-0.7-0.9-1.2-0.9c-0.7,0-1.3,0.6-1.3,1.8v0.1   c0,1.2,0.6,1.8,1.3,1.8c0.5,0,1-0.3,1.2-0.9l1.4,0.3c-0.4,1.3-1.4,2-2.6,2C146.8,24.4,145.5,23.3,145.5,21.3z"></path>
	<path d="M151.5,22.6L151.5,22.6c0-1.1,0.7-2,2.3-2h1.5v-0.2c0-0.7-0.4-1.1-1.1-1.1c-0.6,0-1,0.3-1.1,0.8l-1.4-0.3   c0.5-1.3,1.5-1.7,2.6-1.7c1.6,0,2.5,0.9,2.5,2.3v3.9h-1.4v-0.7c-0.4,0.4-1,0.8-1.9,0.8C152.2,24.4,151.5,23.6,151.5,22.6z    M153.9,23.1c0.8,0,1.4-0.5,1.4-1.4v-0.2H154c-0.7,0-1,0.3-1,0.8C153,22.8,153.4,23.1,153.9,23.1z"></path>
	<path d="M158.1,18.2h1.4v0.6c0.3-0.4,0.9-0.7,1.7-0.7c1.3,0,2.6,1,2.6,2.9v0.4c0,1.9-1.2,2.9-2.5,2.9c-0.8,0-1.3-0.3-1.6-0.7v3   h-1.5V18.2z M160.9,23c0.8,0,1.3-0.6,1.3-1.8v-0.1c0-1.1-0.6-1.8-1.3-1.8c-0.8,0-1.3,0.6-1.3,1.8v0.1C159.6,22.4,160.2,23,160.9,23   z"></path>
	<path d="M164.7,15.9h1.6v1.6h-1.6V15.9z M164.7,18.2h1.5v6h-1.5V18.2z"></path>
	<path d="M167.9,22.4v-2.9h-0.8v-1.3h0.9v-1.8h1.4v1.8h1.5v1.3h-1.5v2.6c0,0.5,0.3,0.7,0.7,0.7h0.8v1.3h-1.2   C168.6,24.2,167.9,23.6,167.9,22.4z"></path>
	<path d="M171.5,22.6L171.5,22.6c0-1.1,0.7-2,2.3-2h1.5v-0.2c0-0.7-0.4-1.1-1.1-1.1c-0.6,0-1,0.3-1.1,0.8l-1.4-0.3   c0.5-1.3,1.5-1.7,2.6-1.7c1.6,0,2.5,0.9,2.5,2.3v3.9h-1.4v-0.7c-0.4,0.4-1,0.8-1.9,0.8C172.3,24.4,171.5,23.6,171.5,22.6z    M174,23.1c0.8,0,1.4-0.5,1.4-1.4v-0.2H174c-0.7,0-1,0.3-1,0.8C173.1,22.8,173.4,23.1,174,23.1z"></path>
	<path d="M178,22.7v-6.8h1.5v6.6c0,0.4,0.2,0.5,0.4,0.5h0.3v1.3h-0.7C178.6,24.2,178,23.7,178,22.7z"></path>
	<path d="M181.2,22.6h1.6v1.7h-1.6V22.6z"></path>
	<path d="M2.2,31.8H0v-1.5h6v1.5H3.8v6.9H2.2V31.8z"></path>
	<path d="M5.5,35.7v-0.1c0-2,1.3-3.1,2.9-3.1c1.6,0,2.9,1.1,2.9,3.1v0.1c0,2-1.3,3.1-2.9,3.1C6.7,38.8,5.5,37.7,5.5,35.7z M8.3,37.5   c0.7,0,1.3-0.6,1.3-1.8v-0.1c0-1.2-0.6-1.8-1.3-1.8S7,34.4,7,35.6v0.1C7,36.9,7.6,37.5,8.3,37.5z"></path>
	<path d="M11.8,35.9v-0.4c0-1.9,1.2-2.9,2.5-2.9c0.8,0,1.3,0.3,1.6,0.7v-3h1.5v8.4h-1.4V38c-0.3,0.4-0.9,0.7-1.7,0.7   C13,38.8,11.8,37.8,11.8,35.9z M14.7,37.4c0.8,0,1.3-0.6,1.3-1.8v-0.1c0-1.2-0.6-1.8-1.3-1.8c-0.8,0-1.3,0.6-1.3,1.8v0.1   C13.3,36.8,13.9,37.4,14.7,37.4z"></path>
	<path d="M18.6,37L18.6,37c0-1.1,0.7-2,2.3-2h1.5v-0.2c0-0.7-0.4-1.1-1.1-1.1c-0.6,0-1,0.3-1.1,0.8l-1.4-0.3   c0.5-1.3,1.5-1.7,2.6-1.7c1.6,0,2.5,0.9,2.5,2.3v3.9h-1.4V38c-0.4,0.4-1,0.8-1.9,0.8C19.3,38.8,18.6,38,18.6,37z M21,37.5   c0.8,0,1.4-0.5,1.4-1.4V36h-1.3c-0.7,0-1,0.3-1,0.8C20.1,37.2,20.5,37.5,21,37.5z"></path>
	<path d="M25.4,39.7H26c0.4,0,0.7-0.1,0.9-0.7l0.1-0.3l-2.4-6.1h1.7l1.1,3.2c0.1,0.3,0.2,0.7,0.4,1.2c0.1-0.5,0.2-0.9,0.3-1.2   l0.9-3.1h1.6l-2.3,6.9c-0.3,1-1,1.5-2,1.5h-0.7V39.7z"></path>
	<path d="M33.5,37L33.5,37c0-1.1,0.7-2,2.3-2h1.5v-0.2c0-0.7-0.4-1.1-1.1-1.1c-0.6,0-1,0.3-1.1,0.8l-1.4-0.3   c0.5-1.3,1.5-1.7,2.6-1.7c1.6,0,2.5,0.9,2.5,2.3v3.9h-1.4V38c-0.4,0.4-1,0.8-1.9,0.8C34.3,38.8,33.5,38,33.5,37z M36,37.5   c0.8,0,1.4-0.5,1.4-1.4V36H36c-0.7,0-1,0.3-1,0.8C35,37.2,35.4,37.5,36,37.5z"></path>
	<path d="M40.1,32.6h1.4v0.7c0.4-0.6,1-0.8,1.6-0.8c1.3,0,2.1,0.9,2.1,2.2v3.9h-1.5v-3.5c0-0.8-0.4-1.3-1-1.3   c-0.7,0-1.1,0.6-1.1,1.4v3.4h-1.5V32.6z"></path>
	<path d="M46.1,35.9v-0.4c0-1.9,1.2-2.9,2.5-2.9c0.8,0,1.3,0.3,1.6,0.7v-3h1.5v8.4h-1.4V38c-0.3,0.4-0.9,0.7-1.7,0.7   C47.3,38.8,46.1,37.8,46.1,35.9z M49,37.4c0.8,0,1.3-0.6,1.3-1.8v-0.1c0-1.2-0.6-1.8-1.3-1.8c-0.8,0-1.3,0.6-1.3,1.8v0.1   C47.6,36.8,48.2,37.4,49,37.4z"></path>
	<path d="M56.1,34h-1v-1.3h1v-0.6c0-1.3,0.9-1.8,1.9-1.8h0.9v1.3h-0.7c-0.4,0-0.7,0.2-0.7,0.7v0.4h1.4V34h-1.3v4.7h-1.5V34z"></path>
	<path d="M59.2,35.7v-0.1c0-2,1.3-3.1,2.9-3.1c1.6,0,2.9,1.1,2.9,3.1v0.1c0,2-1.3,3.1-2.9,3.1C60.5,38.8,59.2,37.7,59.2,35.7z    M62.1,37.5c0.7,0,1.3-0.6,1.3-1.8v-0.1c0-1.2-0.6-1.8-1.3-1.8s-1.3,0.6-1.3,1.8v0.1C60.8,36.9,61.4,37.5,62.1,37.5z"></path>
	<path d="M66,32.6h1.4v1c0.4-0.7,1.2-1,2.1-1v1.5c-1.3,0-2,0.8-2,2.1v2.5H66V32.6z"></path>
	<path d="M72.6,39.5c0-0.6,0.3-1,0.6-1.3c-0.3-0.3-0.5-0.6-0.5-1.1c0-0.6,0.3-1.1,0.8-1.3c-0.3-0.3-0.5-0.8-0.5-1.2   c0-1.2,1-2.1,2.3-2.1c0.3,0,0.6,0.1,0.9,0.1h2.1v1.2h-0.8c0.1,0.2,0.2,0.5,0.2,0.7c0,1.2-1,2.1-2.3,2.1h-0.9   c-0.3,0-0.5,0.1-0.5,0.4s0.2,0.4,0.5,0.4h1.9c1.2,0,2,0.8,2,1.8c0,1.1-0.9,1.9-2.2,1.9h-1.5C73.4,41.2,72.6,40.4,72.6,39.5z M75,40   h1.2c0.6,0,0.9-0.3,0.9-0.7c0-0.4-0.3-0.7-0.8-0.7h-1.5c-0.4,0-0.8,0.3-0.8,0.7C74,39.7,74.4,40,75,40z M75.4,35.5   c0.5,0,0.9-0.4,0.9-0.9c0-0.5-0.4-0.9-0.9-0.9c-0.5,0-0.9,0.4-0.9,0.9C74.5,35.1,74.9,35.5,75.4,35.5z"></path>
	<path d="M81.7,38.8c-1.6,0-2.9-1.1-2.9-3.1v-0.1c0-2,1.3-3.1,2.9-3.1c1.6,0,2.9,1.1,2.9,3.2V36h-4.3c0,0.9,0.7,1.5,1.5,1.5   c0.5,0,1-0.2,1.2-0.7l1.4,0.3C83.9,38.2,82.8,38.8,81.7,38.8z M82.9,35c-0.1-0.9-0.7-1.3-1.3-1.3s-1.2,0.5-1.3,1.3H82.9z"></path>
	<path d="M85.4,32.6h1.4v0.7c0.4-0.6,1-0.8,1.6-0.8c1.3,0,2.1,0.9,2.1,2.2v3.9h-1.5v-3.5c0-0.8-0.4-1.3-1-1.3   c-0.7,0-1.1,0.6-1.1,1.4v3.4h-1.5V32.6z"></path>
	<path d="M94.4,38.8c-1.6,0-2.9-1.1-2.9-3.1v-0.1c0-2,1.3-3.1,2.9-3.1c1.6,0,2.9,1.1,2.9,3.2V36h-4.3c0,0.9,0.7,1.5,1.5,1.5   c0.5,0,1-0.2,1.2-0.7l1.4,0.3C96.6,38.2,95.5,38.8,94.4,38.8z M95.7,35c-0.1-0.9-0.7-1.3-1.3-1.3c-0.7,0-1.2,0.5-1.3,1.3H95.7z"></path>
	<path d="M98.2,32.6h1.4v1c0.4-0.7,1.2-1,2.1-1v1.5c-1.3,0-2,0.8-2,2.1v2.5h-1.5V32.6z"></path>
	<path d="M102.3,37L102.3,37c0-1.1,0.7-2,2.3-2h1.5v-0.2c0-0.7-0.4-1.1-1.1-1.1c-0.6,0-1,0.3-1.1,0.8l-1.4-0.3   c0.5-1.3,1.5-1.7,2.6-1.7c1.6,0,2.5,0.9,2.5,2.3v3.9h-1.4V38c-0.4,0.4-1,0.8-1.9,0.8C103,38.8,102.3,38,102.3,37z M104.7,37.5   c0.8,0,1.4-0.5,1.4-1.4V36h-1.3c-0.7,0-1,0.3-1,0.8C103.8,37.2,104.2,37.5,104.7,37.5z"></path>
	<path d="M109.2,36.8V34h-0.8v-1.3h0.9v-1.8h1.4v1.8h1.5V34h-1.5v2.6c0,0.5,0.3,0.7,0.7,0.7h0.8v1.3h-1.2   C110,38.6,109.2,38,109.2,36.8z"></path>
	<path d="M113.1,30.3h1.6v1.6h-1.6V30.3z M113.1,32.6h1.5v6h-1.5V32.6z"></path>
	<path d="M115.5,35.7v-0.1c0-2,1.3-3.1,2.9-3.1s2.9,1.1,2.9,3.1v0.1c0,2-1.3,3.1-2.9,3.1S115.5,37.7,115.5,35.7z M118.4,37.5   c0.7,0,1.3-0.6,1.3-1.8v-0.1c0-1.2-0.6-1.8-1.3-1.8c-0.8,0-1.3,0.6-1.3,1.8v0.1C117.1,36.9,117.7,37.5,118.4,37.5z"></path>
	<path d="M122.2,32.6h1.4v0.7c0.4-0.6,1-0.8,1.6-0.8c1.3,0,2.1,0.9,2.1,2.2v3.9h-1.5v-3.5c0-0.8-0.4-1.3-1-1.3   c-0.7,0-1.1,0.6-1.1,1.4v3.4h-1.5V32.6z"></path>
	<path d="M128.1,37.2l1.3-0.5c0.3,0.6,0.7,0.9,1.4,0.9c0.6,0,1-0.3,1-0.7c0-0.4-0.3-0.5-0.8-0.6l-0.9-0.2c-1.3-0.2-1.9-0.8-1.9-1.6   c0-1,0.8-1.9,2.4-1.9c1,0,2,0.4,2.6,1.4l-1.3,0.5c-0.3-0.5-0.7-0.7-1.2-0.7c-0.6,0-0.9,0.3-0.9,0.6c0,0.3,0.2,0.5,0.7,0.6l0.9,0.2   c1.3,0.3,1.9,0.8,1.9,1.7c0,1-0.8,2-2.4,2C129.8,38.8,128.7,38.4,128.1,37.2z"></path>
	<path d="M136.8,36.8V34H136v-1.3h0.9v-1.8h1.4v1.8h1.5V34h-1.5v2.6c0,0.5,0.3,0.7,0.7,0.7h0.8v1.3h-1.2   C137.5,38.6,136.8,38,136.8,36.8z"></path>
	<path d="M140.4,35.7v-0.1c0-2,1.3-3.1,2.9-3.1c1.6,0,2.9,1.1,2.9,3.1v0.1c0,2-1.3,3.1-2.9,3.1C141.7,38.8,140.4,37.7,140.4,35.7z    M143.2,37.5c0.8,0,1.3-0.6,1.3-1.8v-0.1c0-1.2-0.6-1.8-1.3-1.8c-0.7,0-1.3,0.6-1.3,1.8v0.1C141.9,36.9,142.5,37.5,143.2,37.5z"></path>
	<path d="M149.1,35.7v-0.1c0-2,1.3-3.1,2.8-3.1c1.2,0,2.2,0.7,2.6,2l-1.4,0.3c-0.2-0.6-0.7-0.9-1.2-0.9c-0.7,0-1.3,0.6-1.3,1.8v0.1   c0,1.2,0.6,1.8,1.3,1.8c0.5,0,1-0.3,1.2-0.9l1.4,0.3c-0.4,1.3-1.4,2-2.6,2C150.4,38.8,149.1,37.7,149.1,35.7z"></path>
	<path d="M154.9,35.7v-0.1c0-2,1.3-3.1,2.9-3.1s2.9,1.1,2.9,3.1v0.1c0,2-1.3,3.1-2.9,3.1S154.9,37.7,154.9,35.7z M157.8,37.5   c0.7,0,1.3-0.6,1.3-1.8v-0.1c0-1.2-0.6-1.8-1.3-1.8c-0.8,0-1.3,0.6-1.3,1.8v0.1C156.5,36.9,157.1,37.5,157.8,37.5z"></path>
	<path d="M161.7,32.6h1.4v0.7c0.3-0.4,0.9-0.8,1.7-0.8c0.7,0,1.2,0.3,1.6,0.8c0.4-0.6,1-0.8,1.7-0.8c1.3,0,2.1,0.9,2.1,2.2v3.9h-1.5   V35c0-0.8-0.3-1.2-0.9-1.2c-0.7,0-1,0.5-1,1.3v3.5h-1.5V35c0-0.8-0.3-1.2-0.9-1.2c-0.6,0-1,0.5-1,1.3v3.5h-1.5V32.6z"></path>
	<path d="M173.9,38.8c-1.6,0-2.9-1.1-2.9-3.1v-0.1c0-2,1.3-3.1,2.9-3.1c1.6,0,2.9,1.1,2.9,3.2V36h-4.3c0,0.9,0.7,1.5,1.5,1.5   c0.5,0,1-0.2,1.2-0.7l1.4,0.3C176.2,38.2,175.1,38.8,173.9,38.8z M175.2,35c-0.1-0.9-0.7-1.3-1.3-1.3c-0.7,0-1.2,0.5-1.3,1.3H175.2   z"></path>
	<path d="M177.7,37h1.6v1.7h-1.6V37z"></path>
</g>
</svg>