<svg xml:space="preserve" style="enable-background:new 0 0 195.5 42.6;" viewBox="0 0 195.5 42.6" y="0px" x="0px" id="Layer_1" version="1.1" xmlns:xlink="http://www.w3.org/1999/xlink" xmlns="http://www.w3.org/2000/svg">
<g>
	<path d="M9.7,1.4L7.8,9.8H6.7L5.4,5.1C5.3,4.4,5.1,3.8,5,3.2C4.9,3.8,4.7,4.4,4.6,5.1L3.3,9.8H2.2L0.3,1.4h1.2l1,4.7   C2.6,6.8,2.7,7.3,2.8,8C3,7.3,3.1,6.8,3.3,6.1l1.3-4.7h1l1.3,4.7C7,6.8,7.1,7.4,7.2,8c0.1-0.6,0.2-1.2,0.3-1.8l1-4.7H9.7z"></path>
	<path d="M12.6,10C11,10,9.8,8.9,9.8,6.9V6.8c0-2,1.2-3.1,2.7-3.1c1.5,0,2.7,1.1,2.7,3.1v0.3h-4.4c0,1.3,0.8,2,1.8,2   c0.6,0,1.2-0.3,1.5-0.9l1,0.2C14.6,9.4,13.7,10,12.6,10z M14.2,6.4c-0.1-1.2-0.8-1.9-1.7-1.9c-0.8,0-1.6,0.6-1.7,1.9H14.2z"></path>
	<path d="M21.1,10c-1.5,0-2.8-1.1-2.8-3.1V6.8c0-2,1.2-3.1,2.7-3.1c1.5,0,2.7,1.1,2.7,3.1v0.3h-4.4c0,1.3,0.8,2,1.8,2   c0.6,0,1.2-0.3,1.5-0.9l1,0.2C23.2,9.4,22.2,10,21.1,10z M22.7,6.4c-0.1-1.2-0.8-1.9-1.7-1.9c-0.8,0-1.6,0.6-1.7,1.9H22.7z"></path>
	<path d="M28.5,9.8l-0.8-1.1c-0.3-0.4-0.5-0.8-0.8-1.2c-0.3,0.4-0.5,0.8-0.8,1.2l-0.8,1.1h-1.2l2.2-3.1l-2-2.9h1.3L26.4,5   c0.2,0.3,0.4,0.6,0.6,1c0.2-0.4,0.4-0.7,0.6-1l0.8-1.1h1.2l-2,2.8l2.2,3.1H28.5z"></path>
	<path d="M30.8,1.7h1.1v1.2h-1.1V1.7z M30.9,3.8h1.1v6h-1.1V3.8z"></path>
	<path d="M32.9,8.4L33.8,8c0.3,0.7,0.8,1.1,1.6,1.1c0.8,0,1.3-0.4,1.3-0.9c0-0.6-0.5-0.8-1.1-0.9l-0.8-0.1C33.7,6.9,33,6.4,33,5.5   c0-1,0.8-1.8,2.2-1.8c1,0,1.9,0.4,2.4,1.3l-0.9,0.4c-0.3-0.6-0.8-0.9-1.5-0.9c-0.7,0-1.2,0.4-1.2,0.9c0,0.5,0.4,0.7,1,0.8l0.8,0.1   c1.2,0.2,1.9,0.7,1.9,1.7c0,1-0.8,1.8-2.3,1.8C34.4,10,33.4,9.5,32.9,8.4z"></path>
	<path d="M39.1,8.3V4.7h-0.9V3.8h1V2h1v1.8h1.7v0.9h-1.6v3.3c0,0.6,0.3,0.8,0.8,0.8h0.8v0.9h-1.1C39.7,9.8,39.1,9.3,39.1,8.3z"></path>
	<path d="M45.5,8.3V4.7h-0.9V3.8h1V2h1v1.8h1.7v0.9h-1.6v3.3c0,0.6,0.3,0.8,0.8,0.8h0.8v0.9h-1.1C46.1,9.8,45.5,9.3,45.5,8.3z"></path>
	<path d="M48.8,6.9V6.8c0-2,1.2-3.1,2.7-3.1c1.5,0,2.7,1.1,2.7,3.1v0.1c0,2-1.2,3.1-2.7,3.1C50,10,48.8,8.9,48.8,6.9z M51.5,9.1   c0.9,0,1.7-0.8,1.7-2.2V6.8c0-1.5-0.7-2.2-1.7-2.2c-0.9,0-1.7,0.8-1.7,2.2v0.1C49.8,8.3,50.6,9.1,51.5,9.1z"></path>
	<path d="M57.7,3.8h1v0.9c0.3-0.6,1-1.1,1.9-1.1c1.3,0,2.5,1,2.5,3V7c0,2-1.2,3-2.5,3c-0.9,0-1.5-0.4-1.8-1v3.3h-1.1V3.8z M60.4,9   C61.3,9,62,8.3,62,6.9V6.8c0-1.4-0.7-2.2-1.6-2.2c-0.9,0-1.6,0.8-1.6,2.2v0.1C58.7,8.3,59.4,9,60.4,9z"></path>
	<path d="M63.8,6.9V6.8c0-2,1.2-3.1,2.7-3.1c1.5,0,2.7,1.1,2.7,3.1v0.1c0,2-1.2,3.1-2.7,3.1C65,10,63.8,8.9,63.8,6.9z M66.5,9.1   c0.9,0,1.7-0.8,1.7-2.2V6.8c0-1.5-0.7-2.2-1.7-2.2c-0.9,0-1.7,0.8-1.7,2.2v0.1C64.8,8.3,65.6,9.1,66.5,9.1z"></path>
	<path d="M69.8,8.4L70.7,8c0.3,0.7,0.8,1.1,1.6,1.1c0.8,0,1.3-0.4,1.3-0.9c0-0.6-0.5-0.8-1.1-0.9l-0.8-0.1c-1.1-0.2-1.7-0.7-1.7-1.6   c0-1,0.8-1.8,2.2-1.8c1,0,1.9,0.4,2.4,1.3l-0.9,0.4c-0.3-0.6-0.8-0.9-1.5-0.9c-0.7,0-1.2,0.4-1.2,0.9c0,0.5,0.4,0.7,1,0.8l0.8,0.1   c1.2,0.2,1.9,0.7,1.9,1.7c0,1-0.8,1.8-2.3,1.8C71.3,10,70.3,9.5,69.8,8.4z"></path>
	<path d="M75.5,1.7h1.1v1.2h-1.1V1.7z M75.6,3.8h1.1v6h-1.1V3.8z"></path>
	<path d="M78.5,8.3V4.7h-0.9V3.8h1V2h1v1.8h1.7v0.9h-1.6v3.3c0,0.6,0.3,0.8,0.8,0.8h0.8v0.9h-1.1C79.2,9.8,78.5,9.3,78.5,8.3z"></path>
	<path d="M82.2,1.7h1.1v1.2h-1.1V1.7z M82.2,3.8h1.1v6h-1.1V3.8z"></path>
	<path d="M84.2,3.8h1.2l1.3,3.7c0.1,0.3,0.2,0.7,0.4,1.2c0.1-0.5,0.2-0.9,0.4-1.2l1.3-3.7h1.1l-2.3,6h-1.1L84.2,3.8z"></path>
	<path d="M93,10c-1.5,0-2.8-1.1-2.8-3.1V6.8c0-2,1.2-3.1,2.7-3.1c1.5,0,2.7,1.1,2.7,3.1v0.3h-4.4c0,1.3,0.8,2,1.8,2   c0.6,0,1.2-0.3,1.5-0.9l1,0.2C95.1,9.4,94.1,10,93,10z M94.6,6.4c-0.1-1.2-0.8-1.9-1.7-1.9c-0.8,0-1.6,0.6-1.7,1.9H94.6z"></path>
	<path d="M96.7,8.5v-7h1.1v6.8c0,0.5,0.2,0.7,0.5,0.7h0.3v0.9h-0.6C97.3,9.8,96.7,9.4,96.7,8.5z"></path>
	<path d="M99.4,11.3h0.5c0.5,0,0.8-0.2,1-0.9l0.3-0.8l-2.5-5.8h1.2l1.3,3.4c0.2,0.4,0.3,0.8,0.5,1.3c0.1-0.5,0.2-1,0.4-1.3l1.1-3.3   h1.1l-2.5,7c-0.3,0.9-0.9,1.4-1.8,1.4h-0.6V11.3z"></path>
	<path d="M107.2,8.4l0.9-0.4c0.3,0.7,0.8,1.1,1.6,1.1c0.8,0,1.3-0.4,1.3-0.9c0-0.6-0.5-0.8-1.1-0.9l-0.8-0.1   c-1.1-0.2-1.7-0.7-1.7-1.6c0-1,0.8-1.8,2.2-1.8c1,0,1.9,0.4,2.4,1.3l-0.9,0.4c-0.3-0.6-0.8-0.9-1.5-0.9c-0.7,0-1.2,0.4-1.2,0.9   c0,0.5,0.4,0.7,1,0.8l0.8,0.1c1.2,0.2,1.9,0.7,1.9,1.7c0,1-0.8,1.8-2.3,1.8C108.7,10,107.7,9.5,107.2,8.4z"></path>
	<path d="M117.8,5.9v3.9h-1.1V6.2c0-1-0.5-1.5-1.3-1.5c-0.8,0-1.4,0.7-1.4,1.6v3.6H113V1.4h1.1v3.1c0.4-0.6,1-0.9,1.7-0.9   C117,3.7,117.8,4.6,117.8,5.9z"></path>
	<path d="M118.9,8.3L118.9,8.3c0-1.1,0.7-1.9,2.2-1.9h1.7V5.9c0-0.9-0.5-1.4-1.3-1.4c-0.7,0-1.2,0.3-1.4,1l-1-0.2   c0.5-1.2,1.4-1.6,2.5-1.6c1.5,0,2.3,0.8,2.3,2.2v3.9h-1V9c-0.4,0.5-1,1-2,1C119.7,10,118.9,9.3,118.9,8.3z M121.1,9.1   c1,0,1.7-0.7,1.7-1.6V7h-1.5c-0.9,0-1.3,0.4-1.3,1.1C120,8.7,120.4,9.1,121.1,9.1z"></path>
	<path d="M125.3,3.8h1v0.9c0.3-0.6,1-1.1,1.9-1.1c1.3,0,2.5,1,2.5,3V7c0,2-1.2,3-2.5,3c-0.9,0-1.5-0.4-1.8-1v3.3h-1.1V3.8z M128,9   c0.9,0,1.6-0.7,1.6-2.2V6.8c0-1.4-0.7-2.2-1.6-2.2c-0.9,0-1.6,0.8-1.6,2.2v0.1C126.3,8.3,127,9,128,9z"></path>
	<path d="M134.2,10c-1.5,0-2.8-1.1-2.8-3.1V6.8c0-2,1.2-3.1,2.7-3.1c1.5,0,2.7,1.1,2.7,3.1v0.3h-4.4c0,1.3,0.8,2,1.8,2   c0.6,0,1.2-0.3,1.5-0.9l1,0.2C136.2,9.4,135.3,10,134.2,10z M135.8,6.4c-0.1-1.2-0.8-1.9-1.7-1.9c-0.8,0-1.6,0.6-1.7,1.9H135.8z"></path>
	<path d="M140.7,8.3V4.7h-0.9V3.8h1V2h1v1.8h1.7v0.9h-1.6v3.3c0,0.6,0.3,0.8,0.8,0.8h0.8v0.9h-1.1C141.4,9.8,140.7,9.3,140.7,8.3z"></path>
	<path d="M149.2,5.9v3.9h-1.1V6.2c0-1-0.5-1.5-1.3-1.5c-0.8,0-1.4,0.7-1.4,1.6v3.6h-1.1V1.4h1.1v3.1c0.4-0.6,1-0.9,1.7-0.9   C148.4,3.7,149.2,4.6,149.2,5.9z"></path>
	<path d="M152.9,10c-1.5,0-2.8-1.1-2.8-3.1V6.8c0-2,1.2-3.1,2.7-3.1c1.5,0,2.7,1.1,2.7,3.1v0.3h-4.4c0,1.3,0.8,2,1.8,2   c0.6,0,1.2-0.3,1.5-0.9l1,0.2C155,9.4,154,10,152.9,10z M154.5,6.4c-0.1-1.2-0.8-1.9-1.7-1.9c-0.8,0-1.6,0.6-1.7,1.9H154.5z"></path>
	<path d="M159.7,4.7h-1.1V3.8h1.1V3.1c0-1.2,0.8-1.6,1.6-1.6h0.9v0.9h-0.7c-0.5,0-0.8,0.2-0.8,0.8v0.6h1.5v0.9h-1.5v5.1h-1.1V4.7z"></path>
	<path d="M167.8,9.8h-1V9c-0.4,0.7-1,1-1.7,1c-1.2,0-2.1-0.9-2.1-2.2V3.8h1.1v3.7c0,1,0.5,1.5,1.3,1.5c0.8,0,1.4-0.7,1.4-1.6V3.8   h1.1V9.8z"></path>
	<path d="M169.7,8.3V4.7h-0.9V3.8h1V2h1v1.8h1.7v0.9h-1.6v3.3c0,0.6,0.3,0.8,0.8,0.8h0.8v0.9h-1.1C170.4,9.8,169.7,9.3,169.7,8.3z"></path>
	<path d="M178,9.8h-1V9c-0.4,0.7-1,1-1.7,1c-1.2,0-2.1-0.9-2.1-2.2V3.8h1.1v3.7c0,1,0.5,1.5,1.3,1.5c0.8,0,1.4-0.7,1.4-1.6V3.8h1.1   V9.8z"></path>
	<path d="M179.6,3.8h1v1.3c0.4-0.8,1.2-1.3,2.2-1.3v1.1c-1.3,0-2.1,0.9-2.1,2.3v2.7h-1.1V3.8z"></path>
	<path d="M186,10c-1.5,0-2.8-1.1-2.8-3.1V6.8c0-2,1.2-3.1,2.7-3.1c1.5,0,2.7,1.1,2.7,3.1v0.3h-4.4c0,1.3,0.8,2,1.8,2   c0.6,0,1.2-0.3,1.5-0.9l1,0.2C188.1,9.4,187.1,10,186,10z M187.6,6.4c-0.1-1.2-0.8-1.9-1.7-1.9c-0.8,0-1.6,0.6-1.7,1.9H187.6z"></path>
	<path d="M-0.1,18.2h1.2l1,3.3c0.1,0.3,0.2,0.7,0.3,1.2c0.2-0.6,0.2-0.9,0.4-1.2l1-3.3h1l1,3.3c0.1,0.4,0.2,0.7,0.4,1.2l0.3-1.2   l1-3.3h1.1l-2,6h-1l-1.1-3.7c-0.1-0.3-0.2-0.6-0.3-1c-0.1,0.4-0.2,0.7-0.3,1l-1.1,3.7h-1L-0.1,18.2z"></path>
	<path d="M9.6,16.1h1.1v1.2H9.6V16.1z M9.6,18.2h1.1v6H9.6V18.2z"></path>
	<path d="M12.6,22.7v-3.5h-0.9v-0.9h1v-1.8h1v1.8h1.7v0.9h-1.6v3.3c0,0.6,0.3,0.8,0.8,0.8h0.8v0.9h-1.1   C13.2,24.2,12.6,23.7,12.6,22.7z"></path>
	<path d="M21,20.3v3.9H20v-3.7c0-1-0.5-1.5-1.3-1.5c-0.8,0-1.4,0.7-1.4,1.6v3.6h-1.1v-8.4h1.1V19c0.4-0.6,1-0.9,1.7-0.9   C20.2,18.1,21,19,21,20.3z"></path>
	<path d="M24.8,18.2h1v1.3c0.4-0.8,1.2-1.3,2.2-1.3v1.1c-1.3,0-2.1,0.9-2.1,2.3v2.7h-1.1V18.2z"></path>
	<path d="M31.2,24.4c-1.5,0-2.8-1.1-2.8-3.1v-0.1c0-2,1.2-3.1,2.7-3.1c1.5,0,2.7,1.1,2.7,3.1v0.3h-4.4c0,1.3,0.8,2,1.8,2   c0.6,0,1.2-0.3,1.5-0.9l1,0.2C33.3,23.8,32.3,24.4,31.2,24.4z M32.8,20.8c-0.1-1.2-0.8-1.9-1.7-1.9c-0.8,0-1.6,0.6-1.7,1.9H32.8z"></path>
	<path d="M34.5,22.8l0.9-0.4c0.3,0.7,0.8,1.1,1.6,1.1c0.8,0,1.3-0.4,1.3-0.9c0-0.6-0.5-0.8-1.1-0.9l-0.8-0.1   c-1.1-0.2-1.7-0.7-1.7-1.6c0-1,0.8-1.8,2.2-1.8c1,0,1.9,0.4,2.4,1.3l-0.9,0.4C38,19.2,37.5,19,36.9,19c-0.7,0-1.2,0.4-1.2,0.9   c0,0.5,0.4,0.7,1,0.8l0.8,0.1c1.2,0.2,1.9,0.7,1.9,1.7c0,1-0.8,1.8-2.3,1.8C36,24.4,35,23.9,34.5,22.8z"></path>
	<path d="M40.2,18.2h1v0.9c0.3-0.6,1-1.1,1.9-1.1c1.3,0,2.5,1,2.5,3v0.3c0,2-1.2,3-2.5,3c-0.9,0-1.5-0.4-1.8-1v3.3h-1.1V18.2z    M42.9,23.4c0.9,0,1.6-0.7,1.6-2.2v-0.1c0-1.4-0.7-2.2-1.6-2.2c-0.9,0-1.6,0.8-1.6,2.2v0.1C41.3,22.7,42,23.4,42.9,23.4z"></path>
	<path d="M46.3,21.3v-0.1c0-2,1.2-3.1,2.7-3.1c1.5,0,2.7,1.1,2.7,3.1v0.1c0,2-1.2,3.1-2.7,3.1C47.5,24.4,46.3,23.3,46.3,21.3z    M49,23.5c0.9,0,1.7-0.8,1.7-2.2v-0.1c0-1.5-0.7-2.2-1.7-2.2c-0.9,0-1.7,0.8-1.7,2.2v0.1C47.4,22.7,48.1,23.5,49,23.5z"></path>
	<path d="M52.9,18.2h1v0.9c0.4-0.7,1-1,1.8-1c1.2,0,2.1,0.9,2.1,2.2v3.9h-1.1v-3.7c0-1-0.5-1.5-1.3-1.5c-0.8,0-1.4,0.7-1.4,1.6v3.6   h-1.1V18.2z"></path>
	<path d="M58.5,22.8l0.9-0.4c0.3,0.7,0.8,1.1,1.6,1.1c0.8,0,1.3-0.4,1.3-0.9c0-0.6-0.5-0.8-1.1-0.9l-0.8-0.1   c-1.1-0.2-1.7-0.7-1.7-1.6c0-1,0.8-1.8,2.2-1.8c1,0,1.9,0.4,2.4,1.3l-0.9,0.4C62,19.2,61.5,19,60.9,19c-0.7,0-1.2,0.4-1.2,0.9   c0,0.5,0.4,0.7,1,0.8l0.8,0.1c1.2,0.2,1.9,0.7,1.9,1.7c0,1-0.8,1.8-2.3,1.8C60,24.4,59,23.9,58.5,22.8z"></path>
	<path d="M64.2,16.1h1.1v1.2h-1.1V16.1z M64.3,18.2h1.1v6h-1.1V18.2z"></path>
	<path d="M67.8,23.3v0.9h-1v-8.4h1.1v3.3c0.3-0.6,0.9-1,1.8-1c1.3,0,2.5,1,2.5,3v0.3c0,2-1.2,3-2.5,3C68.8,24.4,68.1,23.9,67.8,23.3   z M69.5,23.4c0.9,0,1.6-0.8,1.6-2.2v-0.1c0-1.4-0.7-2.2-1.6-2.2c-0.9,0-1.6,0.7-1.6,2.2v0.1C67.8,22.7,68.5,23.4,69.5,23.4z"></path>
	<path d="M73.2,22.9v-7h1.1v6.8c0,0.5,0.2,0.7,0.5,0.7h0.3v0.9h-0.6C73.8,24.2,73.2,23.8,73.2,22.9z"></path>
	<path d="M78.5,24.4c-1.5,0-2.8-1.1-2.8-3.1v-0.1c0-2,1.2-3.1,2.7-3.1c1.5,0,2.7,1.1,2.7,3.1v0.3h-4.4c0,1.3,0.8,2,1.8,2   c0.6,0,1.2-0.3,1.5-0.9l1,0.2C80.6,23.8,79.6,24.4,78.5,24.4z M80.1,20.8c-0.1-1.2-0.8-1.9-1.7-1.9c-0.8,0-1.6,0.6-1.7,1.9H80.1z"></path>
	<path d="M84.4,22.7L84.4,22.7c0-1.1,0.7-1.9,2.2-1.9h1.7v-0.4c0-0.9-0.5-1.4-1.3-1.4c-0.7,0-1.2,0.3-1.4,1l-1-0.2   c0.5-1.2,1.4-1.6,2.5-1.6c1.5,0,2.3,0.8,2.3,2.2v3.9h-1v-0.9c-0.4,0.5-1,1-2,1C85.2,24.4,84.4,23.7,84.4,22.7z M86.7,23.5   c0.9,0,1.7-0.7,1.7-1.6v-0.4h-1.5c-0.9,0-1.3,0.4-1.3,1.1C85.5,23.1,86,23.5,86.7,23.5z"></path>
	<path d="M90.5,21.4v-0.3c0-2,1.2-3,2.5-3c0.8,0,1.5,0.4,1.8,1v-3.3h1.1v8.4h-1v-0.9c-0.3,0.6-1,1.1-1.9,1.1   C91.6,24.4,90.5,23.4,90.5,21.4z M93.2,23.4c0.9,0,1.6-0.8,1.6-2.2v-0.1c0-1.4-0.7-2.2-1.6-2.2c-0.9,0-1.6,0.7-1.6,2.2v0.1   C91.5,22.7,92.2,23.4,93.2,23.4z"></path>
	<path d="M96.7,18.2h1.2l1.3,3.7c0.1,0.3,0.2,0.7,0.4,1.2c0.1-0.5,0.2-0.9,0.4-1.2l1.3-3.7h1.1l-2.3,6H99L96.7,18.2z"></path>
	<path d="M103.2,16.1h1.1v1.2h-1.1V16.1z M103.3,18.2h1.1v6h-1.1V18.2z"></path>
	<path d="M105.4,21.3v-0.1c0-2,1.2-3.1,2.7-3.1c1.1,0,2,0.6,2.4,1.8l-1,0.2c-0.3-0.8-0.8-1.1-1.4-1.1c-0.9,0-1.6,0.7-1.6,2.2v0.1   c0,1.4,0.7,2.2,1.6,2.2c0.6,0,1.2-0.4,1.4-1.1l1,0.2c-0.4,1.2-1.3,1.8-2.4,1.8C106.7,24.4,105.4,23.3,105.4,21.3z"></path>
	<path d="M113.8,24.4c-1.5,0-2.8-1.1-2.8-3.1v-0.1c0-2,1.2-3.1,2.7-3.1c1.5,0,2.7,1.1,2.7,3.1v0.3h-4.4c0,1.3,0.8,2,1.8,2   c0.6,0,1.2-0.3,1.5-0.9l1,0.2C115.9,23.8,114.9,24.4,113.8,24.4z M115.4,20.8c-0.1-1.2-0.8-1.9-1.7-1.9c-0.8,0-1.6,0.6-1.7,1.9   H115.4z"></path>
	<path d="M119.8,22.7L119.8,22.7c0-1.1,0.7-1.9,2.2-1.9h1.7v-0.4c0-0.9-0.5-1.4-1.3-1.4c-0.7,0-1.2,0.3-1.4,1l-1-0.2   c0.5-1.2,1.4-1.6,2.5-1.6c1.5,0,2.3,0.8,2.3,2.2v3.9h-1v-0.9c-0.4,0.5-1,1-2,1C120.6,24.4,119.8,23.7,119.8,22.7z M122,23.5   c0.9,0,1.7-0.7,1.7-1.6v-0.4h-1.5c-0.9,0-1.3,0.4-1.3,1.1C120.8,23.1,121.3,23.5,122,23.5z"></path>
	<path d="M126.2,18.2h1v0.9c0.4-0.7,1-1,1.8-1c1.2,0,2.1,0.9,2.1,2.2v3.9h-1.1v-3.7c0-1-0.5-1.5-1.3-1.5c-0.8,0-1.4,0.7-1.4,1.6v3.6   h-1.1V18.2z"></path>
	<path d="M131.9,21.4v-0.3c0-2,1.2-3,2.5-3c0.8,0,1.5,0.4,1.8,1v-3.3h1.1v8.4h-1v-0.9c-0.3,0.6-1,1.1-1.9,1.1   C133.1,24.4,131.9,23.4,131.9,21.4z M134.6,23.4c0.9,0,1.6-0.8,1.6-2.2v-0.1c0-1.4-0.7-2.2-1.6-2.2c-0.9,0-1.6,0.7-1.6,2.2v0.1   C133,22.7,133.7,23.4,134.6,23.4z"></path>
	<path d="M140.8,21.3v-0.1c0-2,1.2-3.1,2.7-3.1c1.1,0,2,0.6,2.4,1.8l-1,0.2c-0.3-0.8-0.8-1.1-1.4-1.1c-0.9,0-1.6,0.7-1.6,2.2v0.1   c0,1.4,0.7,2.2,1.6,2.2c0.6,0,1.2-0.4,1.4-1.1l1,0.2c-0.4,1.2-1.3,1.8-2.4,1.8C142,24.4,140.8,23.3,140.8,21.3z"></path>
	<path d="M146.6,22.7L146.6,22.7c0-1.1,0.7-1.9,2.2-1.9h1.7v-0.4c0-0.9-0.5-1.4-1.3-1.4c-0.7,0-1.2,0.3-1.4,1l-1-0.2   c0.5-1.2,1.4-1.6,2.5-1.6c1.5,0,2.3,0.8,2.3,2.2v3.9h-1v-0.9c-0.4,0.5-1,1-2,1C147.4,24.4,146.6,23.7,146.6,22.7z M148.8,23.5   c0.9,0,1.7-0.7,1.7-1.6v-0.4h-1.5c-0.9,0-1.3,0.4-1.3,1.1C147.6,23.1,148.1,23.5,148.8,23.5z"></path>
	<path d="M153,18.2h1v0.9c0.3-0.6,1-1.1,1.9-1.1c1.3,0,2.5,1,2.5,3v0.3c0,2-1.2,3-2.5,3c-0.9,0-1.5-0.4-1.8-1v3.3H153V18.2z    M155.6,23.4c0.9,0,1.6-0.7,1.6-2.2v-0.1c0-1.4-0.7-2.2-1.6-2.2c-0.9,0-1.6,0.8-1.6,2.2v0.1C154,22.7,154.7,23.4,155.6,23.4z"></path>
	<path d="M159.4,16.1h1.1v1.2h-1.1V16.1z M159.4,18.2h1.1v6h-1.1V18.2z"></path>
	<path d="M162.4,22.7v-3.5h-0.9v-0.9h1v-1.8h1v1.8h1.7v0.9h-1.6v3.3c0,0.6,0.3,0.8,0.8,0.8h0.8v0.9H164   C163,24.2,162.4,23.7,162.4,22.7z"></path>
	<path d="M165.8,22.7L165.8,22.7c0-1.1,0.7-1.9,2.2-1.9h1.7v-0.4c0-0.9-0.5-1.4-1.3-1.4c-0.7,0-1.2,0.3-1.4,1l-1-0.2   c0.4-1.2,1.4-1.6,2.5-1.6c1.5,0,2.3,0.8,2.3,2.2v3.9h-1v-0.9c-0.4,0.5-1,1-2,1C166.6,24.4,165.8,23.7,165.8,22.7z M168,23.5   c0.9,0,1.7-0.7,1.7-1.6v-0.4h-1.5c-0.9,0-1.3,0.4-1.3,1.1C166.9,23.1,167.3,23.5,168,23.5z"></path>
	<path d="M172.2,22.9v-7h1.1v6.8c0,0.5,0.2,0.7,0.5,0.7h0.3v0.9h-0.6C172.7,24.2,172.2,23.8,172.2,22.9z"></path>
	<path d="M175.1,23h1.1v1.3h-1.1V23z"></path>
	<path d="M2.4,31.3H0.1v-1.1h5.8v1.1H3.5v7.3H2.4V31.3z"></path>
	<path d="M5.4,35.7v-0.1c0-2,1.2-3.1,2.7-3.1c1.5,0,2.7,1.1,2.7,3.1v0.1c0,2-1.2,3.1-2.7,3.1C6.6,38.8,5.4,37.7,5.4,35.7z M8.1,37.9   c0.9,0,1.7-0.8,1.7-2.2v-0.1c0-1.5-0.7-2.2-1.7-2.2c-0.9,0-1.7,0.8-1.7,2.2v0.1C6.5,37.1,7.2,37.9,8.1,37.9z"></path>
	<path d="M11.6,35.8v-0.3c0-2,1.2-3,2.5-3c0.8,0,1.5,0.4,1.8,1v-3.3h1.1v8.4h-1v-0.9c-0.3,0.6-1,1.1-1.9,1.1   C12.8,38.8,11.6,37.8,11.6,35.8z M14.3,37.8c0.9,0,1.6-0.8,1.6-2.2v-0.1c0-1.4-0.7-2.2-1.6-2.2c-0.9,0-1.6,0.7-1.6,2.2v0.1   C12.6,37.1,13.4,37.8,14.3,37.8z"></path>
	<path d="M18.2,37.1L18.2,37.1c0-1.1,0.7-1.9,2.2-1.9h1.7v-0.4c0-0.9-0.5-1.4-1.3-1.4c-0.7,0-1.2,0.3-1.4,1l-1-0.2   c0.5-1.2,1.4-1.6,2.5-1.6c1.5,0,2.3,0.8,2.3,2.2v3.9h-1v-0.9c-0.4,0.5-1,1-2,1C19,38.8,18.2,38.1,18.2,37.1z M20.4,37.9   c0.9,0,1.7-0.7,1.7-1.6v-0.4h-1.5c-0.9,0-1.3,0.4-1.3,1.1C19.2,37.5,19.7,37.9,20.4,37.9z"></path>
	<path d="M24.6,40.1h0.5c0.5,0,0.8-0.2,1-0.9l0.3-0.8l-2.5-5.8h1.2l1.3,3.4c0.2,0.4,0.3,0.8,0.5,1.3c0.1-0.5,0.2-1,0.4-1.3l1.1-3.3   h1.1l-2.5,7c-0.3,0.9-0.9,1.4-1.8,1.4h-0.6V40.1z"></path>
	<path d="M32.7,37.1L32.7,37.1c0-1.1,0.7-1.9,2.2-1.9h1.7v-0.4c0-0.9-0.5-1.4-1.3-1.4c-0.7,0-1.2,0.3-1.4,1l-1-0.2   c0.4-1.2,1.4-1.6,2.5-1.6c1.5,0,2.3,0.8,2.3,2.2v3.9h-1v-0.9c-0.4,0.5-1,1-2,1C33.5,38.8,32.7,38.1,32.7,37.1z M34.9,37.9   c0.9,0,1.7-0.7,1.7-1.6v-0.4h-1.5c-0.9,0-1.3,0.4-1.3,1.1C33.8,37.5,34.2,37.9,34.9,37.9z"></path>
	<path d="M39.1,32.6h1v0.9c0.4-0.7,1-1,1.8-1c1.2,0,2.1,0.9,2.1,2.2v3.9h-1.1V35c0-1-0.5-1.5-1.3-1.5c-0.8,0-1.4,0.7-1.4,1.6v3.6   h-1.1V32.6z"></path>
	<path d="M44.9,35.8v-0.3c0-2,1.2-3,2.5-3c0.8,0,1.5,0.4,1.8,1v-3.3h1.1v8.4h-1v-0.9c-0.3,0.6-1,1.1-1.9,1.1   C46.1,38.8,44.9,37.8,44.9,35.8z M47.6,37.8c0.9,0,1.6-0.8,1.6-2.2v-0.1c0-1.4-0.7-2.2-1.6-2.2c-0.9,0-1.6,0.7-1.6,2.2v0.1   C45.9,37.1,46.7,37.8,47.6,37.8z"></path>
	<path d="M54.7,33.5h-1.1v-0.9h1.1v-0.8c0-1.2,0.8-1.6,1.6-1.6h0.9v0.9h-0.7c-0.5,0-0.8,0.2-0.8,0.8v0.6h1.5v0.9h-1.5v5.1h-1.1V33.5   z"></path>
	<path d="M57.6,35.7v-0.1c0-2,1.2-3.1,2.7-3.1c1.5,0,2.7,1.1,2.7,3.1v0.1c0,2-1.2,3.1-2.7,3.1C58.8,38.8,57.6,37.7,57.6,35.7z    M60.3,37.9c0.9,0,1.7-0.8,1.7-2.2v-0.1c0-1.5-0.7-2.2-1.7-2.2c-0.9,0-1.7,0.8-1.7,2.2v0.1C58.6,37.1,59.4,37.9,60.3,37.9z"></path>
	<path d="M64.2,32.6h1v1.3c0.4-0.8,1.2-1.3,2.2-1.3v1.1c-1.3,0-2.1,0.9-2.1,2.3v2.7h-1.1V32.6z"></path>
	<path d="M70.6,39.5c0-0.6,0.3-1.1,0.8-1.4c-0.3-0.2-0.5-0.6-0.5-1c0-0.6,0.4-1,0.9-1.2c-0.4-0.3-0.7-0.8-0.7-1.4c0-1.1,0.9-2,2.2-2   c0.3,0,0.6,0.1,0.8,0.1H76v0.8H75c0.2,0.3,0.4,0.6,0.4,1c0,1.1-0.9,2-2.2,2h-0.8c-0.4,0-0.7,0.2-0.7,0.5c0,0.3,0.2,0.5,0.7,0.5h1.8   c1.1,0,1.9,0.8,1.9,1.7c0,1-0.8,1.9-2.1,1.9h-1.4C71.3,41.2,70.6,40.4,70.6,39.5z M72.8,40.4h1.1c0.8,0,1.2-0.4,1.2-1   c0-0.5-0.4-0.9-1.1-0.9h-1.5c-0.6,0-1.1,0.4-1.1,0.9S72,40.4,72.8,40.4z M73.2,35.7c0.7,0,1.2-0.5,1.2-1.2c0-0.7-0.5-1.2-1.2-1.2   c-0.7,0-1.2,0.5-1.2,1.2C72,35.2,72.5,35.7,73.2,35.7z"></path>
	<path d="M79.3,38.8c-1.5,0-2.8-1.1-2.8-3.1v-0.1c0-2,1.2-3.1,2.7-3.1c1.5,0,2.7,1.1,2.7,3.1v0.3h-4.4c0,1.3,0.8,2,1.8,2   c0.6,0,1.2-0.3,1.5-0.9l1,0.2C81.3,38.2,80.4,38.8,79.3,38.8z M80.9,35.2c-0.1-1.2-0.8-1.9-1.7-1.9c-0.8,0-1.6,0.6-1.7,1.9H80.9z"></path>
	<path d="M83,32.6h1v0.9c0.4-0.7,1-1,1.8-1c1.2,0,2.1,0.9,2.1,2.2v3.9h-1.1V35c0-1-0.5-1.5-1.3-1.5c-0.8,0-1.4,0.7-1.4,1.6v3.6H83   V32.6z"></path>
	<path d="M91.6,38.8c-1.5,0-2.8-1.1-2.8-3.1v-0.1c0-2,1.2-3.1,2.7-3.1c1.5,0,2.7,1.1,2.7,3.1v0.3h-4.4c0,1.3,0.8,2,1.8,2   c0.6,0,1.2-0.3,1.5-0.9l1,0.2C93.7,38.2,92.7,38.8,91.6,38.8z M93.2,35.2c-0.1-1.2-0.8-1.9-1.7-1.9c-0.8,0-1.6,0.6-1.7,1.9H93.2z"></path>
	<path d="M95.4,32.6h1v1.3c0.4-0.8,1.2-1.3,2.2-1.3v1.1c-1.3,0-2.1,0.9-2.1,2.3v2.7h-1.1V32.6z"></path>
	<path d="M99.3,37.1L99.3,37.1c0-1.1,0.7-1.9,2.2-1.9h1.7v-0.4c0-0.9-0.5-1.4-1.3-1.4c-0.7,0-1.2,0.3-1.4,1l-1-0.2   c0.5-1.2,1.4-1.6,2.5-1.6c1.5,0,2.3,0.8,2.3,2.2v3.9h-1v-0.9c-0.4,0.5-1,1-2,1C100,38.8,99.3,38.1,99.3,37.1z M101.5,37.9   c1,0,1.7-0.7,1.7-1.6v-0.4h-1.5c-0.9,0-1.3,0.4-1.3,1.1C100.3,37.5,100.8,37.9,101.5,37.9z"></path>
	<path d="M106.1,37.1v-3.5h-0.9v-0.9h1v-1.8h1v1.8h1.7v0.9h-1.6v3.3c0,0.6,0.3,0.8,0.8,0.8h0.8v0.9h-1.1   C106.7,38.6,106.1,38.1,106.1,37.1z"></path>
	<path d="M109.7,30.5h1.1v1.2h-1.1V30.5z M109.7,32.6h1.1v6h-1.1V32.6z"></path>
	<path d="M111.9,35.7v-0.1c0-2,1.2-3.1,2.7-3.1c1.5,0,2.7,1.1,2.7,3.1v0.1c0,2-1.2,3.1-2.7,3.1C113.1,38.8,111.9,37.7,111.9,35.7z    M114.6,37.9c0.9,0,1.7-0.8,1.7-2.2v-0.1c0-1.5-0.7-2.2-1.7-2.2c-0.9,0-1.7,0.8-1.7,2.2v0.1C112.9,37.1,113.7,37.9,114.6,37.9z"></path>
	<path d="M118.4,32.6h1v0.9c0.4-0.7,1-1,1.8-1c1.2,0,2.1,0.9,2.1,2.2v3.9h-1.1V35c0-1-0.5-1.5-1.3-1.5c-0.8,0-1.4,0.7-1.4,1.6v3.6   h-1.1V32.6z"></path>
	<path d="M124,37.2l0.9-0.4c0.3,0.7,0.8,1.1,1.6,1.1c0.8,0,1.3-0.4,1.3-0.9c0-0.6-0.5-0.8-1.1-0.9l-0.8-0.1   c-1.1-0.2-1.7-0.7-1.7-1.6c0-1,0.8-1.8,2.2-1.8c1,0,1.9,0.4,2.4,1.3l-0.9,0.4c-0.3-0.6-0.8-0.9-1.5-0.9c-0.7,0-1.2,0.4-1.2,0.9   c0,0.5,0.4,0.7,1,0.8l0.8,0.1c1.2,0.2,1.9,0.7,1.9,1.7c0,1-0.8,1.8-2.3,1.8C125.6,38.8,124.6,38.3,124,37.2z"></path>
	<path d="M132.6,37.1v-3.5h-0.9v-0.9h1v-1.8h1v1.8h1.7v0.9h-1.6v3.3c0,0.6,0.3,0.8,0.8,0.8h0.8v0.9h-1.1   C133.3,38.6,132.6,38.1,132.6,37.1z"></path>
	<path d="M135.9,35.7v-0.1c0-2,1.2-3.1,2.7-3.1c1.5,0,2.7,1.1,2.7,3.1v0.1c0,2-1.2,3.1-2.7,3.1C137.1,38.8,135.9,37.7,135.9,35.7z    M138.6,37.9c0.9,0,1.7-0.8,1.7-2.2v-0.1c0-1.5-0.7-2.2-1.7-2.2c-0.9,0-1.7,0.8-1.7,2.2v0.1C137,37.1,137.7,37.9,138.6,37.9z"></path>
	<path d="M144.5,35.7v-0.1c0-2,1.2-3.1,2.7-3.1c1.1,0,2,0.6,2.4,1.8l-1,0.2c-0.3-0.8-0.8-1.1-1.4-1.1c-0.9,0-1.6,0.7-1.6,2.2v0.1   c0,1.4,0.7,2.2,1.6,2.2c0.6,0,1.2-0.4,1.4-1.1l1,0.2c-0.4,1.2-1.3,1.8-2.4,1.8C145.7,38.8,144.5,37.7,144.5,35.7z"></path>
	<path d="M150.1,35.7v-0.1c0-2,1.2-3.1,2.7-3.1c1.5,0,2.7,1.1,2.7,3.1v0.1c0,2-1.2,3.1-2.7,3.1C151.3,38.8,150.1,37.7,150.1,35.7z    M152.8,37.9c0.9,0,1.7-0.8,1.7-2.2v-0.1c0-1.5-0.7-2.2-1.7-2.2c-0.9,0-1.7,0.8-1.7,2.2v0.1C151.1,37.1,151.9,37.9,152.8,37.9z"></path>
	<path d="M156.6,32.6h1v0.9c0.3-0.5,0.9-1,1.7-1c0.8,0,1.3,0.4,1.6,1c0.4-0.7,1-1,1.7-1c1.2,0,2,0.9,2,2.2v3.9h-1.1v-3.7   c0-0.9-0.4-1.5-1.2-1.5c-0.8,0-1.3,0.7-1.3,1.6v3.6h-1.1v-3.7c0-0.9-0.4-1.5-1.2-1.5c-0.8,0-1.3,0.7-1.3,1.6v3.6h-1.1V32.6z"></path>
	<path d="M168.5,38.8c-1.5,0-2.8-1.1-2.8-3.1v-0.1c0-2,1.2-3.1,2.7-3.1c1.5,0,2.7,1.1,2.7,3.1v0.3h-4.4c0,1.3,0.8,2,1.8,2   c0.6,0,1.2-0.3,1.5-0.9l1,0.2C170.6,38.2,169.6,38.8,168.5,38.8z M170.1,35.2c-0.1-1.2-0.8-1.9-1.7-1.9c-0.8,0-1.6,0.6-1.7,1.9   H170.1z"></path>
	<path d="M172.3,37.4h1.1v1.3h-1.1V37.4z"></path>
</g>
</svg>