<?xml version="1.0" encoding="utf-8"?>
<!-- Generator: Adobe Illustrator 25.2.3, SVG Export Plug-In . SVG Version: 6.00 Build 0)  -->
<svg version="1.1" id="Layer_1" xmlns="http://www.w3.org/2000/svg" xmlns:xlink="http://www.w3.org/1999/xlink" x="0px" y="0px"
	 viewBox="0 0 360 360" style="enable-background:new 0 0 360 360;" xml:space="preserve">
<style type="text/css">
	.st0{fill:#EDEDED;}
	.st1{fill:#673AB5;}
	.st2{fill:none;stroke:#FF0000;stroke-width:0.5;stroke-miterlimit:10;}
</style>
<g id="Lager_2">
	<g id="Lager_1-2">
		<rect class="st0" width="360" height="360"/>
		<path class="st1" d="M47.8,55.2V58H33.9V30h3v25.2H47.8z"/>
		<path class="st1" d="M49.5,48.2v-0.4c0-6.7,3.9-10.4,8.8-10.4s8.8,3.7,8.8,10.4v0.4c0,6.7-3.9,10.4-8.8,10.4S49.5,54.9,49.5,48.2z
			 M64.4,48.1v-0.2c0-5.3-2.7-8.1-6-8.1s-6,2.8-6,8.1v0.2c0,5.3,2.7,8.1,6,8.1S64.4,53.4,64.4,48.1z"/>
		<path class="st1" d="M71.3,38h2.6v4.8c1.2-3.1,4.3-5.1,7.6-5v2.8c-4.5,0-7.4,3.4-7.4,8.2V58h-2.8L71.3,38z"/>
		<path class="st1" d="M92.3,58.6c-5,0-9-3.7-9-10.4v-0.4c0-6.7,3.9-10.4,8.8-10.4s8.8,3.7,8.8,10.4v0.8H86c0.1,4.7,2.6,7.7,6.4,7.7
			c2.3,0.1,4.5-1.3,5.4-3.5l2.7,0.5C99.1,56.6,95.9,58.7,92.3,58.6z M98.1,46.7c-0.3-4.6-2.9-7-6-7s-5.8,2.4-6,7H98.1z"/>
		<path class="st1" d="M104.7,38h2.6v3.2c1.1-2.2,3.3-3.6,5.8-3.6c2.5-0.1,4.8,1.5,5.5,3.9c1-2.4,3.4-4,6-3.9c3.9,0,6.6,2.9,6.6,7.4
			v13h-2.8V45.5c0-3.4-1.7-5.5-4.3-5.5c-2.9,0-4.8,2.6-4.8,5.9V58h-2.8V45.5c0-3.4-1.7-5.5-4.3-5.5c-2.9,0-4.8,2.6-4.8,5.9V58h-2.8
			L104.7,38z"/>
		<path class="st1" d="M144.5,31.2h3.1v3.2h-3.1V31.2z M144.7,38h2.8v20h-2.8V38z"/>
		<path class="st1" d="M152.4,38h2.6v3.7c1.1-2.5,3.7-4.2,6.5-4.1c4.4,0,8.3,3.3,8.3,10v0.8c0,6.7-3.9,10-8.2,10
			c-2.7,0.1-5.2-1.5-6.3-3.9V66h-2.8L152.4,38z M167,48.1v-0.2c0-5.1-2.6-7.9-6-7.9s-5.9,2.8-5.9,7.9v0.2c0,5.2,2.6,7.9,5.9,7.9
			S167,53.3,167,48.1z"/>
		<path class="st1" d="M172,53.3l2.4-1c0.9,2.4,3.2,4,5.8,3.9c2.7,0,4.7-1.3,4.7-3.6s-1.8-3-4.2-3.5l-2.6-0.5
			c-3.2-0.6-5.7-2.1-5.7-5.2c0-3.3,2.6-5.9,7.1-5.9c3.2-0.2,6.3,1.6,7.8,4.4l-2.4,1c-1-2-3.1-3.3-5.3-3.2c-2.6,0-4.5,1.4-4.5,3.5
			c0,1.9,1.6,2.8,3.6,3.1l2.5,0.5c3.8,0.7,6.3,2.2,6.3,5.5c0,3.5-2.8,6-7.4,6C176.7,58.6,173.4,56.5,172,53.3z"/>
		<path class="st1" d="M206.2,58h-2.6v-3.2c-1.1,2.3-3.5,3.7-6.1,3.6c-4.1,0-6.8-2.9-6.8-7.4V38h2.8v12.4c0,3.5,1.9,5.6,4.7,5.6
			c3.1,0,5.2-2.5,5.2-5.9V38h2.8L206.2,58z"/>
		<path class="st1" d="M211.2,38h2.6v3.2c1.1-2.2,3.3-3.6,5.8-3.6c2.5-0.1,4.8,1.5,5.5,3.9c1-2.4,3.4-4,6-3.9c3.9,0,6.6,2.9,6.6,7.4
			v13h-2.8V45.5c0-3.4-1.7-5.5-4.3-5.5c-2.9,0-4.8,2.6-4.8,5.9V58H223V45.5c0-3.4-1.7-5.5-4.3-5.5c-2.9,0-4.8,2.6-4.8,5.9V58h-2.8
			L211.2,38z"/>
		<path class="st1" d="M31.6,88.4v-0.8c0-6.7,3.9-10,8.2-10c2.7-0.1,5.2,1.5,6.3,3.9V70h2.8v28h-2.6v-3.7c-1.1,2.5-3.7,4.2-6.5,4.1
			C35.4,98.4,31.6,95.1,31.6,88.4z M46.2,88.1v-0.2c0-5.2-2.6-7.9-5.9-7.9s-6,2.7-6,7.9v0.2c0,5.1,2.6,7.9,6,7.9
			S46.2,93.2,46.2,88.1z"/>
		<path class="st1" d="M52.8,88.2v-0.4c0-6.7,3.9-10.4,8.8-10.4s8.8,3.7,8.8,10.4v0.4c0,6.7-3.9,10.4-8.8,10.4S52.8,94.9,52.8,88.2z
			 M67.7,88.1v-0.2c0-5.3-2.7-8.1-6-8.1s-6,2.8-6,8.1v0.2c0,5.3,2.7,8.1,6,8.1S67.7,93.4,67.7,88.1z"/>
		<path class="st1" d="M74.4,93.7V70h2.8v23.2c0,1.8,0.7,2.4,2,2.4h1V98h-1.6C76.1,98,74.4,96.7,74.4,93.7z"/>
		<path class="st1" d="M81.9,88.2v-0.4c0-6.7,3.9-10.4,8.8-10.4s8.8,3.7,8.8,10.4v0.4c0,6.7-3.9,10.4-8.8,10.4S81.9,94.9,81.9,88.2z
			 M96.7,88.1v-0.2c0-5.3-2.7-8.1-6-8.1s-6,2.8-6,8.1v0.2c0,5.3,2.7,8.1,6,8.1S96.7,93.4,96.7,88.1z"/>
		<path class="st1" d="M103.6,78h2.6v4.8c1.2-3.1,4.3-5.1,7.6-5v2.8c-4.5,0-7.4,3.4-7.4,8.2V98h-2.8L103.6,78z"/>
		<path class="st1" d="M124.2,93.3l2.4-1c0.9,2.4,3.2,4,5.8,3.9c2.7,0,4.7-1.3,4.7-3.6s-1.8-3-4.2-3.5l-2.6-0.5
			c-3.2-0.6-5.7-2.1-5.7-5.2c0-3.3,2.6-5.9,7.1-5.9c3.2-0.1,6.3,1.6,7.8,4.4l-2.4,1c-1-2-3.1-3.3-5.3-3.2c-2.6,0-4.5,1.4-4.5,3.5
			c0,1.9,1.6,2.8,3.6,3.1l2.5,0.5c3.8,0.7,6.3,2.2,6.3,5.5c0,3.5-2.8,6-7.4,6C128.9,98.6,125.7,96.5,124.2,93.3z"/>
		<path class="st1" d="M143.2,71.2h3.1v3.2h-3.1V71.2z M143.4,78h2.8v20h-2.8V78z"/>
		<path class="st1" d="M152.7,93.1V80.4h-3.4V78h3.5v-6h2.6v6h5.7v2.4h-5.6v12.2c0,2.1,1,3,2.7,3h2.9V98h-3.6
			C154.7,98,152.7,96.5,152.7,93.1z"/>
		<path class="st1" d="M172.2,92.9v-0.3c0-3.3,2.4-6.1,7.4-6.1h5.8v-1.6c0-3.2-1.8-5.1-4.8-5.1c-2.3-0.1-4.4,1.3-5.2,3.5l-2.6-0.5
			c1.2-3.3,4.4-5.5,7.9-5.3c4.7,0,7.4,2.8,7.4,7.2V98h-2.6v-3.2c-1.5,2.3-4.1,3.7-6.8,3.6C174.9,98.4,172.2,96.2,172.2,92.9z
			 M185.4,90.2v-1.8h-5.4c-3.3,0-4.9,1.7-4.9,4s1.8,3.8,4.3,3.8c3.2,0.1,5.9-2.4,6-5.6C185.4,90.4,185.4,90.3,185.4,90.2L185.4,90.2
			z"/>
		<path class="st1" d="M193,78h2.6v3.2c1.1-2.2,3.3-3.6,5.8-3.6c2.5-0.1,4.8,1.5,5.5,3.9c1-2.4,3.4-4,6-3.9c3.9,0,6.6,2.9,6.6,7.4
			v13h-2.8V85.5c0-3.4-1.7-5.5-4.3-5.5c-2.9,0-4.8,2.6-4.8,5.9V98h-2.8V85.5c0-3.4-1.7-5.5-4.3-5.5c-2.9,0-4.8,2.6-4.8,5.9V98H193
			V78z"/>
		<path class="st1" d="M232.1,98.6c-5,0-9-3.7-9-10.4v-0.4c0-6.7,3.9-10.4,8.8-10.4s8.8,3.7,8.8,10.4v0.8h-15
			c0.1,4.7,2.6,7.7,6.4,7.7c2.3,0.1,4.5-1.3,5.4-3.5l2.7,0.5C238.9,96.6,235.7,98.7,232.1,98.6z M237.9,86.7c-0.3-4.6-2.9-7-6-7
			s-5.8,2.4-6,7H237.9z"/>
		<path class="st1" d="M245.6,93.1V80.4h-3.4V78h3.5v-6h2.6v6h5.7v2.4h-5.6v12.2c0,2.1,1,3,2.7,3h2.9V98h-3.6
			C247.6,98,245.6,96.5,245.6,93.1z"/>
		<path class="st1" d="M260.2,94.4v5.5c0,2-1.2,3.1-3.5,3.1v-1.6c1.1,0,1.6-0.4,1.6-1.6v-2h-1.2v-3.4H260.2z"/>
		<path class="st1" d="M31.6,128.2v-0.4c0-6.6,3.9-10.2,8.6-10.2c3.6,0,6.8,2.4,7.8,5.9l-2.6,0.5c-0.7-2.3-2.8-3.9-5.2-4
			c-3.2,0-5.8,2.7-5.8,7.9v0.2c0,5.2,2.7,7.9,5.8,7.9c2.4-0.1,4.5-1.7,5.2-4l2.6,0.5c-1,3.5-4.2,6-7.8,5.9
			C35.5,138.4,31.6,134.8,31.6,128.2z"/>
		<path class="st1" d="M50.2,128.2v-0.4c0-6.7,3.9-10.4,8.8-10.4s8.8,3.7,8.8,10.4v0.4c0,6.7-3.9,10.4-8.8,10.4
			S50.2,134.9,50.2,128.2z M65.1,128.1v-0.2c0-5.3-2.7-8.1-6-8.1s-6,2.8-6,8.1v0.2c0,5.3,2.7,8.1,6,8.1S65.1,133.4,65.1,128.1
			L65.1,128.1z"/>
		<path class="st1" d="M71.8,118h2.6v3.2c1.1-2.3,3.5-3.7,6.1-3.6c4.1,0,6.8,2.9,6.8,7.4v13h-2.8v-12.4c0-3.5-1.9-5.6-4.7-5.6
			c-3.1,0-5.2,2.6-5.2,5.9V138h-2.8V118z"/>
		<path class="st1" d="M90.3,133.3l2.4-1c0.9,2.4,3.2,4,5.8,3.9c2.7,0,4.7-1.3,4.7-3.6s-1.8-3-4.2-3.5l-2.6-0.5
			c-3.2-0.6-5.7-2.1-5.7-5.2c0-3.3,2.6-5.9,7.1-5.9c3.2-0.1,6.2,1.6,7.8,4.4l-2.4,1c-1-2-3.1-3.3-5.3-3.2c-2.6,0-4.5,1.4-4.5,3.5
			c0,1.9,1.6,2.8,3.6,3.1l2.5,0.5c3.8,0.7,6.3,2.2,6.3,5.5c0,3.5-2.8,6-7.4,6C95,138.6,91.7,136.5,90.3,133.3z"/>
		<path class="st1" d="M117.4,138.6c-5,0-9-3.7-9-10.4v-0.4c0-6.7,3.9-10.4,8.8-10.4s8.8,3.7,8.8,10.4v0.8h-15
			c0.1,4.7,2.6,7.7,6.4,7.7c2.3,0.1,4.5-1.3,5.4-3.5l2.7,0.5C124.2,136.6,121,138.7,117.4,138.6z M123.3,126.7c-0.3-4.6-2.9-7-6-7
			s-5.8,2.4-6,7H123.3z"/>
		<path class="st1" d="M128.9,128.2v-0.4c0-6.6,3.9-10.2,8.6-10.2c3.6,0,6.8,2.4,7.8,5.9l-2.6,0.5c-0.7-2.3-2.8-3.9-5.2-4
			c-3.2,0-5.8,2.7-5.8,7.9v0.2c0,5.2,2.7,7.9,5.8,7.9c2.4-0.1,4.5-1.7,5.2-4l2.6,0.5c-1,3.5-4.2,6-7.8,5.9
			C132.8,138.4,128.9,134.8,128.9,128.2z"/>
		<path class="st1" d="M150.1,133.1v-12.7h-3.4V118h3.5v-6h2.6v6h5.7v2.4h-5.6v12.2c0,2.1,1,3,2.7,3h2.9v2.4H155
			C152.1,138,150.1,136.5,150.1,133.1z"/>
		<path class="st1" d="M169.2,138.6c-5,0-9-3.7-9-10.4v-0.4c0-6.7,3.9-10.4,8.8-10.4s8.8,3.7,8.8,10.4v0.8h-15
			c0.1,4.7,2.6,7.7,6.4,7.7c2.3,0.1,4.5-1.3,5.4-3.5l2.7,0.5C176,136.6,172.7,138.7,169.2,138.6z M175,126.7c-0.3-4.6-2.9-7-6-7
			s-5.8,2.4-6,7H175z"/>
		<path class="st1" d="M182.7,133.1v-12.7h-3.4V118h3.5v-6h2.6v6h5.7v2.4h-5.6v12.2c0,2.1,1,3,2.7,3h2.9v2.4h-3.6
			C184.6,138,182.7,136.5,182.7,133.1z"/>
		<path class="st1" d="M209.5,138h-2.6v-3.2c-1.1,2.3-3.5,3.7-6.1,3.6c-4.1,0-6.8-2.9-6.8-7.4v-13h2.8v12.4c0,3.5,1.9,5.6,4.7,5.6
			c3.1,0,5.2-2.5,5.2-5.9V118h2.8L209.5,138z"/>
		<path class="st1" d="M222.4,138.6c-5,0-9-3.7-9-10.4v-0.4c0-6.7,3.9-10.4,8.8-10.4s8.8,3.7,8.8,10.4v0.8h-15
			c0.1,4.7,2.6,7.7,6.4,7.7c2.3,0.1,4.5-1.3,5.4-3.5l2.7,0.5C229.3,136.6,226,138.7,222.4,138.6z M228.3,126.7c-0.3-4.6-2.9-7-6-7
			s-5.8,2.4-6,7H228.3z"/>
		<path class="st1" d="M235.1,118h2.6v4.8c1.2-3.1,4.3-5.1,7.6-5v2.8c-4.5,0-7.4,3.4-7.4,8.2v9.2h-2.8L235.1,118z"/>
		<path class="st1" d="M32.1,172.9v-0.3c0-3.3,2.4-6.1,7.4-6.1h5.8v-1.6c0-3.2-1.8-5.1-4.8-5.1c-2.3-0.1-4.4,1.3-5.2,3.5l-2.6-0.5
			c1.2-3.3,4.4-5.5,7.9-5.3c4.7,0,7.4,2.8,7.4,7.2V178h-2.6v-3.2c-1.5,2.3-4.1,3.7-6.8,3.6C34.8,178.4,32.1,176.2,32.1,172.9z
			 M45.2,170.2v-1.8h-5.4c-3.3,0-4.9,1.7-4.9,4s1.8,3.8,4.3,3.8c3.2,0.1,5.9-2.4,6-5.6C45.2,170.4,45.2,170.3,45.2,170.2L45.2,170.2
			z"/>
		<path class="st1" d="M51.8,168.4v-0.8c0-6.7,3.9-10,8.2-10c2.7-0.1,5.2,1.5,6.3,3.9V150h2.8v28h-2.6v-3.7
			c-1.1,2.5-3.7,4.2-6.5,4.1C55.7,178.4,51.8,175.1,51.8,168.4z M66.5,168.1v-0.2c0-5.2-2.6-7.9-5.9-7.9s-6,2.7-6,7.9v0.2
			c0,5.1,2.6,7.9,6,7.9S66.5,173.2,66.5,168.1L66.5,168.1z"/>
		<path class="st1" d="M74,151.2h3.1v3.2H74V151.2z M74.1,158H77v20h-2.8L74.1,158z"/>
		<path class="st1" d="M82,158h2.6v3.7c1.1-2.5,3.7-4.1,6.4-4.1c4.4,0,8.3,3.3,8.3,10v0.8c0,6.7-3.9,10-8.2,10
			c-2.7,0.1-5.2-1.5-6.3-3.9V186H82V158z M96.6,168.1v-0.2c0-5.1-2.6-7.9-6-7.9s-5.9,2.8-5.9,7.9v0.2c0,5.2,2.6,7.9,5.9,7.9
			S96.5,173.3,96.6,168.1L96.6,168.1z"/>
		<path class="st1" d="M103.1,151.2h3.1v3.2h-3.1V151.2z M103.3,158h2.8v20h-2.8V158z"/>
		<path class="st1" d="M109.5,173.3l2.4-1c0.9,2.4,3.2,4,5.8,3.9c2.7,0,4.7-1.3,4.7-3.6s-1.8-3-4.2-3.5l-2.6-0.5
			c-3.2-0.6-5.7-2.1-5.7-5.2c0-3.3,2.6-5.9,7.1-5.9c3.2-0.1,6.2,1.6,7.8,4.4l-2.4,1c-1-2-3.1-3.3-5.3-3.2c-2.6,0-4.5,1.4-4.5,3.5
			c0,1.9,1.6,2.8,3.6,3.1l2.5,0.5c3.8,0.7,6.3,2.2,6.3,5.5c0,3.5-2.8,6-7.4,6C114.2,178.6,110.9,176.5,109.5,173.3z"/>
		<path class="st1" d="M127.6,168.2v-0.4c0-6.6,3.9-10.2,8.6-10.2c3.6,0,6.9,2.4,7.8,5.9l-2.6,0.5c-0.7-2.3-2.8-3.9-5.2-4
			c-3.2,0-5.8,2.7-5.8,7.9v0.2c0,5.2,2.7,7.9,5.8,7.9c2.4-0.1,4.5-1.7,5.2-4l2.6,0.5c-1,3.5-4.2,6-7.8,5.9
			C131.5,178.4,127.6,174.8,127.6,168.2z"/>
		<path class="st1" d="M147.1,151.2h3.1v3.2h-3.1V151.2z M147.3,158h2.8v20h-2.8V158z"/>
		<path class="st1" d="M155.1,158h2.6v3.2c1.1-2.3,3.5-3.7,6.1-3.6c4.1,0,6.8,2.9,6.8,7.4v13h-2.8v-12.4c0-3.5-1.9-5.6-4.7-5.6
			c-3.1,0-5.2,2.6-5.2,5.9V178h-2.8L155.1,158z"/>
		<path class="st1" d="M173.7,180.9c0-2.1,1.2-3.9,3.1-4.8c-1.1-0.7-1.8-1.9-1.8-3.2c0-1.8,1.2-3.3,2.9-3.7c-1.7-1.1-2.8-3-2.8-5.1
			c0-3.8,3.1-6.6,7.1-6.6c0.9,0,1.9,0.2,2.8,0.5h6v2.2h-3.3c1.1,1,1.7,2.4,1.7,3.9c0,3.8-3,6.7-7.1,6.7h-2.5c-1.6,0-2.4,0.8-2.4,2
			s0.8,2,2.4,2h5.8c3.6,0,6.1,2.5,6.1,5.7c0,3.3-2.7,6.1-6.9,6.1h-4.5C176.2,186.6,173.7,184,173.7,180.9z M184.5,184.4
			c2.9,0,4.6-1.6,4.6-3.8s-1.6-3.6-4-3.6h-4.8c-2.1-0.1-3.8,1.4-4,3.4c0,0.1,0,0.1,0,0.2c0,2.1,1.6,3.7,4.5,3.7L184.5,184.4z
			 M186.9,164.2c0.1-2.6-2-4.7-4.5-4.7c-2.6-0.1-4.7,2-4.7,4.5s2,4.7,4.5,4.7c0,0,0.1,0,0.1,0c2.5,0.1,4.6-1.9,4.6-4.4
			C186.9,164.3,186.9,164.2,186.9,164.2L186.9,164.2z"/>
		<path class="st1" d="M211.2,178.6c-5,0-9-3.7-9-10.4v-0.4c0-6.7,3.9-10.4,8.8-10.4s8.8,3.7,8.8,10.4v0.8h-15
			c0.1,4.7,2.6,7.7,6.4,7.7c2.3,0.1,4.5-1.3,5.4-3.5l2.7,0.5C218.1,176.6,214.8,178.7,211.2,178.6z M217.1,166.7c-0.3-4.6-2.9-7-6-7
			s-5.8,2.4-6,7H217.1z"/>
		<path class="st1" d="M223.6,173.7V150h2.8v23.2c0,1.8,0.7,2.4,2,2.4h1v2.4h-1.7C225.3,178,223.6,176.7,223.6,173.7z"/>
		<path class="st1" d="M232.6,151.2h3.1v3.2h-3.1V151.2z M232.7,158h2.8v20h-2.8V158z"/>
		<path class="st1" d="M242,173.1v-12.7h-3.4V158h3.5v-6h2.6v6h5.7v2.4h-5.6v12.2c0,2.1,1,3,2.7,3h2.9v2.4h-3.6
			C244,178,242,176.5,242,173.1z"/>
		<path class="st1" d="M253.8,174.4h3.1v3.6h-3.1L253.8,174.4z"/>
		<path class="st1" d="M30.6,212.4l2.7-1.1c1.4,2.9,4.3,4.7,7.5,4.5c4,0,6.9-2.1,6.9-5.5c0-3.2-2.6-4.5-5-5l-3.8-0.7
			c-3.9-0.7-7.7-2.5-7.7-7.3V197c0-4.6,4-7.6,9.2-7.6c4.1-0.1,7.9,2.1,9.8,5.8l-2.7,1.1c-1.4-2.7-4.2-4.4-7.2-4.3
			c-3.5,0-6.2,2-6.2,5.2c0,3.1,2.4,4.3,5.3,4.8l3.8,0.7c3.7,0.7,7.4,2.5,7.4,7.1v0.3c0,5-4.1,8.3-9.9,8.3
			C36.3,218.4,32.5,216.4,30.6,212.4z"/>
		<path class="st1" d="M62.3,218.6c-5,0-9-3.7-9-10.4v-0.4c0-6.7,3.9-10.4,8.8-10.4s8.8,3.7,8.8,10.4v0.8H56
			c0.1,4.7,2.6,7.7,6.4,7.7c2.3,0.1,4.5-1.3,5.4-3.5l2.7,0.5C69.1,216.6,65.8,218.7,62.3,218.6z M68.1,206.7c-0.3-4.6-2.9-7-6-7
			s-5.8,2.4-6,7H68.1z"/>
		<path class="st1" d="M73.7,208.4v-0.8c0-6.7,3.9-10,8.2-10c2.7-0.1,5.2,1.5,6.3,3.9V190h2.8v28h-2.6v-3.7
			c-1.1,2.5-3.7,4.2-6.5,4.1C77.6,218.4,73.7,215.1,73.7,208.4z M88.4,208.1v-0.2c0-5.2-2.6-7.9-5.9-7.9s-6,2.7-6,7.9v0.2
			c0,5.1,2.6,7.9,6,7.9S88.4,213.2,88.4,208.1L88.4,208.1z"/>
		<path class="st1" d="M103.5,208.4v-0.8c0-6.7,3.9-10,8.2-10c2.7-0.1,5.2,1.5,6.3,3.9V190h2.8v28h-2.6v-3.7
			c-1.1,2.5-3.7,4.2-6.5,4.1C107.4,218.4,103.5,215.1,103.5,208.4z M118.2,208.1v-0.2c0-5.2-2.6-7.9-5.9-7.9s-6,2.7-6,7.9v0.2
			c0,5.1,2.6,7.9,6,7.9S118.2,213.2,118.2,208.1L118.2,208.1z"/>
		<path class="st1" d="M125.8,191.2h3.1v3.2h-3.1L125.8,191.2z M125.9,198h2.8v20h-2.8L125.9,198z"/>
		<path class="st1" d="M132.7,212.9v-0.3c0-3.3,2.4-6.1,7.4-6.1h5.8v-1.6c0-3.2-1.8-5.1-4.8-5.1c-2.3-0.1-4.4,1.3-5.2,3.5l-2.6-0.5
			c1.2-3.3,4.4-5.5,7.9-5.3c4.7,0,7.4,2.8,7.4,7.2V218H146v-3.2c-1.5,2.3-4.1,3.7-6.8,3.6C135.4,218.4,132.7,216.2,132.7,212.9z
			 M145.9,210.2v-1.8h-5.4c-3.3,0-4.9,1.7-4.9,4s1.8,3.8,4.3,3.8c3.2,0.1,5.9-2.4,6-5.6C145.9,210.4,145.9,210.3,145.9,210.2
			L145.9,210.2z"/>
		<path class="st1" d="M153.5,198h2.6v3.2c1.1-2.2,3.3-3.6,5.8-3.6c2.5-0.1,4.8,1.5,5.5,3.9c1-2.4,3.4-4,6-3.9
			c3.9,0,6.6,2.9,6.6,7.4v13h-2.8v-12.5c0-3.4-1.7-5.5-4.3-5.5c-2.9,0-4.8,2.6-4.8,5.9V218h-2.8v-12.5c0-3.4-1.7-5.5-4.3-5.5
			c-2.9,0-4.8,2.6-4.8,5.9V218h-2.8L153.5,198z"/>
		<path class="st1" d="M193.3,198h2.6v3.2c1.1-2.3,3.5-3.7,6.1-3.6c4.1,0,6.8,2.9,6.8,7.4v13H206v-12.4c0-3.5-1.9-5.6-4.7-5.6
			c-3.1,0-5.2,2.6-5.2,5.9V218h-2.8L193.3,198z"/>
		<path class="st1" d="M212.4,208.2v-0.4c0-6.7,3.9-10.4,8.8-10.4s8.8,3.7,8.8,10.4v0.4c0,6.7-3.9,10.4-8.8,10.4
			S212.4,214.9,212.4,208.2z M227.2,208.1v-0.2c0-5.3-2.7-8.1-6-8.1s-6,2.8-6,8.1v0.2c0,5.3,2.7,8.1,6,8.1S227.2,213.4,227.2,208.1
			L227.2,208.1z"/>
		<path class="st1" d="M234,198h2.6v3.2c1.1-2.3,3.5-3.7,6.1-3.6c4.1,0,6.8,2.9,6.8,7.4v13h-2.8v-12.4c0-3.5-1.9-5.6-4.7-5.6
			c-3.1,0-5.2,2.6-5.2,5.9V218H234V198z"/>
		<path class="st1" d="M269.3,218h-2.6v-3.2c-1.1,2.3-3.5,3.7-6.1,3.6c-4.1,0-6.8-2.9-6.8-7.4v-13h2.8v12.4c0,3.5,1.9,5.6,4.7,5.6
			c3.1,0,5.2-2.5,5.2-5.9V198h2.8V218z"/>
		<path class="st1" d="M32.9,238h2.6v3.2c1.1-2.2,3.3-3.6,5.8-3.6c2.5-0.1,4.8,1.5,5.5,3.9c1-2.4,3.4-4,6-3.9c3.9,0,6.6,2.9,6.6,7.4
			v13h-2.8v-12.5c0-3.4-1.7-5.5-4.3-5.5c-2.9,0-4.8,2.6-4.8,5.9V258h-2.8v-12.5c0-3.4-1.7-5.5-4.3-5.5c-2.9,0-4.8,2.6-4.8,5.9V258
			h-2.8L32.9,238z"/>
		<path class="st1" d="M64.1,238h2.6v3.2c1.1-2.2,3.3-3.6,5.8-3.6c2.5-0.1,4.8,1.5,5.5,3.9c1-2.4,3.4-4,6-3.9c3.9,0,6.6,2.9,6.6,7.4
			v13h-2.8v-12.5c0-3.4-1.7-5.5-4.3-5.5c-2.9,0-4.8,2.6-4.8,5.9V258h-2.8v-12.5c0-3.4-1.7-5.5-4.3-5.5c-2.9,0-4.8,2.6-4.8,5.9V258
			h-2.8L64.1,238z"/>
		<path class="st1" d="M94.8,263.6h1.5c1.9,0,2.8-0.9,3.6-3.1l1.2-3.3L92.8,238h3.1l4.8,11.5c0.6,1.4,1.2,2.8,1.8,4.5
			c0.5-1.8,0.9-3.2,1.4-4.6l3.9-11.4h2.9l-8.5,23.4c-1.1,3-2.9,4.6-5.8,4.6h-1.8V263.6z"/>
		<path class="st1" d="M123.1,238h2.6v3.2c1.1-2.3,3.5-3.7,6.1-3.6c4.1,0,6.8,2.9,6.8,7.4v13h-2.8v-12.4c0-3.5-1.9-5.6-4.7-5.6
			c-3.1,0-5.2,2.6-5.2,5.9V258h-2.8V238z"/>
		<path class="st1" d="M143.1,231.2h3.1v3.2h-3.1V231.2z M143.3,238h2.8v20h-2.8V238z"/>
		<path class="st1" d="M153.6,254.3v3.7H151v-28h2.8v11.5c1.1-2.5,3.6-4,6.3-3.9c4.3,0,8.2,3.3,8.2,10v0.8c0,6.7-3.9,10-8.3,10
			C157.3,258.5,154.8,256.9,153.6,254.3z M165.6,248.1v-0.2c0-5.2-2.6-7.9-6-7.9s-5.9,2.7-5.9,7.9v0.2c0,5.1,2.6,7.9,5.9,7.9
			S165.6,253.2,165.6,248.1L165.6,248.1z"/>
		<path class="st1" d="M187.8,245v13H185v-12.4c0-3.5-1.9-5.6-4.7-5.6c-3.1,0-5.2,2.5-5.2,5.9V258h-2.8v-28h2.8v10.9
			c1.2-2.1,3.5-3.3,5.9-3.3C185.1,237.6,187.8,240.5,187.8,245z"/>
		<path class="st1" d="M208.9,258.6c-5,0-9-3.7-9-10.4v-0.4c0-6.7,3.9-10.4,8.8-10.4s8.8,3.7,8.8,10.4v0.8h-15
			c0.1,4.7,2.6,7.7,6.4,7.7c2.3,0.1,4.5-1.3,5.4-3.5l2.7,0.5C215.7,256.6,212.4,258.7,208.9,258.6z M214.7,246.7c-0.3-4.6-2.9-7-6-7
			s-5.8,2.4-6,7H214.7z"/>
		<path class="st1" d="M236.4,258h-2.6v-3.2c-1.1,2.3-3.5,3.7-6.1,3.6c-4.1,0-6.8-2.9-6.8-7.4v-13h2.8v12.4c0,3.5,1.9,5.6,4.7,5.6
			c3.1,0,5.2-2.5,5.2-5.9V238h2.8L236.4,258z"/>
		<path class="st1" d="M241.3,231.2h3.1v3.2h-3.1V231.2z M241.5,238h2.8v20h-2.8V238z"/>
		<path class="st1" d="M247.7,253.3l2.4-1c0.9,2.4,3.2,4,5.8,3.9c2.7,0,4.7-1.3,4.7-3.6s-1.8-3-4.2-3.5l-2.6-0.5
			c-3.2-0.6-5.7-2.1-5.7-5.2c0-3.3,2.6-5.9,7.1-5.9c3.2-0.1,6.2,1.6,7.8,4.4l-2.4,1c-1-2-3.1-3.3-5.3-3.2c-2.6,0-4.5,1.4-4.5,3.5
			c0,1.9,1.6,2.8,3.6,3.1l2.5,0.5c3.8,0.7,6.3,2.2,6.3,5.5c0,3.5-2.8,6-7.4,6C252.4,258.6,249.1,256.5,247.7,253.3z"/>
		<path class="st1" d="M32.9,278h2.6v3.2c1.1-2.2,3.3-3.6,5.8-3.6c2.5-0.1,4.8,1.5,5.5,3.9c1-2.4,3.4-4,6-3.9c3.9,0,6.6,2.9,6.6,7.4
			v13h-2.8v-12.5c0-3.4-1.7-5.5-4.3-5.5c-2.9,0-4.8,2.6-4.8,5.9V298h-2.8v-12.5c0-3.4-1.7-5.5-4.3-5.5c-2.9,0-4.8,2.6-4.8,5.9V298
			h-2.8L32.9,278z"/>
		<path class="st1" d="M63,288.2v-0.4c0-6.7,3.9-10.4,8.8-10.4s8.8,3.7,8.8,10.4v0.4c0,6.7-3.9,10.4-8.8,10.4S63,294.9,63,288.2z
			 M77.9,288.1v-0.2c0-5.3-2.7-8.1-6-8.1s-6,2.8-6,8.1v0.2c0,5.3,2.7,8.1,6,8.1S77.8,293.4,77.9,288.1L77.9,288.1z"/>
		<path class="st1" d="M83.5,288.4v-0.8c0-6.7,3.9-10,8.2-10c2.7-0.1,5.2,1.5,6.3,3.9V270h2.8v28h-2.6v-3.7
			c-1.1,2.5-3.7,4.2-6.5,4.1C87.4,298.4,83.5,295.1,83.5,288.4z M98.2,288.1v-0.2c0-5.2-2.6-7.9-5.9-7.9s-6,2.7-6,7.9v0.2
			c0,5.1,2.6,7.9,6,7.9S98.2,293.2,98.2,288.1z"/>
		<path class="st1" d="M116.1,293.1v-12.7h-3.4V278h3.5v-6h2.6v6h5.7v2.4h-5.6v12.2c0,2.1,1,3,2.7,3h2.9v2.4H121
			C118.1,298,116.1,296.5,116.1,293.1z"/>
		<path class="st1" d="M127.6,271.2h3.1v3.2h-3.1L127.6,271.2z M127.7,278h2.8v20h-2.8L127.7,278z"/>
		<path class="st1" d="M135.5,278h2.6v3.2c1.1-2.3,3.5-3.7,6.1-3.6c4.1,0,6.8,2.9,6.8,7.4v13h-2.8v-12.4c0-3.5-1.9-5.6-4.7-5.6
			c-3.1,0-5.2,2.6-5.2,5.9V298h-2.8L135.5,278z"/>
		<path class="st1" d="M154.6,288.2v-0.4c0-6.6,3.9-10.2,8.6-10.2c3.6,0,6.8,2.4,7.8,5.9l-2.6,0.5c-0.7-2.3-2.8-3.9-5.2-4
			c-3.2,0-5.8,2.7-5.8,7.9v0.2c0,5.2,2.7,7.9,5.8,7.9c2.4-0.1,4.5-1.7,5.2-4l2.6,0.5c-1,3.5-4.2,6-7.8,5.9
			C158.5,298.4,154.6,294.8,154.6,288.2z"/>
		<path class="st1" d="M174.2,271.2h3.1v3.2h-3.1V271.2z M174.3,278h2.8v20h-2.8V278z"/>
		<path class="st1" d="M181,288.4v-0.8c0-6.7,3.9-10,8.2-10c2.7-0.1,5.2,1.5,6.3,3.9V270h2.8v28h-2.6v-3.7c-1.1,2.5-3.7,4.2-6.5,4.1
			C184.9,298.4,181,295.1,181,288.4z M195.7,288.1v-0.2c0-5.2-2.6-7.9-5.9-7.9s-6,2.7-6,7.9v0.2c0,5.1,2.6,7.9,6,7.9
			S195.7,293.2,195.7,288.1L195.7,288.1z"/>
		<path class="st1" d="M218.5,298h-2.6v-3.2c-1.1,2.3-3.5,3.7-6.1,3.6c-4.1,0-6.8-2.9-6.8-7.4v-13h2.8v12.4c0,3.5,1.9,5.6,4.7,5.6
			c3.1,0,5.2-2.5,5.2-5.9V278h2.8L218.5,298z"/>
		<path class="st1" d="M223.5,278h2.6v3.2c1.1-2.3,3.5-3.7,6.1-3.6c4.1,0,6.8,2.9,6.8,7.4v13h-2.8v-12.4c0-3.5-1.9-5.6-4.7-5.6
			c-3.1,0-5.2,2.6-5.2,5.9V298h-2.8L223.5,278z"/>
		<path class="st1" d="M244.8,293.1v-12.7h-3.4V278h3.5v-6h2.6v6h5.7v2.4h-5.6v12.2c0,2.1,1,3,2.7,3h2.9v2.4h-3.6
			C246.7,298,244.8,296.5,244.8,293.1z"/>
		<path class="st1" d="M256.5,294.4h3.1v3.6h-3.1V294.4z"/>
	</g>
</g>
<line class="st2" x1="0" y1="0" x2="360" y2="360"/>
<line class="st2" x1="360" y1="0" x2="0" y2="360"/>
</svg>
