<svg xml:space="preserve" style="enable-background:new 0 0 195.5 42.6;" viewBox="0 0 195.5 42.6" y="0px" x="0px" id="Layer_1" version="1.1" xmlns:xlink="http://www.w3.org/1999/xlink" xmlns="http://www.w3.org/2000/svg">
<g>
	<path d="M9.8,1.4L7.9,9.8H6.7L5.5,5.4C5.3,4.8,5.2,4.2,5,3.6C4.9,4.2,4.8,4.8,4.6,5.4L3.4,9.8H2.1L0.3,1.4h1.4l0.9,4.3   C2.7,6.4,2.8,7,2.9,7.6C3,7,3.1,6.4,3.3,5.8l1.2-4.3h1.2l1.2,4.3C7,6.4,7.1,7,7.2,7.6C7.3,7,7.4,6.4,7.6,5.8l0.9-4.3H9.8z"></path>
	<path d="M12.7,10c-1.6,0-2.9-1.1-2.9-3.1V6.8c0-2,1.3-3.1,2.8-3.1s2.8,1.1,2.8,3.1v0.3h-4.4c0,1.1,0.7,1.8,1.7,1.8   c0.6,0,1.1-0.2,1.4-0.8l1.2,0.2C14.8,9.4,13.8,10,12.7,10z M14.2,6.3c-0.1-1.1-0.8-1.6-1.5-1.6s-1.4,0.6-1.5,1.6H14.2z"></path>
	<path d="M21.3,10c-1.6,0-2.9-1.1-2.9-3.1V6.8c0-2,1.3-3.1,2.8-3.1s2.8,1.1,2.8,3.1v0.3h-4.4c0,1.1,0.7,1.8,1.7,1.8   c0.6,0,1.1-0.2,1.4-0.8l1.2,0.2C23.5,9.4,22.5,10,21.3,10z M22.8,6.3c-0.1-1.1-0.8-1.6-1.5-1.6s-1.4,0.6-1.5,1.6H22.8z"></path>
	<path d="M28.7,9.8l-0.6-1c-0.3-0.4-0.5-0.8-0.8-1.3c-0.3,0.5-0.5,0.9-0.8,1.3l-0.6,1h-1.4l2.2-3.1l-2-2.9h1.5l0.6,1   c0.2,0.3,0.4,0.6,0.6,1c0.2-0.4,0.4-0.7,0.6-1l0.6-1H30l-2,2.8l2.2,3.2H28.7z"></path>
	<path d="M31.1,1.6h1.3v1.3h-1.3V1.6z M31.1,3.8h1.3v6h-1.3V3.8z"></path>
	<path d="M33.2,8.4L34.3,8c0.3,0.7,0.8,1,1.5,1C36.5,9,37,8.6,37,8.1c0-0.5-0.4-0.7-1-0.8l-0.8-0.2C34,7,33.4,6.4,33.4,5.6   c0-1,0.8-1.9,2.3-1.9c1,0,1.9,0.4,2.5,1.4l-1.1,0.4c-0.3-0.5-0.8-0.8-1.3-0.8c-0.7,0-1.1,0.3-1.1,0.8c0,0.4,0.3,0.6,0.9,0.7   l0.8,0.1c1.2,0.2,1.9,0.8,1.9,1.7c0,1-0.8,1.9-2.3,1.9C34.8,10,33.8,9.5,33.2,8.4z"></path>
	<path d="M39.5,8.2V4.9h-0.9V3.8h0.9V2h1.2v1.8h1.6v1.1h-1.6v3c0,0.6,0.3,0.8,0.7,0.8h0.8v1.1h-1.1C40.2,9.8,39.5,9.3,39.5,8.2z"></path>
	<path d="M46,8.2V4.9h-0.9V3.8h0.9V2h1.2v1.8h1.6v1.1h-1.6v3c0,0.6,0.3,0.8,0.7,0.8h0.8v1.1h-1.1C46.7,9.8,46,9.3,46,8.2z"></path>
	<path d="M49.4,6.9V6.8c0-2,1.3-3.1,2.8-3.1S55,4.8,55,6.8v0.1c0,2-1.3,3.1-2.8,3.1S49.4,8.9,49.4,6.9z M52.2,8.9   c0.8,0,1.5-0.7,1.5-2.1V6.8c0-1.3-0.7-2.1-1.5-2.1s-1.5,0.7-1.5,2.1v0.1C50.6,8.2,51.3,8.9,52.2,8.9z"></path>
	<path d="M58.4,3.8h1.2v0.8c0.3-0.5,0.9-0.9,1.8-0.9c1.3,0,2.5,1,2.5,2.9V7c0,2-1.2,2.9-2.5,2.9c-0.8,0-1.4-0.4-1.7-0.9v3.2h-1.3   V3.8z M61.1,8.9c0.9,0,1.5-0.7,1.5-2V6.8c0-1.3-0.7-2-1.5-2c-0.9,0-1.5,0.7-1.5,2v0.1C59.6,8.2,60.3,8.9,61.1,8.9z"></path>
	<path d="M64.6,6.9V6.8c0-2,1.3-3.1,2.8-3.1s2.8,1.1,2.8,3.1v0.1c0,2-1.3,3.1-2.8,3.1S64.6,8.9,64.6,6.9z M67.4,8.9   c0.8,0,1.5-0.7,1.5-2.1V6.8c0-1.3-0.7-2.1-1.5-2.1s-1.5,0.7-1.5,2.1v0.1C65.8,8.2,66.5,8.9,67.4,8.9z"></path>
	<path d="M70.7,8.4L71.7,8c0.3,0.7,0.8,1,1.5,1c0.7,0,1.1-0.3,1.1-0.8c0-0.5-0.4-0.7-1-0.8l-0.8-0.2c-1.2-0.2-1.8-0.7-1.8-1.6   c0-1,0.8-1.9,2.3-1.9c1,0,1.9,0.4,2.5,1.4l-1.1,0.4c-0.3-0.5-0.8-0.8-1.3-0.8C72.5,4.7,72,5,72,5.5c0,0.4,0.3,0.6,0.9,0.7l0.8,0.1   c1.2,0.2,1.9,0.8,1.9,1.7c0,1-0.8,1.9-2.3,1.9C72.2,10,71.2,9.5,70.7,8.4z"></path>
	<path d="M76.5,1.6h1.3v1.3h-1.3V1.6z M76.5,3.8h1.3v6h-1.3V3.8z"></path>
	<path d="M79.6,8.2V4.9h-0.9V3.8h0.9V2h1.2v1.8h1.6v1.1h-1.6v3c0,0.6,0.3,0.8,0.7,0.8h0.8v1.1h-1.1C80.2,9.8,79.6,9.3,79.6,8.2z"></path>
	<path d="M83.3,1.6h1.3v1.3h-1.3V1.6z M83.3,3.8h1.3v6h-1.3V3.8z"></path>
	<path d="M85.4,3.8h1.4l1.2,3.4c0.1,0.3,0.2,0.7,0.4,1.2c0.1-0.5,0.2-0.9,0.3-1.2l1.2-3.4h1.3l-2.2,6h-1.3L85.4,3.8z"></path>
	<path d="M94.3,10c-1.6,0-2.9-1.1-2.9-3.1V6.8c0-2,1.3-3.1,2.8-3.1c1.5,0,2.8,1.1,2.8,3.1v0.3h-4.4c0,1.1,0.7,1.8,1.7,1.8   c0.6,0,1.1-0.2,1.4-0.8l1.2,0.2C96.5,9.4,95.5,10,94.3,10z M95.8,6.3c-0.1-1.1-0.8-1.6-1.5-1.6s-1.4,0.6-1.5,1.6H95.8z"></path>
	<path d="M98.1,8.4V1.4h1.3v6.7c0,0.4,0.2,0.6,0.5,0.6h0.3v1.1h-0.6C98.6,9.8,98.1,9.4,98.1,8.4z"></path>
	<path d="M100.9,11.1h0.5c0.5,0,0.7-0.2,0.9-0.8l0.2-0.6l-2.5-5.9h1.4l1.2,3.3c0.2,0.4,0.3,0.7,0.5,1.3c0.1-0.5,0.2-0.9,0.3-1.3   l1-3.3h1.3l-2.4,7c-0.3,0.9-1,1.4-1.9,1.4h-0.6V11.1z"></path>
	<path d="M108.7,8.4l1.1-0.4c0.3,0.7,0.8,1,1.5,1c0.7,0,1.1-0.3,1.1-0.8c0-0.5-0.4-0.7-1-0.8l-0.8-0.2c-1.2-0.2-1.8-0.7-1.8-1.6   c0-1,0.8-1.9,2.3-1.9c1,0,1.9,0.4,2.5,1.4l-1.1,0.4c-0.3-0.5-0.8-0.8-1.3-0.8c-0.7,0-1.1,0.3-1.1,0.8c0,0.4,0.3,0.6,0.9,0.7   l0.8,0.1c1.2,0.2,1.9,0.8,1.9,1.7c0,1-0.8,1.9-2.3,1.9C110.3,10,109.3,9.5,108.7,8.4z"></path>
	<path d="M119.5,5.9v3.9h-1.3V6.2c0-0.9-0.4-1.4-1.2-1.4c-0.8,0-1.3,0.6-1.3,1.5v3.5h-1.3V1.4h1.3v3c0.4-0.5,0.9-0.8,1.6-0.8   C118.7,3.7,119.5,4.6,119.5,5.9z"></path>
	<path d="M120.6,8.2L120.6,8.2c0-1.1,0.7-2,2.3-2h1.6V6c0-0.8-0.4-1.3-1.2-1.3c-0.6,0-1.1,0.3-1.3,0.9l-1.2-0.2   c0.5-1.2,1.5-1.7,2.5-1.7c1.5,0,2.4,0.8,2.4,2.2v3.9h-1.2V9.1c-0.4,0.5-1,0.9-1.9,0.9C121.4,10,120.6,9.2,120.6,8.2z M122.9,9   c0.9,0,1.5-0.6,1.5-1.5V7.1H123c-0.8,0-1.2,0.4-1.2,0.9C121.8,8.6,122.3,9,122.9,9z"></path>
	<path d="M127.1,3.8h1.2v0.8c0.3-0.5,0.9-0.9,1.8-0.9c1.3,0,2.5,1,2.5,2.9V7c0,2-1.2,2.9-2.5,2.9c-0.8,0-1.4-0.4-1.7-0.9v3.2h-1.3   V3.8z M129.8,8.9c0.9,0,1.5-0.7,1.5-2V6.8c0-1.3-0.7-2-1.5-2c-0.9,0-1.5,0.7-1.5,2v0.1C128.3,8.2,128.9,8.9,129.8,8.9z"></path>
	<path d="M136.1,10c-1.6,0-2.9-1.1-2.9-3.1V6.8c0-2,1.3-3.1,2.8-3.1s2.8,1.1,2.8,3.1v0.3h-4.4c0,1.1,0.7,1.8,1.7,1.8   c0.6,0,1.1-0.2,1.4-0.8l1.2,0.2C138.2,9.4,137.2,10,136.1,10z M137.6,6.3c-0.1-1.1-0.8-1.6-1.5-1.6s-1.4,0.6-1.5,1.6H137.6z"></path>
	<path d="M142.6,8.2V4.9h-0.9V3.8h0.9V2h1.2v1.8h1.6v1.1h-1.6v3c0,0.6,0.3,0.8,0.7,0.8h0.8v1.1h-1.1C143.3,9.8,142.6,9.3,142.6,8.2z"></path>
	<path d="M151.3,5.9v3.9h-1.3V6.2c0-0.9-0.4-1.4-1.2-1.4c-0.8,0-1.3,0.6-1.3,1.5v3.5h-1.3V1.4h1.3v3c0.4-0.5,0.9-0.8,1.6-0.8   C150.5,3.7,151.3,4.6,151.3,5.9z"></path>
	<path d="M155.1,10c-1.6,0-2.9-1.1-2.9-3.1V6.8c0-2,1.3-3.1,2.8-3.1s2.8,1.1,2.8,3.1v0.3h-4.4c0,1.1,0.7,1.8,1.7,1.8   c0.6,0,1.1-0.2,1.4-0.8l1.2,0.2C157.3,9.4,156.2,10,155.1,10z M156.6,6.3c-0.1-1.1-0.8-1.6-1.5-1.6s-1.4,0.6-1.5,1.6H156.6z"></path>
	<path d="M161.8,4.9h-1V3.8h1.1V3.2c0-1.3,0.8-1.7,1.7-1.7h0.9v1.1h-0.7c-0.4,0-0.7,0.2-0.7,0.8v0.5h1.5v1.1h-1.4v4.9h-1.3V4.9z"></path>
	<path d="M170.2,9.8h-1.2V9.1c-0.4,0.6-1,0.9-1.7,0.9c-1.3,0-2.1-0.9-2.1-2.2V3.8h1.3v3.6c0,0.9,0.5,1.4,1.2,1.4   c0.8,0,1.3-0.6,1.3-1.5V3.8h1.3V9.8z"></path>
	<path d="M172,8.2V4.9h-0.9V3.8h0.9V2h1.2v1.8h1.6v1.1h-1.6v3c0,0.6,0.3,0.8,0.7,0.8h0.8v1.1h-1.1C172.7,9.8,172,9.3,172,8.2z"></path>
	<path d="M180.6,9.8h-1.2V9.1c-0.4,0.6-1,0.9-1.7,0.9c-1.3,0-2.1-0.9-2.1-2.2V3.8h1.3v3.6c0,0.9,0.5,1.4,1.2,1.4   c0.8,0,1.3-0.6,1.3-1.5V3.8h1.3V9.8z"></path>
	<path d="M182,3.8h1.2V5c0.4-0.8,1.2-1.2,2.2-1.2V5c-1.3,0-2.1,0.9-2.1,2.2v2.6H182V3.8z"></path>
	<path d="M188.7,10c-1.6,0-2.9-1.1-2.9-3.1V6.8c0-2,1.3-3.1,2.8-3.1s2.8,1.1,2.8,3.1v0.3h-4.4c0,1.1,0.7,1.8,1.7,1.8   c0.6,0,1.1-0.2,1.4-0.8l1.2,0.2C190.8,9.4,189.8,10,188.7,10z M190.2,6.3c-0.1-1.1-0.8-1.6-1.5-1.6s-1.4,0.6-1.5,1.6H190.2z"></path>
	<path d="M-0.1,18.2h1.4l0.9,3c0.1,0.3,0.2,0.6,0.3,1.2c0.2-0.6,0.3-0.9,0.4-1.2l0.9-3h1.2l0.9,3c0.1,0.3,0.2,0.7,0.4,1.2   c0.1-0.6,0.2-0.9,0.3-1.2l0.9-3h1.3l-2,6H5.6l-1-3.4c-0.1-0.2-0.2-0.6-0.2-1c-0.1,0.4-0.2,0.7-0.3,1l-1,3.4H1.9L-0.1,18.2z"></path>
	<path d="M9.6,16h1.3v1.3H9.6V16z M9.6,18.2h1.3v6H9.6V18.2z"></path>
	<path d="M12.6,22.6v-3.3h-0.9v-1.1h0.9v-1.8h1.2v1.8h1.6v1.1h-1.6v3c0,0.6,0.3,0.8,0.7,0.8h0.8v1.1h-1.1   C13.3,24.2,12.6,23.7,12.6,22.6z"></path>
	<path d="M21.3,20.3v3.9h-1.3v-3.6c0-0.9-0.4-1.4-1.2-1.4c-0.8,0-1.3,0.6-1.3,1.5v3.5h-1.3v-8.4h1.3v3c0.4-0.5,0.9-0.8,1.6-0.8   C20.5,18.1,21.3,19,21.3,20.3z"></path>
	<path d="M25,18.2h1.2v1.2c0.4-0.8,1.2-1.2,2.2-1.2v1.3c-1.3,0-2.1,0.9-2.1,2.2v2.6H25V18.2z"></path>
	<path d="M31.7,24.4c-1.6,0-2.9-1.1-2.9-3.1v-0.1c0-2,1.3-3.1,2.8-3.1s2.8,1.1,2.8,3.1v0.3h-4.4c0,1.1,0.7,1.8,1.7,1.8   c0.6,0,1.1-0.2,1.4-0.8l1.2,0.2C33.8,23.8,32.8,24.4,31.7,24.4z M33.2,20.7c-0.1-1.1-0.8-1.6-1.5-1.6s-1.4,0.6-1.5,1.6H33.2z"></path>
	<path d="M34.9,22.8l1.1-0.4c0.3,0.7,0.8,1,1.5,1c0.7,0,1.1-0.3,1.1-0.8c0-0.5-0.4-0.7-1-0.8l-0.8-0.2C35.6,21.4,35,20.8,35,20   c0-1,0.8-1.9,2.3-1.9c1,0,1.9,0.4,2.5,1.4l-1.1,0.4c-0.3-0.5-0.8-0.8-1.3-0.8c-0.7,0-1.1,0.3-1.1,0.8c0,0.4,0.3,0.6,0.9,0.7   l0.8,0.1c1.2,0.2,1.9,0.8,1.9,1.7c0,1-0.8,1.9-2.3,1.9C36.5,24.4,35.5,23.9,34.9,22.8z"></path>
	<path d="M40.8,18.2h1.2V19c0.3-0.5,0.9-0.9,1.8-0.9c1.3,0,2.5,1,2.5,2.9v0.4c0,2-1.2,2.9-2.5,2.9c-0.8,0-1.4-0.4-1.7-0.9v3.2h-1.3   V18.2z M43.5,23.3c0.9,0,1.5-0.7,1.5-2v-0.1c0-1.3-0.7-2-1.5-2c-0.9,0-1.5,0.7-1.5,2v0.1C42,22.6,42.6,23.3,43.5,23.3z"></path>
	<path d="M46.9,21.3v-0.1c0-2,1.3-3.1,2.8-3.1s2.8,1.1,2.8,3.1v0.1c0,2-1.3,3.1-2.8,3.1S46.9,23.3,46.9,21.3z M49.7,23.3   c0.8,0,1.5-0.7,1.5-2.1v-0.1c0-1.3-0.7-2.1-1.5-2.1s-1.5,0.7-1.5,2.1v0.1C48.2,22.6,48.9,23.3,49.7,23.3z"></path>
	<path d="M53.5,18.2h1.2V19c0.4-0.6,1-0.9,1.7-0.9c1.3,0,2.1,0.9,2.1,2.2v3.9h-1.3v-3.6c0-0.9-0.4-1.4-1.2-1.4   c-0.8,0-1.3,0.6-1.3,1.5v3.5h-1.3V18.2z"></path>
	<path d="M59.2,22.8l1.1-0.4c0.3,0.7,0.8,1,1.5,1c0.7,0,1.1-0.3,1.1-0.8c0-0.5-0.4-0.7-1-0.8l-0.8-0.2c-1.2-0.2-1.8-0.7-1.8-1.6   c0-1,0.8-1.9,2.3-1.9c1,0,1.9,0.4,2.5,1.4l-1.1,0.4c-0.3-0.5-0.8-0.8-1.3-0.8c-0.7,0-1.1,0.3-1.1,0.8c0,0.4,0.3,0.6,0.9,0.7   l0.8,0.1c1.2,0.2,1.9,0.8,1.9,1.7c0,1-0.8,1.9-2.3,1.9C60.8,24.4,59.8,23.9,59.2,22.8z"></path>
	<path d="M65.1,16h1.3v1.3h-1.3V16z M65.1,18.2h1.3v6h-1.3V18.2z"></path>
	<path d="M68.9,23.4v0.8h-1.2v-8.4H69V19c0.3-0.5,0.9-0.9,1.7-0.9c1.3,0,2.5,1,2.5,2.9v0.4c0,2-1.2,2.9-2.5,2.9   C69.8,24.4,69.2,24,68.9,23.4z M70.5,23.3c0.9,0,1.5-0.7,1.5-2v-0.1c0-1.3-0.7-2-1.5-2c-0.9,0-1.5,0.7-1.5,2v0.1   C68.9,22.6,69.6,23.3,70.5,23.3z"></path>
	<path d="M74.2,22.8v-6.9h1.3v6.7c0,0.4,0.2,0.6,0.5,0.6h0.3v1.1h-0.6C74.8,24.2,74.2,23.8,74.2,22.8z"></path>
	<path d="M79.7,24.4c-1.6,0-2.9-1.1-2.9-3.1v-0.1c0-2,1.3-3.1,2.8-3.1s2.8,1.1,2.8,3.1v0.3h-4.4c0,1.1,0.7,1.8,1.7,1.8   c0.6,0,1.1-0.2,1.4-0.8l1.2,0.2C81.9,23.8,80.8,24.4,79.7,24.4z M81.2,20.7c-0.1-1.1-0.8-1.6-1.5-1.6s-1.4,0.6-1.5,1.6H81.2z"></path>
	<path d="M85.6,22.6L85.6,22.6c0-1.1,0.7-2,2.3-2h1.6v-0.3c0-0.8-0.4-1.3-1.2-1.3c-0.6,0-1.1,0.3-1.3,0.9l-1.2-0.2   c0.5-1.2,1.5-1.7,2.5-1.7c1.5,0,2.4,0.8,2.4,2.2v3.9h-1.2v-0.8c-0.4,0.5-1,0.9-1.9,0.9C86.4,24.4,85.6,23.6,85.6,22.6z M87.9,23.4   c0.9,0,1.5-0.6,1.5-1.5v-0.3H88c-0.8,0-1.2,0.4-1.2,0.9C86.9,23,87.3,23.4,87.9,23.4z"></path>
	<path d="M91.7,21.4v-0.4c0-2,1.2-2.9,2.5-2.9c0.8,0,1.4,0.4,1.7,0.9v-3.2h1.3v8.4h-1.2v-0.8c-0.3,0.5-0.9,0.9-1.8,0.9   C92.9,24.4,91.7,23.4,91.7,21.4z M94.5,23.3c0.9,0,1.5-0.7,1.5-2v-0.1c0-1.3-0.7-2-1.5-2s-1.5,0.7-1.5,2v0.1   C93,22.6,93.6,23.3,94.5,23.3z"></path>
	<path d="M98.1,18.2h1.4l1.2,3.4c0.1,0.3,0.2,0.7,0.3,1.2c0.1-0.5,0.2-0.9,0.3-1.2l1.2-3.4h1.3l-2.2,6h-1.3L98.1,18.2z"></path>
	<path d="M104.6,16h1.3v1.3h-1.3V16z M104.7,18.2h1.3v6h-1.3V18.2z"></path>
	<path d="M106.9,21.3v-0.1c0-2,1.3-3.1,2.7-3.1c1.1,0,2.1,0.7,2.5,1.9l-1.2,0.2c-0.2-0.7-0.8-1-1.3-1c-0.8,0-1.5,0.7-1.5,2v0.1   c0,1.3,0.7,2,1.5,2c0.5,0,1.1-0.3,1.3-1l1.2,0.2c-0.4,1.2-1.4,1.9-2.5,1.9C108.2,24.4,106.9,23.3,106.9,21.3z"></path>
	<path d="M115.5,24.4c-1.6,0-2.9-1.1-2.9-3.1v-0.1c0-2,1.3-3.1,2.8-3.1s2.8,1.1,2.8,3.1v0.3h-4.4c0,1.1,0.7,1.8,1.7,1.8   c0.6,0,1.1-0.2,1.4-0.8l1.2,0.2C117.7,23.8,116.6,24.4,115.5,24.4z M117,20.7c-0.1-1.1-0.8-1.6-1.5-1.6s-1.4,0.6-1.5,1.6H117z"></path>
	<path d="M121.4,22.6L121.4,22.6c0-1.1,0.7-2,2.3-2h1.6v-0.3c0-0.8-0.4-1.3-1.2-1.3c-0.6,0-1.1,0.3-1.3,0.9l-1.2-0.2   c0.5-1.2,1.5-1.7,2.5-1.7c1.5,0,2.4,0.8,2.4,2.2v3.9h-1.2v-0.8c-0.4,0.5-1,0.9-1.9,0.9C122.2,24.4,121.4,23.6,121.4,22.6z    M123.7,23.4c0.9,0,1.5-0.6,1.5-1.5v-0.3h-1.4c-0.8,0-1.2,0.4-1.2,0.9C122.7,23,123.1,23.4,123.7,23.4z"></path>
	<path d="M127.9,18.2h1.2V19c0.4-0.6,1-0.9,1.7-0.9c1.3,0,2.1,0.9,2.1,2.2v3.9h-1.3v-3.6c0-0.9-0.4-1.4-1.2-1.4   c-0.8,0-1.3,0.6-1.3,1.5v3.5h-1.3V18.2z"></path>
	<path d="M133.8,21.4v-0.4c0-2,1.2-2.9,2.5-2.9c0.8,0,1.4,0.4,1.7,0.9v-3.2h1.3v8.4h-1.2v-0.8c-0.3,0.5-0.9,0.9-1.8,0.9   C135,24.4,133.8,23.4,133.8,21.4z M136.5,23.3c0.9,0,1.5-0.7,1.5-2v-0.1c0-1.3-0.7-2-1.5-2c-0.9,0-1.5,0.7-1.5,2v0.1   C135,22.6,135.7,23.3,136.5,23.3z"></path>
	<path d="M142.7,21.3v-0.1c0-2,1.3-3.1,2.7-3.1c1.1,0,2.1,0.7,2.5,1.9l-1.2,0.2c-0.2-0.7-0.8-1-1.3-1c-0.8,0-1.5,0.7-1.5,2v0.1   c0,1.3,0.7,2,1.5,2c0.5,0,1.1-0.3,1.3-1l1.2,0.2c-0.4,1.2-1.4,1.9-2.5,1.9C144,24.4,142.7,23.3,142.7,21.3z"></path>
	<path d="M148.5,22.6L148.5,22.6c0-1.1,0.7-2,2.3-2h1.6v-0.3c0-0.8-0.4-1.3-1.2-1.3c-0.6,0-1.1,0.3-1.3,0.9l-1.2-0.2   c0.5-1.2,1.5-1.7,2.5-1.7c1.5,0,2.4,0.8,2.4,2.2v3.9h-1.2v-0.8c-0.4,0.5-1,0.9-1.9,0.9C149.3,24.4,148.5,23.6,148.5,22.6z    M150.9,23.4c0.9,0,1.5-0.6,1.5-1.5v-0.3H151c-0.8,0-1.2,0.4-1.2,0.9C149.8,23,150.2,23.4,150.9,23.4z"></path>
	<path d="M155,18.2h1.2V19c0.3-0.5,0.9-0.9,1.8-0.9c1.3,0,2.5,1,2.5,2.9v0.4c0,2-1.2,2.9-2.5,2.9c-0.8,0-1.4-0.4-1.7-0.9v3.2H155   V18.2z M157.7,23.3c0.9,0,1.5-0.7,1.5-2v-0.1c0-1.3-0.7-2-1.5-2c-0.9,0-1.5,0.7-1.5,2v0.1C156.2,22.6,156.9,23.3,157.7,23.3z"></path>
	<path d="M161.5,16h1.3v1.3h-1.3V16z M161.5,18.2h1.3v6h-1.3V18.2z"></path>
	<path d="M164.6,22.6v-3.3h-0.9v-1.1h0.9v-1.8h1.2v1.8h1.6v1.1h-1.6v3c0,0.6,0.3,0.8,0.7,0.8h0.8v1.1h-1.1   C165.3,24.2,164.6,23.7,164.6,22.6z"></path>
	<path d="M168.1,22.6L168.1,22.6c0-1.1,0.7-2,2.3-2h1.6v-0.3c0-0.8-0.4-1.3-1.2-1.3c-0.6,0-1.1,0.3-1.3,0.9l-1.2-0.2   c0.5-1.2,1.5-1.7,2.5-1.7c1.5,0,2.4,0.8,2.4,2.2v3.9H172v-0.8c-0.4,0.5-1,0.9-1.9,0.9C168.9,24.4,168.1,23.6,168.1,22.6z    M170.4,23.4c0.9,0,1.5-0.6,1.5-1.5v-0.3h-1.4c-0.8,0-1.2,0.4-1.2,0.9C169.4,23,169.8,23.4,170.4,23.4z"></path>
	<path d="M174.5,22.8v-6.9h1.3v6.7c0,0.4,0.2,0.6,0.5,0.6h0.3v1.1H176C175.1,24.2,174.5,23.8,174.5,22.8z"></path>
	<path d="M177.6,22.8h1.3v1.4h-1.3V22.8z"></path>
	<path d="M2.3,31.5H0v-1.3h5.9v1.3H3.7v7.1H2.3V31.5z"></path>
	<path d="M5.4,35.7v-0.1c0-2,1.3-3.1,2.8-3.1s2.8,1.1,2.8,3.1v0.1c0,2-1.3,3.1-2.8,3.1S5.4,37.7,5.4,35.7z M8.2,37.7   c0.8,0,1.5-0.7,1.5-2.1v-0.1c0-1.3-0.7-2.1-1.5-2.1s-1.5,0.7-1.5,2.1v0.1C6.7,37,7.4,37.7,8.2,37.7z"></path>
	<path d="M11.7,35.8v-0.4c0-2,1.2-2.9,2.5-2.9c0.8,0,1.4,0.4,1.7,0.9v-3.2h1.3v8.4H16v-0.8c-0.3,0.5-0.9,0.9-1.8,0.9   C12.9,38.8,11.7,37.8,11.7,35.8z M14.4,37.7c0.9,0,1.5-0.7,1.5-2v-0.1c0-1.3-0.7-2-1.5-2c-0.9,0-1.5,0.7-1.5,2v0.1   C12.9,37,13.6,37.7,14.4,37.7z"></path>
	<path d="M18.3,37L18.3,37c0-1.1,0.7-2,2.3-2h1.6v-0.3c0-0.8-0.4-1.3-1.2-1.3c-0.6,0-1.1,0.3-1.3,0.9l-1.2-0.2   c0.5-1.2,1.5-1.7,2.5-1.7c1.5,0,2.4,0.8,2.4,2.2v3.9h-1.2v-0.8c-0.4,0.5-1,0.9-1.9,0.9C19.1,38.8,18.3,38,18.3,37z M20.7,37.8   c0.9,0,1.5-0.6,1.5-1.5v-0.3h-1.4c-0.8,0-1.2,0.4-1.2,0.9C19.6,37.4,20,37.8,20.7,37.8z"></path>
	<path d="M24.9,39.9h0.5c0.5,0,0.7-0.2,0.9-0.8l0.2-0.6l-2.5-5.9h1.4l1.2,3.3c0.1,0.4,0.3,0.7,0.5,1.3c0.1-0.5,0.2-0.9,0.3-1.3   l1-3.3h1.3l-2.4,7c-0.3,0.9-1,1.4-1.9,1.4h-0.6V39.9z"></path>
	<path d="M33,37L33,37c0-1.1,0.7-2,2.3-2h1.6v-0.3c0-0.8-0.4-1.3-1.2-1.3c-0.6,0-1.1,0.3-1.3,0.9l-1.2-0.2c0.5-1.2,1.5-1.7,2.5-1.7   c1.5,0,2.4,0.8,2.4,2.2v3.9h-1.2v-0.8c-0.4,0.5-1,0.9-1.9,0.9C33.8,38.8,33,38,33,37z M35.3,37.8c0.9,0,1.5-0.6,1.5-1.5v-0.3h-1.4   c-0.8,0-1.2,0.4-1.2,0.9C34.3,37.4,34.7,37.8,35.3,37.8z"></path>
	<path d="M39.5,32.6h1.2v0.8c0.4-0.6,1-0.9,1.7-0.9c1.3,0,2.1,0.9,2.1,2.2v3.9h-1.3V35c0-0.9-0.4-1.4-1.2-1.4   c-0.8,0-1.3,0.6-1.3,1.5v3.5h-1.3V32.6z"></path>
	<path d="M45.4,35.8v-0.4c0-2,1.2-2.9,2.5-2.9c0.8,0,1.4,0.4,1.7,0.9v-3.2h1.3v8.4h-1.2v-0.8c-0.3,0.5-0.9,0.9-1.8,0.9   C46.6,38.8,45.4,37.8,45.4,35.8z M48.1,37.7c0.9,0,1.5-0.7,1.5-2v-0.1c0-1.3-0.7-2-1.5-2c-0.9,0-1.5,0.7-1.5,2v0.1   C46.6,37,47.3,37.7,48.1,37.7z"></path>
	<path d="M55.2,33.7h-1v-1.1h1.1V32c0-1.3,0.8-1.7,1.7-1.7h0.9v1.1h-0.7c-0.4,0-0.7,0.2-0.7,0.8v0.5h1.5v1.1h-1.4v4.9h-1.3V33.7z"></path>
	<path d="M58.2,35.7v-0.1c0-2,1.3-3.1,2.8-3.1s2.8,1.1,2.8,3.1v0.1c0,2-1.3,3.1-2.8,3.1S58.2,37.7,58.2,35.7z M61,37.7   c0.8,0,1.5-0.7,1.5-2.1v-0.1c0-1.3-0.7-2.1-1.5-2.1s-1.5,0.7-1.5,2.1v0.1C59.5,37,60.2,37.7,61,37.7z"></path>
	<path d="M64.9,32.6h1.2v1.2c0.4-0.8,1.2-1.2,2.2-1.2v1.3c-1.3,0-2.1,0.9-2.1,2.2v2.6h-1.3V32.6z"></path>
	<path d="M71.4,39.5c0-0.6,0.3-1.1,0.7-1.3c-0.3-0.2-0.5-0.6-0.5-1c0-0.6,0.4-1,0.9-1.2c-0.4-0.3-0.6-0.8-0.6-1.3c0-1.2,0.9-2,2.2-2   c0.3,0,0.6,0.1,0.8,0.1h2v1h-0.9c0.2,0.2,0.3,0.5,0.3,0.9c0,1.2-0.9,2-2.2,2h-0.8c-0.4,0-0.6,0.2-0.6,0.5c0,0.3,0.2,0.5,0.6,0.5   h1.8c1.1,0,1.9,0.8,1.9,1.8c0,1-0.8,1.9-2.2,1.9h-1.4C72.2,41.2,71.4,40.4,71.4,39.5z M73.6,40.2h1.1c0.7,0,1.1-0.4,1.1-0.9   c0-0.5-0.4-0.8-0.9-0.8h-1.5c-0.5,0-0.9,0.3-0.9,0.8S73,40.2,73.6,40.2z M74.1,35.6c0.6,0,1.1-0.5,1.1-1.1c0-0.6-0.5-1.1-1.1-1.1   c-0.6,0-1.1,0.5-1.1,1.1C73,35.1,73.5,35.6,74.1,35.6z"></path>
	<path d="M80.2,38.8c-1.6,0-2.9-1.1-2.9-3.1v-0.1c0-2,1.3-3.1,2.8-3.1s2.8,1.1,2.8,3.1v0.3h-4.4c0,1.1,0.7,1.8,1.7,1.8   c0.6,0,1.1-0.2,1.4-0.8l1.2,0.2C82.4,38.2,81.3,38.8,80.2,38.8z M81.7,35.1c-0.1-1.1-0.8-1.6-1.5-1.6s-1.4,0.6-1.5,1.6H81.7z"></path>
	<path d="M84,32.6h1.2v0.8c0.4-0.6,1-0.9,1.7-0.9c1.3,0,2.1,0.9,2.1,2.2v3.9h-1.3V35c0-0.9-0.4-1.4-1.2-1.4c-0.8,0-1.3,0.6-1.3,1.5   v3.5H84V32.6z"></path>
	<path d="M92.7,38.8c-1.6,0-2.9-1.1-2.9-3.1v-0.1c0-2,1.3-3.1,2.8-3.1s2.8,1.1,2.8,3.1v0.3h-4.4c0,1.1,0.7,1.8,1.7,1.8   c0.6,0,1.1-0.2,1.4-0.8l1.2,0.2C94.9,38.2,93.8,38.8,92.7,38.8z M94.2,35.1c-0.1-1.1-0.8-1.6-1.5-1.6s-1.4,0.6-1.5,1.6H94.2z"></path>
	<path d="M96.5,32.6h1.2v1.2c0.4-0.8,1.2-1.2,2.2-1.2v1.3c-1.3,0-2.1,0.9-2.1,2.2v2.6h-1.3V32.6z"></path>
	<path d="M100.5,37L100.5,37c0-1.1,0.7-2,2.3-2h1.6v-0.3c0-0.8-0.4-1.3-1.2-1.3c-0.6,0-1.1,0.3-1.3,0.9l-1.2-0.2   c0.5-1.2,1.5-1.7,2.5-1.7c1.5,0,2.4,0.8,2.4,2.2v3.9h-1.2v-0.8c-0.4,0.5-1,0.9-1.9,0.9C101.2,38.8,100.5,38,100.5,37z M102.8,37.8   c0.9,0,1.5-0.6,1.5-1.5v-0.3h-1.4c-0.8,0-1.2,0.4-1.2,0.9C101.7,37.4,102.1,37.8,102.8,37.8z"></path>
	<path d="M107.3,37v-3.3h-0.9v-1.1h0.9v-1.8h1.2v1.8h1.6v1.1h-1.6v3c0,0.6,0.3,0.8,0.7,0.8h0.8v1.1H109   C108,38.6,107.3,38.1,107.3,37z"></path>
	<path d="M111,30.4h1.3v1.3H111V30.4z M111.1,32.6h1.3v6h-1.3V32.6z"></path>
	<path d="M113.3,35.7v-0.1c0-2,1.3-3.1,2.8-3.1s2.8,1.1,2.8,3.1v0.1c0,2-1.3,3.1-2.8,3.1S113.3,37.7,113.3,35.7z M116.1,37.7   c0.8,0,1.5-0.7,1.5-2.1v-0.1c0-1.3-0.7-2.1-1.5-2.1s-1.5,0.7-1.5,2.1v0.1C114.6,37,115.3,37.7,116.1,37.7z"></path>
	<path d="M120,32.6h1.2v0.8c0.4-0.6,1-0.9,1.7-0.9c1.3,0,2.1,0.9,2.1,2.2v3.9h-1.3V35c0-0.9-0.5-1.4-1.2-1.4c-0.8,0-1.3,0.6-1.3,1.5   v3.5H120V32.6z"></path>
	<path d="M125.7,37.2l1.1-0.4c0.3,0.7,0.8,1,1.5,1c0.7,0,1.1-0.3,1.1-0.8c0-0.5-0.4-0.7-1-0.8l-0.8-0.2c-1.2-0.2-1.8-0.7-1.8-1.6   c0-1,0.8-1.9,2.3-1.9c1,0,1.9,0.4,2.5,1.4l-1.1,0.4c-0.3-0.5-0.8-0.8-1.3-0.8c-0.7,0-1.1,0.3-1.1,0.8c0,0.4,0.3,0.6,0.9,0.7   l0.8,0.1c1.2,0.2,1.9,0.8,1.9,1.7c0,1-0.8,1.9-2.3,1.9C127.2,38.8,126.2,38.3,125.7,37.2z"></path>
	<path d="M134.3,37v-3.3h-0.9v-1.1h0.9v-1.8h1.2v1.8h1.6v1.1h-1.6v3c0,0.6,0.3,0.8,0.7,0.8h0.8v1.1H136   C135,38.6,134.3,38.1,134.3,37z"></path>
	<path d="M137.7,35.7v-0.1c0-2,1.3-3.1,2.8-3.1s2.8,1.1,2.8,3.1v0.1c0,2-1.3,3.1-2.8,3.1S137.7,37.7,137.7,35.7z M140.5,37.7   c0.8,0,1.5-0.7,1.5-2.1v-0.1c0-1.3-0.7-2.1-1.5-2.1s-1.5,0.7-1.5,2.1v0.1C138.9,37,139.6,37.7,140.5,37.7z"></path>
	<path d="M146.3,35.7v-0.1c0-2,1.3-3.1,2.7-3.1c1.1,0,2.1,0.7,2.5,1.9l-1.2,0.2c-0.2-0.7-0.8-1-1.3-1c-0.8,0-1.5,0.7-1.5,2v0.1   c0,1.3,0.7,2,1.5,2c0.5,0,1.1-0.3,1.3-1l1.2,0.2c-0.4,1.2-1.4,1.9-2.5,1.9C147.6,38.8,146.3,37.7,146.3,35.7z"></path>
	<path d="M152,35.7v-0.1c0-2,1.3-3.1,2.8-3.1s2.8,1.1,2.8,3.1v0.1c0,2-1.3,3.1-2.8,3.1S152,37.7,152,35.7z M154.8,37.7   c0.8,0,1.5-0.7,1.5-2.1v-0.1c0-1.3-0.7-2.1-1.5-2.1s-1.5,0.7-1.5,2.1v0.1C153.3,37,154,37.7,154.8,37.7z"></path>
	<path d="M158.6,32.6h1.2v0.8c0.3-0.5,0.9-0.9,1.7-0.9c0.7,0,1.3,0.3,1.6,0.9c0.4-0.7,1-0.9,1.7-0.9c1.2,0,2.1,0.9,2.1,2.2v3.9h-1.3   V35c0-0.9-0.4-1.4-1.1-1.4c-0.7,0-1.2,0.6-1.2,1.5v3.5h-1.3V35c0-0.9-0.4-1.4-1-1.4c-0.7,0-1.2,0.6-1.2,1.5v3.5h-1.3V32.6z"></path>
	<path d="M170.7,38.8c-1.6,0-2.9-1.1-2.9-3.1v-0.1c0-2,1.3-3.1,2.8-3.1s2.8,1.1,2.8,3.1v0.3H169c0,1.1,0.7,1.8,1.7,1.8   c0.6,0,1.1-0.2,1.4-0.8l1.2,0.2C172.8,38.2,171.8,38.8,170.7,38.8z M172.1,35.1c-0.1-1.1-0.8-1.6-1.5-1.6s-1.4,0.6-1.5,1.6H172.1z"></path>
	<path d="M174.5,37.2h1.3v1.4h-1.3V37.2z"></path>
</g>
</svg>