<svg xml:space="preserve" style="enable-background:new 0 0 360 360;" viewBox="0 0 360 360" y="0px" x="0px" id="Lager_1" version="1.1" xmlns:xlink="http://www.w3.org/1999/xlink" xmlns="http://www.w3.org/2000/svg">
<style type="text/css">
	.st0{fill:#EEEEEE;}
	.st1{fill:none;stroke:#B3B3B3;stroke-width:0.5;stroke-miterlimit:10;}
</style>
<g id="Lager_1-2">
	<rect height="360" width="360" class="st0" y="0"></rect>
</g>
<g>
	<path d="M234.2,61.9l-5.1,3.8c-2.4-2.1-5.6-2.5-7.3-2.5c-1.7,0-3.6,0.5-3.9,1.8c-0.3,1.2,0.9,2.2,2.8,2.7c2.2,0.6,4.2,1.1,7.3,2   c4.6,1.3,7.8,3.3,7.8,8c0,6.4-5.7,9.7-13.3,9.7c-7.6,0-12.8-4-14.3-5.8l5.4-4.1c3.8,3.3,6.5,3.8,8.7,3.8c2.5,0,4.9-0.5,5.2-2   c0.2-1.2-0.7-2.1-2.9-2.6c-2.5-0.6-4.5-1-6.8-1.6c-6.3-1.6-8-5.3-8-8.6c0-4.5,4.2-9.1,11.9-9.1C229.6,57.4,234.2,61.9,234.2,61.9    M267,57.8h-22.9v28.7h23.4v-6.6h-15.3v-4.6h10.5v-6.3h-10.5v-4.6H267V57.8z M238.2,93.1h1.8V51.2h-1.8V93.1z M270.5,93.1h1.8V51.2   h-1.8V93.1z M276.4,86.5h18.4c4.9,0,8.9-3,8.9-7.7c0-3.7-2.4-6.2-5.8-7.3c0,0-0.1,0-0.3,0c0.2,0,0.3-0.1,0.3-0.1   c2-0.8,4.1-2.8,4.1-6.3c0-4.4-3.9-7.3-8.8-7.3h-16.9V86.5z M284.5,63.8h6.4c1.5,0,2.7,1.2,2.7,2.5c0,1.3-1.2,2.5-2.7,2.5h-6.4V63.8   z M292.4,80.1l-7.9,0v-5.2h7.9c1.4,0,2.5,1.1,2.5,2.6C294.9,79,293.8,80.1,292.4,80.1z"></path>
</g>
<line y2="360" x2="302" y1="0" x1="302" class="st1"></line>
<line y2="57.8" x2="360" y1="57.8" x1="0" class="st1"></line>
<line y2="0" x2="360.2" y1="58.2" x1="302" class="st1"></line>
<line y2="58.2" x2="360.2" y1="0" x1="302" class="st1"></line>
</svg>