<svg xmlns="http://www.w3.org/2000/svg" viewBox="0 0 360 360"><defs><style>.cls-1{fill:#ededed;}.cls-2{fill:#ef3529;}</style></defs><title>p-dont-3</title><g id="Lager_2" data-name="Lager 2"><g id="Lager_1-2" data-name="Lager 1"><rect class="cls-1" width="360" height="360"/><rect x="256.61" y="267.16" width="11.98" height="10.42"/><path d="M282.69,57.62H242.51c-5.76,0-10.44,10.9-10.44,24.3V278.08c0,13.4,4.68,24.3,10.44,24.3h40.18c5.76,0,10.44-10.9,10.44-24.3V81.92C293.13,68.52,288.45,57.62,282.69,57.62ZM242.51,68h40.18c3.29,0,6,6.23,6,13.89v22.35H236.55V81.92C236.55,74.27,239.22,68,242.51,68Zm46.15,46.65v130H236.55v-130Zm-6,177.28H242.51c-3.29,0-6-6.23-6-13.89v-23h52.11v23C288.66,285.73,286,292,282.69,292Z"/><rect x="120.92" y="278.55" width="27.89" height="7.05"/><path d="M181.63,136.76H88.09c-13.4,0-24.3,7.38-24.3,16.44V285.93c0,9.07,10.9,16.44,24.3,16.44h93.55c13.4,0,24.3-7.38,24.3-16.44V153.2C205.94,144.14,195,136.76,181.63,136.76Zm-93.55,7h93.55c7.66,0,13.89,4.22,13.89,9.4v15.12H74.2V153.2C74.2,148,80.43,143.81,88.09,143.81Zm107.44,31.57v88H74.2v-88Zm-13.89,120H88.09c-7.66,0-13.89-4.22-13.89-9.4V270.4H195.52v15.53C195.52,291.11,189.29,295.33,181.63,295.33Z"/><rect class="cls-2" x="-73.14" y="179.5" width="506.29" height="1" transform="translate(-74.56 180) rotate(-45)"/><rect class="cls-2" x="179.5" y="-73.14" width="1" height="506.29" transform="translate(-74.56 180) rotate(-45)"/></g></g></svg>