<?xml version="1.0" encoding="utf-8"?>
<!-- Generator: Adobe Illustrator 21.0.2, SVG Export Plug-In . SVG Version: 6.00 Build 0)  -->
<svg version="1.1" id="Lager_1" xmlns="http://www.w3.org/2000/svg" xmlns:xlink="http://www.w3.org/1999/xlink" x="0px" y="0px"
	 viewBox="0 0 676.9 360" style="enable-background:new 0 0 676.9 360;" xml:space="preserve">
<style type="text/css">
	.st0{fill:none;}
	.st1{fill:none;stroke:#41B0EE;stroke-miterlimit:10;}
	.st2{fill:#60CD18;}
	.st3{fill:#FFC500;}
	.st4{fill:#673AB6;}
	.st5{fill:#F03529;}
	.st6{fill:#41B0EE;}
	.st7{fill:#45B400;}
	.st8{fill:#FFB400;}
	.st9{fill:#4F2C99;}
	.st10{fill:#D81A1A;}
	.st11{fill:#0092E1;}
	.st12{fill:#379D00;}
	.st13{fill:#F8A000;}
	.st14{fill:#3F2587;}
	.st15{fill:#BB000C;}
	.st16{fill:#007AC7;}
</style>
<title>left-align</title>
<rect y="0" class="st0" width="676.9" height="360"/>
<path d="M17.8,25.2V28H3.9V0h3v25.2H17.8z"/>
<path d="M19.5,18.2v-0.4c0-6.7,3.9-10.4,8.8-10.4s8.8,3.7,8.8,10.4v0.4c0,6.7-3.9,10.4-8.8,10.4S19.5,24.9,19.5,18.2z M34.4,18.1
	v-0.2c0-5.3-2.7-8.1-6-8.1s-6,2.8-6,8.1v0.2c0,5.3,2.7,8.1,6,8.1S34.4,23.4,34.4,18.1z"/>
<path d="M41.3,8h2.6v4.8c1.2-3.1,4.3-5.1,7.6-5v2.8c-4.5,0-7.4,3.4-7.4,8.2V28h-2.8C41.3,28,41.3,8,41.3,8z"/>
<path d="M62.3,28.6c-5,0-9-3.7-9-10.4v-0.4c0-6.7,3.9-10.4,8.8-10.4S71,11.1,71,17.8v0.8H56c0.1,4.7,2.6,7.7,6.4,7.7
	c2.3,0.1,4.5-1.3,5.4-3.5l2.7,0.5C69.1,26.6,65.9,28.7,62.3,28.6z M68.1,16.7c-0.3-4.6-2.9-7-6-7s-5.8,2.4-6,7H68.1z"/>
<path d="M74.7,8h2.6v3.2c1.1-2.2,3.3-3.6,5.8-3.6c2.5-0.1,4.8,1.5,5.5,3.9c1-2.4,3.4-4,6-3.9c3.9,0,6.6,2.9,6.6,7.4v13h-2.8V15.5
	c0-3.4-1.7-5.5-4.3-5.5c-2.9,0-4.8,2.6-4.8,5.9V28h-2.8V15.5c0-3.4-1.7-5.5-4.3-5.5c-2.9,0-4.8,2.6-4.8,5.9V28h-2.8L74.7,8z"/>
<path d="M114.7,0h2.8v4.4h-2.8V0z M114.7,8h2.8v20h-2.8V8z"/>
<path d="M122.4,8h2.6v3.7c1.1-2.5,3.7-4.2,6.5-4.1c4.4,0,8.3,3.3,8.3,10v0.8c0,6.7-3.9,10-8.2,10c-2.7,0.1-5.2-1.5-6.3-3.9V36h-2.8
	L122.4,8z M137,18.1v-0.2c0-5.1-2.6-7.9-6-7.9s-5.9,2.8-5.9,7.9v0.2c0,5.2,2.6,7.9,5.9,7.9S137,23.3,137,18.1z"/>
<path d="M142,23.3l2.4-1c0.9,2.4,3.2,4,5.8,3.9c2.7,0,4.7-1.3,4.7-3.6s-1.8-3-4.2-3.5l-2.6-0.5c-3.2-0.6-5.7-2.1-5.7-5.2
	c0-3.3,2.6-5.9,7.1-5.9c3.2-0.2,6.3,1.6,7.8,4.4l-2.4,1c-1-2-3.1-3.3-5.3-3.2c-2.6,0-4.5,1.4-4.5,3.5c0,1.9,1.6,2.8,3.6,3.1l2.5,0.5
	c3.8,0.7,6.3,2.2,6.3,5.5c0,3.5-2.8,6-7.4,6C146.7,28.6,143.4,26.5,142,23.3z"/>
<path d="M176.2,28h-2.6v-3.2c-1.1,2.3-3.5,3.7-6.1,3.6c-4.1,0-6.8-2.9-6.8-7.4V8h2.8v12.4c0,3.5,1.9,5.6,4.7,5.6
	c3.1,0,5.2-2.5,5.2-5.9V8h2.8L176.2,28z"/>
<path d="M181.2,8h2.6v3.2c1.1-2.2,3.3-3.6,5.8-3.6c2.5-0.1,4.8,1.5,5.5,3.9c1-2.4,3.4-4,6-3.9c3.9,0,6.6,2.9,6.6,7.4v13h-2.8V15.5
	c0-3.4-1.7-5.5-4.3-5.5c-2.9,0-4.8,2.6-4.8,5.9V28H193V15.5c0-3.4-1.7-5.5-4.3-5.5c-2.9,0-4.8,2.6-4.8,5.9V28h-2.8L181.2,8z"/>
<path d="M219.7,18.4v-0.8c0-6.7,3.9-10,8.2-10c2.7-0.1,5.2,1.5,6.3,3.9V0h2.8v28h-2.6v-3.7c-1.1,2.5-3.7,4.2-6.5,4.1
	C223.5,28.4,219.7,25.1,219.7,18.4z M234.3,18.1v-0.2c0-5.2-2.6-7.9-5.9-7.9s-6,2.7-6,7.9v0.2c0,5.1,2.6,7.9,6,7.9
	S234.3,23.2,234.3,18.1L234.3,18.1z"/>
<path d="M240.9,18.2v-0.4c0-6.7,3.9-10.4,8.8-10.4s8.8,3.7,8.8,10.4v0.4c0,6.7-3.9,10.4-8.8,10.4S240.9,24.9,240.9,18.2z
	 M255.8,18.1v-0.2c0-5.3-2.7-8.1-6-8.1s-6,2.8-6,8.1v0.2c0,5.3,2.7,8.1,6,8.1S255.8,23.4,255.8,18.1z"/>
<path d="M262.5,23.7V0h2.8v23.2c0,1.8,0.7,2.4,2,2.4h1V28h-1.7C264.2,28,262.5,26.7,262.5,23.7z"/>
<path d="M270,18.2v-0.4c0-6.7,3.9-10.4,8.8-10.4s8.8,3.7,8.8,10.4v0.4c0,6.7-3.9,10.4-8.8,10.4S270,24.9,270,18.2z M284.8,18.1v-0.2
	c0-5.3-2.7-8.1-6-8.1s-6,2.8-6,8.1v0.2c0,5.3,2.7,8.1,6,8.1S284.8,23.4,284.8,18.1z"/>
<path d="M291.7,8h2.6v4.8c1.2-3.1,4.3-5.1,7.6-5v2.8c-4.5,0-7.4,3.4-7.4,8.2V28h-2.8L291.7,8z"/>
<path d="M312.3,23.3l2.4-1c0.9,2.4,3.2,4,5.8,3.9c2.7,0,4.7-1.3,4.7-3.6s-1.8-3-4.2-3.5l-2.6-0.5c-3.2-0.6-5.7-2.1-5.7-5.2
	c0-3.3,2.6-5.9,7.1-5.9c3.2-0.1,6.2,1.6,7.8,4.4l-2.4,1c-1-2-3.1-3.3-5.3-3.2c-2.6,0-4.5,1.4-4.5,3.5c0,1.9,1.6,2.8,3.6,3.1l2.5,0.5
	c3.8,0.7,6.3,2.2,6.3,5.5c0,3.5-2.8,6-7.4,6C317,28.6,313.7,26.5,312.3,23.3z"/>
<path d="M331.5,0h2.8v4.4h-2.8V0z M331.5,8h2.8v20h-2.8V8z"/>
<path d="M340.9,23.1V10.4h-3.4V8h3.5V2h2.6v6h5.7v2.4h-5.6v12.2c0,2.1,1,3,2.7,3h2.9V28h-3.6C342.8,28,340.9,26.5,340.9,23.1z"/>
<path d="M360.4,22.9v-0.3c0-3.3,2.4-6.1,7.4-6.1h5.8v-1.6c0-3.2-1.8-5.1-4.8-5.1c-2.3-0.1-4.4,1.3-5.2,3.5l-2.6-0.5
	c1.2-3.3,4.4-5.5,7.9-5.3c4.7,0,7.4,2.8,7.4,7.2V28h-2.6v-3.2c-1.5,2.3-4.1,3.7-6.8,3.6C363,28.4,360.4,26.2,360.4,22.9z
	 M373.5,20.2v-1.8h-5.4c-3.3,0-4.9,1.7-4.9,4s1.8,3.8,4.3,3.8c3.2,0.1,5.9-2.4,6-5.6C373.5,20.4,373.5,20.3,373.5,20.2L373.5,20.2z"
	/>
<path d="M381.1,8h2.6v3.2c1.1-2.2,3.3-3.6,5.8-3.6c2.5-0.1,4.8,1.5,5.5,3.9c1-2.4,3.4-4,6-3.9c3.9,0,6.6,2.9,6.6,7.4v13h-2.8V15.5
	c0-3.4-1.7-5.5-4.3-5.5c-2.9,0-4.8,2.6-4.8,5.9V28H393V15.5c0-3.4-1.7-5.5-4.3-5.5c-2.9,0-4.8,2.6-4.8,5.9V28h-2.8L381.1,8z"/>
<path d="M420.3,28.6c-5,0-9-3.7-9-10.4v-0.4c0-6.7,3.9-10.4,8.8-10.4s8.8,3.7,8.8,10.4v0.8H414c0.1,4.7,2.6,7.7,6.4,7.7
	c2.3,0.1,4.5-1.3,5.4-3.5l2.7,0.5C427.1,26.6,423.8,28.7,420.3,28.6z M426.1,16.7c-0.3-4.6-2.9-7-6-7s-5.8,2.4-6,7H426.1z"/>
<path d="M433.8,23.1V10.4h-3.4V8h3.5V2h2.6v6h5.7v2.4h-5.6v12.2c0,2.1,1,3,2.7,3h2.9V28h-3.6C435.7,28,433.8,26.5,433.8,23.1z"/>
<path d="M448.2,23.2v6.7c0,2-1.2,3.1-3.4,3.1v-1.6c1.1,0,1.6-0.4,1.6-1.6v-2.2h-0.9v-4.4C445.5,23.2,448.2,23.2,448.2,23.2z"/>
<path d="M460.7,18.2v-0.4c0-6.6,3.9-10.2,8.6-10.2c3.6,0,6.8,2.4,7.8,5.9l-2.6,0.5c-0.7-2.3-2.8-3.9-5.2-4c-3.2,0-5.8,2.7-5.8,7.9
	v0.2c0,5.2,2.7,7.9,5.8,7.9c2.4-0.1,4.5-1.7,5.2-4l2.6,0.5c-1,3.5-4.2,6-7.8,5.9C464.7,28.4,460.7,24.8,460.7,18.2z"/>
<path d="M479.4,18.2v-0.4c0-6.7,3.9-10.4,8.8-10.4s8.8,3.7,8.8,10.4v0.4c0,6.7-3.9,10.4-8.8,10.4S479.4,24.9,479.4,18.2z
	 M494.2,18.1v-0.2c0-5.3-2.7-8.1-6-8.1s-6,2.8-6,8.1v0.2c0,5.3,2.7,8.1,6,8.1S494.2,23.4,494.2,18.1L494.2,18.1z"/>
<path d="M501,8h2.6v3.2c1.1-2.3,3.5-3.7,6.1-3.6c4.1,0,6.8,2.9,6.8,7.4v13h-2.8V15.6c0-3.5-1.9-5.6-4.7-5.6c-3.1,0-5.2,2.6-5.2,5.9
	V28H501V8z"/>
<path d="M519.5,23.3l2.4-1c0.9,2.4,3.2,4,5.8,3.9c2.7,0,4.7-1.3,4.7-3.6s-1.8-3-4.2-3.5l-2.6-0.5c-3.2-0.6-5.7-2.1-5.7-5.2
	c0-3.3,2.6-5.9,7.1-5.9c3.2-0.1,6.2,1.6,7.8,4.4l-2.4,1c-1-2-3.1-3.3-5.3-3.2c-2.6,0-4.5,1.4-4.5,3.5c0,1.9,1.6,2.8,3.6,3.1l2.5,0.5
	c3.8,0.7,6.3,2.2,6.3,5.5c0,3.5-2.8,6-7.4,6C524.2,28.6,520.9,26.5,519.5,23.3z"/>
<path d="M546.6,28.6c-5,0-9-3.7-9-10.4v-0.4c0-6.7,3.9-10.4,8.8-10.4s8.8,3.7,8.8,10.4v0.8h-15c0.1,4.7,2.6,7.7,6.4,7.7
	c2.3,0.1,4.5-1.3,5.4-3.5l2.7,0.5C553.4,26.6,550.2,28.7,546.6,28.6z M552.4,16.7c-0.3-4.6-2.9-7-6-7s-5.8,2.4-6,7H552.4z"/>
<path d="M558,18.2v-0.4c0-6.6,3.9-10.2,8.6-10.2c3.6,0,6.8,2.4,7.8,5.9l-2.6,0.5c-0.7-2.3-2.8-3.9-5.2-4c-3.2,0-5.8,2.7-5.8,7.9v0.2
	c0,5.2,2.7,7.9,5.8,7.9c2.4-0.1,4.5-1.7,5.2-4l2.6,0.5c-1,3.5-4.2,6-7.8,5.9C562,28.4,558,24.8,558,18.2z"/>
<path d="M579.3,23.1V10.4H576V8h3.5V2h2.5v6h5.7v2.4h-5.6v12.2c0,2.1,1,3,2.7,3h2.9V28h-3.6C581.3,28,579.3,26.5,579.3,23.1z"/>
<path d="M598.3,28.6c-5,0-9-3.7-9-10.4v-0.4c0-6.7,3.9-10.4,8.8-10.4s8.8,3.7,8.8,10.4v0.8h-15c0.1,4.7,2.6,7.7,6.4,7.7
	c2.3,0.1,4.5-1.3,5.4-3.5l2.7,0.5C605.2,26.6,601.9,28.7,598.3,28.6z M604.2,16.7c-0.3-4.6-2.9-7-6-7s-5.8,2.4-6,7H604.2z"/>
<path d="M4.4,67.1V54.4H1V52h3.5v-6h2.6v6h5.7v2.4H7.2v12.2c0,2.1,1,3,2.7,3h2.9V72H9.2C6.3,72,4.4,70.5,4.4,67.1z"/>
<path d="M31.2,72h-2.6v-3.2c-1.1,2.3-3.5,3.7-6.1,3.6c-4.1,0-6.8-2.9-6.8-7.4V52h2.8v12.4c0,3.5,1.9,5.6,4.7,5.6
	c3.1,0,5.2-2.5,5.2-5.9V52h2.8V72z"/>
<path d="M44.2,72.6c-5,0-9-3.7-9-10.4v-0.4c0-6.7,3.9-10.4,8.8-10.4s8.8,3.7,8.8,10.4v0.8h-15c0.1,4.7,2.6,7.7,6.4,7.7
	c2.3,0.1,4.5-1.3,5.4-3.5l2.7,0.5C51,70.6,47.7,72.7,44.2,72.6z M50,60.7c-0.3-4.6-2.9-7-6-7s-5.8,2.4-6,7H50z"/>
<path d="M56.8,52h2.6v4.8c1.2-3.1,4.3-5.1,7.6-5v2.8c-4.5,0-7.4,3.4-7.4,8.2V72h-2.8V52z"/>
<path d="M78.4,66.9v-0.3c0-3.3,2.4-6.1,7.4-6.1h5.8v-1.6c0-3.2-1.8-5.1-4.8-5.1c-2.3-0.1-4.4,1.3-5.2,3.5L79,56.9
	c1.2-3.3,4.4-5.5,7.9-5.3c4.7,0,7.4,2.8,7.4,7.2V72h-2.6v-3.2c-1.5,2.3-4.1,3.7-6.8,3.6C81.1,72.4,78.4,70.2,78.4,66.9z M91.5,64.2
	v-1.8h-5.4c-3.3,0-4.9,1.7-4.9,4s1.8,3.8,4.3,3.8c3.2,0.1,5.9-2.4,6-5.6C91.5,64.4,91.5,64.3,91.5,64.2z"/>
<path d="M98.1,62.4v-0.8c0-6.7,3.9-10,8.2-10c2.7-0.1,5.2,1.5,6.3,3.9V44h2.8v28h-2.6v-3.7c-1.1,2.5-3.7,4.2-6.5,4.1
	C102,72.4,98.1,69.1,98.1,62.4z M112.8,62.1v-0.2c0-5.2-2.6-7.9-5.9-7.9s-6,2.7-6,7.9v0.2c0,5.1,2.6,7.9,6,7.9
	S112.8,67.2,112.8,62.1z"/>
<path d="M120.5,44h2.8v4.4h-2.8V44z M120.5,52h2.8v20h-2.8V52z"/>
<path d="M128.2,52h2.6v3.7c1.1-2.5,3.7-4.2,6.5-4.1c4.4,0,8.3,3.3,8.3,10v0.8c0,6.7-3.9,10-8.2,10c-2.7,0.1-5.2-1.5-6.4-3.9V80h-2.8
	L128.2,52z M142.8,62.1v-0.2c0-5.1-2.6-7.9-6-7.9s-5.9,2.8-5.9,7.9v0.2c0,5.2,2.6,7.9,5.9,7.9S142.8,67.3,142.8,62.1z"/>
<path d="M149.6,44h2.8v4.4h-2.8V44z M149.6,52h2.8v20h-2.8V52z"/>
<path d="M155.9,67.3l2.4-1c0.9,2.4,3.2,4,5.8,3.9c2.7,0,4.7-1.3,4.7-3.6s-1.8-3-4.2-3.5l-2.6-0.5c-3.2-0.6-5.7-2.1-5.7-5.2
	c0-3.3,2.6-5.9,7.1-5.9c3.2-0.2,6.3,1.6,7.8,4.4l-2.4,1c-1-2-3.1-3.3-5.3-3.2c-2.6,0-4.5,1.4-4.5,3.5c0,1.9,1.6,2.8,3.6,3.1l2.5,0.5
	c3.8,0.7,6.3,2.2,6.3,5.5c0,3.5-2.8,6-7.4,6C160.6,72.6,157.3,70.5,155.9,67.3z"/>
<path d="M173.9,62.2v-0.4c0-6.6,3.9-10.2,8.6-10.2c3.6,0,6.8,2.4,7.8,5.9l-2.6,0.5c-0.7-2.3-2.8-3.9-5.2-4c-3.2,0-5.8,2.7-5.8,7.9
	v0.2c0,5.2,2.7,7.9,5.8,7.9c2.4-0.1,4.5-1.7,5.2-4l2.6,0.5c-1,3.5-4.2,6-7.8,5.9C177.9,72.4,173.9,68.8,173.9,62.2z"/>
<path d="M193.7,44h2.8v4.4h-2.8V44z M193.7,52h2.8v20h-2.8V52z"/>
<path d="M201.5,52h2.6v3.2c1.1-2.3,3.5-3.7,6.1-3.6c4.1,0,6.8,2.9,6.8,7.4v13h-2.8V59.6c0-3.5-1.9-5.6-4.7-5.6
	c-3.1,0-5.2,2.6-5.2,5.9V72h-2.8L201.5,52z"/>
<path d="M238.4,74.7c0,3.3-2.7,5.9-5.9,5.9h-0.1h-6.3c-3.3,0-6-2.6-6-5.8c0-2,0.9-3.8,2.6-5c-0.8-0.8-1.2-1.9-1.2-3
	c0-1.6,0.9-3.1,2.5-3.8c-1.4-1.2-2.3-3-2.3-4.9c0-3.8,3.1-6.7,7.1-6.7c0.9,0,1.8,0.2,2.7,0.5h6.1v2.4h-2.9c0.8,1.1,1.2,2.4,1.2,3.8
	c-0.1,3.7-3.1,6.7-6.8,6.6c-0.1,0-0.2,0-0.2,0H226c-1.1,0-2,0.9-2,2s0.9,2,2,2h6.4C235.7,68.8,238.3,71.4,238.4,74.7L238.4,74.7z
	 M235.8,74.7c0-2-1.6-3.7-3.6-3.7c-0.1,0-0.1,0-0.2,0h-5.5c-2-0.1-3.8,1.5-3.9,3.5c-0.1,2,1.5,3.8,3.5,3.9c0.1,0,0.3,0,0.4,0h5.5
	C234,78.4,235.7,76.8,235.8,74.7C235.8,74.8,235.8,74.8,235.8,74.7L235.8,74.7z M224.1,58.2c0.1,2.5,2.3,4.5,4.8,4.4
	c2.4-0.1,4.2-2,4.4-4.4c-0.1-2.5-2.3-4.5-4.8-4.4C226.1,54,224.3,55.8,224.1,58.2z"/>
<path d="M257.7,72.6c-5,0-9-3.7-9-10.4v-0.4c0-6.7,3.9-10.4,8.8-10.4s8.8,3.7,8.8,10.4v0.8h-15c0.1,4.7,2.6,7.7,6.4,7.7
	c2.3,0.1,4.5-1.3,5.4-3.5l2.7,0.5C264.5,70.6,261.3,72.7,257.7,72.6z M263.5,60.7c-0.3-4.6-2.9-7-6-7s-5.8,2.4-6,7H263.5z"/>
<path d="M270.1,67.7V44h2.8v23.2c0,1.8,0.7,2.4,2,2.4h1V72h-1.7C271.8,72,270.1,70.7,270.1,67.7z"/>
<path d="M279.1,44h2.8v4.4h-2.8V44z M279.1,52h2.8v20h-2.8V52z"/>
<path d="M288.5,67.1V54.4h-3.4V52h3.5v-6h2.6v6h5.7v2.4h-5.6v12.2c0,2.1,1,3,2.7,3h2.9V72h-3.6C290.4,72,288.5,70.5,288.5,67.1z"/>
<path d="M302.9,67.2v6.7c0,2-1.2,3.1-3.4,3.1v-1.6c1.1,0,1.6-0.4,1.6-1.6v-2.2h-0.9v-4.4H302.9z"/>
<path d="M314.9,67.3l2.4-1c0.9,2.4,3.2,4,5.8,3.9c2.7,0,4.7-1.3,4.7-3.6s-1.8-3-4.2-3.5l-2.6-0.5c-3.2-0.6-5.7-2.1-5.7-5.2
	c0-3.3,2.6-5.9,7.1-5.9c3.2-0.1,6.3,1.6,7.8,4.4l-2.4,1c-1-2-3.1-3.3-5.3-3.2c-2.6,0-4.5,1.4-4.5,3.5c0,1.9,1.6,2.8,3.6,3.1l2.5,0.5
	c3.8,0.7,6.3,2.2,6.3,5.5c0,3.5-2.8,6-7.4,6C319.7,72.6,316.4,70.5,314.9,67.3z"/>
<path d="M342,72.6c-5,0-9-3.7-9-10.4v-0.4c0-6.7,3.9-10.4,8.8-10.4s8.8,3.7,8.8,10.4v0.8h-14.9c0.1,4.7,2.6,7.7,6.4,7.7
	c2.3,0.1,4.5-1.3,5.4-3.5l2.7,0.5C348.9,70.6,345.6,72.7,342,72.6z M347.8,60.7c-0.3-4.6-2.9-7-6-7s-5.8,2.4-6,7H347.8z"/>
<path d="M353.5,62.4v-0.8c0-6.7,3.9-10,8.2-10c2.7-0.1,5.2,1.5,6.3,3.9V44h2.8v28h-2.6v-3.7c-1.1,2.5-3.7,4.2-6.5,4.1
	C357.3,72.4,353.5,69.1,353.5,62.4z M368.2,62.1v-0.2c0-5.2-2.6-7.9-5.9-7.9s-6,2.7-6,7.9v0.2c0,5.1,2.6,7.9,6,7.9
	S368.1,67.2,368.2,62.1L368.2,62.1z"/>
<path d="M383.3,62.4v-0.8c0-6.7,3.9-10,8.2-10c2.7-0.1,5.2,1.5,6.3,3.9V44h2.8v28H398v-3.7c-1.1,2.5-3.7,4.2-6.5,4.1
	C387.1,72.4,383.3,69.1,383.3,62.4z M398,62.1v-0.2c0-5.2-2.6-7.9-5.9-7.9s-6,2.7-6,7.9v0.2c0,5.1,2.6,7.9,6,7.9
	S397.9,67.2,398,62.1L398,62.1z"/>
<path d="M405.6,44h2.8v4.4h-2.8V44z M405.6,52h2.8v20h-2.8V52z"/>
<path d="M412.5,66.9v-0.3c0-3.3,2.4-6.1,7.4-6.1h5.8v-1.6c0-3.2-1.8-5.1-4.8-5.1c-2.3-0.1-4.4,1.3-5.2,3.5l-2.6-0.5
	c1.2-3.3,4.4-5.4,7.9-5.3c4.7,0,7.4,2.8,7.4,7.2V72h-2.6v-3.2c-1.5,2.3-4.1,3.7-6.8,3.6C415.2,72.4,412.5,70.2,412.5,66.9z
	 M425.7,64.2v-1.8h-5.4c-3.3,0-4.9,1.7-4.9,4s1.8,3.8,4.3,3.8c3.2,0.1,5.9-2.4,6-5.6C425.7,64.4,425.7,64.3,425.7,64.2L425.7,64.2z"
	/>
<path d="M433.3,52h2.6v3.2c1.1-2.2,3.3-3.6,5.8-3.6c2.5-0.1,4.8,1.5,5.5,3.9c1-2.4,3.4-4,6-3.9c3.9,0,6.6,2.9,6.6,7.4v13H457V59.5
	c0-3.4-1.7-5.5-4.3-5.5c-2.9,0-4.8,2.6-4.8,5.9V72h-2.8V59.5c0-3.4-1.7-5.5-4.3-5.5c-2.9,0-4.8,2.6-4.8,5.9V72h-2.8L433.3,52z"/>
<path d="M473.1,52h2.6v3.2c1.1-2.3,3.5-3.7,6.1-3.6c4.1,0,6.8,2.9,6.8,7.4v13h-2.8V59.6c0-3.5-1.9-5.6-4.7-5.6
	c-3.1,0-5.2,2.6-5.2,5.9V72h-2.8V52z"/>
<path d="M492.2,62.2v-0.4c0-6.7,3.9-10.4,8.8-10.4s8.8,3.7,8.8,10.4v0.4c0,6.7-3.9,10.4-8.8,10.4S492.2,68.9,492.2,62.2z M507,62.1
	v-0.2c0-5.3-2.7-8.1-6-8.1s-6,2.8-6,8.1v0.2c0,5.3,2.7,8.1,6,8.1S507,67.4,507,62.1z"/>
<path d="M513.8,52h2.6v3.2c1.1-2.3,3.5-3.7,6.1-3.6c4.1,0,6.8,2.9,6.8,7.4v13h-2.8V59.6c0-3.5-1.9-5.6-4.7-5.6
	c-3.1,0-5.2,2.6-5.2,5.9V72h-2.8L513.8,52L513.8,52z"/>
<path d="M549.1,72h-2.6v-3.2c-1.1,2.3-3.5,3.7-6.1,3.6c-4.1,0-6.8-2.9-6.8-7.4V52h2.8v12.4c0,3.5,1.9,5.6,4.7,5.6
	c3.1,0,5.2-2.5,5.2-5.9V52h2.8L549.1,72L549.1,72z"/>
<path d="M554.1,52h2.6v3.2c1.1-2.2,3.3-3.6,5.8-3.6c2.5-0.1,4.8,1.5,5.5,3.9c1-2.4,3.4-4,6-3.9c3.9,0,6.6,2.9,6.6,7.4v13h-2.8V59.5
	c0-3.4-1.7-5.5-4.3-5.5c-2.9,0-4.8,2.6-4.8,5.9V72h-2.8V59.5c0-3.4-1.7-5.5-4.3-5.5c-2.9,0-4.8,2.6-4.8,5.9V72H554L554.1,52z"/>
<path d="M585.3,52h2.6v3.2c1.1-2.2,3.3-3.6,5.8-3.6c2.5-0.1,4.8,1.5,5.5,3.9c1-2.4,3.4-4,6-3.9c3.9,0,6.6,2.9,6.6,7.4v13H609V59.5
	c0-3.4-1.7-5.5-4.3-5.5c-2.9,0-4.8,2.6-4.8,5.9V72h-2.8V59.5c0-3.4-1.7-5.5-4.3-5.5c-2.9,0-4.8,2.6-4.8,5.9V72h-2.8L585.3,52z"/>
<path d="M616,77.6h1.5c1.9,0,2.8-0.9,3.6-3.1l1.2-3.3L614,52h3.1l4.8,11.5c0.6,1.4,1.2,2.8,1.8,4.5c0.5-1.8,0.9-3.2,1.4-4.6L629,52
	h2.9l-8.5,23.4c-1.1,3-2.9,4.6-5.8,4.6H616V77.6z"/>
<path d="M2.9,96h2.6v3.2c1.1-2.3,3.5-3.7,6.1-3.6c4.1,0,6.8,2.9,6.8,7.4v13h-2.8v-12.4c0-3.5-1.9-5.6-4.7-5.6
	c-3.1,0-5.2,2.6-5.2,5.9V116H2.9V96z"/>
<path d="M23.1,88h2.8v4.4h-2.8V88z M23.1,96h2.8v20h-2.8V96z"/>
<path d="M33.5,112.3v3.7h-2.6V88h2.8v11.5c1.1-2.5,3.6-4,6.3-3.9c4.3,0,8.2,3.3,8.2,10v0.8c0,6.7-3.9,10-8.3,10
	C37.2,116.5,34.6,114.9,33.5,112.3z M45.5,106.1v-0.2c0-5.2-2.6-7.9-6-7.9s-5.9,2.7-5.9,7.9v0.2c0,5.1,2.6,7.9,5.9,7.9
	S45.5,111.2,45.5,106.1L45.5,106.1z"/>
<path d="M67.7,103v13h-2.8v-12.4c0-3.5-1.9-5.6-4.7-5.6c-3.1,0-5.2,2.5-5.2,5.9V116h-2.8V88H55v10.9c1.2-2.1,3.5-3.3,5.9-3.3
	C65,95.6,67.7,98.5,67.7,103z"/>
<path d="M88.7,116.6c-5,0-9-3.7-9-10.4v-0.4c0-6.7,3.9-10.4,8.8-10.4s8.8,3.7,8.8,10.4v0.8h-15c0.1,4.7,2.6,7.7,6.4,7.7
	c2.3,0.1,4.5-1.3,5.4-3.5l2.7,0.5C95.5,114.6,92.3,116.7,88.7,116.6z M94.6,104.7c-0.3-4.6-2.9-7-6-7s-5.8,2.4-6,7H94.6z"/>
<path d="M116.3,116h-2.6v-3.2c-1.1,2.3-3.5,3.7-6.1,3.6c-4.1,0-6.8-2.9-6.8-7.4V96h2.8v12.4c0,3.5,1.9,5.6,4.7,5.6
	c3.1,0,5.2-2.5,5.2-5.9V96h2.8V116z"/>
<path d="M121.3,88h2.8v4.4h-2.8V88z M121.3,96h2.8v20h-2.8V96z"/>
<path d="M127.5,111.3l2.4-1c0.9,2.4,3.2,4,5.8,3.9c2.7,0,4.7-1.3,4.7-3.6s-1.8-3-4.2-3.5l-2.6-0.5c-3.2-0.6-5.7-2.1-5.7-5.2
	c0-3.3,2.6-5.9,7.1-5.9c3.2-0.1,6.2,1.6,7.8,4.4l-2.4,1c-1-2-3.1-3.3-5.3-3.2c-2.6,0-4.5,1.4-4.5,3.5c0,1.9,1.6,2.8,3.6,3.1l2.5,0.5
	c3.8,0.7,6.3,2.2,6.3,5.5c0,3.5-2.8,6-7.4,6C132.2,116.6,128.9,114.5,127.5,111.3z"/>
<path d="M146.7,96h2.6v3.2c1.1-2.2,3.3-3.6,5.8-3.6c2.5-0.1,4.8,1.5,5.5,3.9c1-2.4,3.4-4,6-3.9c3.9,0,6.6,2.9,6.6,7.4v13h-2.8v-12.5
	c0-3.4-1.7-5.5-4.3-5.5c-2.9,0-4.8,2.6-4.8,5.9V116h-2.8v-12.5c0-3.4-1.7-5.5-4.3-5.5c-2.9,0-4.8,2.6-4.8,5.9V116h-2.8L146.7,96z"/>
<path d="M176.8,106.2v-0.4c0-6.7,3.9-10.4,8.8-10.4s8.8,3.7,8.8,10.4v0.4c0,6.7-3.9,10.4-8.8,10.4S176.8,112.9,176.8,106.2z
	 M191.6,106.1v-0.2c0-5.3-2.7-8.1-6-8.1s-6,2.8-6,8.1v0.2c0,5.3,2.7,8.1,6,8.1S191.6,111.4,191.6,106.1z"/>
<path d="M197.3,106.4v-0.8c0-6.7,3.9-10,8.2-10c2.7-0.1,5.2,1.5,6.3,3.9V88h2.8v28H212v-3.7c-1.1,2.5-3.7,4.2-6.5,4.1
	C201.2,116.4,197.3,113.1,197.3,106.4z M212,106.1v-0.2c0-5.2-2.6-7.9-5.9-7.9s-6,2.7-6,7.9v0.2c0,5.1,2.6,7.9,6,7.9
	S212,111.2,212,106.1L212,106.1z"/>
<path d="M229.9,111.1V98.4h-3.4V96h3.4v-6h2.6v6h5.7v2.4h-5.6v12.2c0,2.1,1,3,2.7,3h2.9v2.4h-3.6C231.9,116,229.9,114.5,229.9,111.1
	z"/>
<path d="M241.5,88h2.8v4.4h-2.8V88z M241.5,96h2.8v20h-2.8V96z"/>
<path d="M249.3,96h2.6v3.2c1.1-2.3,3.5-3.7,6.1-3.6c4.1,0,6.8,2.9,6.8,7.4v13H262v-12.4c0-3.5-1.9-5.6-4.7-5.6
	c-3.1,0-5.2,2.6-5.2,5.9V116h-2.8L249.3,96z"/>
<path d="M268.4,106.2v-0.4c0-6.6,3.9-10.2,8.6-10.2c3.6,0,6.8,2.4,7.8,5.9l-2.6,0.5c-0.7-2.3-2.8-4-5.2-4c-3.2,0-5.8,2.7-5.8,7.9
	v0.2c0,5.2,2.7,7.9,5.8,7.9c2.4-0.1,4.5-1.7,5.2-4l2.6,0.5c-1,3.5-4.2,6-7.8,5.9C272.3,116.4,268.4,112.8,268.4,106.2z"/>
<path d="M288.2,88h2.8v4.4h-2.8V88z M288.2,96h2.8v20h-2.8V96z"/>
<path d="M295,106.4v-0.8c0-6.7,3.9-10,8.2-10c2.7-0.1,5.2,1.5,6.3,3.9V88h2.8v28h-2.6v-3.7c-1.1,2.5-3.7,4.2-6.5,4.1
	C298.8,116.4,295,113.1,295,106.4z M309.7,106.1v-0.2c0-5.2-2.6-7.9-5.9-7.9s-6,2.7-6,7.9v0.2c0,5.1,2.6,7.9,6,7.9
	S309.6,111.2,309.7,106.1L309.7,106.1z"/>
<path d="M332.5,116h-2.6v-3.2c-1.1,2.3-3.5,3.7-6.1,3.6c-4.1,0-6.8-2.9-6.8-7.4V96h2.8v12.4c0,3.5,1.9,5.6,4.7,5.6
	c3.1,0,5.2-2.5,5.2-5.9V96h2.8V116z"/>
<path d="M337.4,96h2.6v3.2c1.1-2.3,3.5-3.7,6.1-3.6c4.1,0,6.8,2.9,6.8,7.4v13h-2.8v-12.4c0-3.5-1.9-5.6-4.7-5.6
	c-3.1,0-5.2,2.6-5.2,5.9V116h-2.8V96z"/>
<path d="M358.7,111.1V98.4h-3.4V96h3.5v-6h2.6v6h5.7v2.4h-5.6v12.2c0,2.1,1,3,2.7,3h2.9v2.4h-3.6C360.7,116,358.7,114.5,358.7,111.1
	z"/>
<path d="M394.1,116h-2.6v-3.2c-1.1,2.3-3.5,3.7-6.1,3.6c-4.1,0-6.8-2.9-6.8-7.4V96h2.8v12.4c0,3.5,1.9,5.6,4.7,5.6
	c3.1,0,5.2-2.5,5.2-5.9V96h2.8V116z"/>
<path d="M400.6,111.1V98.4h-3.4V96h3.5v-6h2.6v6h5.7v2.4h-5.6v12.2c0,2.1,1,3,2.7,3h2.9v2.4h-3.6C402.6,116,400.6,114.5,400.6,111.1
	z"/>
<path d="M421,111.7V88h2.8v23.2c0,1.8,0.7,2.4,2,2.4h1v2.4h-1.7C422.6,116,421,114.7,421,111.7z"/>
<path d="M429.4,110.9v-0.3c0-3.3,2.4-6.1,7.4-6.1h5.8v-1.6c0-3.2-1.8-5.1-4.8-5.1c-2.3-0.1-4.4,1.3-5.2,3.5l-2.6-0.5
	c1.2-3.3,4.4-5.5,7.9-5.3c4.7,0,7.4,2.8,7.4,7.2V116h-2.6v-3.2c-1.5,2.3-4.1,3.7-6.8,3.6C432.1,116.4,429.4,114.2,429.4,110.9z
	 M442.6,108.2v-1.8h-5.4c-3.3,0-4.9,1.7-4.9,4s1.8,3.8,4.3,3.8c3.2,0.1,5.9-2.4,6-5.6C442.6,108.4,442.6,108.3,442.6,108.2
	L442.6,108.2z"/>
<path d="M449,106.2v-0.4c0-6.7,3.9-10.4,8.8-10.4s8.8,3.7,8.8,10.4v0.4c0,6.7-3.9,10.4-8.8,10.4S449,112.9,449,106.2z M463.9,106.1
	v-0.2c0-5.3-2.7-8.1-6-8.1s-6,2.8-6,8.1v0.2c0,5.3,2.7,8.1,6,8.1S463.9,111.4,463.9,106.1L463.9,106.1z"/>
<path d="M470.8,96h2.6v4.8c1.2-3.1,4.3-5.1,7.6-5v2.8c-4.5,0-7.4,3.4-7.4,8.2v9.2h-2.8L470.8,96z"/>
<path d="M491.8,116.6c-5,0-9-3.7-9-10.4v-0.4c0-6.7,3.9-10.4,8.8-10.4s8.8,3.7,8.8,10.4v0.8h-15c0.1,4.7,2.6,7.7,6.4,7.7
	c2.3,0.1,4.5-1.3,5.4-3.5l2.7,0.5C498.6,114.6,495.4,116.7,491.8,116.6z M497.6,104.7c-0.3-4.6-2.9-7-6-7s-5.8,2.4-6,7H497.6z"/>
<path d="M512.3,116.6c-5,0-9-3.7-9-10.4v-0.4c0-6.7,3.9-10.4,8.8-10.4c4.9,0,8.8,3.7,8.8,10.4v0.8H506c0.1,4.7,2.6,7.7,6.4,7.7
	c2.3,0.1,4.5-1.3,5.4-3.5l2.7,0.5C519.1,114.6,515.8,116.7,512.3,116.6z M518.1,104.7c-0.3-4.6-2.9-7-6-7s-5.8,2.4-6,7H518.1z"/>
<path d="M525.8,111.1V98.4h-3.4V96h3.5v-6h2.6v6h5.7v2.4h-5.6v12.2c0,2.1,1,3,2.7,3h2.9v2.4h-3.6C527.8,116,525.8,114.5,525.8,111.1
	z"/>
<path d="M544.8,106.4v-0.8c0-6.7,3.9-10,8.2-10c2.7-0.1,5.2,1.5,6.3,3.9V88h2.8v28h-2.6v-3.7c-1.1,2.5-3.7,4.2-6.5,4.1
	C548.7,116.4,544.8,113.1,544.8,106.4z M559.5,106.1v-0.2c0-5.2-2.6-7.9-5.9-7.9s-6,2.7-6,7.9v0.2c0,5.1,2.6,7.9,6,7.9
	S559.5,111.2,559.5,106.1L559.5,106.1z"/>
<path d="M566.1,106.2v-0.4c0-6.7,3.9-10.4,8.8-10.4s8.8,3.7,8.8,10.4v0.4c0,6.7-3.9,10.4-8.8,10.4S566.1,112.9,566.1,106.2z
	 M580.9,106.1v-0.2c0-5.3-2.7-8.1-6-8.1s-6,2.8-6,8.1v0.2c0,5.3,2.7,8.1,6,8.1S580.9,111.4,580.9,106.1z"/>
<path d="M587.7,111.7V88h2.8v23.2c0,1.8,0.7,2.4,2,2.4h1v2.4h-1.7C589.3,116,587.7,114.7,587.7,111.7z"/>
<path d="M595.1,106.2v-0.4c0-6.7,3.9-10.4,8.8-10.4s8.8,3.7,8.8,10.4v0.4c0,6.7-3.9,10.4-8.8,10.4S595.1,112.9,595.1,106.2z
	 M610,106.1v-0.2c0-5.3-2.7-8.1-6-8.1s-6,2.8-6,8.1v0.2c0,5.3,2.7,8.1,6,8.1S609.9,111.4,610,106.1L610,106.1z"/>
<path d="M3.3,140h2.6v4.8c1.2-3.1,4.3-5.1,7.6-5v2.8c-4.5,0-7.4,3.4-7.4,8.2v9.2H3.3V140z"/>
<path d="M24.3,160.6c-5,0-9-3.7-9-10.4v-0.4c0-6.7,3.9-10.4,8.8-10.4s8.8,3.7,8.8,10.4v0.8H18c0.1,4.7,2.6,7.7,6.4,7.7
	c2.3,0.1,4.5-1.3,5.4-3.5l2.7,0.5C31.1,158.6,27.8,160.7,24.3,160.6z M30.1,148.7c-0.3-4.6-2.9-7-6-7s-5.8,2.4-6,7H30.1z"/>
<path d="M45.3,140h2.6v3.2c1.1-2.2,3.3-3.6,5.8-3.6c2.5-0.1,4.8,1.5,5.5,3.9c1-2.4,3.4-4,6-3.9c3.9,0,6.6,2.9,6.6,7.4v13H69v-12.5
	c0-3.4-1.7-5.5-4.3-5.5c-2.9,0-4.8,2.6-4.8,5.9V160h-2.8v-12.5c0-3.4-1.7-5.5-4.3-5.5c-2.9,0-4.8,2.6-4.8,5.9V160h-2.8L45.3,140z"/>
<path d="M75.6,154.9v-0.3c0-3.3,2.4-6.1,7.4-6.1h5.8v-1.6c0-3.2-1.8-5.1-4.8-5.1c-2.3-0.1-4.4,1.3-5.2,3.5l-2.6-0.5
	c1.2-3.3,4.4-5.5,7.9-5.3c4.7,0,7.4,2.8,7.4,7.2V160h-2.6v-3.2c-1.5,2.3-4.1,3.7-6.8,3.6C78.3,160.4,75.6,158.2,75.6,154.9z
	 M88.8,152.2v-1.8h-5.4c-3.3,0-4.9,1.7-4.9,4s1.8,3.8,4.3,3.8c3.2,0.1,5.9-2.4,6-5.6C88.8,152.4,88.8,152.3,88.8,152.2z"/>
<path d="M113.1,162.7c0,3.3-2.7,5.9-5.9,5.9h-0.1h-6.3c-3.3,0-6-2.6-6-5.8c0-2,0.9-3.8,2.6-5c-0.8-0.8-1.2-1.9-1.2-3
	c0-1.6,0.9-3.1,2.5-3.8c-1.4-1.2-2.3-3-2.3-4.9c0-3.8,3.1-6.7,7.1-6.7c0.9,0,1.8,0.2,2.7,0.5h6.1v2.4h-2.9c0.8,1.1,1.2,2.4,1.2,3.8
	c-0.1,3.7-3.1,6.7-6.8,6.6c-0.1,0-0.2,0-0.2,0h-2.7c-1.1,0-2,0.9-2,2s0.9,2,2,2h6.4c3.3,0,5.9,2.6,6,5.8
	C113.1,162.7,113.1,162.7,113.1,162.7z M110.5,162.7c0-2-1.6-3.7-3.6-3.7c-0.1,0-0.1,0-0.2,0h-5.5c-2-0.1-3.8,1.5-3.9,3.5
	s1.5,3.8,3.5,3.9c0.1,0,0.3,0,0.4,0h5.5c2,0.1,3.7-1.5,3.8-3.5C110.5,162.8,110.5,162.8,110.5,162.7z M98.9,146.2
	c0.1,2.5,2.3,4.5,4.8,4.4c2.4-0.1,4.2-2,4.4-4.4c-0.1-2.5-2.3-4.5-4.8-4.4C100.9,142,99,143.8,98.9,146.2z"/>
<path d="M116,140h2.6v3.2c1.1-2.3,3.5-3.7,6.1-3.6c4.1,0,6.8,2.9,6.8,7.4v13h-2.8v-12.4c0-3.5-1.9-5.6-4.7-5.6
	c-3.1,0-5.2,2.6-5.2,5.9V160H116V140z"/>
<path d="M135.2,154.9v-0.3c0-3.3,2.4-6.1,7.4-6.1h5.8v-1.6c0-3.2-1.8-5.1-4.8-5.1c-2.3-0.1-4.4,1.3-5.2,3.5l-2.6-0.5
	c1.2-3.3,4.4-5.5,7.9-5.3c4.7,0,7.4,2.8,7.4,7.2V160h-2.6v-3.2c-1.5,2.3-4.1,3.7-6.8,3.6C137.9,160.4,135.2,158.2,135.2,154.9z
	 M148.4,152.2v-1.8H143c-3.3,0-4.9,1.7-4.9,4s1.8,3.8,4.3,3.8c3.2,0.1,5.9-2.4,6-5.6C148.4,152.4,148.4,152.3,148.4,152.2z"/>
<path d="M164,154.9v-0.3c0-3.3,2.4-6.1,7.4-6.1h5.8v-1.6c0-3.2-1.8-5.1-4.8-5.1c-2.3-0.1-4.4,1.3-5.2,3.5l-2.6-0.5
	c1.2-3.3,4.4-5.5,7.9-5.3c4.7,0,7.4,2.8,7.4,7.2V160h-2.6v-3.2c-1.5,2.3-4.1,3.7-6.8,3.6C166.7,160.4,164,158.2,164,154.9z
	 M177.2,152.2v-1.8h-5.4c-3.3,0-4.9,1.7-4.9,4s1.8,3.8,4.3,3.8c3.2,0.1,5.9-2.4,6-5.7C177.2,152.4,177.2,152.3,177.2,152.2
	L177.2,152.2z"/>
<path d="M184.8,155.7V132h2.8v23.2c0,1.8,0.7,2.4,2,2.4h1v2.4h-1.7C186.4,160,184.8,158.7,184.8,155.7z"/>
<path d="M193.8,132h2.8v4.4h-2.8V132z M193.8,140h2.8v20h-2.8V140z"/>
<path d="M215.1,156.5c-1.1,2.5-3.6,4-6.3,3.9c-4.3,0-8.2-3.3-8.2-10v-0.8c0-6.7,3.9-10,8.3-10c2.8-0.1,5.4,1.6,6.5,4.2V140h2.6v28
	h-2.8L215.1,156.5z M215.2,150.1v-0.2c0-5.1-2.6-7.9-5.9-7.9s-6,2.8-6,7.9v0.2c0,5.2,2.6,7.9,6,7.9S215.2,155.3,215.2,150.1z"/>
<path d="M238.1,160h-2.6v-3.2c-1.1,2.3-3.5,3.7-6.1,3.6c-4.1,0-6.8-2.9-6.8-7.4v-13h2.8v12.4c0,3.5,1.9,5.6,4.7,5.6
	c3.1,0,5.2-2.5,5.2-5.9V140h2.8L238.1,160z"/>
<path d="M242.2,154.9v-0.3c0-3.3,2.4-6.1,7.4-6.1h5.8v-1.6c0-3.2-1.8-5.1-4.8-5.1c-2.3-0.1-4.4,1.3-5.2,3.5l-2.6-0.5
	c1.2-3.3,4.4-5.5,7.9-5.3c4.7,0,7.4,2.8,7.4,7.2V160h-2.6v-3.2c-1.5,2.3-4.1,3.7-6.8,3.6C244.9,160.4,242.2,158.2,242.2,154.9z
	 M255.3,152.2v-1.8h-5.4c-3.3,0-4.9,1.7-4.9,4s1.8,3.8,4.3,3.8c3.2,0.1,5.9-2.4,6-5.6C255.3,152.4,255.3,152.3,255.3,152.2z"/>
<path d="M262.9,140h2.6v3.2c1.1-2.2,3.3-3.6,5.8-3.6c2.5-0.1,4.8,1.5,5.5,3.9c1-2.4,3.4-4,6-3.9c3.9,0,6.6,2.9,6.6,7.4v13h-2.8
	v-12.5c0-3.4-1.7-5.5-4.3-5.5c-2.9,0-4.8,2.6-4.8,5.9V160h-2.8v-12.5c0-3.4-1.7-5.5-4.3-5.5c-2.9,0-4.8,2.6-4.8,5.9V160H263
	L262.9,140z"/>
<path d="M310.5,160.6c-5,0-9-3.7-9-10.4v-0.4c0-6.7,3.9-10.4,8.8-10.4s8.8,3.7,8.8,10.4v0.8h-15c0.1,4.7,2.6,7.7,6.4,7.7
	c2.3,0.1,4.5-1.3,5.4-3.5l2.7,0.5C317.3,158.6,314,160.7,310.5,160.6z M316.3,148.7c-0.3-4.6-2.9-7-6-7s-5.8,2.4-6,7H316.3z"/>
<path d="M323.1,140h2.6v4.8c1.2-3.1,4.3-5.1,7.6-5v2.8c-4.5,0-7.4,3.4-7.4,8.2v9.2h-2.8L323.1,140z"/>
<path d="M335.4,154.9v-0.3c0-3.3,2.4-6.1,7.4-6.1h5.8v-1.6c0-3.2-1.8-5.1-4.8-5.1c-2.3-0.1-4.4,1.3-5.2,3.5l-2.6-0.5
	c1.2-3.3,4.4-5.5,7.9-5.3c4.7,0,7.4,2.8,7.4,7.2V160h-2.6v-3.2c-1.5,2.3-4.1,3.7-6.8,3.6C338.1,160.4,335.4,158.2,335.4,154.9z
	 M348.6,152.2v-1.8h-5.4c-3.3,0-4.9,1.7-4.9,4s1.8,3.8,4.3,3.8c3.2,0.1,5.9-2.4,6-5.6C348.6,152.4,348.6,152.3,348.6,152.2
	L348.6,152.2z"/>
<path d="M357.4,155.1v-12.7H354V140h3.5v-6h2.6v6h5.7v2.4h-5.6v12.2c0,2.1,1,3,2.7,3h2.9v2.4h-3.6
	C359.3,160,357.4,158.5,357.4,155.1z"/>
<path d="M376.2,140h3.1l4.7,13c0.5,1.3,1,2.6,1.3,4c0.4-1.4,0.8-2.7,1.3-4l4.7-13h2.9l-7.6,20h-2.8L376.2,140z"/>
<path d="M395.6,150.2v-0.4c0-6.7,3.9-10.4,8.8-10.4s8.8,3.7,8.8,10.4v0.4c0,6.7-3.9,10.4-8.8,10.4S395.6,156.9,395.6,150.2z
	 M410.5,150.1v-0.2c0-5.3-2.7-8.1-6-8.1s-6,2.8-6,8.1v0.2c0,5.3,2.7,8.1,6,8.1S410.5,155.4,410.5,150.1L410.5,150.1z"/>
<path d="M417.2,155.7V132h2.8v23.2c0,1.8,0.7,2.4,2,2.4h1v2.4h-1.7C418.9,160,417.2,158.7,417.2,155.7z"/>
<path d="M441,160h-2.6v-3.2c-1.1,2.3-3.5,3.7-6.1,3.6c-4.1,0-6.8-2.9-6.8-7.4v-13h2.8v12.4c0,3.5,1.9,5.6,4.7,5.6
	c3.1,0,5.2-2.5,5.2-5.9V140h2.8V160z"/>
<path d="M447.5,155.1v-12.7h-3.4V140h3.5v-6h2.6v6h5.7v2.4h-5.6v12.2c0,2.1,1,3,2.7,3h2.9v2.4h-3.6
	C449.5,160,447.5,158.5,447.5,155.1z"/>
<path d="M459.1,140h2.6v3.7c1.1-2.5,3.7-4.2,6.5-4.1c4.4,0,8.3,3.3,8.3,10v0.8c0,6.7-3.9,10-8.2,10c-2.7,0.1-5.2-1.5-6.3-3.9V168
	h-2.8L459.1,140z M473.6,150.1v-0.2c0-5.1-2.6-7.9-6-7.9s-5.9,2.8-5.9,7.9v0.2c0,5.2,2.6,7.9,5.9,7.9S473.6,155.3,473.6,150.1z"/>
<path d="M479.3,154.9v-0.3c0-3.3,2.4-6.1,7.4-6.1h5.8v-1.6c0-3.2-1.8-5.1-4.8-5.1c-2.3-0.1-4.4,1.3-5.2,3.5l-2.6-0.5
	c1.2-3.3,4.4-5.5,7.9-5.3c4.7,0,7.4,2.8,7.4,7.2V160h-2.6v-3.2c-1.5,2.3-4.1,3.7-6.8,3.6C482,160.4,479.3,158.2,479.3,154.9z
	 M492.5,152.2v-1.8h-5.4c-3.3,0-4.9,1.7-4.9,4s1.8,3.8,4.3,3.8c3.2,0.1,5.9-2.4,6-5.6C492.5,152.4,492.5,152.3,492.5,152.2z"/>
<path d="M501.2,155.1v-12.7h-3.4V140h3.5v-6h2.6v6h5.7v2.4H504v12.2c0,2.1,1,3,2.7,3h2.9v2.4H506C503.2,160,501.2,158.5,501.2,155.1
	z"/>
<path d="M513.1,155.2h2.8v4.8h-2.8V155.2z"/>
<path d="M530.3,151.1V132h3v18.8c0,5.1,2.8,7,6.5,7c3.4,0,6.5-2,6.5-7V132h3v19.1c0,6.4-4.4,9.5-9.5,9.5
	C534.4,160.6,530.3,157.5,530.3,151.1z"/>
<path d="M556,155.1v-12.7h-3.4V140h3.5v-6h2.6v6h5.7v2.4h-5.6v12.2c0,2.1,1,3,2.7,3h2.9v2.4h-3.6C558,160,556,158.5,556,155.1z"/>
<path d="M574.8,140h3.1l3.7,12.2c0.4,1.2,0.7,2.3,1.1,4.1c0.5-1.8,0.8-2.9,1.2-4.1l3.9-12.2h2.6l3.9,12.2c0.4,1.2,0.7,2.4,1.2,4.1
	c0.4-1.7,0.8-2.9,1.2-4.1l3.8-12.2h2.9l-6.6,20h-2.6l-4.1-13c-0.3-1-0.7-2.2-1-3.6c-0.3,1.4-0.7,2.6-1,3.6l-4.1,13h-2.6L574.8,140z"
	/>
<path d="M606.9,132h2.8v4.4h-2.8V132z M606.9,140h2.8v20h-2.8V140z"/>
<path d="M613.1,155.3l2.4-1c0.9,2.4,3.2,4,5.8,3.9c2.7,0,4.7-1.3,4.7-3.6s-1.8-3-4.2-3.5l-2.6-0.5c-3.2-0.6-5.7-2.1-5.7-5.2
	c0-3.3,2.6-5.9,7.1-5.9c3.2-0.1,6.2,1.6,7.8,4.4l-2.4,1c-1-2-3.1-3.3-5.3-3.2c-2.6,0-4.5,1.4-4.5,3.5c0,1.9,1.6,2.8,3.6,3.1l2.5,0.5
	c3.8,0.7,6.3,2.2,6.3,5.5c0,3.5-2.8,6-7.4,6C617.8,160.6,614.5,158.5,613.1,155.3z"/>
<path d="M632.3,132h2.8v4.4h-2.8V132z M632.3,140h2.8v20h-2.8V140z"/>
<path d="M10.6,204.6c-5,0-9-3.7-9-10.4v-0.4c0-6.7,3.9-10.4,8.8-10.4s8.8,3.7,8.8,10.4v0.8h-15c0.1,4.7,2.6,7.7,6.4,7.7
	c2.3,0.1,4.5-1.3,5.4-3.5l2.7,0.5C17.4,202.6,14.2,204.7,10.6,204.6z M16.4,192.7c-0.3-4.6-2.9-7-6-7s-5.8,2.4-6,7H16.4z"/>
<path d="M23,184h2.6v3.2c1.1-2.3,3.5-3.7,6.1-3.6c4.1,0,6.8,2.9,6.8,7.4v13h-2.8v-12.4c0-3.5-1.9-5.6-4.7-5.6
	c-3.1,0-5.2,2.6-5.2,5.9V204H23V184z"/>
<path d="M43.3,176h2.8v4.4h-2.8V176z M43.3,184h2.8v20h-2.8V184z"/>
<path d="M51.1,184h2.6v3.2c1.1-2.2,3.3-3.6,5.8-3.6c2.5-0.1,4.8,1.5,5.5,3.9c1-2.4,3.4-4,6-3.9c3.9,0,6.6,2.9,6.6,7.4v13h-2.8v-12.5
	c0-3.4-1.7-5.5-4.3-5.5c-2.9,0-4.8,2.6-4.8,5.9V204h-2.8v-12.5c0-3.4-1.7-5.5-4.3-5.5c-2.9,0-4.8,2.6-4.8,5.9V204H51L51.1,184z"/>
<path d="M90.1,198.9v-0.3c0-3.3,2.4-6.1,7.4-6.1h5.8v-1.6c0-3.2-1.8-5.1-4.8-5.1c-2.3-0.1-4.4,1.3-5.2,3.5l-2.6-0.5
	c1.2-3.3,4.4-5.5,7.9-5.3c4.7,0,7.4,2.8,7.4,7.2V204h-2.6v-3.2c-1.5,2.3-4.1,3.7-6.8,3.6C92.8,204.4,90.1,202.2,90.1,198.9z
	 M103.2,196.2v-1.8h-5.4c-3.3,0-4.9,1.7-4.9,4s1.8,3.8,4.3,3.8c3.2,0.1,5.9-2.4,6-5.6C103.2,196.4,103.2,196.3,103.2,196.2z"/>
<path d="M109.8,194.4v-0.8c0-6.7,3.9-10,8.2-10c2.7-0.1,5.2,1.5,6.3,3.9V176h2.8v28h-2.6v-3.7c-1.1,2.5-3.7,4.2-6.5,4.1
	C113.7,204.4,109.8,201.1,109.8,194.4z M124.5,194.1v-0.2c0-5.2-2.6-7.9-5.9-7.9s-6,2.7-6,7.9v0.2c0,5.1,2.6,7.9,6,7.9
	S124.5,199.2,124.5,194.1L124.5,194.1z"/>
<path d="M140.9,184h2.6v3.2c1.1-2.2,3.3-3.6,5.8-3.6c2.5-0.1,4.8,1.5,5.5,3.9c1-2.4,3.4-4,6-3.9c3.9,0,6.6,2.9,6.6,7.4v13h-2.8
	v-12.5c0-3.4-1.7-5.5-4.3-5.5c-2.9,0-4.8,2.6-4.8,5.9V204h-2.8v-12.5c0-3.4-1.7-5.5-4.3-5.5c-2.9,0-4.8,2.6-4.8,5.9V204h-2.8
	L140.9,184z"/>
<path d="M172.2,176h2.8v4.4h-2.8V176z M172.2,184h2.8v20h-2.8V184z"/>
<path d="M180,184h2.6v3.2c1.1-2.3,3.5-3.7,6.1-3.6c4.1,0,6.8,2.9,6.8,7.4v13h-2.8v-12.4c0-3.5-1.9-5.6-4.7-5.6
	c-3.1,0-5.2,2.6-5.2,5.9V204H180V184z"/>
<path d="M200.2,176h2.8v4.4h-2.8V176z M200.2,184h2.8v20h-2.8V184z"/>
<path d="M208,184h2.6v3.2c1.1-2.2,3.3-3.6,5.8-3.6c2.5-0.1,4.8,1.5,5.5,3.9c1-2.4,3.4-4,6-3.9c3.9,0,6.6,2.9,6.6,7.4v13h-2.8v-12.5
	c0-3.4-1.7-5.5-4.3-5.5c-2.9,0-4.8,2.6-4.8,5.9V204h-2.8v-12.5c0-3.4-1.7-5.5-4.3-5.5c-2.9,0-4.8,2.6-4.8,5.9V204H208V184z"/>
<path d="M246.3,184h3.1l4.7,13c0.5,1.3,1,2.6,1.3,4c0.4-1.4,0.8-2.7,1.3-4l4.7-13h2.9l-7.6,20h-2.8L246.3,184z"/>
<path d="M274.8,204.6c-5,0-9-3.7-9-10.4v-0.4c0-6.7,3.9-10.4,8.8-10.4s8.8,3.7,8.8,10.4v0.8h-15c0.1,4.7,2.6,7.7,6.4,7.7
	c2.3,0.1,4.5-1.3,5.4-3.5l2.7,0.5C281.6,202.6,278.4,204.7,274.8,204.6z M280.6,192.7c-0.3-4.6-2.9-7-6-7s-5.8,2.4-6,7H280.6z"/>
<path d="M287.2,184h2.6v3.2c1.1-2.3,3.5-3.7,6.1-3.6c4.1,0,6.8,2.9,6.8,7.4v13h-2.8v-12.4c0-3.5-1.9-5.6-4.7-5.6
	c-3.1,0-5.2,2.6-5.2,5.9V204h-2.8V184z"/>
<path d="M307.5,176h2.8v4.4h-2.8V176z M307.5,184h2.8v20h-2.8V184z"/>
<path d="M314.4,198.9v-0.3c0-3.3,2.4-6.1,7.4-6.1h5.8v-1.6c0-3.2-1.8-5.1-4.8-5.1c-2.3-0.1-4.4,1.3-5.2,3.5l-2.6-0.5
	c1.2-3.3,4.4-5.5,7.9-5.3c4.7,0,7.4,2.8,7.4,7.2V204h-2.6v-3.2c-1.5,2.3-4.1,3.7-6.8,3.6C317.1,204.4,314.4,202.2,314.4,198.9z
	 M327.6,196.2v-1.8h-5.4c-3.3,0-4.9,1.7-4.9,4s1.8,3.8,4.3,3.8c3.2,0.1,5.9-2.4,6-5.7C327.5,196.4,327.5,196.3,327.6,196.2
	L327.6,196.2z"/>
<path d="M335.1,184h2.6v3.2c1.1-2.2,3.3-3.6,5.8-3.6c2.5-0.1,4.8,1.5,5.5,3.9c1-2.4,3.4-4,6-3.9c3.9,0,6.6,2.9,6.6,7.4v13h-2.8
	v-12.5c0-3.4-1.7-5.5-4.3-5.5c-2.9,0-4.8,2.6-4.8,5.9V204H347v-12.5c0-3.4-1.7-5.5-4.3-5.5c-2.9,0-4.8,2.6-4.8,5.9V204h-2.8
	L335.1,184z"/>
<path d="M369.2,199.2v6.7c0,2-1.2,3.1-3.4,3.1v-1.6c1.1,0,1.6-0.4,1.6-1.6v-2.2h-0.9v-4.4H369.2z"/>
<path d="M396.4,200.5c-1.1,2.5-3.6,4-6.3,3.9c-4.3,0-8.2-3.3-8.2-10v-0.8c0-6.7,3.9-10,8.3-10c2.8-0.1,5.4,1.6,6.5,4.2V184h2.6v28
	h-2.8L396.4,200.5z M396.5,194.1v-0.2c0-5.1-2.6-7.9-5.9-7.9s-6,2.8-6,7.9v0.2c0,5.2,2.6,7.9,6,7.9S396.5,199.3,396.5,194.1z"/>
<path d="M419.4,204h-2.6v-3.2c-1.1,2.3-3.5,3.7-6.1,3.6c-4.1,0-6.8-2.9-6.8-7.4v-13h2.8v12.4c0,3.5,1.9,5.6,4.7,5.6
	c3.1,0,5.2-2.5,5.2-5.9V184h2.8V204z"/>
<path d="M424.4,176h2.8v4.4h-2.8V176z M424.4,184h2.8v20h-2.8V184z"/>
<path d="M430.6,199.3l2.4-1c0.9,2.4,3.2,4,5.8,3.9c2.7,0,4.7-1.3,4.7-3.6s-1.8-3-4.2-3.5l-2.6-0.5c-3.2-0.6-5.7-2.1-5.7-5.2
	c0-3.3,2.6-5.9,7.1-5.9c3.2-0.1,6.3,1.6,7.8,4.4l-2.4,1c-1-2-3.1-3.3-5.3-3.2c-2.6,0-4.5,1.4-4.5,3.5c0,1.9,1.6,2.8,3.6,3.1l2.5,0.5
	c3.8,0.7,6.3,2.2,6.3,5.5c0,3.5-2.8,6-7.4,6C435.3,204.6,432,202.5,430.6,199.3z"/>
<path d="M458.2,184h2.6v3.2c1.1-2.3,3.5-3.7,6.1-3.6c4.1,0,6.8,2.9,6.8,7.4v13h-2.8v-12.4c0-3.5-1.9-5.6-4.7-5.6
	c-3.1,0-5.2,2.6-5.2,5.9V204h-2.8V184z"/>
<path d="M477.3,194.2v-0.4c0-6.7,3.9-10.4,8.8-10.4s8.8,3.7,8.8,10.4v0.4c0,6.7-3.9,10.4-8.8,10.4S477.3,200.9,477.3,194.2z
	 M492.1,194.1v-0.2c0-5.3-2.7-8.1-6-8.1s-6,2.8-6,8.1v0.2c0,5.3,2.7,8.1,6,8.1S492.1,199.4,492.1,194.1L492.1,194.1z"/>
<path d="M497.1,199.3l2.4-1c0.9,2.4,3.2,4,5.8,3.9c2.7,0,4.7-1.3,4.7-3.6s-1.8-3-4.2-3.5l-2.6-0.5c-3.2-0.6-5.7-2.1-5.7-5.2
	c0-3.3,2.6-5.9,7.1-5.9c3.2-0.1,6.2,1.6,7.8,4.4l-2.4,1c-1-2-3.1-3.3-5.3-3.2c-2.6,0-4.5,1.4-4.5,3.5c0,1.9,1.6,2.8,3.6,3.1l2.5,0.5
	c3.8,0.7,6.3,2.2,6.3,5.5c0,3.5-2.8,6-7.4,6C501.8,204.6,498.5,202.5,497.1,199.3z"/>
<path d="M517.9,199.1v-12.7h-3.4V184h3.5v-6h2.6v6h5.7v2.4h-5.6v12.2c0,2.1,1,3,2.7,3h2.9v2.4h-3.6
	C519.9,204,517.9,202.5,517.9,199.1z"/>
<path d="M529.7,184h2.6v4.8c1.2-3.1,4.3-5.1,7.6-5v2.8c-4.5,0-7.4,3.4-7.4,8.2v9.2h-2.8L529.7,184L529.7,184z"/>
<path d="M558.4,204h-2.6v-3.2c-1.1,2.3-3.5,3.7-6.1,3.6c-4.1,0-6.8-2.9-6.8-7.4v-13h2.8v12.4c0,3.5,1.9,5.6,4.7,5.6
	c3.1,0,5.2-2.5,5.2-5.9V184h2.8L558.4,204L558.4,204z"/>
<path d="M562.3,194.4v-0.8c0-6.7,3.9-10,8.2-10c2.7-0.1,5.2,1.5,6.3,3.9V176h2.8v28H577v-3.7c-1.1,2.5-3.7,4.2-6.5,4.1
	C566.2,204.4,562.3,201.1,562.3,194.4z M577,194.1v-0.2c0-5.2-2.6-7.9-5.9-7.9s-6,2.7-6,7.9v0.2c0,5.1,2.6,7.9,6,7.9
	S577,199.2,577,194.1L577,194.1z"/>
<path d="M592.6,204.6c-5,0-9-3.7-9-10.4v-0.4c0-6.7,3.9-10.4,8.8-10.4s8.8,3.7,8.8,10.4v0.8h-15c0.1,4.7,2.6,7.7,6.4,7.7
	c2.3,0.1,4.5-1.3,5.4-3.5l2.7,0.5C599.4,202.6,596.2,204.7,592.6,204.6z M598.5,192.7c-0.3-4.6-2.9-7-6-7s-5.8,2.4-6,7H598.5z"/>
<path d="M605.2,184h2.6v4.8c1.2-3.1,4.3-5.1,7.6-5v2.8c-4.5,0-7.4,3.4-7.4,8.2v9.2h-2.8L605.2,184L605.2,184z"/>
<path d="M10.6,248.6c-5,0-9-3.7-9-10.4v-0.4c0-6.7,3.9-10.4,8.8-10.4s8.8,3.7,8.8,10.4v0.8h-15c0.1,4.7,2.6,7.7,6.4,7.7
	c2.3,0.1,4.5-1.3,5.4-3.5l2.7,0.5C17.4,246.6,14.2,248.7,10.6,248.6z M16.4,236.7c-0.3-4.6-2.9-7-6-7s-5.8,2.4-6,7H16.4z"/>
<path d="M34.8,248l-3-4.4c-0.9-1.3-1.7-2.6-2.6-4.1c-0.9,1.5-1.7,2.8-2.6,4.1l-3,4.4h-3.1l7.2-10.3L21,228h3.3l3,4.4
	c0.7,1.1,1.3,2.1,2,3.3c0.7-1.2,1.3-2.2,2-3.3l3-4.4h3.1l-6.6,9.5l7.3,10.5H34.8z"/>
<path d="M48.4,248.6c-5,0-9-3.7-9-10.4v-0.4c0-6.7,3.9-10.4,8.8-10.4s8.8,3.7,8.8,10.4v0.8H42c0.1,4.7,2.6,7.7,6.4,7.7
	c2.3,0.1,4.5-1.3,5.4-3.5l2.7,0.5C55.3,246.6,52,248.7,48.4,248.6z M54.3,236.7c-0.3-4.6-2.9-7-6-7s-5.8,2.4-6,7H54.3z"/>
<path d="M61,228h2.6v4.8c1.2-3.1,4.3-5.1,7.6-5v2.8c-4.5,0-7.4,3.4-7.4,8.2v9.2H61L61,228z"/>
<path d="M73,238.2v-0.4c0-6.6,3.9-10.2,8.6-10.2c3.6,0,6.8,2.4,7.8,5.9l-2.6,0.5c-0.7-2.3-2.8-3.9-5.2-4c-3.2,0-5.8,2.7-5.8,7.9v0.2
	c0,5.2,2.7,7.9,5.8,7.9c2.4-0.1,4.5-1.7,5.2-4l2.6,0.5c-1,3.5-4.2,6-7.8,5.9C76.9,248.4,73,244.8,73,238.2z"/>
<path d="M92.8,220h2.8v4.4h-2.8V220z M92.8,228h2.8v20h-2.8V228z"/>
<path d="M111,243.1v-12.7h-3.4V228h3.5v-6h2.6v6h5.7v2.4h-5.6v12.2c0,2.1,1,3,2.7,3h2.9v2.4h-3.6C112.9,248,111,246.5,111,243.1z"/>
<path d="M122,242.9v-0.3c0-3.3,2.4-6.1,7.4-6.1h5.8v-1.6c0-3.2-1.8-5.1-4.8-5.1c-2.3-0.1-4.4,1.3-5.2,3.5l-2.6-0.5
	c1.2-3.3,4.4-5.5,7.9-5.3c4.7,0,7.4,2.8,7.4,7.2V248h-2.6v-3.2c-1.5,2.3-4.1,3.7-6.8,3.6C124.7,248.4,122,246.2,122,242.9z
	 M135.2,240.2v-1.8h-5.4c-3.3,0-4.9,1.7-4.9,4s1.8,3.8,4.3,3.8c3.2,0.1,5.9-2.5,6-5.7C135.1,240.4,135.1,240.3,135.2,240.2
	L135.2,240.2z"/>
<path d="M143.9,243.1v-12.7h-3.4V228h3.5v-6h2.6v6h5.7v2.4h-5.6v12.2c0,2.1,1,3,2.7,3h2.9v2.4h-3.6
	C145.8,248,143.9,246.5,143.9,243.1z"/>
<path d="M155.5,220h2.8v4.4h-2.8V220z M155.5,228h2.8v20h-2.8V228z"/>
<path d="M162.3,238.2v-0.4c0-6.7,3.9-10.4,8.8-10.4s8.8,3.7,8.8,10.4v0.4c0,6.7-3.9,10.4-8.8,10.4S162.3,244.9,162.3,238.2z
	 M177.1,238.1v-0.2c0-5.3-2.7-8.1-6-8.1s-6,2.8-6,8.1v0.2c0,5.3,2.7,8.1,6,8.1S177.1,243.4,177.1,238.1L177.1,238.1z"/>
<path d="M183.9,228h2.6v3.2c1.1-2.3,3.5-3.7,6.1-3.6c4.1,0,6.8,2.9,6.8,7.4v13h-2.8v-12.4c0-3.5-1.9-5.6-4.7-5.6
	c-3.1,0-5.2,2.6-5.2,5.9V248h-2.8L183.9,228z"/>
<path d="M227.7,248h-2.6v-3.2c-1.1,2.3-3.5,3.7-6.1,3.6c-4.1,0-6.8-2.9-6.8-7.4v-13h2.8v12.4c0,3.5,1.9,5.6,4.7,5.6
	c3.1,0,5.2-2.5,5.2-5.9V228h2.8L227.7,248z"/>
<path d="M232.7,243.7V220h2.8v23.2c0,1.8,0.7,2.4,2,2.4h1v2.4h-1.7C234.4,248,232.7,246.7,232.7,243.7z"/>
<path d="M241.6,243.7V220h2.8v23.2c0,1.8,0.7,2.4,2,2.4h1v2.4h-1.7C243.3,248,241.6,246.7,241.6,243.7z"/>
<path d="M250,242.9v-0.3c0-3.3,2.4-6.1,7.4-6.1h5.8v-1.6c0-3.2-1.8-5.1-4.8-5.1c-2.3-0.1-4.4,1.3-5.2,3.5l-2.6-0.5
	c1.2-3.3,4.4-5.5,7.9-5.3c4.7,0,7.4,2.8,7.4,7.2V248h-2.6v-3.2c-1.5,2.3-4.1,3.7-6.8,3.6C252.8,248.4,250,246.2,250,242.9z
	 M263.2,240.2v-1.8h-5.4c-3.3,0-4.9,1.7-4.9,4s1.8,3.8,4.3,3.8c3.2,0.1,5.9-2.4,6.1-5.6C263.2,240.4,263.2,240.3,263.2,240.2
	L263.2,240.2z"/>
<path d="M270.8,228h2.6v3.2c1.1-2.2,3.3-3.6,5.8-3.6c2.5-0.1,4.8,1.5,5.5,3.9c1-2.4,3.4-4,6-3.9c3.9,0,6.6,2.9,6.6,7.4v13h-2.8
	v-12.5c0-3.4-1.7-5.5-4.3-5.5c-2.9,0-4.8,2.6-4.8,5.9V248h-2.8v-12.5c0-3.4-1.7-5.5-4.3-5.5c-2.9,0-4.8,2.6-4.8,5.9V248h-2.8
	L270.8,228z"/>
<path d="M300.9,238.2v-0.4c0-6.6,3.9-10.2,8.6-10.2c3.6,0,6.8,2.4,7.8,5.9l-2.6,0.5c-0.7-2.3-2.8-3.9-5.2-4c-3.2,0-5.8,2.7-5.8,7.9
	v0.2c0,5.2,2.7,7.9,5.8,7.9c2.4-0.1,4.5-1.7,5.2-4l2.6,0.5c-1,3.5-4.2,6-7.8,5.9C304.9,248.4,300.9,244.8,300.9,238.2z"/>
<path d="M319.6,238.2v-0.4c0-6.7,3.9-10.4,8.8-10.4s8.8,3.7,8.8,10.4v0.4c0,6.7-3.9,10.4-8.8,10.4S319.6,244.9,319.6,238.2z
	 M334.4,238.1v-0.2c0-5.3-2.7-8.1-6-8.1s-6,2.8-6,8.1v0.2c0,5.3,2.7,8.1,6,8.1S334.4,243.4,334.4,238.1L334.4,238.1z"/>
<path d="M341.3,228h2.6v4.8c1.2-3.1,4.3-5.1,7.6-5v2.8c-4.5,0-7.4,3.4-7.4,8.2v9.2h-2.8L341.3,228z"/>
<path d="M354.8,228h2.6v3.7c1.1-2.5,3.7-4.2,6.5-4.1c4.4,0,8.3,3.3,8.3,10v0.8c0,6.7-3.9,10-8.2,10c-2.7,0.1-5.2-1.5-6.3-3.9V256
	h-2.8L354.8,228z M369.4,238.1v-0.2c0-5.1-2.6-7.9-6-7.9s-5.9,2.8-5.9,7.9v0.2c0,5.2,2.6,7.9,5.9,7.9S369.4,243.3,369.4,238.1z"/>
<path d="M384.1,248.6c-5,0-9-3.7-9-10.4v-0.4c0-6.7,3.9-10.4,8.8-10.4s8.8,3.7,8.8,10.4v0.8h-15c0.1,4.7,2.6,7.7,6.4,7.7
	c2.3,0.1,4.5-1.3,5.4-3.5l2.7,0.5C390.9,246.6,387.6,248.7,384.1,248.6z M389.9,236.7c-0.3-4.6-2.9-7-6-7s-5.8,2.4-6,7H389.9z"/>
<path d="M396.7,228h2.6v4.8c1.2-3.1,4.3-5.1,7.6-5v2.8c-4.5,0-7.4,3.4-7.4,8.2v9.2h-2.8L396.7,228z"/>
<path d="M417.3,243.3l2.4-1c0.9,2.4,3.2,4,5.8,3.9c2.7,0,4.7-1.3,4.7-3.6s-1.8-3-4.2-3.5l-2.6-0.5c-3.2-0.6-5.7-2.1-5.7-5.2
	c0-3.3,2.6-5.9,7.1-5.9c3.2-0.1,6.2,1.6,7.8,4.4l-2.4,1c-1-2-3.1-3.3-5.3-3.2c-2.6,0-4.5,1.4-4.5,3.5c0,1.9,1.6,2.8,3.6,3.1l2.5,0.5
	c3.8,0.7,6.3,2.2,6.3,5.5c0,3.5-2.8,6-7.4,6C422,248.6,418.7,246.5,417.3,243.3z"/>
<path d="M451.5,248h-2.6v-3.2c-1.1,2.3-3.5,3.7-6.1,3.6c-4.1,0-6.8-2.9-6.8-7.4v-13h2.8v12.4c0,3.5,1.9,5.6,4.7,5.6
	c3.1,0,5.2-2.5,5.2-5.9V228h2.8V248z"/>
<path d="M454.9,243.3l2.4-1c0.9,2.4,3.2,4,5.8,3.9c2.7,0,4.7-1.3,4.7-3.6s-1.8-3-4.2-3.5l-2.6-0.5c-3.2-0.6-5.7-2.1-5.7-5.2
	c0-3.3,2.6-5.9,7.1-5.9c3.2-0.1,6.2,1.6,7.8,4.4l-2.4,1c-1-2-3.1-3.3-5.3-3.2c-2.6,0-4.5,1.4-4.5,3.5c0,1.9,1.6,2.8,3.6,3.1l2.5,0.5
	c3.8,0.7,6.3,2.2,6.3,5.5c0,3.5-2.8,6-7.4,6C459.6,248.6,456.3,246.5,454.9,243.3z"/>
<path d="M473,238.2v-0.4c0-6.6,3.9-10.2,8.6-10.2c3.6,0,6.8,2.4,7.8,5.9l-2.6,0.5c-0.7-2.3-2.8-3.9-5.2-4c-3.2,0-5.8,2.7-5.8,7.9
	v0.2c0,5.2,2.7,7.9,5.8,7.9c2.4-0.1,4.5-1.7,5.2-4l2.6,0.5c-1,3.5-4.2,6-7.8,5.9C476.9,248.4,473,244.8,473,238.2z"/>
<path d="M492.8,220h2.8v4.4h-2.8V220z M492.8,228h2.8v20h-2.8V228z"/>
<path d="M500.5,228h2.6v3.7c1.1-2.5,3.7-4.2,6.5-4.1c4.4,0,8.3,3.3,8.3,10v0.8c0,6.7-3.9,10-8.2,10c-2.7,0.1-5.2-1.5-6.3-3.9V256
	h-2.8L500.5,228z M515.1,238.1v-0.2c0-5.1-2.6-7.9-6-7.9s-5.9,2.8-5.9,7.9v0.2c0,5.2,2.6,7.9,5.9,7.9S515.1,243.3,515.1,238.1z"/>
<path d="M521.9,220h2.8v4.4h-2.8V220z M521.9,228h2.8v20h-2.8V228z"/>
<path d="M531.3,243.1v-12.7h-3.4V228h3.5v-6h2.6v6h5.7v2.4h-5.6v12.2c0,2.1,1,3,2.7,3h2.9v2.4h-3.6
	C533.2,248,531.3,246.5,531.3,243.1z"/>
<path d="M543.1,243.2h2.8v4.8h-2.8V243.2z"/>
<line class="st1" x1="0.5" y1="0" x2="0.5" y2="360"/>
<rect x="723.7" y="77" transform="matrix(-4.490116e-11 1 -1 -4.490116e-11 949.7166 -646.7166)" class="st2" width="149" height="149"/>
<rect x="723.7" y="252.2" transform="matrix(-4.490116e-11 1 -1 -4.490116e-11 1124.8829 -471.5503)" class="st3" width="149" height="149"/>
<rect x="723.7" y="427.3" transform="matrix(-4.490116e-11 1 -1 -4.490116e-11 1300.0492 -296.384)" class="st4" width="149" height="149"/>
<rect x="723.7" y="602.5" transform="matrix(-4.490116e-11 1 -1 -4.490116e-11 1475.2155 -121.2177)" class="st5" width="149" height="149"/>
<rect x="723.7" y="777.7" transform="matrix(-4.490116e-11 1 -1 -4.490116e-11 1650.3818 53.9486)" class="st6" width="149" height="149"/>
<rect x="872.7" y="77" transform="matrix(-4.490116e-11 1 -1 -4.490116e-11 1098.7166 -795.7166)" class="st7" width="149" height="149"/>
<rect x="872.7" y="252.2" transform="matrix(-4.490116e-11 1 -1 -4.490116e-11 1273.8829 -620.5503)" class="st8" width="149" height="149"/>
<rect x="872.7" y="427.3" transform="matrix(-4.490116e-11 1 -1 -4.490116e-11 1449.0492 -445.384)" class="st9" width="149" height="149"/>
<rect x="872.7" y="602.5" transform="matrix(-4.490116e-11 1 -1 -4.490116e-11 1624.2155 -270.2177)" class="st10" width="149" height="149"/>
<rect x="872.7" y="777.7" transform="matrix(-4.490116e-11 1 -1 -4.490116e-11 1799.3818 -95.0514)" class="st11" width="149" height="149"/>
<rect x="1021.7" y="77" transform="matrix(-4.490116e-11 1 -1 -4.490116e-11 1247.7166 -944.7166)" class="st12" width="149" height="149"/>
<rect x="1021.7" y="252.2" transform="matrix(-4.490116e-11 1 -1 -4.490116e-11 1422.8829 -769.5503)" class="st13" width="149" height="149"/>
<rect x="1021.7" y="427.3" transform="matrix(-4.490116e-11 1 -1 -4.490116e-11 1598.0492 -594.384)" class="st14" width="149" height="149"/>
<rect x="1021.7" y="602.5" transform="matrix(-4.490116e-11 1 -1 -4.490116e-11 1773.2155 -419.2177)" class="st15" width="149" height="149"/>
<rect x="1021.7" y="777.7" transform="matrix(-4.490116e-11 1 -1 -4.490116e-11 1948.3818 -244.0514)" class="st16" width="149" height="149"/>
</svg>
