<svg xml:space="preserve" style="enable-background:new 0 0 566.9 566.9;" viewBox="0 0 566.9 566.9" y="0px" x="0px" id="Layer_1" version="1.0" xmlns:xlink="http://www.w3.org/1999/xlink" xmlns="http://www.w3.org/2000/svg">
<style type="text/css">
	.st0{fill:#EFF0F0;}
	.st1{fill:#FFFFFF;}
	.st2{opacity:0.5;fill:#003824;}
	.st3{opacity:0.1;fill:#003824;}
</style>
<rect height="566.9" width="566.9" class="st0"></rect>
<rect height="363.6" width="394.1" class="st1" y="101.7" x="93.6"></rect>
<rect height="61.3" width="394.2" class="st2" y="101.7" x="93.5"></rect>
<rect height="61.3" width="394.2" class="st3" y="220.1" x="93.5"></rect>
<rect height="61.3" width="394.2" class="st3" y="342.7" x="93.5"></rect>
<g>
	<path d="M113.5,122.8h2.6V142h-2.6V122.8z" class="st1"></path>
	<path d="M119.6,128.3h2.2v2c0.9-1.5,2.4-2.2,4-2.2c2.8,0,4.7,2,4.7,5v8.9h-2.4v-8.3c0-2.2-1.1-3.5-2.9-3.5   c-1.9,0-3.2,1.6-3.2,3.8v8.1h-2.4V128.3z" class="st1"></path>
	<path d="M133.4,128.3h2.2v2.1c0.8-1.4,2.2-2.4,4.3-2.4c3.1,0,5.8,2.2,5.8,6.8v0.7c0,4.5-2.7,6.8-5.7,6.8   c-2,0-3.4-1-4.1-2.3v7.5h-2.4V128.3z M139.4,140.2c2.1,0,3.7-1.7,3.7-5v-0.1c0-3.2-1.6-5-3.7-5c-2.1,0-3.7,1.7-3.7,5v0.1   C135.7,138.5,137.3,140.2,139.4,140.2z" class="st1"></path>
	<path d="M158.6,142h-2.3v-2c-0.8,1.5-2.4,2.2-4,2.2c-2.8,0-4.7-2-4.7-5v-8.9h2.4v8.3c0,2.2,1.1,3.5,2.9,3.5   c1.9,0,3.2-1.6,3.2-3.7v-8.1h2.4V142z" class="st1"></path>
	<path d="M162.6,138.4v-8h-2.2v-2.1h2.3v-4.1h2.3v4.1h3.8v2.1H165v7.6c0,1.4,0.7,1.9,1.8,1.9h1.9v2.1h-2.6   C164,142,162.6,140.9,162.6,138.4z" class="st1"></path>
	<path d="M176.3,128.3h2.2v2c0.9-1.5,2.4-2.2,4-2.2c2.8,0,4.7,2,4.7,5v8.9h-2.4v-8.3c0-2.2-1.1-3.5-2.9-3.5   c-1.9,0-3.2,1.6-3.2,3.8v8.1h-2.4V128.3z" class="st1"></path>
	<path d="M189.4,138.4v-0.2c0-2.2,1.6-4.2,5.1-4.2h3.8v-0.9c0-2-1.1-3.2-3-3.2c-1.5,0-2.7,0.8-3.3,2.2l-2.2-0.4   c1-2.6,3.2-3.7,5.6-3.7c3.3,0,5.2,1.9,5.2,5v9h-2.3v-2c-0.9,1.2-2.3,2.2-4.5,2.2C191.2,142.3,189.4,140.7,189.4,138.4z    M194.5,140.4c2.2,0,3.8-1.5,3.8-3.8v-1h-3.5c-2,0-3,1-3,2.4C191.8,139.5,192.9,140.4,194.5,140.4z" class="st1"></path>
	<path d="M203.5,128.3h2.2v2c0.7-1.2,2-2.2,3.9-2.2c1.7,0,3.1,0.9,3.7,2.4c0.9-1.6,2.4-2.4,4-2.4c2.8,0,4.6,2,4.6,5v8.9   h-2.4v-8.4c0-2.1-1-3.4-2.6-3.4c-1.8,0-3,1.6-3,3.7v8.1h-2.4v-8.4c0-2.1-1-3.4-2.6-3.4c-1.8,0-3,1.6-3,3.7v8.2h-2.4V128.3z" class="st1"></path>
	<path d="M230.4,142.4c-3.5,0-6.4-2.6-6.4-7.1V135c0-4.6,2.8-7.1,6.2-7.1c3.4,0,6.2,2.6,6.2,7.1v0.6h-10.1   c0,2.9,1.7,4.7,4.1,4.7c1.4,0,2.7-0.7,3.4-2.1l2.3,0.4C235.2,141.1,232.9,142.4,230.4,142.4z M234.1,134.1   c-0.2-2.8-1.9-4.3-3.8-4.3c-1.9,0-3.6,1.5-3.8,4.3H234.1z" class="st1"></path>
</g>
<g>
	<path d="M336.6,134.9h2.9l1-4.9h-2.9l0.4-1.9h2.9l1.1-5.2h2.1l-1.1,5.2h4.7l1.1-5.2h2.1l-1.1,5.2h2.9l-0.4,1.9h-2.9   l-1,4.9h2.9l-0.4,1.9H348l-1.1,5.2h-2.1l1.1-5.2h-4.7l-1.1,5.2H338l1.1-5.2h-2.9L336.6,134.9z M346.3,134.9l1-4.9h-4.7l-1,4.9   H346.3z" class="st1"></path>
	<path d="M354.7,139.9h5.1v-11.4c0-1.1,0-2.3,0-3.2c-0.8,0.7-1.6,1.3-2.4,1.8l-2.3,1.6v-2.5l4.7-3.2h2.3v17.1h4.2v2.1   h-11.7V139.9z" class="st1"></path>
</g>
<g>
	<path d="M440.7,134.9h2.9l1-4.9h-2.9l0.4-1.9h2.9l1.1-5.2h2.1l-1.1,5.2h4.7l1.1-5.2h2.1L454,128h2.9l-0.4,1.9h-2.9   l-1,4.9h2.9l-0.4,1.9h-2.9L451,142h-2.1l1.1-5.2h-4.7l-1.1,5.2h-2.1l1.1-5.2h-2.9L440.7,134.9z M450.4,134.9l1-4.9h-4.7l-1,4.9   H450.4z" class="st1"></path>
	<path d="M458.8,140l7.7-8c1.4-1.5,2.1-2.6,2.1-3.9v-0.1c0-2.2-1.6-3.4-3.5-3.4c-2,0-3.6,1.4-3.8,4l-2.4-0.5   c0.4-3.8,3.1-5.8,6.3-5.8c3.2,0,5.9,2,5.9,5.6v0.2c0,1.8-1,3.5-2.9,5.4l-3.9,3.9c-0.9,0.9-1.6,1.6-2.4,2.3c1-0.1,1.8-0.1,2.8-0.1   h6.6v2.3h-12.5V140z" class="st1"></path>
</g>
<g>
	<path d="M113.7,181.8h2.1V201h-2.1V181.8z"></path>
	<path d="M119.4,187.3h1.8v2.2c0.8-1.7,2.4-2.5,4.1-2.5c2.8,0,4.7,2,4.7,5v8.9h-1.9v-8.5c0-2.4-1.3-3.8-3.2-3.8   c-2.1,0-3.6,1.8-3.6,4.1v8.3h-1.9V187.3z"></path>
	<path d="M132.9,187.3h1.8v2.5c0.8-1.6,2.3-2.8,4.4-2.8c3,0,5.7,2.3,5.7,6.8v0.5c0,4.6-2.7,6.8-5.6,6.8c-2.1,0-3.6-1.1-4.3-2.7v7.9   h-1.9V187.3z M138.8,199.6c2.3,0,4.1-1.9,4.1-5.4v-0.1c0-3.5-1.8-5.4-4.1-5.4c-2.3,0-4,1.9-4,5.4v0.1   C134.8,197.7,136.6,199.6,138.8,199.6z"></path>
	<path d="M157.6,201h-1.8v-2.2c-0.8,1.7-2.4,2.5-4.1,2.5c-2.8,0-4.7-2-4.7-5v-8.9h1.9v8.5c0,2.4,1.3,3.8,3.2,3.8   c2.1,0,3.6-1.7,3.6-4v-8.3h1.9V201z"></path>
	<path d="M161.8,197.6v-8.7h-2.3v-1.6h2.4v-4.1h1.8v4.1h3.9v1.6h-3.9v8.3c0,1.5,0.7,2.1,1.8,2.1h2v1.6h-2.5   C163.1,201,161.8,200,161.8,197.6z"></path>
	<path d="M174.5,194h3l1.1-5.3h-3l0.3-1.6h3l1.1-5.4h1.7l-1.1,5.4h5l1.1-5.4h1.7l-1.1,5.4h3l-0.3,1.6h-3l-1.1,5.3h3l-0.3,1.6h-3   l-1.1,5.4h-1.7l1.1-5.4h-5l-1.1,5.4h-1.7l1.1-5.4h-3L174.5,194z M184.2,194l1.1-5.3h-5l-1.1,5.3H184.2z"></path>
	<path d="M192.4,199.3h5.2V187c0-1.2,0-2.4,0-3.3c-0.8,0.7-1.6,1.3-2.4,1.8l-2.4,1.6v-2l4.8-3.3h1.9v17.5h4.4v1.6h-11.5V199.3z"></path>
</g>
<g>
	<path d="M314,199.3h5.2V187c0-1.2,0-2.4,0-3.3c-0.8,0.7-1.6,1.3-2.4,1.8l-2.4,1.6v-2l4.8-3.3h1.9v17.5h4.4v1.6H314V199.3z"></path>
	<path d="M334.6,183.6h-7.5v-1.8h12.3v1.6l-8.2,17.6h-2.2l8.2-17.4C336.3,183.6,335.4,183.6,334.6,183.6z"></path>
	<path d="M348,196.3h-9v-1.5l8.4-13h2.2l-8.4,12.9h6.8V190h1.8v4.7h2.1v1.6h-2.1v4.7H348V196.3z"></path>
	<path d="M354.1,195.1v-0.2c0-2.9,1.7-5.1,2.9-6.6l4.9-6.5h2.3l-2.6,3.4c-1,1.4-2.1,2.8-3.4,4.4c0.9-0.8,1.9-1,2.9-1   c3.2,0,6.1,2.3,6.1,6.2v0.2c0,4-3,6.4-6.5,6.4C357.1,201.4,354.1,199,354.1,195.1z M360.5,199.7c2.4,0,4.6-1.7,4.6-4.7v-0.1   c0-3-2.2-4.6-4.5-4.6c-2.4,0-4.6,1.6-4.6,4.7v0.1C356,198.1,358.2,199.7,360.5,199.7z"></path>
</g>
<g>
	<path d="M423.4,191.8v-0.9c0-6.4,2.9-9.4,6.5-9.4c3.5,0,6.5,3,6.5,9.4v0.9c0,6.4-2.9,9.4-6.5,9.4   C426.3,201.2,423.4,198.3,423.4,191.8z M429.9,199.5c2.5,0,4.4-2.3,4.4-7.7V191c0-5.4-1.9-7.7-4.4-7.7s-4.4,2.3-4.4,7.7v0.8   C425.4,197.2,427.4,199.5,429.9,199.5z"></path>
	<path d="M438.8,198.5h2.1v2.5h-2.1V198.5z"></path>
	<path d="M443.7,196.8l1.9-0.4c0.7,2.4,2.7,3.3,4.5,3.3c2.4,0,4.5-1.7,4.5-4.8v-0.1c0-3-1.9-4.6-4.2-4.6c-2,0-3.2,1.1-3.8,2.2   l-1.5-0.3v-10.4h10.2v1.8h-8.4v4.5c0,0.7,0,1.5,0,2.3c0.8-1,2.1-1.7,3.9-1.7c3.2,0,5.9,2.1,5.9,6.1v0.3c0,4-3,6.4-6.5,6.4   C447.5,201.4,444.7,200,443.7,196.8z"></path>
	<path d="M458.7,196.8l1.9-0.4c0.7,2.4,2.7,3.3,4.5,3.3c2.4,0,4.5-1.7,4.5-4.4v-0.1c0-2.8-2-4.3-4.2-4.3c-1.1,0-2,0.3-2.6,0.8   l-1.1-1.1l4.4-4.9c0.8-0.9,1.5-1.6,2.2-2.3c-1,0.1-1.8,0.1-2.8,0.1h-5.8v-1.8h10.7v1.6l-4.8,5.2c-0.3,0.3-0.6,0.6-0.9,0.9   c0.3-0.1,0.6-0.1,1-0.1c3.3,0,5.9,2.1,5.9,5.6v0.2c0,3.8-2.9,6-6.5,6C462.5,201.4,459.7,200.1,458.7,196.8z"></path>
</g>
<g>
	<path d="M113.7,242.2h2.1v19.1h-2.1V242.2z"></path>
	<path d="M119.4,247.7h1.8v2.2c0.8-1.7,2.4-2.5,4.1-2.5c2.8,0,4.7,2,4.7,5v8.9h-1.9v-8.5c0-2.4-1.3-3.8-3.2-3.8   c-2.1,0-3.6,1.8-3.6,4.1v8.3h-1.9V247.7z"></path>
	<path d="M132.9,247.7h1.8v2.5c0.8-1.6,2.3-2.8,4.4-2.8c3,0,5.7,2.3,5.7,6.8v0.5c0,4.6-2.7,6.8-5.6,6.8c-2.1,0-3.6-1.1-4.3-2.7v7.9   h-1.9V247.7z M138.8,260c2.3,0,4.1-1.9,4.1-5.4v-0.1c0-3.5-1.8-5.4-4.1-5.4c-2.3,0-4,1.9-4,5.4v0.1   C134.8,258.1,136.6,260,138.8,260z"></path>
	<path d="M157.6,261.4h-1.8v-2.2c-0.8,1.7-2.4,2.5-4.1,2.5c-2.8,0-4.7-2-4.7-5v-8.9h1.9v8.5c0,2.4,1.3,3.8,3.2,3.8   c2.1,0,3.6-1.7,3.6-4v-8.3h1.9V261.4z"></path>
	<path d="M161.8,258v-8.7h-2.3v-1.6h2.4v-4.1h1.8v4.1h3.9v1.6h-3.9v8.3c0,1.5,0.7,2.1,1.8,2.1h2v1.6h-2.5   C163.1,261.4,161.8,260.4,161.8,258z"></path>
	<path d="M174.5,254.4h3l1.1-5.3h-3l0.3-1.6h3l1.1-5.4h1.7l-1.1,5.4h5l1.1-5.4h1.7l-1.1,5.4h3l-0.3,1.6h-3l-1.1,5.3h3l-0.3,1.6h-3   l-1.1,5.4h-1.7l1.1-5.4h-5l-1.1,5.4h-1.7l1.1-5.4h-3L174.5,254.4z M184.2,254.4l1.1-5.3h-5l-1.1,5.3H184.2z"></path>
	<path d="M192.4,259.8l7.8-8.1c1.6-1.7,2.3-2.8,2.3-4.2v-0.1c0-2.5-1.8-3.8-3.9-3.8c-2.2,0-4,1.6-4.1,4.3l-1.9-0.3   c0.3-3.6,3-5.7,6.1-5.7c3.1,0,5.8,2,5.8,5.5v0.2c0,1.8-0.9,3.4-2.9,5.4l-4.3,4.4c-0.8,0.9-1.5,1.5-2.3,2.3c1-0.1,1.8-0.1,2.8-0.1   h7.1v1.8h-12.3V259.8z"></path>
</g>
<g>
	<path d="M312.9,259.7h5.2v-12.3c0-1.2,0-2.4,0-3.3c-0.8,0.7-1.6,1.3-2.4,1.8l-2.4,1.6v-2l4.8-3.3h1.9v17.5h4.4v1.6h-11.5V259.7z"></path>
	<path d="M334.3,253.5c-0.9,0.8-1.9,1-2.9,1c-3.2,0-6.1-2.3-6.1-6.2v-0.2c0-4,3-6.4,6.5-6.4c3.4,0,6.5,2.3,6.5,6.2v0.2   c0,2.9-1.7,5.1-2.9,6.7l-4.9,6.5h-2.3l2.6-3.4C332,256.5,333,255.1,334.3,253.5z M331.8,252.9c2.4,0,4.6-1.6,4.6-4.7v-0.1   c0-3-2.2-4.7-4.5-4.7c-2.4,0-4.6,1.7-4.6,4.7v0.1C327.3,251.3,329.5,252.9,331.8,252.9z"></path>
	<path d="M348,256.7h-9v-1.5l8.4-13h2.2l-8.4,12.9h6.8v-4.7h1.8v4.7h2.1v1.6h-2.1v4.7H348V256.7z"></path>
	<path d="M354.1,255.5v-0.2c0-2.9,1.7-5.1,2.9-6.6l4.9-6.5h2.3l-2.6,3.4c-1,1.4-2.1,2.8-3.4,4.4c0.9-0.8,1.9-1,2.9-1   c3.2,0,6.1,2.3,6.1,6.2v0.2c0,4-3,6.4-6.5,6.4C357.1,261.8,354.1,259.4,354.1,255.5z M360.5,260.1c2.4,0,4.6-1.7,4.6-4.7v-0.1   c0-3-2.2-4.6-4.5-4.6c-2.4,0-4.6,1.6-4.6,4.7v0.1C356,258.5,358.2,260.1,360.5,260.1z"></path>
</g>
<g>
	<path d="M423.4,252.3v-0.9c0-6.4,2.9-9.4,6.5-9.4s6.5,3,6.5,9.4v0.9c0,6.4-2.9,9.4-6.5,9.4S423.4,258.7,423.4,252.3z M429.9,259.9   c2.5,0,4.4-2.3,4.4-7.7v-0.8c0-5.4-1.9-7.7-4.4-7.7s-4.4,2.3-4.4,7.7v0.8C425.5,257.6,427.4,259.9,429.9,259.9z"></path>
	<path d="M438.8,258.9h2.1v2.5h-2.1V258.9z"></path>
	<path d="M443.7,255.5v-0.2c0-2.9,1.7-5.1,2.9-6.6l4.9-6.5h2.3l-2.6,3.4c-1,1.4-2.1,2.8-3.4,4.4c0.9-0.8,1.9-1,2.9-1   c3.2,0,6.1,2.3,6.1,6.2v0.2c0,4-3,6.4-6.5,6.4C446.7,261.8,443.7,259.4,443.7,255.5z M450.1,260.1c2.4,0,4.6-1.7,4.6-4.7v-0.1   c0-3-2.2-4.6-4.5-4.6c-2.4,0-4.6,1.6-4.6,4.7v0.1C445.6,258.5,447.8,260.1,450.1,260.1z"></path>
	<path d="M458.7,257.2l1.9-0.4c0.7,2.4,2.7,3.3,4.5,3.3c2.4,0,4.5-1.7,4.5-4.4v-0.1c0-2.8-2-4.3-4.2-4.3c-1.1,0-2,0.3-2.6,0.8   l-1.1-1.1l4.4-4.9c0.8-0.9,1.5-1.6,2.2-2.3c-1,0.1-1.8,0.1-2.8,0.1h-5.8v-1.8h10.7v1.6l-4.8,5.2c-0.3,0.3-0.6,0.6-0.9,0.9   c0.3-0.1,0.6-0.1,1-0.1c3.3,0,5.9,2.1,5.9,5.6v0.2c0,3.8-2.9,6-6.5,6C462.5,261.8,459.7,260.5,458.7,257.2z"></path>
</g>
<g>
	<path d="M113.7,302.6h2.1v19.1h-2.1V302.6z"></path>
	<path d="M119.4,308.1h1.8v2.2c0.8-1.7,2.4-2.5,4.1-2.5c2.8,0,4.7,2,4.7,5v8.9h-1.9v-8.5c0-2.4-1.3-3.8-3.2-3.8   c-2.1,0-3.6,1.8-3.6,4.1v8.3h-1.9V308.1z"></path>
	<path d="M132.9,308.1h1.8v2.5c0.8-1.6,2.3-2.8,4.4-2.8c3,0,5.7,2.3,5.7,6.8v0.5c0,4.6-2.7,6.8-5.6,6.8c-2.1,0-3.6-1.1-4.3-2.7v7.9   h-1.9V308.1z M138.8,320.4c2.3,0,4.1-1.9,4.1-5.4v-0.1c0-3.5-1.8-5.4-4.1-5.4c-2.3,0-4,1.9-4,5.4v0.1   C134.8,318.5,136.6,320.4,138.8,320.4z"></path>
	<path d="M157.6,321.8h-1.8v-2.2c-0.8,1.7-2.4,2.5-4.1,2.5c-2.8,0-4.7-2-4.7-5v-8.9h1.9v8.5c0,2.4,1.3,3.8,3.2,3.8   c2.1,0,3.6-1.7,3.6-4v-8.3h1.9V321.8z"></path>
	<path d="M161.8,318.4v-8.7h-2.3v-1.6h2.4V304h1.8v4.1h3.9v1.6h-3.9v8.3c0,1.5,0.7,2.1,1.8,2.1h2v1.6h-2.5   C163.1,321.8,161.8,320.8,161.8,318.4z"></path>
	<path d="M174.5,314.8h3l1.1-5.3h-3l0.3-1.6h3l1.1-5.4h1.7l-1.1,5.4h5l1.1-5.4h1.7l-1.1,5.4h3l-0.3,1.6h-3l-1.1,5.3h3l-0.3,1.6h-3   l-1.1,5.4h-1.7l1.1-5.4h-5l-1.1,5.4h-1.7l1.1-5.4h-3L174.5,314.8z M184.2,314.8l1.1-5.3h-5l-1.1,5.3H184.2z"></path>
	<path d="M191,317.6l1.9-0.4c0.7,2.4,2.7,3.3,4.5,3.3c2.4,0,4.5-1.7,4.5-4.4v-0.1c0-2.8-2-4.3-4.2-4.3c-1.1,0-2,0.3-2.6,0.8   l-1.1-1.1l4.4-4.9c0.8-0.9,1.5-1.5,2.2-2.3c-1,0.1-1.8,0.1-2.8,0.1h-5.8v-1.8h10.7v1.6l-4.8,5.2c-0.3,0.3-0.6,0.6-0.9,0.9   c0.3-0.1,0.6-0.1,1-0.1c3.3,0,5.9,2.1,5.9,5.6v0.2c0,3.8-2.9,6-6.5,6C194.8,322.2,192,320.9,191,317.6z"></path>
</g>
<g>
	<path d="M314.1,320.1h5.2v-12.3c0-1.2,0-2.4,0-3.3c-0.8,0.7-1.6,1.3-2.4,1.8l-2.4,1.6v-2l4.8-3.3h1.9v17.5h4.4v1.6h-11.5V320.1z"></path>
	<path d="M334.7,304.4h-7.5v-1.8h12.3v1.6l-8.2,17.6h-2.2l8.2-17.4C336.4,304.4,335.5,304.4,334.7,304.4z"></path>
	<path d="M348.1,317.1h-9v-1.5l8.4-13h2.2l-8.4,12.9h6.8v-4.7h1.8v4.7h2.1v1.6h-2.1v4.7h-1.8V317.1z"></path>
	<path d="M354.1,312.7v-0.9c0-6.4,2.9-9.4,6.5-9.4s6.5,3,6.5,9.4v0.9c0,6.4-2.9,9.4-6.5,9.4S354.1,319.1,354.1,312.7z M360.6,320.3   c2.5,0,4.4-2.3,4.4-7.7v-0.8c0-5.4-1.9-7.7-4.4-7.7c-2.5,0-4.4,2.3-4.4,7.7v0.8C356.1,318,358.1,320.3,360.6,320.3z"></path>
</g>
<g>
	<path d="M423.3,312.7v-0.9c0-6.4,2.9-9.4,6.5-9.4s6.5,3,6.5,9.4v0.9c0,6.4-2.9,9.4-6.5,9.4S423.3,319.1,423.3,312.7z M429.8,320.3   c2.5,0,4.4-2.3,4.4-7.7v-0.8c0-5.4-1.9-7.7-4.4-7.7s-4.4,2.3-4.4,7.7v0.8C425.4,318,427.3,320.3,429.8,320.3z"></path>
	<path d="M438.7,319.3h2.1v2.5h-2.1V319.3z"></path>
	<path d="M443.7,317.6l1.9-0.4c0.7,2.4,2.7,3.3,4.5,3.3c2.4,0,4.5-1.7,4.5-4.4v-0.1c0-2.8-2-4.3-4.2-4.3c-1.1,0-2,0.3-2.6,0.8   l-1.1-1.1l4.4-4.9c0.8-0.9,1.5-1.5,2.2-2.3c-1,0.1-1.8,0.1-2.8,0.1h-5.8v-1.8h10.7v1.6l-4.8,5.2c-0.3,0.3-0.6,0.6-0.9,0.9   c0.3-0.1,0.6-0.1,1-0.1c3.3,0,5.9,2.1,5.9,5.6v0.2c0,3.8-2.9,6-6.5,6C447.5,322.2,444.7,320.9,443.7,317.6z"></path>
	<path d="M467.6,317.1h-9v-1.5l8.4-13h2.2l-8.4,12.9h6.8v-4.7h1.8v4.7h2.1v1.6h-2.1v4.7h-1.8V317.1z"></path>
</g>
<g>
	<path d="M113.7,363h2.1v19.1h-2.1V363z"></path>
	<path d="M119.4,368.5h1.8v2.2c0.8-1.7,2.4-2.5,4.1-2.5c2.8,0,4.7,2,4.7,5v8.9h-1.9v-8.5c0-2.4-1.3-3.8-3.2-3.8   c-2.1,0-3.6,1.8-3.6,4.1v8.3h-1.9V368.5z"></path>
	<path d="M132.9,368.5h1.8v2.5c0.8-1.6,2.3-2.8,4.4-2.8c3,0,5.7,2.3,5.7,6.8v0.5c0,4.6-2.7,6.8-5.6,6.8c-2.1,0-3.6-1.1-4.3-2.7v7.9   h-1.9V368.5z M138.8,380.8c2.3,0,4.1-1.9,4.1-5.4v-0.1c0-3.5-1.8-5.4-4.1-5.4c-2.3,0-4,1.9-4,5.4v0.1   C134.8,378.9,136.6,380.8,138.8,380.8z"></path>
	<path d="M157.6,382.2h-1.8V380c-0.8,1.7-2.4,2.5-4.1,2.5c-2.8,0-4.7-2-4.7-5v-8.9h1.9v8.5c0,2.4,1.3,3.8,3.2,3.8   c2.1,0,3.6-1.7,3.6-4v-8.3h1.9V382.2z"></path>
	<path d="M161.8,378.9v-8.7h-2.3v-1.6h2.4v-4.1h1.8v4.1h3.9v1.6h-3.9v8.3c0,1.5,0.7,2.1,1.8,2.1h2v1.6h-2.5   C163.1,382.2,161.8,381.2,161.8,378.9z"></path>
	<path d="M174.5,375.3h3l1.1-5.3h-3l0.3-1.5h3l1.1-5.4h1.7l-1.1,5.4h5l1.1-5.4h1.7l-1.1,5.4h3L190,370h-3l-1.1,5.3h3l-0.3,1.5h-3   l-1.1,5.4h-1.7l1.1-5.4h-5l-1.1,5.4h-1.7l1.1-5.4h-3L174.5,375.3z M184.2,375.3l1.1-5.3h-5l-1.1,5.3H184.2z"></path>
	<path d="M200.4,377.5h-9V376l8.4-13h2.2l-8.4,12.9h6.8v-4.7h1.8v4.7h2.1v1.6h-2.1v4.7h-1.8V377.5z"></path>
</g>
<g>
	<path d="M312.4,380.5h5.2v-12.3c0-1.2,0-2.4,0-3.3c-0.8,0.7-1.6,1.3-2.4,1.8l-2.4,1.6v-2l4.8-3.3h1.9v17.5h4.4v1.6h-11.5V380.5z"></path>
	<path d="M325.4,373.1v-0.9c0-6.4,2.9-9.4,6.5-9.4c3.5,0,6.5,3,6.5,9.4v0.9c0,6.4-2.9,9.4-6.5,9.4   C328.4,382.5,325.4,379.5,325.4,373.1z M331.9,380.7c2.5,0,4.4-2.3,4.4-7.7v-0.8c0-5.4-1.9-7.7-4.4-7.7c-2.5,0-4.4,2.3-4.4,7.7v0.8   C327.5,378.4,329.4,380.7,331.9,380.7z"></path>
	<path d="M349.4,377.5h-9V376l8.4-13h2.2l-8.4,12.9h6.8v-4.7h1.8v4.7h2.1v1.6h-2.1v4.7h-1.8V377.5z"></path>
	<path d="M361.9,364.8h-7.5V363h12.3v1.6l-8.2,17.6h-2.2l8.2-17.4C363.6,364.8,362.7,364.8,361.9,364.8z"></path>
</g>
<g>
	<path d="M423.4,373.1v-0.9c0-6.4,2.9-9.4,6.5-9.4s6.5,3,6.5,9.4v0.9c0,6.4-2.9,9.4-6.5,9.4S423.4,379.5,423.4,373.1z M429.9,380.7   c2.5,0,4.4-2.3,4.4-7.7v-0.8c0-5.4-1.9-7.7-4.4-7.7s-4.4,2.3-4.4,7.7v0.8C425.5,378.4,427.4,380.7,429.9,380.7z"></path>
	<path d="M438.8,379.7h2.1v2.5h-2.1V379.7z"></path>
	<path d="M443.7,376.3v-0.2c0-2.9,1.7-5.1,2.9-6.6l4.9-6.5h2.3l-2.6,3.4c-1,1.4-2.1,2.8-3.4,4.4c0.9-0.8,1.9-1,2.9-1   c3.2,0,6.1,2.3,6.1,6.2v0.2c0,4-3,6.4-6.5,6.4C446.7,382.6,443.7,380.2,443.7,376.3z M450.1,381c2.4,0,4.6-1.7,4.6-4.7v-0.1   c0-3-2.2-4.6-4.5-4.6c-2.4,0-4.6,1.6-4.6,4.7v0.1C445.6,379.3,447.8,381,450.1,381z"></path>
	<path d="M458.7,378l1.9-0.4c0.7,2.4,2.7,3.3,4.5,3.3c2.4,0,4.5-1.7,4.5-4.4v-0.1c0-2.8-2-4.3-4.2-4.3c-1.1,0-2,0.3-2.6,0.8   l-1.1-1.1l4.4-4.9c0.8-0.9,1.5-1.6,2.2-2.3c-1,0.1-1.8,0.1-2.8,0.1h-5.8V363h10.7v1.6l-4.8,5.2c-0.3,0.3-0.6,0.6-0.9,0.9   c0.3-0.1,0.6-0.1,1-0.1c3.3,0,5.9,2.1,5.9,5.6v0.2c0,3.8-2.9,6-6.5,6C462.5,382.6,459.7,381.3,458.7,378z"></path>
</g>
<g>
	<path d="M113.7,423.4h2.1v19.1h-2.1V423.4z"></path>
	<path d="M119.4,428.9h1.8v2.2c0.8-1.7,2.4-2.5,4.1-2.5c2.8,0,4.7,2,4.7,5v8.9h-1.9v-8.5c0-2.4-1.3-3.8-3.2-3.8   c-2.1,0-3.6,1.8-3.6,4.1v8.3h-1.9V428.9z"></path>
	<path d="M132.9,428.9h1.8v2.5c0.8-1.6,2.3-2.8,4.4-2.8c3,0,5.7,2.3,5.7,6.8v0.5c0,4.6-2.7,6.8-5.6,6.8c-2.1,0-3.6-1.1-4.3-2.7v7.9   h-1.9V428.9z M138.8,441.2c2.3,0,4.1-1.9,4.1-5.4v-0.1c0-3.5-1.8-5.4-4.1-5.4c-2.3,0-4,1.9-4,5.4v0.1   C134.8,439.4,136.6,441.2,138.8,441.2z"></path>
	<path d="M157.6,442.6h-1.8v-2.2c-0.8,1.7-2.4,2.5-4.1,2.5c-2.8,0-4.7-2-4.7-5v-8.9h1.9v8.5c0,2.4,1.3,3.8,3.2,3.8   c2.1,0,3.6-1.7,3.6-4v-8.3h1.9V442.6z"></path>
	<path d="M161.8,439.3v-8.7h-2.3v-1.6h2.4v-4.1h1.8v4.1h3.9v1.6h-3.9v8.3c0,1.5,0.7,2.1,1.8,2.1h2v1.6h-2.5   C163.1,442.6,161.8,441.6,161.8,439.3z"></path>
	<path d="M174.5,435.7h3l1.1-5.3h-3l0.3-1.5h3l1.1-5.4h1.7l-1.1,5.4h5l1.1-5.4h1.7l-1.1,5.4h3l-0.3,1.5h-3l-1.1,5.3h3l-0.3,1.5h-3   l-1.1,5.4h-1.7l1.1-5.4h-5l-1.1,5.4h-1.7l1.1-5.4h-3L174.5,435.7z M184.2,435.7l1.1-5.3h-5l-1.1,5.3H184.2z"></path>
	<path d="M191.6,438.4l1.9-0.4c0.7,2.4,2.7,3.3,4.5,3.3c2.4,0,4.5-1.7,4.5-4.8v-0.1c0-3-1.9-4.6-4.2-4.6c-2,0-3.2,1.1-3.8,2.2   l-1.5-0.3v-10.4h10.2v1.8h-8.4v4.5c0,0.7,0,1.5,0,2.3c0.8-1,2.1-1.7,3.9-1.7c3.2,0,5.9,2.1,5.9,6.1v0.3c0,4-3,6.4-6.5,6.4   C195.3,443,192.6,441.7,191.6,438.4z"></path>
</g>
<g>
	<path d="M333.7,434.7c-0.9,0.8-1.9,1-2.9,1c-3.2,0-6.1-2.3-6.1-6.2v-0.2c0-4,3-6.4,6.5-6.4c3.4,0,6.5,2.3,6.5,6.2v0.2   c0,2.9-1.7,5.1-2.9,6.7l-4.9,6.5h-2.3l2.6-3.4C331.3,437.8,332.4,436.3,333.7,434.7z M331.2,434.1c2.4,0,4.6-1.6,4.6-4.7v-0.1   c0-3-2.2-4.7-4.5-4.7c-2.4,0-4.6,1.7-4.6,4.7v0.1C326.6,432.5,328.8,434.1,331.2,434.1z"></path>
	<path d="M339,436.7v-0.2c0-2.9,1.7-5.1,2.9-6.6l4.9-6.5h2.3l-2.6,3.4c-1,1.4-2.1,2.8-3.4,4.4c0.9-0.8,1.9-1,2.9-1   c3.2,0,6.1,2.3,6.1,6.2v0.2c0,4-3,6.4-6.5,6.4C342,443,339,440.7,339,436.7z M345.5,441.4c2.4,0,4.6-1.7,4.6-4.7v-0.1   c0-3-2.2-4.6-4.5-4.6c-2.4,0-4.6,1.6-4.6,4.7v0.1C340.9,439.7,343.1,441.4,345.5,441.4z"></path>
	<path d="M354.1,437.3v-0.2c0-2.4,1.5-4.1,3.5-4.9c-1.6-0.7-2.8-2.1-2.8-4.1V428c0-3.1,2.7-4.9,5.7-4.9s5.7,1.8,5.7,4.9v0.2   c0,1.9-1.1,3.4-2.8,4.1c2,0.8,3.5,2.5,3.5,4.9v0.2c0,3.6-3.1,5.6-6.5,5.6S354.1,440.9,354.1,437.3z M360.6,441.3   c2.3,0,4.5-1.4,4.5-4.1v-0.1c0-2.6-2.2-4.1-4.5-4.1s-4.5,1.4-4.5,4.1v0.1C356.1,439.9,358.2,441.3,360.6,441.3z M360.6,431.7   c2,0,3.9-1.2,3.9-3.4v-0.1c0-2.2-1.8-3.4-3.9-3.4s-3.9,1.2-3.9,3.4v0.1C356.7,430.5,358.5,431.7,360.6,431.7z"></path>
</g>
<g>
	<path d="M424,433.5v-0.9c0-6.4,2.9-9.4,6.5-9.4c3.5,0,6.5,3,6.5,9.4v0.9c0,6.4-2.9,9.4-6.5,9.4C427,442.9,424,439.9,424,433.5z    M430.5,441.1c2.5,0,4.4-2.3,4.4-7.7v-0.8c0-5.4-1.9-7.7-4.4-7.7c-2.5,0-4.4,2.3-4.4,7.7v0.8C426.1,438.8,428,441.1,430.5,441.1z"></path>
	<path d="M439.5,440.1h2.1v2.5h-2.1V440.1z"></path>
	<path d="M444.4,438.4l1.9-0.4c0.7,2.4,2.7,3.3,4.5,3.3c2.4,0,4.5-1.7,4.5-4.4v-0.1c0-2.8-2-4.3-4.2-4.3c-1.1,0-2,0.3-2.6,0.8   l-1.1-1.1l4.4-4.9c0.8-0.9,1.5-1.6,2.2-2.3c-1,0.1-1.8,0.1-2.8,0.1h-5.8v-1.8h10.7v1.6l-4.8,5.2c-0.3,0.3-0.6,0.6-0.9,0.9   c0.3-0.1,0.6-0.1,1-0.1c3.3,0,5.9,2.1,5.9,5.6v0.2c0,3.8-2.9,6-6.5,6C448.2,443,445.4,441.7,444.4,438.4z"></path>
	<path d="M466.5,425.2H459v-1.8h12.3v1.6l-8.2,17.6h-2.2l8.2-17.4C468.1,425.2,467.3,425.2,466.5,425.2z"></path>
</g>
</svg>