<svg xml:space="preserve" style="enable-background:new 0 0 195.5 42.6;" viewBox="0 0 195.5 42.6" y="0px" x="0px" id="Layer_1" version="1.1" xmlns:xlink="http://www.w3.org/1999/xlink" xmlns="http://www.w3.org/2000/svg">
<g>
	<path d="M9.5,1.4L7.6,9.8H6.8L5.4,4.7C5.2,4,5.1,3.5,4.9,2.8C4.8,3.5,4.7,4,4.5,4.7L3.1,9.8H2.2L0.4,1.4h0.9l1.1,5.1   c0.1,0.7,0.3,1.2,0.3,1.8C2.9,7.7,3,7.2,3.2,6.5l1.4-5.1h0.8l1.4,5.1C6.9,7.2,7,7.8,7.2,8.3c0.1-0.6,0.2-1.2,0.4-1.8l1.1-5.1H9.5z"></path>
	<path d="M12.4,10c-1.5,0-2.7-1.1-2.7-3.1V6.8c0-2,1.2-3.1,2.6-3.1S15,4.8,15,6.8V7h-4.5c0,1.4,0.8,2.3,1.9,2.3c0.7,0,1.3-0.3,1.6-1   l0.8,0.2C14.4,9.5,13.5,10,12.4,10z M14.2,6.4c-0.1-1.4-0.9-2.1-1.8-2.1s-1.7,0.7-1.8,2.1H14.2z"></path>
	<path d="M20.9,10c-1.5,0-2.7-1.1-2.7-3.1V6.8c0-2,1.2-3.1,2.6-3.1s2.6,1.1,2.6,3.1V7H19c0,1.4,0.8,2.3,1.9,2.3c0.7,0,1.3-0.3,1.6-1   l0.8,0.2C22.9,9.5,21.9,10,20.9,10z M22.6,6.4c-0.1-1.4-0.9-2.1-1.8-2.1S19.1,5.1,19,6.4H22.6z"></path>
	<path d="M28.3,9.8l-0.9-1.3c-0.3-0.4-0.5-0.8-0.8-1.2c-0.3,0.4-0.5,0.8-0.8,1.2L25,9.8H24l2.2-3.1l-2-2.9h1l0.9,1.3   c0.2,0.3,0.4,0.6,0.6,1c0.2-0.4,0.4-0.7,0.6-1l0.9-1.3h0.9l-2,2.9l2.2,3.1H28.3z"></path>
	<path d="M30.5,1.8h0.9v1h-0.9V1.8z M30.5,3.8h0.8v6h-0.8V3.8z"></path>
	<path d="M32.4,8.4l0.7-0.3c0.3,0.8,0.9,1.2,1.7,1.2c0.8,0,1.4-0.4,1.4-1.1c0-0.6-0.5-0.9-1.3-1L34.2,7c-1-0.2-1.7-0.6-1.7-1.5   c0-1,0.8-1.8,2.1-1.8c1,0,1.8,0.4,2.3,1.3l-0.7,0.3c-0.3-0.6-0.9-0.9-1.6-0.9c-0.8,0-1.3,0.4-1.3,1c0,0.6,0.5,0.8,1.1,0.9l0.8,0.1   c1.1,0.2,1.9,0.7,1.9,1.6c0,1-0.8,1.8-2.2,1.8C33.8,10,32.9,9.5,32.4,8.4z"></path>
	<path d="M38.5,8.4V4.6h-1V3.8h1V2h0.8v1.8H41v0.7h-1.7v3.7c0,0.6,0.3,0.9,0.8,0.9H41v0.7H40C39.1,9.8,38.5,9.4,38.5,8.4z"></path>
	<path d="M44.9,8.4V4.6h-1V3.8h1V2h0.8v1.8h1.7v0.7h-1.7v3.7c0,0.6,0.3,0.9,0.8,0.9h0.9v0.7h-1.1C45.5,9.8,44.9,9.4,44.9,8.4z"></path>
	<path d="M48,6.9V6.8c0-2,1.2-3.1,2.6-3.1s2.6,1.1,2.6,3.1v0.1c0,2-1.2,3.1-2.6,3.1S48,8.9,48,6.9z M50.6,9.3c1,0,1.8-0.8,1.8-2.4   V6.8c0-1.6-0.8-2.4-1.8-2.4s-1.8,0.8-1.8,2.4v0.1C48.8,8.4,49.6,9.3,50.6,9.3z"></path>
	<path d="M56.8,3.8h0.8v1.1c0.3-0.7,1-1.2,1.9-1.2c1.3,0,2.5,1,2.5,3V7c0,2-1.2,3-2.5,3c-0.9,0-1.6-0.5-1.9-1.2v3.5h-0.8V3.8z    M59.4,9.2c1,0,1.8-0.8,1.8-2.4V6.8c0-1.5-0.8-2.4-1.8-2.4c-1,0-1.8,0.8-1.8,2.4v0.1C57.6,8.4,58.4,9.2,59.4,9.2z"></path>
	<path d="M62.8,6.9V6.8c0-2,1.2-3.1,2.6-3.1s2.6,1.1,2.6,3.1v0.1c0,2-1.2,3.1-2.6,3.1S62.8,8.9,62.8,6.9z M65.5,9.3   c1,0,1.8-0.8,1.8-2.4V6.8c0-1.6-0.8-2.4-1.8-2.4s-1.8,0.8-1.8,2.4v0.1C63.6,8.4,64.4,9.3,65.5,9.3z"></path>
	<path d="M68.7,8.4l0.7-0.3c0.3,0.8,0.9,1.2,1.7,1.2c0.8,0,1.4-0.4,1.4-1.1c0-0.6-0.5-0.9-1.3-1L70.5,7c-1-0.2-1.7-0.6-1.7-1.5   c0-1,0.8-1.8,2.1-1.8c1,0,1.8,0.4,2.3,1.3l-0.7,0.3c-0.3-0.6-0.9-0.9-1.6-0.9c-0.8,0-1.3,0.4-1.3,1c0,0.6,0.5,0.8,1.1,0.9l0.8,0.1   c1.1,0.2,1.9,0.7,1.9,1.6c0,1-0.8,1.8-2.2,1.8C70.1,10,69.2,9.5,68.7,8.4z"></path>
	<path d="M74.4,1.8h0.9v1h-0.9V1.8z M74.4,3.8h0.8v6h-0.8V3.8z"></path>
	<path d="M77.3,8.4V4.6h-1V3.8h1V2h0.8v1.8h1.7v0.7h-1.7v3.7c0,0.6,0.3,0.9,0.8,0.9h0.9v0.7h-1.1C77.9,9.8,77.3,9.4,77.3,8.4z"></path>
	<path d="M80.8,1.8h0.9v1h-0.9V1.8z M80.8,3.8h0.8v6h-0.8V3.8z"></path>
	<path d="M82.7,3.8h0.9L85,7.7c0.1,0.3,0.3,0.7,0.4,1.2c0.1-0.5,0.3-0.9,0.4-1.2l1.4-3.9h0.9l-2.3,6H85L82.7,3.8z"></path>
	<path d="M91.3,10c-1.5,0-2.7-1.1-2.7-3.1V6.8c0-2,1.2-3.1,2.6-3.1s2.6,1.1,2.6,3.1V7h-4.5c0,1.4,0.8,2.3,1.9,2.3   c0.7,0,1.3-0.3,1.6-1l0.8,0.2C93.3,9.5,92.4,10,91.3,10z M93.1,6.4c-0.1-1.4-0.9-2.1-1.8-2.1s-1.7,0.7-1.8,2.1H93.1z"></path>
	<path d="M95.1,8.5V1.4h0.8v6.9c0,0.5,0.2,0.7,0.6,0.7h0.3v0.7h-0.5C95.6,9.8,95.1,9.5,95.1,8.5z"></path>
	<path d="M97.5,11.5H98c0.6,0,0.8-0.3,1.1-0.9l0.4-1l-2.5-5.7h0.9l1.4,3.5c0.2,0.4,0.4,0.8,0.5,1.4c0.2-0.5,0.3-1,0.4-1.4l1.2-3.4   h0.9l-2.5,7c-0.3,0.9-0.9,1.4-1.7,1.4h-0.5V11.5z"></path>
	<path d="M105.3,8.4l0.7-0.3c0.3,0.8,0.9,1.2,1.7,1.2c0.8,0,1.4-0.4,1.4-1.1c0-0.6-0.5-0.9-1.3-1L107.1,7c-1-0.2-1.7-0.6-1.7-1.5   c0-1,0.8-1.8,2.1-1.8c1,0,1.8,0.4,2.3,1.3l-0.7,0.3c-0.3-0.6-0.9-0.9-1.6-0.9c-0.8,0-1.3,0.4-1.3,1c0,0.6,0.5,0.8,1.1,0.9l0.8,0.1   c1.1,0.2,1.9,0.7,1.9,1.6c0,1-0.8,1.8-2.2,1.8C106.7,10,105.8,9.5,105.3,8.4z"></path>
	<path d="M115.6,5.9v3.9h-0.8V6.1c0-1-0.6-1.7-1.4-1.7c-0.9,0-1.6,0.8-1.6,1.8v3.6H111V1.4h0.8v3.3c0.4-0.6,1-1,1.8-1   C114.8,3.7,115.6,4.6,115.6,5.9z"></path>
	<path d="M116.8,8.3L116.8,8.3c0-1.1,0.7-1.9,2.2-1.9h1.7V5.9c0-1-0.5-1.5-1.4-1.5c-0.7,0-1.3,0.4-1.6,1.1L117,5.3   c0.4-1.1,1.3-1.6,2.4-1.6c1.4,0,2.2,0.8,2.2,2.1v4h-0.8v-1c-0.4,0.6-1.1,1.1-2,1.1C117.6,10,116.8,9.3,116.8,8.3z M118.9,9.3   c1,0,1.8-0.7,1.8-1.8V7h-1.6c-1,0-1.5,0.5-1.5,1.2C117.6,8.9,118.2,9.3,118.9,9.3z"></path>
	<path d="M123.1,3.8h0.8v1.1c0.3-0.7,1-1.2,1.9-1.2c1.3,0,2.5,1,2.5,3V7c0,2-1.2,3-2.5,3c-0.9,0-1.6-0.5-1.9-1.2v3.5h-0.8V3.8z    M125.7,9.2c1,0,1.8-0.8,1.8-2.4V6.8c0-1.5-0.8-2.4-1.8-2.4c-1,0-1.8,0.8-1.8,2.4v0.1C123.9,8.4,124.7,9.2,125.7,9.2z"></path>
	<path d="M131.8,10c-1.5,0-2.7-1.1-2.7-3.1V6.8c0-2,1.2-3.1,2.6-3.1c1.5,0,2.6,1.1,2.6,3.1V7h-4.5c0,1.4,0.8,2.3,1.9,2.3   c0.7,0,1.3-0.3,1.6-1l0.8,0.2C133.8,9.5,132.8,10,131.8,10z M133.5,6.4c-0.1-1.4-0.9-2.1-1.8-2.1s-1.7,0.7-1.8,2.1H133.5z"></path>
	<path d="M138.3,8.4V4.6h-1V3.8h1V2h0.8v1.8h1.7v0.7h-1.7v3.7c0,0.6,0.3,0.9,0.8,0.9h0.9v0.7h-1.1C138.9,9.8,138.3,9.4,138.3,8.4z"></path>
	<path d="M146.5,5.9v3.9h-0.8V6.1c0-1-0.6-1.7-1.4-1.7c-0.9,0-1.6,0.8-1.6,1.8v3.6h-0.8V1.4h0.8v3.3c0.4-0.6,1-1,1.8-1   C145.7,3.7,146.5,4.6,146.5,5.9z"></path>
	<path d="M150.2,10c-1.5,0-2.7-1.1-2.7-3.1V6.8c0-2,1.2-3.1,2.6-3.1c1.5,0,2.6,1.1,2.6,3.1V7h-4.5c0,1.4,0.8,2.3,1.9,2.3   c0.7,0,1.3-0.3,1.6-1l0.8,0.2C152.2,9.5,151.3,10,150.2,10z M152,6.4c-0.1-1.4-0.9-2.1-1.8-2.1s-1.7,0.7-1.8,2.1H152z"></path>
	<path d="M157,4.6h-1.2V3.8h1.2V3c0-1.1,0.7-1.5,1.5-1.5h0.8v0.7h-0.7c-0.5,0-0.9,0.2-0.9,0.9v0.8h1.6v0.7h-1.5v5.3H157V4.6z"></path>
	<path d="M164.9,9.8h-0.8v-1c-0.4,0.7-1.1,1.1-1.8,1.1c-1.2,0-2-0.9-2-2.2V3.8h0.8v3.7c0,1,0.6,1.7,1.4,1.7c0.9,0,1.6-0.8,1.6-1.8   V3.8h0.8V9.8z"></path>
	<path d="M166.8,8.4V4.6h-1V3.8h1V2h0.8v1.8h1.7v0.7h-1.7v3.7c0,0.6,0.3,0.9,0.8,0.9h0.9v0.7h-1.1C167.4,9.8,166.8,9.4,166.8,8.4z"></path>
	<path d="M174.9,9.8h-0.8v-1c-0.4,0.7-1.1,1.1-1.8,1.1c-1.2,0-2-0.9-2-2.2V3.8h0.8v3.7c0,1,0.6,1.7,1.4,1.7c0.9,0,1.6-0.8,1.6-1.8   V3.8h0.8V9.8z"></path>
	<path d="M176.4,3.8h0.8v1.4c0.4-0.9,1.2-1.5,2.3-1.5v0.8c-1.4,0-2.2,1-2.2,2.5v2.8h-0.8V3.8z"></path>
	<path d="M182.7,10c-1.5,0-2.7-1.1-2.7-3.1V6.8c0-2,1.2-3.1,2.6-3.1s2.6,1.1,2.6,3.1V7h-4.5c0,1.4,0.8,2.3,1.9,2.3   c0.7,0,1.3-0.3,1.6-1l0.8,0.2C184.7,9.5,183.7,10,182.7,10z M184.4,6.4c-0.1-1.4-0.9-2.1-1.8-2.1s-1.7,0.7-1.8,2.1H184.4z"></path>
	<path d="M0,18.2h0.9L2,21.9c0.1,0.4,0.2,0.7,0.3,1.2c0.1-0.5,0.2-0.9,0.4-1.2l1.2-3.7h0.8l1.2,3.7c0.1,0.4,0.2,0.7,0.4,1.2   c0.1-0.5,0.2-0.9,0.4-1.2l1.1-3.7h0.9l-2,6H5.8l-1.2-3.9c-0.1-0.3-0.2-0.6-0.3-1.1C4.2,19.7,4.1,20,4,20.3l-1.2,3.9H2L0,18.2z"></path>
	<path d="M9.6,16.2h0.9v1H9.6V16.2z M9.6,18.2h0.8v6H9.6V18.2z"></path>
	<path d="M12.5,22.8V19h-1v-0.7h1v-1.8h0.8v1.8H15V19h-1.7v3.7c0,0.6,0.3,0.9,0.8,0.9H15v0.7h-1.1C13.1,24.2,12.5,23.8,12.5,22.8z"></path>
	<path d="M20.6,20.3v3.9h-0.8v-3.7c0-1-0.6-1.7-1.4-1.7c-0.9,0-1.6,0.8-1.6,1.8v3.6H16v-8.4h0.8v3.3c0.4-0.6,1-1,1.8-1   C19.8,18.1,20.6,19,20.6,20.3z"></path>
	<path d="M24.5,18.2h0.8v1.4c0.4-0.9,1.2-1.5,2.3-1.5V19c-1.4,0-2.2,1-2.2,2.5v2.8h-0.8V18.2z"></path>
	<path d="M30.7,24.4c-1.5,0-2.7-1.1-2.7-3.1v-0.1c0-2,1.2-3.1,2.6-3.1s2.6,1.1,2.6,3.1v0.2h-4.5c0,1.4,0.8,2.3,1.9,2.3   c0.7,0,1.3-0.3,1.6-1l0.8,0.2C32.7,23.9,31.8,24.4,30.7,24.4z M32.5,20.8c-0.1-1.4-0.9-2.1-1.8-2.1s-1.7,0.7-1.8,2.1H32.5z"></path>
	<path d="M33.9,22.8l0.7-0.3c0.3,0.8,0.9,1.2,1.7,1.2c0.8,0,1.4-0.4,1.4-1.1c0-0.6-0.5-0.9-1.3-1l-0.8-0.1c-1-0.2-1.7-0.6-1.7-1.5   c0-1,0.8-1.8,2.1-1.8c1,0,1.8,0.4,2.3,1.3l-0.7,0.3c-0.3-0.6-0.9-0.9-1.6-0.9c-0.8,0-1.3,0.4-1.3,1c0,0.6,0.5,0.8,1.1,0.9l0.8,0.1   c1.1,0.2,1.9,0.7,1.9,1.6c0,1-0.8,1.8-2.2,1.8C35.3,24.4,34.4,23.9,33.9,22.8z"></path>
	<path d="M39.6,18.2h0.8v1.1c0.3-0.7,1-1.2,1.9-1.2c1.3,0,2.5,1,2.5,3v0.2c0,2-1.2,3-2.5,3c-0.9,0-1.6-0.5-1.9-1.2v3.5h-0.8V18.2z    M42.2,23.6c1,0,1.8-0.8,1.8-2.4v-0.1c0-1.5-0.8-2.4-1.8-2.4c-1,0-1.8,0.8-1.8,2.4v0.1C40.4,22.8,41.2,23.6,42.2,23.6z"></path>
	<path d="M45.5,21.3v-0.1c0-2,1.2-3.1,2.6-3.1s2.6,1.1,2.6,3.1v0.1c0,2-1.2,3.1-2.6,3.1S45.5,23.3,45.5,21.3z M48.2,23.7   c1,0,1.8-0.8,1.8-2.4v-0.1c0-1.6-0.8-2.4-1.8-2.4s-1.8,0.8-1.8,2.4v0.1C46.4,22.8,47.2,23.7,48.2,23.7z"></path>
	<path d="M52,18.2h0.8v1c0.4-0.7,1.1-1.1,1.8-1.1c1.2,0,2,0.9,2,2.2v3.9h-0.8v-3.7c0-1-0.6-1.7-1.4-1.7c-0.9,0-1.6,0.8-1.6,1.8v3.6   H52V18.2z"></path>
	<path d="M57.5,22.8l0.7-0.3c0.3,0.8,0.9,1.2,1.7,1.2c0.8,0,1.4-0.4,1.4-1.1c0-0.6-0.5-0.9-1.3-1l-0.8-0.1c-1-0.2-1.7-0.6-1.7-1.5   c0-1,0.8-1.8,2.1-1.8c1,0,1.8,0.4,2.3,1.3l-0.7,0.3c-0.3-0.6-0.9-0.9-1.6-0.9c-0.8,0-1.3,0.4-1.3,1c0,0.6,0.5,0.8,1.1,0.9l0.8,0.1   c1.1,0.2,1.9,0.7,1.9,1.6c0,1-0.8,1.8-2.2,1.8C58.9,24.4,58,23.9,57.5,22.8z"></path>
	<path d="M63.2,16.2h0.9v1h-0.9V16.2z M63.2,18.2h0.8v6h-0.8V18.2z"></path>
	<path d="M66.4,23.1v1.1h-0.8v-8.4h0.8v3.5c0.3-0.7,1-1.2,1.9-1.2c1.3,0,2.5,1,2.5,3v0.2c0,2-1.2,3-2.5,3   C67.4,24.4,66.7,23.9,66.4,23.1z M68.2,23.6c1,0,1.8-0.8,1.8-2.4v-0.1c0-1.5-0.8-2.4-1.8-2.4c-1,0-1.8,0.8-1.8,2.4v0.1   C66.4,22.8,67.2,23.6,68.2,23.6z"></path>
	<path d="M72,22.9v-7.1h0.8v6.9c0,0.5,0.2,0.7,0.6,0.7h0.3v0.7h-0.5C72.5,24.2,72,23.9,72,22.9z"></path>
	<path d="M77.1,24.4c-1.5,0-2.7-1.1-2.7-3.1v-0.1c0-2,1.2-3.1,2.6-3.1s2.6,1.1,2.6,3.1v0.2h-4.5c0,1.4,0.8,2.3,1.9,2.3   c0.7,0,1.3-0.3,1.6-1l0.8,0.2C79.1,23.9,78.1,24.4,77.1,24.4z M78.8,20.8c-0.1-1.4-0.9-2.1-1.8-2.1s-1.7,0.7-1.8,2.1H78.8z"></path>
	<path d="M83,22.7L83,22.7c0-1.1,0.7-1.9,2.2-1.9h1.7v-0.5c0-1-0.5-1.5-1.4-1.5c-0.7,0-1.3,0.4-1.6,1.1l-0.8-0.2   c0.4-1.1,1.3-1.6,2.4-1.6c1.4,0,2.2,0.8,2.2,2.1v4H87v-1c-0.4,0.6-1.1,1.1-2,1.1C83.8,24.4,83,23.7,83,22.7z M85.1,23.7   c1,0,1.8-0.7,1.8-1.8v-0.5h-1.6c-1,0-1.5,0.5-1.5,1.2C83.8,23.3,84.4,23.7,85.1,23.7z"></path>
	<path d="M88.9,21.4v-0.2c0-2,1.2-3,2.5-3c0.9,0,1.6,0.5,1.9,1.2v-3.5h0.8v8.4h-0.8v-1.1c-0.3,0.7-1,1.2-1.9,1.2   C90,24.4,88.9,23.4,88.9,21.4z M91.5,23.6c1,0,1.8-0.8,1.8-2.4v-0.1c0-1.5-0.8-2.4-1.8-2.4c-1,0-1.8,0.8-1.8,2.4v0.1   C89.7,22.8,90.5,23.6,91.5,23.6z"></path>
	<path d="M95.1,18.2H96l1.4,3.9c0.1,0.3,0.3,0.7,0.4,1.2c0.1-0.5,0.3-0.9,0.4-1.2l1.4-3.9h0.9l-2.3,6h-0.8L95.1,18.2z"></path>
	<path d="M101.5,16.2h0.9v1h-0.9V16.2z M101.5,18.2h0.8v6h-0.8V18.2z"></path>
	<path d="M103.6,21.3v-0.1c0-2,1.2-3.1,2.6-3.1c1,0,2,0.6,2.3,1.8l-0.8,0.2c-0.3-0.8-0.9-1.2-1.6-1.2c-0.9,0-1.7,0.8-1.7,2.4v0.1   c0,1.6,0.8,2.4,1.7,2.4c0.6,0,1.3-0.4,1.6-1.2l0.8,0.2c-0.4,1.2-1.3,1.8-2.3,1.8C104.7,24.4,103.6,23.3,103.6,21.3z"></path>
	<path d="M111.8,24.4c-1.5,0-2.7-1.1-2.7-3.1v-0.1c0-2,1.2-3.1,2.6-3.1c1.5,0,2.6,1.1,2.6,3.1v0.2h-4.5c0,1.4,0.8,2.3,1.9,2.3   c0.7,0,1.3-0.3,1.6-1l0.8,0.2C113.8,23.9,112.9,24.4,111.8,24.4z M113.5,20.8c-0.1-1.4-0.9-2.1-1.8-2.1s-1.7,0.7-1.8,2.1H113.5z"></path>
	<path d="M117.7,22.7L117.7,22.7c0-1.1,0.7-1.9,2.2-1.9h1.7v-0.5c0-1-0.5-1.5-1.4-1.5c-0.7,0-1.3,0.4-1.6,1.1l-0.8-0.2   c0.4-1.1,1.3-1.6,2.4-1.6c1.4,0,2.2,0.8,2.2,2.1v4h-0.8v-1c-0.4,0.6-1.1,1.1-2,1.1C118.5,24.4,117.7,23.7,117.7,22.7z M119.8,23.7   c1,0,1.8-0.7,1.8-1.8v-0.5H120c-1,0-1.5,0.5-1.5,1.2C118.5,23.3,119.1,23.7,119.8,23.7z"></path>
	<path d="M124,18.2h0.8v1c0.4-0.7,1.1-1.1,1.8-1.1c1.2,0,2,0.9,2,2.2v3.9h-0.8v-3.7c0-1-0.6-1.7-1.4-1.7c-0.9,0-1.6,0.8-1.6,1.8v3.6   H124V18.2z"></path>
	<path d="M129.7,21.4v-0.2c0-2,1.2-3,2.5-3c0.9,0,1.6,0.5,1.9,1.2v-3.5h0.8v8.4h-0.8v-1.1c-0.3,0.7-1,1.2-1.9,1.2   C130.8,24.4,129.7,23.4,129.7,21.4z M132.3,23.6c1,0,1.8-0.8,1.8-2.4v-0.1c0-1.5-0.8-2.4-1.8-2.4c-1,0-1.8,0.8-1.8,2.4v0.1   C130.5,22.8,131.3,23.6,132.3,23.6z"></path>
	<path d="M138.4,21.3v-0.1c0-2,1.2-3.1,2.6-3.1c1,0,2,0.6,2.3,1.8l-0.8,0.2c-0.3-0.8-0.9-1.2-1.6-1.2c-0.9,0-1.7,0.8-1.7,2.4v0.1   c0,1.6,0.8,2.4,1.7,2.4c0.7,0,1.3-0.4,1.6-1.2l0.8,0.2c-0.4,1.2-1.3,1.8-2.3,1.8C139.6,24.4,138.4,23.3,138.4,21.3z"></path>
	<path d="M144.1,22.7L144.1,22.7c0-1.1,0.7-1.9,2.2-1.9h1.7v-0.5c0-1-0.5-1.5-1.4-1.5c-0.7,0-1.3,0.4-1.6,1.1l-0.8-0.2   c0.4-1.1,1.3-1.6,2.4-1.6c1.4,0,2.2,0.8,2.2,2.1v4h-0.8v-1c-0.4,0.6-1.1,1.1-2,1.1C144.9,24.4,144.1,23.7,144.1,22.7z M146.2,23.7   c1,0,1.8-0.7,1.8-1.8v-0.5h-1.6c-1,0-1.5,0.5-1.5,1.2C144.9,23.3,145.5,23.7,146.2,23.7z"></path>
	<path d="M150.4,18.2h0.8v1.1c0.3-0.7,1-1.2,1.9-1.2c1.3,0,2.5,1,2.5,3v0.2c0,2-1.2,3-2.5,3c-0.9,0-1.6-0.5-1.9-1.2v3.5h-0.8V18.2z    M153,23.6c1,0,1.8-0.8,1.8-2.4v-0.1c0-1.5-0.8-2.4-1.8-2.4c-1,0-1.8,0.8-1.8,2.4v0.1C151.2,22.8,152,23.6,153,23.6z"></path>
	<path d="M156.8,16.2h0.9v1h-0.9V16.2z M156.8,18.2h0.8v6h-0.8V18.2z"></path>
	<path d="M159.7,22.8V19h-1v-0.7h1v-1.8h0.8v1.8h1.7V19h-1.7v3.7c0,0.6,0.3,0.9,0.8,0.9h0.9v0.7h-1.1   C160.3,24.2,159.7,23.8,159.7,22.8z"></path>
	<path d="M162.9,22.7L162.9,22.7c0-1.1,0.7-1.9,2.2-1.9h1.7v-0.5c0-1-0.5-1.5-1.4-1.5c-0.7,0-1.3,0.4-1.6,1.1l-0.8-0.2   c0.4-1.1,1.3-1.6,2.4-1.6c1.4,0,2.2,0.8,2.2,2.1v4h-0.8v-1c-0.4,0.6-1.1,1.1-2,1.1C163.7,24.4,162.9,23.7,162.9,22.7z M165.1,23.7   c1,0,1.8-0.7,1.8-1.8v-0.5h-1.6c-1,0-1.5,0.5-1.5,1.2C163.8,23.3,164.3,23.7,165.1,23.7z"></path>
	<path d="M169.3,22.9v-7.1h0.8v6.9c0,0.5,0.2,0.7,0.6,0.7h0.3v0.7h-0.5C169.8,24.2,169.3,23.9,169.3,22.9z"></path>
	<path d="M172.1,23.2h0.9v1.1h-0.9V23.2z"></path>
	<path d="M2.5,31.1H0.1v-0.8h5.7v0.8H3.4v7.6H2.5V31.1z"></path>
	<path d="M5.4,35.7v-0.1c0-2,1.2-3.1,2.6-3.1s2.6,1.1,2.6,3.1v0.1c0,2-1.2,3.1-2.6,3.1S5.4,37.7,5.4,35.7z M8,38.1   c1,0,1.8-0.8,1.8-2.4v-0.1C9.8,34,9,33.2,8,33.2S6.2,34,6.2,35.6v0.1C6.2,37.2,7,38.1,8,38.1z"></path>
	<path d="M11.4,35.8v-0.2c0-2,1.2-3,2.5-3c0.9,0,1.6,0.5,1.9,1.2v-3.5h0.8v8.4h-0.8v-1.1c-0.3,0.7-1,1.2-1.9,1.2   C12.6,38.8,11.4,37.8,11.4,35.8z M14.1,38c1,0,1.8-0.8,1.8-2.4v-0.1c0-1.5-0.8-2.4-1.8-2.4c-1,0-1.8,0.8-1.8,2.4v0.1   C12.3,37.2,13.1,38,14.1,38z"></path>
	<path d="M18,37.1L18,37.1c0-1.1,0.7-1.9,2.2-1.9h1.7v-0.5c0-1-0.5-1.5-1.4-1.5c-0.7,0-1.3,0.4-1.6,1.1l-0.8-0.2   c0.4-1.1,1.3-1.6,2.4-1.6c1.4,0,2.2,0.8,2.2,2.1v4h-0.8v-1c-0.4,0.6-1.1,1.1-2,1.1C18.8,38.8,18,38.1,18,37.1z M20.1,38.1   c1,0,1.8-0.7,1.8-1.8v-0.5h-1.6c-1,0-1.5,0.5-1.5,1.2C18.8,37.7,19.3,38.1,20.1,38.1z"></path>
	<path d="M24.2,40.3h0.4c0.6,0,0.8-0.3,1.1-0.9l0.4-1l-2.5-5.7h0.9l1.4,3.5c0.2,0.4,0.4,0.8,0.5,1.4c0.1-0.5,0.3-1,0.4-1.4l1.2-3.4   H29l-2.5,7c-0.3,0.9-0.9,1.4-1.7,1.4h-0.5V40.3z"></path>
	<path d="M32.3,37.1L32.3,37.1c0-1.1,0.7-1.9,2.2-1.9h1.7v-0.5c0-1-0.5-1.5-1.4-1.5c-0.7,0-1.3,0.4-1.6,1.1l-0.8-0.2   c0.4-1.1,1.3-1.6,2.4-1.6c1.4,0,2.2,0.8,2.2,2.1v4h-0.8v-1c-0.4,0.6-1.1,1.1-2,1.1C33.1,38.8,32.3,38.1,32.3,37.1z M34.4,38.1   c1,0,1.8-0.7,1.8-1.8v-0.5h-1.6c-1,0-1.5,0.5-1.5,1.2C33.1,37.7,33.7,38.1,34.4,38.1z"></path>
	<path d="M38.6,32.6h0.8v1c0.4-0.7,1.1-1.1,1.8-1.1c1.2,0,2,0.9,2,2.2v3.9h-0.8v-3.7c0-1-0.6-1.7-1.4-1.7c-0.9,0-1.6,0.8-1.6,1.8   v3.6h-0.8V32.6z"></path>
	<path d="M44.2,35.8v-0.2c0-2,1.2-3,2.5-3c0.9,0,1.6,0.5,1.9,1.2v-3.5h0.8v8.4h-0.8v-1.1c-0.3,0.7-1,1.2-1.9,1.2   C45.4,38.8,44.2,37.8,44.2,35.8z M46.9,38c1,0,1.8-0.8,1.8-2.4v-0.1c0-1.5-0.8-2.4-1.8-2.4c-1,0-1.8,0.8-1.8,2.4v0.1   C45.1,37.2,45.9,38,46.9,38z"></path>
	<path d="M54,33.4h-1.2v-0.7H54v-0.8c0-1.1,0.7-1.5,1.5-1.5h0.8V31h-0.7c-0.5,0-0.9,0.2-0.9,0.9v0.8h1.6v0.7h-1.5v5.3H54V33.4z"></path>
	<path d="M56.8,35.7v-0.1c0-2,1.2-3.1,2.6-3.1s2.6,1.1,2.6,3.1v0.1c0,2-1.2,3.1-2.6,3.1S56.8,37.7,56.8,35.7z M59.4,38.1   c1,0,1.8-0.8,1.8-2.4v-0.1c0-1.6-0.8-2.4-1.8-2.4s-1.8,0.8-1.8,2.4v0.1C57.6,37.2,58.4,38.1,59.4,38.1z"></path>
	<path d="M63.2,32.6H64v1.4c0.4-0.9,1.2-1.5,2.3-1.5v0.8c-1.4,0-2.2,1-2.2,2.5v2.8h-0.8V32.6z"></path>
	<path d="M69.6,39.5c0-0.6,0.4-1.2,0.9-1.4c-0.3-0.2-0.5-0.5-0.5-1c0-0.6,0.4-1,0.9-1.1c-0.5-0.3-0.8-0.9-0.8-1.5c0-1.1,0.9-2,2.1-2   c0.3,0,0.6,0.1,0.8,0.1h1.8v0.7h-1c0.3,0.3,0.5,0.7,0.5,1.2c0,1.1-0.9,2-2.1,2h-0.7c-0.5,0-0.7,0.2-0.7,0.6c0,0.3,0.2,0.6,0.7,0.6   h1.7c1.1,0,1.8,0.8,1.8,1.7c0,1-0.8,1.8-2.1,1.8h-1.3C70.3,41.2,69.6,40.4,69.6,39.5z M71.7,40.5h1.1c0.9,0,1.4-0.5,1.4-1.1   c0-0.6-0.5-1.1-1.2-1.1h-1.4c-0.7,0-1.2,0.5-1.2,1.1C70.3,40,70.8,40.5,71.7,40.5z M72.1,35.9c0.8,0,1.4-0.6,1.4-1.4   c0-0.8-0.6-1.4-1.4-1.4s-1.4,0.6-1.4,1.4C70.7,35.2,71.4,35.9,72.1,35.9z"></path>
	<path d="M78.1,38.8c-1.5,0-2.7-1.1-2.7-3.1v-0.1c0-2,1.2-3.1,2.6-3.1s2.6,1.1,2.6,3.1v0.2h-4.5c0,1.4,0.8,2.3,1.9,2.3   c0.7,0,1.3-0.3,1.6-1l0.8,0.2C80.1,38.3,79.1,38.8,78.1,38.8z M79.8,35.2c-0.1-1.4-0.9-2.1-1.8-2.1s-1.7,0.7-1.8,2.1H79.8z"></path>
	<path d="M81.8,32.6h0.8v1c0.4-0.7,1.1-1.1,1.8-1.1c1.2,0,2,0.9,2,2.2v3.9h-0.8v-3.7c0-1-0.6-1.7-1.4-1.7c-0.9,0-1.6,0.8-1.6,1.8   v3.6h-0.8V32.6z"></path>
	<path d="M90.2,38.8c-1.5,0-2.7-1.1-2.7-3.1v-0.1c0-2,1.2-3.1,2.6-3.1s2.6,1.1,2.6,3.1v0.2h-4.5c0,1.4,0.8,2.3,1.9,2.3   c0.7,0,1.3-0.3,1.6-1l0.8,0.2C92.2,38.3,91.2,38.8,90.2,38.8z M91.9,35.2c-0.1-1.4-0.9-2.1-1.8-2.1s-1.7,0.7-1.8,2.1H91.9z"></path>
	<path d="M93.9,32.6h0.8v1.4c0.4-0.9,1.2-1.5,2.3-1.5v0.8c-1.4,0-2.2,1-2.2,2.5v2.8h-0.8V32.6z"></path>
	<path d="M97.7,37.1L97.7,37.1c0-1.1,0.7-1.9,2.2-1.9h1.7v-0.5c0-1-0.5-1.5-1.4-1.5c-0.7,0-1.3,0.4-1.6,1.1l-0.8-0.2   c0.4-1.1,1.3-1.6,2.4-1.6c1.4,0,2.2,0.8,2.2,2.1v4h-0.8v-1c-0.4,0.6-1.1,1.1-2,1.1C98.5,38.8,97.7,38.1,97.7,37.1z M99.9,38.1   c1,0,1.8-0.7,1.8-1.8v-0.5h-1.6c-1,0-1.5,0.5-1.5,1.2C98.6,37.7,99.1,38.1,99.9,38.1z"></path>
	<path d="M104.5,37.2v-3.8h-1v-0.7h1v-1.8h0.8v1.8h1.7v0.7h-1.7V37c0,0.6,0.3,0.9,0.8,0.9h0.9v0.7h-1.1   C105.1,38.6,104.5,38.2,104.5,37.2z"></path>
	<path d="M108,30.6h0.9v1H108V30.6z M108,32.6h0.8v6H108V32.6z"></path>
	<path d="M110.1,35.7v-0.1c0-2,1.2-3.1,2.6-3.1c1.5,0,2.6,1.1,2.6,3.1v0.1c0,2-1.2,3.1-2.6,3.1C111.2,38.8,110.1,37.7,110.1,35.7z    M112.7,38.1c1,0,1.8-0.8,1.8-2.4v-0.1c0-1.6-0.8-2.4-1.8-2.4c-1,0-1.8,0.8-1.8,2.4v0.1C110.9,37.2,111.7,38.1,112.7,38.1z"></path>
	<path d="M116.5,32.6h0.8v1c0.4-0.7,1.1-1.1,1.8-1.1c1.2,0,2,0.9,2,2.2v3.9h-0.8v-3.7c0-1-0.6-1.7-1.4-1.7c-0.9,0-1.6,0.8-1.6,1.8   v3.6h-0.8V32.6z"></path>
	<path d="M122,37.2l0.7-0.3c0.3,0.8,0.9,1.2,1.7,1.2c0.8,0,1.4-0.4,1.4-1.1c0-0.6-0.5-0.9-1.3-1l-0.8-0.1c-1-0.2-1.7-0.6-1.7-1.5   c0-1,0.8-1.8,2.1-1.8c1,0,1.8,0.4,2.3,1.3l-0.7,0.3c-0.3-0.6-0.9-0.9-1.6-0.9c-0.8,0-1.3,0.4-1.3,1c0,0.6,0.5,0.8,1.1,0.9l0.8,0.1   c1.1,0.2,1.9,0.7,1.9,1.6c0,1-0.8,1.8-2.2,1.8C123.5,38.8,122.5,38.3,122,37.2z"></path>
	<path d="M130.5,37.2v-3.8h-1v-0.7h1v-1.8h0.8v1.8h1.7v0.7h-1.7V37c0,0.6,0.3,0.9,0.8,0.9h0.9v0.7H132   C131.1,38.6,130.5,38.2,130.5,37.2z"></path>
	<path d="M133.7,35.7v-0.1c0-2,1.2-3.1,2.6-3.1c1.5,0,2.6,1.1,2.6,3.1v0.1c0,2-1.2,3.1-2.6,3.1C134.8,38.8,133.7,37.7,133.7,35.7z    M136.3,38.1c1,0,1.8-0.8,1.8-2.4v-0.1c0-1.6-0.8-2.4-1.8-2.4c-1,0-1.8,0.8-1.8,2.4v0.1C134.5,37.2,135.3,38.1,136.3,38.1z"></path>
	<path d="M142.1,35.7v-0.1c0-2,1.2-3.1,2.6-3.1c1,0,2,0.6,2.3,1.8l-0.8,0.2c-0.3-0.8-0.9-1.2-1.6-1.2c-0.9,0-1.7,0.8-1.7,2.4v0.1   c0,1.6,0.8,2.4,1.7,2.4c0.6,0,1.3-0.4,1.6-1.2l0.8,0.2c-0.4,1.2-1.3,1.8-2.3,1.8C143.3,38.8,142.1,37.7,142.1,35.7z"></path>
	<path d="M147.6,35.7v-0.1c0-2,1.2-3.1,2.6-3.1c1.5,0,2.6,1.1,2.6,3.1v0.1c0,2-1.2,3.1-2.6,3.1C148.8,38.8,147.6,37.7,147.6,35.7z    M150.3,38.1c1,0,1.8-0.8,1.8-2.4v-0.1c0-1.6-0.8-2.4-1.8-2.4c-1,0-1.8,0.8-1.8,2.4v0.1C148.5,37.2,149.3,38.1,150.3,38.1z"></path>
	<path d="M154.1,32.6h0.8v1c0.3-0.6,0.9-1.1,1.7-1.1c0.8,0,1.4,0.4,1.7,1.2c0.4-0.8,1-1.2,1.8-1.2c1.2,0,2,0.9,2,2.2v3.9h-0.8v-3.7   c0-1-0.5-1.6-1.3-1.6c-0.9,0-1.4,0.8-1.4,1.8v3.6h-0.8v-3.7c0-1-0.5-1.6-1.3-1.6c-0.9,0-1.4,0.8-1.4,1.8v3.6h-0.8V32.6z"></path>
	<path d="M165.8,38.8c-1.5,0-2.7-1.1-2.7-3.1v-0.1c0-2,1.2-3.1,2.6-3.1c1.5,0,2.6,1.1,2.6,3.1v0.2h-4.5c0,1.4,0.8,2.3,1.9,2.3   c0.7,0,1.3-0.3,1.6-1l0.8,0.2C167.8,38.3,166.8,38.8,165.8,38.8z M167.5,35.2c-0.1-1.4-0.9-2.1-1.8-2.1c-0.9,0-1.7,0.7-1.8,2.1   H167.5z"></path>
	<path d="M169.6,37.6h0.9v1.1h-0.9V37.6z"></path>
</g>
</svg>