<svg xml:space="preserve" style="enable-background:new 0 0 1017 595.3;" viewBox="0 0 1017 595.3" y="0px" x="0px" version="1.0" xmlns:xlink="http://www.w3.org/1999/xlink" xmlns="http://www.w3.org/2000/svg">
<style type="text/css">
	.st0{fill:#F5F5F5;}
	.st1{fill:#FFFFFF;}
	.st2{fill:#003824;}
	.st3{fill:#00BD49;}
	.st4{fill:url(#SVGID_1_);}
	.st5{fill:#A1844B;}
	.st6{fill:#C0C4C2;}
	.st7{fill:url(#SVGID_00000141453603819617675860000007593102851087859876_);}
	.st8{fill:url(#SVGID_00000039096312055794488990000016967387668687320967_);}
	.st9{opacity:0.5;fill:none;stroke:#000000;stroke-miterlimit:10;}
</style>
<g id="Layer_2">
	<rect height="595.3" width="1017" class="st0" y="0" x="-1.3"></rect>
</g>
<g id="Layer_1">
	<rect height="212.7" width="328.8" class="st1" y="194.7" x="134.4"></rect>
	<rect height="212.7" width="298.7" class="st2" y="194.7" x="402"></rect>
	<rect height="212.7" width="47.6" y="194.7" x="86.7"></rect>
	<rect height="212.7" width="63.2" class="st3" y="194.7" x="700.6"></rect>
	
		<linearGradient gradientTransform="matrix(6.123234e-17 1 -1 6.123234e-17 942.3667 -306.0204)" y2="149.1638" x2="713.4072" y1="149.1638" x1="597.709" gradientUnits="userSpaceOnUse" id="SVGID_1_">
		<stop style="stop-color:#DFE1E1" offset="0"></stop>
		<stop style="stop-color:#141515" offset="1"></stop>
	</linearGradient>
	<polygon points="763.8,407.4 763.8,291.7 822.6,291.7 822.6,407.4" class="st4"></polygon>
	<rect height="97" width="62.5" class="st5" y="194.7" x="822.6"></rect>
	
		<rect height="58.8" width="97" class="st6" transform="matrix(-1.836970e-16 1 -1 -1.836970e-16 1036.3977 -550.0081)" y="213.8" x="744.7"></rect>
	
		<linearGradient gradientTransform="matrix(6.123234e-17 -1 1 6.123234e-17 373.2531 1009.5995)" y2="480.633" x2="717.9108" y1="480.633" x1="602.2126" gradientUnits="userSpaceOnUse" id="SVGID_00000062152341222077365880000012451162498112664467_">
		<stop style="stop-color:#F8F4EE" offset="0"></stop>
		<stop style="stop-color:#A1844B" offset="1"></stop>
	</linearGradient>
	<polygon points="885,291.7 885,407.4 822.7,407.4    822.7,291.7" style="fill:url(#SVGID_00000062152341222077365880000012451162498112664467_);"></polygon>
	
		<linearGradient gradientTransform="matrix(6.123234e-17 -1 1 6.123234e-17 373.2531 1009.5995)" y2="542.9981" x2="814.7797" y1="542.9981" x1="602.2126" gradientUnits="userSpaceOnUse" id="SVGID_00000085929253621738770820000015158298949936403867_">
		<stop style="stop-color:#003824;stop-opacity:3.000000e-02" offset="0"></stop>
		<stop style="stop-color:#003824" offset="1"></stop>
	</linearGradient>
	<polygon points="947.4,194.8 947.4,407.4    885.1,407.4 885.1,194.8" style="fill:url(#SVGID_00000085929253621738770820000015158298949936403867_);"></polygon>
	<g>
		<path d="M94.7,201.7h2.8c1.4,0,2.6,0.8,2.6,2.2v0.1c0,0.8-0.4,1.4-1.1,1.7c0.8,0.3,1.4,0.9,1.4,1.9v0.1    c0,1.5-1.2,2.3-2.7,2.3h-2.9V201.7z M97.5,205.3c0.9,0,1.6-0.5,1.6-1.3c0-0.9-0.7-1.3-1.6-1.3h-1.6v2.6H97.5z M97.6,209.1    c1,0,1.7-0.5,1.7-1.4c0-0.9-0.7-1.4-1.7-1.4h-1.7v2.9H97.6z" class="st1"></path>
		<path d="M101.7,208.7v-7h1.1v6.8c0,0.5,0.2,0.7,0.5,0.7h0.3v0.9H103C102.2,210.1,101.7,209.6,101.7,208.7z" class="st1"></path>
		<path d="M104.5,208.5L104.5,208.5c0-1.1,0.7-1.9,2.2-1.9h1.7v-0.4c0-0.9-0.5-1.4-1.3-1.4c-0.7,0-1.2,0.3-1.4,1l-1-0.2    c0.4-1.2,1.4-1.6,2.5-1.6c1.5,0,2.3,0.8,2.3,2.2v3.9h-1v-0.9c-0.4,0.5-1,1-2,1C105.2,210.2,104.5,209.5,104.5,208.5z M106.7,209.3    c0.9,0,1.7-0.7,1.7-1.6v-0.4h-1.5c-0.9,0-1.3,0.4-1.3,1.1C105.5,208.9,106,209.3,106.7,209.3z" class="st1"></path>
		<path d="M110.6,207.1V207c0-2,1.2-3.1,2.7-3.1c1.1,0,2,0.6,2.4,1.8l-1,0.2c-0.3-0.8-0.8-1.1-1.4-1.1    c-0.9,0-1.6,0.7-1.6,2.2v0.1c0,1.4,0.7,2.2,1.6,2.2c0.6,0,1.2-0.4,1.4-1.1l1,0.2c-0.4,1.2-1.3,1.8-2.4,1.8    C111.8,210.2,110.6,209.1,110.6,207.1z" class="st1"></path>
		<path d="M116.6,201.7h1.1v5l2.4-2.6h1.3l-2.4,2.5l2.5,3.5h-1.2l-2-2.8l-0.7,0.7v2.1h-1V201.7z" class="st1"></path>
	</g>
	<g>
		<path d="M707.9,206v-0.2c0-2.7,1.5-4.2,3.6-4.2c1.4,0,2.5,0.8,2.9,1.9l-1.1,0.3c-0.4-0.7-1-1.1-1.9-1.1    c-1.4,0-2.4,1.1-2.4,3.2v0.1c0,2.1,1,3.2,2.4,3.2c1.2,0,2.1-0.9,2.1-2.2v-0.5h-2.3v-0.9h3.3v4.5h-1V209c-0.5,0.8-1.3,1.2-2.3,1.2    C709.5,210.2,707.9,208.7,707.9,206z" class="st1"></path>
		<path d="M716.3,204.1h1v1.3c0.4-0.8,1.2-1.3,2.2-1.3v1.1c-1.3,0-2.1,0.9-2.1,2.3v2.7h-1.1V204.1z" class="st1"></path>
		<path d="M722.9,210.2c-1.5,0-2.8-1.1-2.8-3.1V207c0-2,1.2-3.1,2.7-3.1c1.5,0,2.7,1.1,2.7,3.1v0.3h-4.4    c0,1.3,0.8,2,1.8,2c0.6,0,1.2-0.3,1.5-0.9l1,0.2C724.9,209.7,724,210.2,722.9,210.2z M724.5,206.6c-0.1-1.2-0.8-1.9-1.7-1.9    c-0.8,0-1.6,0.6-1.7,1.9H724.5z" class="st1"></path>
		<path d="M729.1,210.2c-1.5,0-2.8-1.1-2.8-3.1V207c0-2,1.2-3.1,2.7-3.1c1.5,0,2.7,1.1,2.7,3.1v0.3h-4.4    c0,1.3,0.8,2,1.8,2c0.6,0,1.2-0.3,1.5-0.9l1,0.2C731.2,209.7,730.2,210.2,729.1,210.2z M730.7,206.6c-0.1-1.2-0.8-1.9-1.7-1.9    c-0.8,0-1.6,0.6-1.7,1.9H730.7z" class="st1"></path>
		<path d="M733,204.1h1v0.9c0.4-0.7,1-1,1.8-1c1.2,0,2.1,0.9,2.1,2.2v3.9h-1.1v-3.7c0-1-0.5-1.5-1.3-1.5    c-0.8,0-1.4,0.7-1.4,1.6v3.6H733V204.1z" class="st1"></path>
		<path d="M741.4,208.3l1.1-0.3c0.3,0.8,0.8,1.1,1.3,1.1c0.6,0,1.3-0.3,1.3-1.6v-5.8h1.1v5.9c0,1.9-1.2,2.6-2.4,2.6    C742.6,210.2,741.7,209.5,741.4,208.3z" class="st1"></path>
		<path d="M747.9,204.1h1v1.3c0.4-0.8,1.2-1.3,2.2-1.3v1.1c-1.3,0-2.1,0.9-2.1,2.3v2.7h-1.1V204.1z" class="st1"></path>
		<path d="M751.3,208.8h1.1v1.3h-1.1V208.8z" class="st1"></path>
	</g>
	<g>
		<path d="M829.9,201.7h2.8c1.4,0,2.6,0.8,2.6,2.2v0.1c0,0.8-0.4,1.4-1.1,1.7c0.8,0.3,1.4,0.9,1.4,1.9v0.1    c0,1.5-1.2,2.3-2.7,2.3h-2.9V201.7z M832.7,205.3c0.9,0,1.6-0.5,1.6-1.3c0-0.9-0.7-1.3-1.6-1.3h-1.6v2.6H832.7z M832.8,209.1    c1,0,1.7-0.5,1.7-1.4c0-0.9-0.7-1.4-1.7-1.4h-1.7v2.9H832.8z" class="st1"></path>
		<path d="M836.8,204.1h1v1.3c0.4-0.8,1.2-1.3,2.2-1.3v1.1c-1.3,0-2.1,0.9-2.1,2.3v2.7h-1.1V204.1z" class="st1"></path>
		<path d="M840.6,207.1V207c0-2,1.2-3.1,2.7-3.1c1.5,0,2.7,1.1,2.7,3.1v0.1c0,2-1.2,3.1-2.7,3.1    C841.8,210.2,840.6,209.1,840.6,207.1z M843.3,209.3c0.9,0,1.7-0.8,1.7-2.2V207c0-1.5-0.7-2.2-1.7-2.2c-0.9,0-1.7,0.8-1.7,2.2v0.1    C841.7,208.5,842.4,209.3,843.3,209.3z" class="st1"></path>
		<path d="M847.3,204.1h1v0.9c0.4-0.7,1-1,1.8-1c1.2,0,2.1,0.9,2.1,2.2v3.9H851v-3.7c0-1-0.5-1.5-1.3-1.5    c-0.8,0-1.4,0.7-1.4,1.6v3.6h-1.1V204.1z" class="st1"></path>
		<path d="M853.1,209.2l3.3-4.2h-3.3v-0.9h4.6v0.8l-3.3,4.2h3.3v0.9h-4.6V209.2z" class="st1"></path>
		<path d="M861.3,210.2c-1.5,0-2.8-1.1-2.8-3.1V207c0-2,1.2-3.1,2.7-3.1c1.5,0,2.7,1.1,2.7,3.1v0.3h-4.4    c0,1.3,0.8,2,1.8,2c0.6,0,1.2-0.3,1.5-0.9l1,0.2C863.4,209.7,862.4,210.2,861.3,210.2z M862.9,206.6c-0.1-1.2-0.8-1.9-1.7-1.9    c-0.8,0-1.6,0.6-1.7,1.9H862.9z" class="st1"></path>
	</g>
	<g>
		<path d="M410.1,206v-0.2c0-2.7,1.5-4.2,3.6-4.2c1.4,0,2.5,0.8,2.9,1.9l-1.1,0.3c-0.3-0.7-1-1.1-1.9-1.1    c-1.4,0-2.4,1.1-2.4,3.2v0.1c0,2.1,1,3.2,2.4,3.2c1.2,0,2.1-0.9,2.1-2.2v-0.5h-2.3v-0.9h3.3v4.5h-1V209c-0.5,0.8-1.3,1.2-2.3,1.2    C411.7,210.2,410.1,208.7,410.1,206z" class="st1"></path>
		<path d="M418.5,204.1h1v1.3c0.4-0.8,1.2-1.3,2.2-1.3v1.1c-1.3,0-2.1,0.9-2.1,2.3v2.7h-1.1V204.1z" class="st1"></path>
		<path d="M425.1,210.2c-1.5,0-2.8-1.1-2.8-3.1V207c0-2,1.2-3.1,2.7-3.1c1.5,0,2.7,1.1,2.7,3.1v0.3h-4.4    c0,1.3,0.8,2,1.8,2c0.6,0,1.2-0.3,1.5-0.9l1,0.2C427.2,209.7,426.2,210.2,425.1,210.2z M426.7,206.6c-0.1-1.2-0.8-1.9-1.7-1.9    c-0.8,0-1.6,0.6-1.7,1.9H426.7z" class="st1"></path>
		<path d="M431.4,210.2c-1.5,0-2.8-1.1-2.8-3.1V207c0-2,1.2-3.1,2.7-3.1c1.5,0,2.7,1.1,2.7,3.1v0.3h-4.4    c0,1.3,0.8,2,1.8,2c0.6,0,1.2-0.3,1.5-0.9l1,0.2C433.4,209.7,432.5,210.2,431.4,210.2z M433,206.6c-0.1-1.2-0.8-1.9-1.7-1.9    c-0.8,0-1.6,0.6-1.7,1.9H433z" class="st1"></path>
		<path d="M435.2,204.1h1v0.9c0.4-0.7,1-1,1.8-1c1.2,0,2.1,0.9,2.1,2.2v3.9H439v-3.7c0-1-0.5-1.5-1.3-1.5    c-0.8,0-1.4,0.7-1.4,1.6v3.6h-1.1V204.1z" class="st1"></path>
		<path d="M443.5,208.3l1-0.4c0.4,0.8,1.1,1.3,2.1,1.3c1.1,0,1.9-0.6,1.9-1.5c0-0.9-0.7-1.2-1.3-1.3l-1.1-0.2    c-1.2-0.2-2.4-0.7-2.4-2.2v-0.1c0-1.4,1.2-2.3,2.8-2.3c1.3,0,2.4,0.6,3,1.8l-1,0.4c-0.4-0.8-1.2-1.2-2-1.2c-1,0-1.7,0.5-1.7,1.4    c0,0.8,0.6,1.1,1.5,1.3l1.1,0.2c1.1,0.2,2.2,0.7,2.2,2.1v0.1c0,1.5-1.3,2.5-3,2.5C445.3,210.2,444.1,209.6,443.5,208.3z" class="st1"></path>
		<path d="M450.9,204.1h1v1.3c0.4-0.8,1.2-1.3,2.2-1.3v1.1c-1.3,0-2.1,0.9-2.1,2.3v2.7h-1.1V204.1z" class="st1"></path>
		<path d="M454.3,208.8h1.1v1.3h-1.1V208.8z" class="st1"></path>
	</g>
	<g>
		<path d="M151.4,201.7l-1.9,8.4h-1.1l-1.3-4.7c-0.2-0.7-0.3-1.2-0.4-1.9c-0.1,0.6-0.3,1.2-0.4,1.9l-1.3,4.7h-1.1l-1.9-8.4h1.2    l1,4.7c0.1,0.7,0.2,1.2,0.3,1.8c0.1-0.6,0.2-1.2,0.4-1.8l1.3-4.7h1l1.3,4.7c0.2,0.7,0.3,1.2,0.4,1.8c0.1-0.6,0.2-1.2,0.3-1.8    l1-4.7H151.4z"></path>
		<path d="M157.7,206.2v3.9h-1.1v-3.7c0-1-0.5-1.5-1.3-1.5c-0.8,0-1.4,0.7-1.4,1.6v3.6h-1.1v-8.4h1.1v3.1c0.4-0.6,1-0.9,1.7-0.9    C156.9,203.9,157.7,204.8,157.7,206.2z"></path>
		<path d="M159.2,201.9h1.1v1.2h-1.1V201.9z M159.2,204.1h1.1v6h-1.1V204.1z"></path>
		<path d="M162.3,208.5V205h-0.9v-0.9h1v-1.8h1v1.8h1.7v0.9h-1.6v3.3c0,0.6,0.3,0.8,0.8,0.8h0.8v0.9h-1.1    C162.9,210.1,162.3,209.6,162.3,208.5z"></path>
		<path d="M168.4,210.2c-1.5,0-2.8-1.1-2.8-3.1V207c0-2,1.2-3.1,2.7-3.1c1.5,0,2.7,1.1,2.7,3.1v0.3h-4.4c0,1.3,0.8,2,1.8,2    c0.6,0,1.2-0.3,1.5-0.9l1,0.2C170.5,209.7,169.5,210.2,168.4,210.2z M170,206.6c-0.1-1.2-0.8-1.9-1.7-1.9c-0.8,0-1.6,0.6-1.7,1.9    H170z"></path>
	</g>
	<g>
		<path d="M211.9,150.2V150c0-2.7,1.5-4.2,3.4-4.2c1.3,0,2.4,0.7,2.9,2.2l-1.1,0.3c-0.4-1-1.1-1.4-1.8-1.4c-1.3,0-2.2,1.1-2.2,3.2    v0.1c0,2.1,0.9,3.2,2.2,3.2c0.8,0,1.5-0.4,1.8-1.4l1.1,0.3c-0.5,1.4-1.7,2.2-2.9,2.2C213.4,154.4,211.9,152.9,211.9,150.2z"></path>
		<path d="M218.9,151.4v-0.1c0-2,1.2-3.1,2.7-3.1c1.5,0,2.7,1.1,2.7,3.1v0.1c0,2-1.2,3.1-2.7,3.1    C220.1,154.5,218.9,153.4,218.9,151.4z M221.6,153.6c0.9,0,1.7-0.8,1.7-2.2v-0.1c0-1.5-0.7-2.2-1.7-2.2c-0.9,0-1.7,0.8-1.7,2.2    v0.1C219.9,152.8,220.7,153.6,221.6,153.6z"></path>
		<path d="M225.6,148.3h1v1.3c0.4-0.8,1.2-1.3,2.2-1.3v1.1c-1.3,0-2.1,0.9-2.1,2.3v2.7h-1.1V148.3z"></path>
		<path d="M232.1,154.5c-1.5,0-2.8-1.1-2.8-3.1v-0.1c0-2,1.2-3.1,2.7-3.1c1.5,0,2.7,1.1,2.7,3.1v0.3h-4.4c0,1.3,0.8,2,1.8,2    c0.6,0,1.2-0.3,1.5-0.9l1,0.2C234.2,153.9,233.2,154.5,232.1,154.5z M233.7,150.8c-0.1-1.2-0.8-1.9-1.7-1.9    c-0.8,0-1.6,0.6-1.7,1.9H233.7z"></path>
		<path d="M238.2,151.4v-0.1c0-2,1.2-3.1,2.7-3.1c1.1,0,2,0.6,2.4,1.8l-1,0.2c-0.3-0.8-0.8-1.1-1.4-1.1c-0.9,0-1.6,0.7-1.6,2.2v0.1    c0,1.4,0.7,2.2,1.6,2.2c0.6,0,1.2-0.4,1.4-1.1l1,0.2c-0.4,1.2-1.3,1.8-2.4,1.8C239.4,154.4,238.2,153.3,238.2,151.4z"></path>
		<path d="M243.9,151.4v-0.1c0-2,1.2-3.1,2.7-3.1c1.5,0,2.7,1.1,2.7,3.1v0.1c0,2-1.2,3.1-2.7,3.1    C245.1,154.5,243.9,153.4,243.9,151.4z M246.6,153.6c0.9,0,1.7-0.8,1.7-2.2v-0.1c0-1.5-0.7-2.2-1.7-2.2c-0.9,0-1.7,0.8-1.7,2.2    v0.1C245,152.8,245.7,153.6,246.6,153.6z"></path>
		<path d="M250.5,152.9v-7h1.1v6.8c0,0.5,0.2,0.7,0.5,0.7h0.3v0.9h-0.6C251.1,154.3,250.5,153.9,250.5,152.9z"></path>
		<path d="M253.2,151.4v-0.1c0-2,1.2-3.1,2.7-3.1c1.5,0,2.7,1.1,2.7,3.1v0.1c0,2-1.2,3.1-2.7,3.1    C254.4,154.5,253.2,153.4,253.2,151.4z M255.9,153.6c0.9,0,1.7-0.8,1.7-2.2v-0.1c0-1.5-0.7-2.2-1.7-2.2c-0.9,0-1.7,0.8-1.7,2.2    v0.1C254.2,152.8,255,153.6,255.9,153.6z"></path>
		<path d="M264.5,154.3h-1v-0.9c-0.4,0.7-1,1-1.7,1c-1.2,0-2.1-0.9-2.1-2.2v-3.9h1.1v3.7c0,1,0.5,1.5,1.3,1.5c0.8,0,1.4-0.7,1.4-1.6    v-3.6h1.1V154.3z"></path>
		<path d="M266.1,148.3h1v1.3c0.4-0.8,1.2-1.3,2.2-1.3v1.1c-1.3,0-2.1,0.9-2.1,2.3v2.7h-1.1V148.3z"></path>
		<path d="M270,152.9l0.9-0.4c0.3,0.7,0.8,1.1,1.6,1.1c0.8,0,1.3-0.4,1.3-0.9c0-0.6-0.5-0.8-1.1-0.9l-0.8-0.1    c-1.1-0.2-1.7-0.7-1.7-1.6c0-1,0.8-1.8,2.2-1.8c1,0,1.9,0.4,2.4,1.3l-0.9,0.4c-0.3-0.6-0.8-0.9-1.5-0.9c-0.7,0-1.2,0.4-1.2,0.9    c0,0.5,0.4,0.7,1,0.8l0.8,0.1c1.2,0.2,1.9,0.7,1.9,1.7c0,1-0.8,1.8-2.3,1.8C271.5,154.4,270.6,154,270,152.9z"></path>
	</g>
	<g>
		<path d="M347,116.8l1-0.4c0.4,0.8,1.1,1.3,2.1,1.3c1.1,0,1.9-0.6,1.9-1.5c0-0.9-0.7-1.2-1.3-1.3l-1.1-0.2    c-1.2-0.2-2.4-0.7-2.4-2.2v-0.1c0-1.4,1.2-2.3,2.8-2.3c1.3,0,2.4,0.6,3,1.8l-1,0.4c-0.4-0.8-1.2-1.2-2-1.2c-1,0-1.7,0.5-1.7,1.4    c0,0.8,0.6,1.1,1.5,1.3l1.1,0.2c1.1,0.2,2.2,0.7,2.2,2.1v0.1c0,1.5-1.3,2.5-3,2.5C348.7,118.6,347.6,118,347,116.8z"></path>
		<path d="M354.6,110.1h4.8v1.1h-3.7v2.5h3.1v1h-3.1v2.8h3.7v1.1h-4.8V110.1z"></path>
		<path d="M361,110.1h2.8c1.4,0,2.6,0.8,2.6,2.2v0.1c0,0.8-0.4,1.4-1.1,1.7c0.8,0.3,1.4,0.9,1.4,1.9v0.1c0,1.5-1.2,2.3-2.7,2.3H361    V110.1z M363.7,113.7c0.9,0,1.6-0.5,1.6-1.3c0-0.9-0.7-1.3-1.6-1.3h-1.6v2.6H363.7z M363.9,117.5c1,0,1.7-0.5,1.7-1.4    c0-0.9-0.7-1.4-1.7-1.4h-1.7v2.9H363.9z"></path>
		<path d="M370.5,112.5h1v0.9c0.3-0.6,1-1.1,1.9-1.1c1.3,0,2.5,1,2.5,3v0.3c0,2-1.2,3-2.5,3c-0.9,0-1.5-0.4-1.8-1v3.3h-1.1V112.5z     M373.1,117.7c0.9,0,1.6-0.7,1.6-2.2v-0.1c0-1.4-0.7-2.2-1.6-2.2c-0.9,0-1.6,0.8-1.6,2.2v0.1C371.5,117,372.2,117.7,373.1,117.7z"></path>
		<path d="M377.1,112.5h1v1.3c0.4-0.8,1.2-1.3,2.2-1.3v1.1c-1.3,0-2.1,0.9-2.1,2.3v2.7h-1.1V112.5z"></path>
		<path d="M381.5,110.4h1.1v1.2h-1.1V110.4z M381.6,112.5h1.1v6h-1.1V112.5z"></path>
		<path d="M384.2,112.5h1v0.9c0.3-0.5,0.9-1,1.7-1c0.7,0,1.3,0.4,1.6,1c0.4-0.7,1-1,1.7-1c1.2,0,2,0.9,2,2.2v3.9h-1.1v-3.7    c0-0.9-0.4-1.5-1.2-1.5c-0.8,0-1.3,0.7-1.3,1.6v3.6h-1.1v-3.7c0-0.9-0.4-1.5-1.2-1.5c-0.8,0-1.3,0.7-1.3,1.6v3.6h-1.1V112.5z"></path>
		<path d="M393.6,117L393.6,117c0-1.1,0.7-1.9,2.2-1.9h1.7v-0.4c0-0.9-0.5-1.4-1.3-1.4c-0.7,0-1.2,0.3-1.4,1l-1-0.2    c0.5-1.2,1.4-1.6,2.5-1.6c1.5,0,2.3,0.8,2.3,2.2v3.9h-1v-0.9c-0.4,0.5-1,1-2,1C394.4,118.6,393.6,118,393.6,117z M395.8,117.8    c0.9,0,1.7-0.7,1.7-1.6v-0.4h-1.5c-0.9,0-1.3,0.4-1.3,1.1C394.6,117.4,395.1,117.8,395.8,117.8z"></path>
		<path d="M400.1,112.5h1v1.3c0.4-0.8,1.2-1.3,2.2-1.3v1.1c-1.3,0-2.1,0.9-2.1,2.3v2.7h-1.1V112.5z"></path>
		<path d="M404.8,120h0.5c0.5,0,0.8-0.2,1-0.9l0.3-0.8l-2.5-5.8h1.2l1.3,3.4c0.2,0.4,0.3,0.8,0.5,1.3c0.1-0.5,0.2-1,0.4-1.3l1.1-3.3    h1.1l-2.5,7c-0.3,0.9-0.9,1.4-1.8,1.4h-0.6V120z"></path>
		<path d="M413,115.6v-0.1c0-2,1.2-3.1,2.7-3.1c1.1,0,2,0.6,2.4,1.8l-1,0.2c-0.3-0.8-0.8-1.1-1.4-1.1c-0.9,0-1.6,0.7-1.6,2.2v0.1    c0,1.4,0.7,2.2,1.6,2.2c0.6,0,1.2-0.4,1.4-1.1l1,0.2c-0.4,1.2-1.3,1.8-2.4,1.8C414.2,118.6,413,117.6,413,115.6z"></path>
		<path d="M418.7,115.6v-0.1c0-2,1.2-3.1,2.7-3.1c1.5,0,2.7,1.1,2.7,3.1v0.1c0,2-1.2,3.1-2.7,3.1    C419.9,118.7,418.7,117.6,418.7,115.6z M421.4,117.8c0.9,0,1.7-0.8,1.7-2.2v-0.1c0-1.5-0.7-2.2-1.7-2.2c-0.9,0-1.7,0.8-1.7,2.2    v0.1C419.8,117,420.5,117.8,421.4,117.8z"></path>
		<path d="M425.4,117.1v-7h1.1v6.8c0,0.5,0.2,0.7,0.5,0.7h0.3v0.9h-0.6C425.9,118.5,425.4,118.1,425.4,117.1z"></path>
		<path d="M428,115.6v-0.1c0-2,1.2-3.1,2.7-3.1c1.5,0,2.7,1.1,2.7,3.1v0.1c0,2-1.2,3.1-2.7,3.1C429.2,118.7,428,117.6,428,115.6z     M430.7,117.8c0.9,0,1.7-0.8,1.7-2.2v-0.1c0-1.5-0.7-2.2-1.7-2.2c-0.9,0-1.7,0.8-1.7,2.2v0.1C429,117,429.8,117.8,430.7,117.8z"></path>
		<path d="M439.3,118.5h-1v-0.9c-0.4,0.7-1,1-1.7,1c-1.2,0-2.1-0.9-2.1-2.2v-3.9h1.1v3.7c0,1,0.5,1.5,1.3,1.5c0.8,0,1.4-0.7,1.4-1.6    v-3.6h1.1V118.5z"></path>
		<path d="M441,112.5h1v1.3c0.4-0.8,1.2-1.3,2.2-1.3v1.1c-1.3,0-2.1,0.9-2.1,2.3v2.7H441V112.5z"></path>
		<path d="M444.9,117.1l0.9-0.4c0.3,0.7,0.8,1.1,1.6,1.1c0.8,0,1.3-0.4,1.3-0.9c0-0.6-0.5-0.8-1.1-0.9l-0.8-0.1    c-1.1-0.2-1.7-0.7-1.7-1.6c0-1,0.8-1.8,2.2-1.8c1,0,1.9,0.4,2.4,1.3l-0.9,0.4c-0.3-0.6-0.8-0.9-1.5-0.9c-0.7,0-1.2,0.4-1.2,0.9    c0,0.5,0.4,0.7,1,0.8l0.8,0.1c1.2,0.2,1.9,0.7,1.9,1.7c0,1-0.8,1.8-2.3,1.8C446.4,118.6,445.4,118.2,444.9,117.1z"></path>
	</g>
	<g>
		<path d="M472.9,494.3l1-0.4c0.4,0.8,1.1,1.3,2.1,1.3c1.1,0,1.9-0.6,1.9-1.5c0-0.9-0.7-1.2-1.3-1.3l-1.1-0.2    c-1.2-0.2-2.4-0.7-2.4-2.2v-0.1c0-1.4,1.2-2.3,2.8-2.3c1.3,0,2.4,0.6,3,1.8l-1,0.4c-0.4-0.8-1.2-1.2-2-1.2c-1,0-1.7,0.5-1.7,1.4    c0,0.8,0.6,1.1,1.5,1.3l1.1,0.2c1.1,0.2,2.2,0.7,2.2,2.1v0.1c0,1.5-1.3,2.5-3,2.5C474.7,496.2,473.5,495.6,472.9,494.3z"></path>
		<path d="M480.5,487.7h4.8v1.1h-3.7v2.5h3.1v1h-3.1v2.8h3.7v1.1h-4.8V487.7z"></path>
		<path d="M486.9,487.7h2.8c1.4,0,2.6,0.8,2.6,2.2v0.1c0,0.8-0.4,1.4-1.1,1.7c0.8,0.3,1.4,0.9,1.4,1.9v0.1c0,1.5-1.2,2.3-2.7,2.3    h-2.9V487.7z M489.7,491.3c0.9,0,1.6-0.5,1.6-1.3c0-0.9-0.7-1.3-1.6-1.3h-1.6v2.6H489.7z M489.8,495.1c1,0,1.7-0.5,1.7-1.4    c0-0.9-0.7-1.4-1.7-1.4h-1.7v2.9H489.8z"></path>
		<path d="M496,493.1V493c0-2,1.2-3.1,2.7-3.1c1.1,0,2,0.6,2.4,1.8l-1,0.2c-0.3-0.8-0.8-1.1-1.4-1.1c-0.9,0-1.6,0.7-1.6,2.2v0.1    c0,1.4,0.7,2.2,1.6,2.2c0.6,0,1.2-0.4,1.4-1.1l1,0.2c-0.4,1.2-1.3,1.8-2.4,1.8C497.3,496.2,496,495.1,496,493.1z"></path>
		<path d="M501.8,493.1V493c0-2,1.2-3.1,2.7-3.1c1.5,0,2.7,1.1,2.7,3.1v0.1c0,2-1.2,3.1-2.7,3.1C503,496.3,501.8,495.1,501.8,493.1z     M504.5,495.4c0.9,0,1.7-0.8,1.7-2.2v-0.1c0-1.5-0.7-2.2-1.7-2.2c-0.9,0-1.7,0.8-1.7,2.2v0.1C502.8,494.6,503.6,495.4,504.5,495.4    z"></path>
		<path d="M508.4,494.7v-7h1.1v6.8c0,0.5,0.2,0.7,0.5,0.7h0.3v0.9h-0.6C509,496.1,508.4,495.7,508.4,494.7z"></path>
		<path d="M511,493.1V493c0-2,1.2-3.1,2.7-3.1c1.5,0,2.7,1.1,2.7,3.1v0.1c0,2-1.2,3.1-2.7,3.1C512.3,496.3,511,495.1,511,493.1z     M513.8,495.4c0.9,0,1.7-0.8,1.7-2.2v-0.1c0-1.5-0.7-2.2-1.7-2.2c-0.9,0-1.7,0.8-1.7,2.2v0.1C512.1,494.6,512.8,495.4,513.8,495.4    z"></path>
		<path d="M522.4,496.1h-1v-0.9c-0.4,0.7-1,1-1.7,1c-1.2,0-2.1-0.9-2.1-2.2v-3.9h1.1v3.7c0,1,0.5,1.5,1.3,1.5c0.8,0,1.4-0.7,1.4-1.6    v-3.6h1.1V496.1z"></path>
		<path d="M524,490.1h1v1.3c0.4-0.8,1.2-1.3,2.2-1.3v1.1c-1.3,0-2.1,0.9-2.1,2.3v2.7H524V490.1z"></path>
		<path d="M530.4,494.7l0.9-0.4c0.3,0.7,0.8,1.1,1.6,1.1c0.8,0,1.3-0.4,1.3-1c0-0.6-0.5-0.8-1.1-0.9l-0.8-0.1    c-1.1-0.2-1.7-0.7-1.7-1.6c0-1,0.8-1.8,2.2-1.8c1,0,1.9,0.4,2.4,1.3l-0.9,0.4c-0.3-0.6-0.8-0.9-1.5-0.9c-0.7,0-1.2,0.4-1.2,0.9    c0,0.5,0.4,0.7,1,0.8l0.8,0.1c1.2,0.2,1.9,0.7,1.9,1.7c0,1-0.8,1.8-2.3,1.8C532,496.2,531,495.8,530.4,494.7z"></path>
		<path d="M536.3,490.1h1v0.9c0.3-0.6,1-1.1,1.9-1.1c1.3,0,2.5,1,2.5,3v0.3c0,2-1.2,3-2.5,3c-0.9,0-1.5-0.4-1.8-1v3.3h-1.1V490.1z     M539,495.3c0.9,0,1.6-0.7,1.6-2.2v-0.1c0-1.4-0.7-2.2-1.6-2.2c-0.9,0-1.6,0.8-1.6,2.2v0.1C537.4,494.6,538.1,495.3,539,495.3z"></path>
		<path d="M542.7,494.5L542.7,494.5c0-1.1,0.7-1.9,2.2-1.9h1.7v-0.4c0-0.9-0.5-1.4-1.3-1.4c-0.7,0-1.2,0.3-1.4,1l-1-0.2    c0.4-1.2,1.4-1.6,2.5-1.6c1.5,0,2.3,0.8,2.3,2.2v3.9h-1v-0.9c-0.4,0.5-1,1-2,1C543.5,496.2,542.7,495.5,542.7,494.5z M544.9,495.4    c0.9,0,1.7-0.7,1.7-1.6v-0.4h-1.5c-0.9,0-1.3,0.5-1.3,1.1C543.7,495,544.2,495.4,544.9,495.4z"></path>
		<path d="M548.8,493.1V493c0-2,1.2-3.1,2.7-3.1c1.1,0,2,0.6,2.4,1.8l-1,0.2c-0.3-0.8-0.8-1.1-1.4-1.1c-0.9,0-1.6,0.7-1.6,2.2v0.1    c0,1.4,0.7,2.2,1.6,2.2c0.6,0,1.2-0.4,1.4-1.1l1,0.2c-0.4,1.2-1.3,1.8-2.4,1.8C550,496.2,548.8,495.1,548.8,493.1z"></path>
		<path d="M557.3,496.3c-1.5,0-2.8-1.1-2.8-3.1V493c0-2,1.2-3.1,2.7-3.1c1.5,0,2.7,1.1,2.7,3.1v0.3h-4.4c0,1.3,0.8,2,1.8,2    c0.6,0,1.2-0.3,1.5-0.9l1,0.2C559.4,495.7,558.4,496.3,557.3,496.3z M558.9,492.6c-0.1-1.2-0.8-1.9-1.7-1.9    c-0.8,0-1.6,0.6-1.7,1.9H558.9z"></path>
	</g>
	<g>
		<path d="M771.5,208.9l1-0.4c0.4,0.8,1.1,1.3,2.1,1.3c1.1,0,1.9-0.6,1.9-1.5c0-0.9-0.7-1.2-1.3-1.3l-1.1-0.2    c-1.2-0.2-2.4-0.7-2.4-2.2v-0.1c0-1.4,1.2-2.3,2.8-2.3c1.3,0,2.4,0.6,3,1.8l-1,0.4c-0.4-0.8-1.2-1.2-2-1.2c-1,0-1.7,0.5-1.7,1.4    c0,0.8,0.6,1.1,1.5,1.3l1.1,0.2c1.1,0.2,2.2,0.7,2.2,2.1v0.1c0,1.5-1.3,2.5-3,2.5C773.3,210.8,772.1,210.2,771.5,208.9z"></path>
		<path d="M778.8,202.5h1.1v1.2h-1.1V202.5z M778.9,204.7h1.1v6h-1.1V204.7z"></path>
		<path d="M781.5,209.3v-7h1.1v6.8c0,0.5,0.2,0.7,0.5,0.7h0.3v0.9h-0.6C782.1,210.7,781.5,210.2,781.5,209.3z"></path>
		<path d="M783.6,204.7h1.2l1.3,3.7c0.1,0.3,0.2,0.7,0.4,1.2c0.1-0.5,0.2-0.9,0.4-1.2l1.3-3.7h1.1l-2.3,6h-1.1L783.6,204.7z"></path>
		<path d="M792.6,210.8c-1.5,0-2.8-1.1-2.8-3.1v-0.1c0-2,1.2-3.1,2.7-3.1c1.5,0,2.7,1.1,2.7,3.1v0.3h-4.4c0,1.3,0.8,2,1.8,2    c0.6,0,1.2-0.3,1.5-0.9l1,0.2C794.6,210.3,793.7,210.8,792.6,210.8z M794.2,207.2c-0.1-1.2-0.8-1.9-1.7-1.9    c-0.8,0-1.6,0.6-1.7,1.9H794.2z"></path>
		<path d="M796.5,204.7h1v1.3c0.4-0.8,1.2-1.3,2.2-1.3v1.1c-1.3,0-2.1,0.9-2.1,2.3v2.7h-1.1V204.7z"></path>
	</g>
	<path d="M86.7,161.1h311.6c2,0,3.7,2,3.7,4.4v29.2" class="st9"></path>
	<path d="M86.7,194.7v-64.1c0-2.4,1.8-4.4,4-4.4h605.9c2.2,0,4,2,4,4.4v64.2" class="st9"></path>
	<path d="M946.3,407.4v64.6c0,2.2-2,3.9-4.4,3.9H91.1c-2.4,0-4.4-1.8-4.4-3.9v-64.6" class="st9"></path>
	<g>
		<path d="M891.9,201.8h4.8v1.1h-3.7v2.6h3.1v1.1h-3.1v3.7h-1.1V201.8z" class="st0"></path>
		<path d="M896.9,208.7L896.9,208.7c0-1.1,0.7-1.9,2.2-1.9h1.7v-0.4c0-0.9-0.5-1.4-1.3-1.4c-0.7,0-1.2,0.3-1.4,1l-1-0.2    c0.4-1.2,1.4-1.6,2.5-1.6c1.5,0,2.3,0.8,2.3,2.2v3.9h-1v-0.9c-0.4,0.5-1,1-2,1C897.7,210.4,896.9,209.7,896.9,208.7z M899.1,209.5    c0.9,0,1.7-0.7,1.7-1.6v-0.4h-1.5c-0.9,0-1.3,0.4-1.3,1.1C898,209.1,898.4,209.5,899.1,209.5z" class="st0"></path>
		<path d="M903,207.4v-0.3c0-2,1.2-3,2.5-3c0.8,0,1.5,0.4,1.8,1v-3.3h1.1v8.4h-1v-0.9c-0.3,0.6-1,1.1-1.9,1.1    C904.2,210.4,903,209.4,903,207.4z M905.7,209.4c0.9,0,1.6-0.8,1.6-2.2v-0.1c0-1.4-0.7-2.2-1.6-2.2c-0.9,0-1.6,0.7-1.6,2.2v0.1    C904.1,208.7,904.8,209.4,905.7,209.4z" class="st0"></path>
		<path d="M912.4,210.4c-1.5,0-2.8-1.1-2.8-3.1v-0.1c0-2,1.2-3.1,2.7-3.1c1.5,0,2.7,1.1,2.7,3.1v0.3h-4.4    c0,1.3,0.8,2,1.8,2c0.6,0,1.2-0.3,1.5-0.9l1,0.2C914.5,209.8,913.5,210.4,912.4,210.4z M914,206.8c-0.1-1.2-0.8-1.9-1.7-1.9    c-0.8,0-1.6,0.6-1.7,1.9H914z" class="st0"></path>
		<path d="M915.9,207.4v-0.3c0-2,1.2-3,2.5-3c0.8,0,1.5,0.4,1.8,1v-3.3h1.1v8.4h-1v-0.9c-0.3,0.6-1,1.1-1.9,1.1    C917.1,210.4,915.9,209.4,915.9,207.4z M918.6,209.4c0.9,0,1.6-0.8,1.6-2.2v-0.1c0-1.4-0.7-2.2-1.6-2.2c-0.9,0-1.6,0.7-1.6,2.2    v0.1C916.9,208.7,917.7,209.4,918.6,209.4z" class="st0"></path>
		<path d="M924.9,208.5l1-0.4c0.4,0.8,1.1,1.3,2.1,1.3c1.1,0,1.9-0.6,1.9-1.5c0-0.9-0.7-1.2-1.3-1.3l-1.1-0.2    c-1.2-0.2-2.4-0.7-2.4-2.2V204c0-1.4,1.2-2.3,2.8-2.3c1.3,0,2.4,0.6,3,1.8l-1,0.4c-0.4-0.8-1.2-1.2-2-1.2c-1,0-1.7,0.5-1.7,1.4    c0,0.8,0.6,1.1,1.5,1.3l1.1,0.2c1.1,0.2,2.2,0.7,2.2,2.1v0.1c0,1.5-1.3,2.5-3,2.5C926.7,210.4,925.5,209.7,924.9,208.5z" class="st0"></path>
		<path d="M932.3,204.2h1v1.3c0.4-0.8,1.2-1.3,2.2-1.3v1.1c-1.3,0-2.1,0.9-2.1,2.3v2.7h-1.1V204.2z" class="st0"></path>
		<path d="M935.6,209h1.1v1.3h-1.1V209z" class="st0"></path>
	</g>
</g>
</svg>