<svg xml:space="preserve" style="enable-background:new 0 0 1017 595.3;" viewBox="0 0 1017 595.3" y="0px" x="0px" version="1.0" xmlns:xlink="http://www.w3.org/1999/xlink" xmlns="http://www.w3.org/2000/svg">
<style type="text/css">
	.st0{fill:#F5F5F5;}
	.st1{fill:#FFFFFF;}
	.st2{fill:#FCFDFC;}
	.st3{fill:#FAFAFA;}
	.st4{fill:#F7F8F7;}
	.st5{fill:#F4F5F5;}
	.st6{fill:#EFF0F0;}
	.st7{fill:#EAEBEB;}
	.st8{fill:#DFE1E1;}
	.st9{fill:#D5D7D7;}
	.st10{fill:#CACECC;}
	.st11{fill:#C0C4C2;}
	.st12{fill:#B5BAB8;}
	.st13{fill:#ABB0AE;}
	.st14{fill:#A0A6A4;}
	.st15{fill:#969C9A;}
	.st16{fill:#8B9290;}
	.st17{fill:#818886;}
	.st18{fill:#777E7C;}
	.st19{fill:#6D7471;}
	.st20{fill:#636967;}
	.st21{fill:#595F5D;}
	.st22{fill:#4F5452;}
	.st23{fill:#454A48;}
	.st24{fill:#3B3F3E;}
	.st25{fill:#313533;}
	.st26{fill:#282A29;}
	.st27{fill:#1E201F;}
	.st28{fill:#141515;}
	.st29{fill:#0A0B0A;}
	.st30{fill:#FBFDFB;}
	.st31{fill:#F8FCF8;}
	.st32{fill:#F4FAF5;}
	.st33{fill:#F2F9F1;}
	.st34{fill:#EAF6EA;}
	.st35{fill:#DBEFDD;}
	.st36{fill:#CCEACC;}
	.st37{fill:#C3EAC3;}
	.st38{fill:#B2E4B2;}
	.st39{fill:#9DE79D;}
	.st40{fill:#89E58D;}
	.st41{fill:#75E780;}
	.st42{fill:#63E377;}
	.st43{fill:#52E073;}
	.st44{fill:#37DC63;}
	.st45{fill:#25D95C;}
	.st46{fill:#15D350;}
	.st47{fill:#0DCB4B;}
	.st48{fill:#03BD49;}
	.st49{fill:#02AD44;}
	.st50{fill:#05A140;}
	.st51{fill:#038D39;}
	.st52{fill:#047839;}
	.st53{fill:#036436;}
	.st54{fill:#025130;}
	.st55{fill:#003D26;}
	.st56{fill:#003825;}
	.st57{fill:#01291B;}
	.st58{fill:#00140D;}
	.st59{fill:#FDFDFC;}
	.st60{fill:#FCFBF8;}
	.st61{fill:#FAF8F5;}
	.st62{fill:#F8F6F2;}
	.st63{fill:#F8F4EE;}
	.st64{fill:#EFE9DC;}
	.st65{fill:#E7DDCB;}
	.st66{fill:#DED2BB;}
	.st67{fill:#D6C6A8;}
	.st68{fill:#CEBC97;}
	.st69{fill:#C6B086;}
	.st70{fill:#BEA574;}
	.st71{fill:#B59A63;}
	.st72{fill:#AD8F52;}
	.st73{fill:#A1844B;}
	.st74{fill:#8B7241;}
	.st75{fill:#796439;}
	.st76{fill:#685631;}
	.st77{fill:#564729;}
	.st78{fill:#453921;}
	.st79{fill:#352B19;}
	.st80{fill:#231D10;}
	.st81{fill:#100E08;}
	.st82{fill:#FFFDFA;}
	.st83{fill:#FEFAF6;}
	.st84{fill:#FEF8F1;}
	.st85{fill:#FFF6EC;}
	.st86{fill:#FDF3E7;}
	.st87{fill:#FCE8CF;}
	.st88{fill:#FADCB7;}
	.st89{fill:#F8D1A0;}
	.st90{fill:#F7C588;}
	.st91{fill:#F5B970;}
	.st92{fill:#F3AE58;}
	.st93{fill:#F19E38;}
	.st94{fill:#F09628;}
	.st95{fill:#ED8B11;}
	.st96{fill:#D77D0F;}
	.st97{fill:#BF6F0D;}
	.st98{fill:#A7610C;}
	.st99{fill:#8F530A;}
	.st100{fill:#774508;}
	.st101{fill:#5E3706;}
	.st102{fill:#482A05;}
	.st103{fill:#301C03;}
	.st104{fill:#170E02;}
	.st105{fill:#FFFEFA;}
	.st106{fill:#FFFDF5;}
	.st107{fill:#FFFBF0;}
	.st108{fill:#FFFAEA;}
	.st109{fill:#FFF9E6;}
	.st110{fill:#FFF3CC;}
	.st111{fill:#FFEDB3;}
	.st112{fill:#FFE799;}
	.st113{fill:#FFE17F;}
	.st114{fill:#FFDB65;}
	.st115{fill:#FFD54D;}
	.st116{fill:#FFCF34;}
	.st117{fill:#FFC919;}
	.st118{fill:#FEC201;}
	.st119{fill:#E6B001;}
	.st120{fill:#CB9C00;}
	.st121{fill:#B48901;}
	.st122{fill:#997501;}
	.st123{fill:#806200;}
	.st124{fill:#664E01;}
	.st125{fill:#4D3B00;}
	.st126{fill:#332700;}
	.st127{fill:#1A1400;}
	.st128{fill:#FBFDFF;}
	.st129{fill:#F5FAFF;}
	.st130{fill:#F1F8FF;}
	.st131{fill:#EBF5FF;}
	.st132{fill:#E5F3FF;}
	.st133{fill:#CCE7FF;}
	.st134{fill:#B3DBFF;}
	.st135{fill:#99CEFF;}
	.st136{fill:#80C3FF;}
	.st137{fill:#66B8FF;}
	.st138{fill:#4EACFF;}
	.st139{fill:#32A0FF;}
	.st140{fill:#148FFF;}
	.st141{fill:#0088FF;}
	.st142{fill:#007AE6;}
	.st143{fill:#016DCC;}
	.st144{fill:#015FB3;}
	.st145{fill:#005299;}
	.st146{fill:#004480;}
	.st147{fill:#003666;}
	.st148{fill:#01294D;}
	.st149{fill:#001B33;}
	.st150{fill:#000E1A;}
	.st151{fill:#FFFBFA;}
	.st152{fill:#FEF7F6;}
	.st153{fill:#FEF3F1;}
	.st154{fill:#FEEEED;}
	.st155{fill:#FDEBE8;}
	.st156{fill:#FAD8D1;}
	.st157{fill:#F8C4BA;}
	.st158{fill:#F5B0A3;}
	.st159{fill:#F39D8C;}
	.st160{fill:#F08975;}
	.st161{fill:#EE765D;}
	.st162{fill:#EB583C;}
	.st163{fill:#E94E2F;}
	.st164{fill:#E73B18;}
	.st165{fill:#D03615;}
	.st166{fill:#B92F12;}
	.st167{fill:#A22911;}
	.st168{fill:#8A240E;}
	.st169{fill:#731D0B;}
	.st170{fill:#5C170A;}
	.st171{fill:#451207;}
	.st172{fill:#2E0C05;}
	.st173{fill:#170602;}
</style>
<g id="Layer_2">
	<rect height="595.3" width="1017" class="st0" y="0" x="-1.3"></rect>
</g>
<g id="Layer_1">
	<rect height="23.2" width="30.9" class="st1" y="150.6" x="63.8"></rect>
	<rect height="23.2" width="30.9" class="st2" y="150.6" x="94.6"></rect>
	<rect height="23.2" width="30.9" class="st3" y="150.6" x="125.5"></rect>
	<rect height="23.2" width="30.9" class="st4" y="150.6" x="156.3"></rect>
	<rect height="23.2" width="30.9" class="st5" y="150.6" x="187.2"></rect>
	<rect height="23.2" width="30.9" class="st6" y="150.6" x="218"></rect>
	<rect height="23.2" width="30.9" class="st7" y="150.6" x="248.9"></rect>
	<rect height="23.2" width="30.9" class="st8" y="150.6" x="279.7"></rect>
	<rect height="23.2" width="30.9" class="st9" y="150.6" x="310.6"></rect>
	<rect height="23.2" width="30.9" class="st10" y="150.6" x="341.5"></rect>
	<rect height="23.2" width="30.9" class="st11" y="150.6" x="372.3"></rect>
	<rect height="23.2" width="30.9" class="st12" y="150.6" x="403.2"></rect>
	<rect height="23.2" width="30.9" class="st13" y="150.6" x="434"></rect>
	<rect height="23.2" width="30.9" class="st14" y="150.6" x="464.9"></rect>
	<rect height="23.2" width="30.9" class="st15" y="150.6" x="495.7"></rect>
	<rect height="23.2" width="30.9" class="st16" y="150.6" x="526.6"></rect>
	<rect height="23.2" width="30.9" class="st17" y="150.6" x="557.4"></rect>
	<rect height="23.2" width="30.9" class="st18" y="150.6" x="588.3"></rect>
	<rect height="23.2" width="30.9" class="st19" y="150.6" x="619.2"></rect>
	<rect height="23.2" width="30.9" class="st20" y="150.6" x="650"></rect>
	<rect height="23.2" width="30.9" class="st21" y="150.6" x="680.9"></rect>
	<rect height="23.2" width="30.9" class="st22" y="150.6" x="711.7"></rect>
	<rect height="23.2" width="30.9" class="st23" y="150.6" x="742.6"></rect>
	<rect height="23.2" width="30.9" class="st24" y="150.6" x="773.4"></rect>
	<rect height="23.2" width="30.9" class="st25" y="150.6" x="804.3"></rect>
	<rect height="23.2" width="30.9" class="st26" y="150.6" x="835.1"></rect>
	<rect height="23.2" width="30.9" class="st27" y="150.6" x="866"></rect>
	<rect height="23.2" width="30.9" class="st28" y="150.6" x="896.9"></rect>
	<rect height="23.2" width="30.9" class="st29" y="150.6" x="927.7"></rect>
	<rect height="23.2" width="30.9" class="st30" y="196.9" x="63.8"></rect>
	<rect height="23.2" width="30.9" class="st31" y="196.9" x="94.6"></rect>
	<rect height="23.2" width="30.9" class="st32" y="196.9" x="125.5"></rect>
	<rect height="23.2" width="30.9" class="st33" y="196.9" x="156.3"></rect>
	<rect height="23.2" width="30.9" class="st34" y="196.9" x="187.2"></rect>
	<rect height="23.2" width="30.9" class="st35" y="196.9" x="218"></rect>
	<rect height="23.2" width="30.9" class="st36" y="196.9" x="248.9"></rect>
	<rect height="23.2" width="30.9" class="st37" y="196.9" x="279.7"></rect>
	<rect height="23.2" width="30.9" class="st38" y="196.9" x="310.6"></rect>
	<rect height="23.2" width="30.9" class="st39" y="196.9" x="341.5"></rect>
	<rect height="23.2" width="30.9" class="st40" y="196.9" x="372.3"></rect>
	<rect height="23.2" width="30.9" class="st41" y="196.9" x="403.2"></rect>
	<rect height="23.2" width="30.9" class="st42" y="196.9" x="434"></rect>
	<rect height="23.2" width="30.9" class="st43" y="196.9" x="464.9"></rect>
	<rect height="23.2" width="30.9" class="st44" y="196.9" x="495.7"></rect>
	<rect height="23.2" width="30.9" class="st45" y="196.9" x="526.6"></rect>
	<rect height="23.2" width="30.9" class="st46" y="196.9" x="557.4"></rect>
	<rect height="23.2" width="30.9" class="st47" y="196.9" x="588.3"></rect>
	<rect height="23.2" width="30.9" class="st48" y="196.9" x="619.2"></rect>
	<rect height="23.2" width="30.9" class="st49" y="196.9" x="650"></rect>
	<rect height="23.2" width="30.9" class="st50" y="196.9" x="680.9"></rect>
	<rect height="23.2" width="30.9" class="st51" y="196.9" x="711.7"></rect>
	<rect height="23.2" width="30.9" class="st52" y="196.9" x="742.6"></rect>
	<rect height="23.2" width="30.9" class="st53" y="196.9" x="773.4"></rect>
	<rect height="23.2" width="30.9" class="st54" y="196.9" x="804.3"></rect>
	<rect height="23.2" width="30.9" class="st55" y="196.9" x="835.1"></rect>
	<rect height="23.2" width="30.9" class="st56" y="196.9" x="866"></rect>
	<rect height="23.2" width="30.9" class="st57" y="196.9" x="896.9"></rect>
	<rect height="23.2" width="30.9" class="st58" y="196.9" x="927.7"></rect>
	<rect height="23.2" width="30.9" class="st59" y="243.2" x="63.8"></rect>
	<rect height="23.2" width="30.9" class="st60" y="243.2" x="94.6"></rect>
	<rect height="23.2" width="30.9" class="st61" y="243.2" x="125.5"></rect>
	<rect height="23.2" width="30.9" class="st62" y="243.2" x="156.3"></rect>
	<rect height="23.2" width="30.9" class="st63" y="243.2" x="187.2"></rect>
	<rect height="23.2" width="30.9" class="st64" y="243.2" x="218"></rect>
	<rect height="23.2" width="30.9" class="st65" y="243.2" x="248.9"></rect>
	<rect height="23.2" width="30.9" class="st66" y="243.2" x="279.7"></rect>
	<rect height="23.2" width="30.9" class="st67" y="243.2" x="310.6"></rect>
	<rect height="23.2" width="30.9" class="st68" y="243.2" x="341.5"></rect>
	<rect height="23.2" width="30.9" class="st69" y="243.2" x="372.3"></rect>
	<rect height="23.2" width="30.9" class="st70" y="243.2" x="403.2"></rect>
	<rect height="23.2" width="30.9" class="st71" y="243.2" x="434"></rect>
	<rect height="23.2" width="30.9" class="st72" y="243.2" x="464.9"></rect>
	<rect height="23.2" width="30.9" class="st73" y="243.2" x="495.7"></rect>
	<rect height="23.2" width="30.9" class="st74" y="243.2" x="526.6"></rect>
	<rect height="23.2" width="30.9" class="st75" y="243.2" x="557.4"></rect>
	<rect height="23.2" width="30.9" class="st76" y="243.2" x="588.3"></rect>
	<rect height="23.2" width="30.9" class="st77" y="243.2" x="619.2"></rect>
	<rect height="23.2" width="30.9" class="st78" y="243.2" x="650"></rect>
	<rect height="23.2" width="30.9" class="st79" y="243.2" x="680.9"></rect>
	<rect height="23.2" width="30.9" class="st80" y="243.2" x="711.7"></rect>
	<rect height="23.2" width="30.9" class="st81" y="243.2" x="742.6"></rect>
	<rect height="23.2" width="30.9" class="st82" y="289.5" x="63.8"></rect>
	<rect height="23.2" width="30.9" class="st83" y="289.5" x="94.6"></rect>
	<rect height="23.2" width="30.9" class="st84" y="289.5" x="125.5"></rect>
	<rect height="23.2" width="30.9" class="st85" y="289.5" x="156.3"></rect>
	<rect height="23.2" width="30.9" class="st86" y="289.5" x="187.2"></rect>
	<rect height="23.2" width="30.9" class="st87" y="289.5" x="218"></rect>
	<rect height="23.2" width="30.9" class="st88" y="289.5" x="248.9"></rect>
	<rect height="23.2" width="30.9" class="st89" y="289.5" x="279.7"></rect>
	<rect height="23.2" width="30.9" class="st90" y="289.5" x="310.6"></rect>
	<rect height="23.2" width="30.9" class="st91" y="289.5" x="341.5"></rect>
	<rect height="23.2" width="30.9" class="st92" y="289.5" x="372.3"></rect>
	<rect height="23.2" width="30.9" class="st93" y="289.5" x="403.2"></rect>
	<rect height="23.2" width="30.9" class="st94" y="289.5" x="434"></rect>
	<rect height="23.2" width="30.9" class="st95" y="289.5" x="464.9"></rect>
	<rect height="23.2" width="30.9" class="st96" y="289.5" x="495.7"></rect>
	<rect height="23.2" width="30.9" class="st97" y="289.5" x="526.6"></rect>
	<rect height="23.2" width="30.9" class="st98" y="289.5" x="557.4"></rect>
	<rect height="23.2" width="30.9" class="st99" y="289.5" x="588.3"></rect>
	<rect height="23.2" width="30.9" class="st100" y="289.5" x="619.2"></rect>
	<rect height="23.2" width="30.9" class="st101" y="289.5" x="650"></rect>
	<rect height="23.2" width="30.9" class="st102" y="289.5" x="680.9"></rect>
	<rect height="23.2" width="30.9" class="st103" y="289.5" x="711.7"></rect>
	<rect height="23.2" width="30.9" class="st104" y="289.5" x="742.6"></rect>
	<rect height="23.2" width="30.9" class="st105" y="335.8" x="63.8"></rect>
	<rect height="23.2" width="30.9" class="st106" y="335.8" x="94.6"></rect>
	<rect height="23.2" width="30.9" class="st107" y="335.8" x="125.5"></rect>
	<rect height="23.2" width="30.9" class="st108" y="335.8" x="156.3"></rect>
	<rect height="23.2" width="30.9" class="st109" y="335.8" x="187.2"></rect>
	<rect height="23.2" width="30.9" class="st110" y="335.8" x="218"></rect>
	<rect height="23.2" width="30.9" class="st111" y="335.8" x="248.9"></rect>
	<rect height="23.2" width="30.9" class="st112" y="335.8" x="279.7"></rect>
	<rect height="23.2" width="30.9" class="st113" y="335.8" x="310.6"></rect>
	<rect height="23.2" width="30.9" class="st114" y="335.8" x="341.5"></rect>
	<rect height="23.2" width="30.9" class="st115" y="335.8" x="372.3"></rect>
	<rect height="23.2" width="30.9" class="st116" y="335.8" x="403.2"></rect>
	<rect height="23.2" width="30.9" class="st117" y="335.8" x="434"></rect>
	<rect height="23.2" width="30.9" class="st118" y="335.8" x="464.9"></rect>
	<rect height="23.2" width="30.9" class="st119" y="335.8" x="495.7"></rect>
	<rect height="23.2" width="30.9" class="st120" y="335.8" x="526.6"></rect>
	<rect height="23.2" width="30.9" class="st121" y="335.8" x="557.4"></rect>
	<rect height="23.2" width="30.9" class="st122" y="335.8" x="588.3"></rect>
	<rect height="23.2" width="30.9" class="st123" y="335.8" x="619.2"></rect>
	<rect height="23.2" width="30.9" class="st124" y="335.8" x="650"></rect>
	<rect height="23.2" width="30.9" class="st125" y="335.8" x="680.9"></rect>
	<rect height="23.2" width="30.9" class="st126" y="335.8" x="711.7"></rect>
	<rect height="23.2" width="30.9" class="st127" y="335.8" x="742.6"></rect>
	<rect height="23.2" width="30.9" class="st128" y="382.2" x="63.8"></rect>
	<rect height="23.2" width="30.9" class="st129" y="382.2" x="94.6"></rect>
	<rect height="23.2" width="30.9" class="st130" y="382.2" x="125.5"></rect>
	<rect height="23.2" width="30.9" class="st131" y="382.2" x="156.3"></rect>
	<rect height="23.2" width="30.9" class="st132" y="382.2" x="187.2"></rect>
	<rect height="23.2" width="30.9" class="st133" y="382.2" x="218"></rect>
	<rect height="23.2" width="30.9" class="st134" y="382.2" x="248.9"></rect>
	<rect height="23.2" width="30.9" class="st135" y="382.2" x="279.7"></rect>
	<rect height="23.2" width="30.9" class="st136" y="382.2" x="310.6"></rect>
	<rect height="23.2" width="30.9" class="st137" y="382.2" x="341.5"></rect>
	<rect height="23.2" width="30.9" class="st138" y="382.2" x="372.3"></rect>
	<rect height="23.2" width="30.9" class="st139" y="382.2" x="403.2"></rect>
	<rect height="23.2" width="30.9" class="st140" y="382.2" x="434"></rect>
	<rect height="23.2" width="30.9" class="st141" y="382.2" x="464.9"></rect>
	<rect height="23.2" width="30.9" class="st142" y="382.2" x="495.7"></rect>
	<rect height="23.2" width="30.9" class="st143" y="382.2" x="526.6"></rect>
	<rect height="23.2" width="30.9" class="st144" y="382.2" x="557.4"></rect>
	<rect height="23.2" width="30.9" class="st145" y="382.2" x="588.3"></rect>
	<rect height="23.2" width="30.9" class="st146" y="382.2" x="619.2"></rect>
	<rect height="23.2" width="30.9" class="st147" y="382.2" x="650"></rect>
	<rect height="23.2" width="30.9" class="st148" y="382.2" x="680.9"></rect>
	<rect height="23.2" width="30.9" class="st149" y="382.2" x="711.7"></rect>
	<rect height="23.2" width="30.9" class="st150" y="382.2" x="742.6"></rect>
	<rect height="23.2" width="30.9" class="st151" y="428.5" x="63.8"></rect>
	<rect height="23.2" width="30.9" class="st152" y="428.5" x="94.6"></rect>
	<rect height="23.2" width="30.9" class="st153" y="428.5" x="125.5"></rect>
	<rect height="23.2" width="30.9" class="st154" y="428.5" x="156.3"></rect>
	<rect height="23.2" width="30.9" class="st155" y="428.5" x="187.2"></rect>
	<rect height="23.2" width="30.9" class="st156" y="428.5" x="218"></rect>
	<rect height="23.2" width="30.9" class="st157" y="428.5" x="248.9"></rect>
	<rect height="23.2" width="30.9" class="st158" y="428.5" x="279.7"></rect>
	<rect height="23.2" width="30.9" class="st159" y="428.5" x="310.6"></rect>
	<rect height="23.2" width="30.9" class="st160" y="428.5" x="341.5"></rect>
	<rect height="23.2" width="30.9" class="st161" y="428.5" x="372.3"></rect>
	<rect height="23.2" width="30.9" class="st162" y="428.5" x="403.2"></rect>
	<rect height="23.2" width="30.9" class="st163" y="428.5" x="434"></rect>
	<rect height="23.2" width="30.9" class="st164" y="428.5" x="464.9"></rect>
	<rect height="23.2" width="30.9" class="st165" y="428.5" x="495.7"></rect>
	<rect height="23.2" width="30.9" class="st166" y="428.5" x="526.6"></rect>
	<rect height="23.2" width="30.9" class="st167" y="428.5" x="557.4"></rect>
	<rect height="23.2" width="30.9" class="st168" y="428.5" x="588.3"></rect>
	<rect height="23.2" width="30.9" class="st169" y="428.5" x="619.2"></rect>
	<rect height="23.2" width="30.9" class="st170" y="428.5" x="650"></rect>
	<rect height="23.2" width="30.9" class="st171" y="428.5" x="680.9"></rect>
	<rect height="23.2" width="30.9" class="st172" y="428.5" x="711.7"></rect>
	<rect height="23.2" width="30.9" class="st173" y="428.5" x="742.6"></rect>
	<circle r="2.4" cy="209" cx="881.4" class="st1"></circle>
	<circle r="2.4" cy="209" cx="634.6" class="st1"></circle>
	<circle r="2.4" cy="254.8" cx="511.2" class="st1"></circle>
	<circle r="2.4" cy="301.1" cx="418.6" class="st1"></circle>
	<circle r="2.4" cy="347.4" cx="480.3" class="st1"></circle>
	<circle r="2.4" cy="393.7" cx="449.5" class="st1"></circle>
	<circle r="2.4" cy="440.1" cx="418.6" class="st1"></circle>
</g>
</svg>