<svg xmlns="http://www.w3.org/2000/svg" viewBox="0 0 360 360"><defs><style>.cls-1{fill:#ededed;}.cls-2{fill:#ef3529;}</style></defs><title>p-dont-4</title><g id="Lager_2" data-name="Lager 2"><g id="Lager_1-2" data-name="Lager 1"><rect class="cls-1" width="360" height="360"/><path d="M226.85,137.31h-93.7a9.26,9.26,0,0,0-9.25,9.25v59a9.26,9.26,0,0,0,9.25,9.25h93.7a9.26,9.26,0,0,0,9.25-9.25v-59A9.26,9.26,0,0,0,226.85,137.31Zm-93.7,4.77h93.7a4.48,4.48,0,0,1,4.47,4.47v7.32H128.67v-7.32A4.48,4.48,0,0,1,133.15,142.08ZM226.85,210h-93.7a4.48,4.48,0,0,1-4.47-4.47V158.64H231.33v46.88A4.48,4.48,0,0,1,226.85,210Z"/><rect x="203.06" y="191.53" width="15.05" height="4.77"/><rect x="140.45" y="191.53" width="15.05" height="4.77"/><rect x="140.45" y="177.85" width="30.26" height="4.77"/><path d="M260,36.13H100A24.59,24.59,0,0,0,75.46,60.7V291.38A24.59,24.59,0,0,0,100,315.94H260a24.59,24.59,0,0,0,24.56-24.56V60.7A24.59,24.59,0,0,0,260,36.13ZM100,46.66H260a14.05,14.05,0,0,1,14,14V83.76H86V60.7A14.05,14.05,0,0,1,100,46.66ZM274,94.28V257.1H86V94.28ZM260,305.42H100a14.05,14.05,0,0,1-14-14V267.62H274v23.76A14.05,14.05,0,0,1,260,305.42Z"/><rect x="168.22" y="280.91" width="23.56" height="10.53"/><rect class="cls-2" x="-73.14" y="179.5" width="506.29" height="1" transform="translate(-74.56 180) rotate(-45)"/><rect class="cls-2" x="179.5" y="-73.14" width="1" height="506.29" transform="translate(-74.56 180) rotate(-45)"/></g></g></svg>