<?xml version="1.0" encoding="utf-8"?>
<!-- Generator: Adobe Illustrator 21.0.2, SVG Export Plug-In . SVG Version: 6.00 Build 0)  -->
<svg version="1.1" id="Lager_1" xmlns="http://www.w3.org/2000/svg" xmlns:xlink="http://www.w3.org/1999/xlink" x="0px" y="0px"
	 viewBox="0 0 360 360" style="enable-background:new 0 0 360 360;" xml:space="preserve">
<style type="text/css">
	.st0{fill:#EDEDED;}
</style>
<title>p-do-4</title>
<rect class="st0" width="360" height="360"/>
<g>
	<path d="M240.8,94.1H123.1c-6.4,0-11.6,5.2-11.6,11.6v74.1c0,6.4,5.2,11.6,11.6,11.6h117.8c6.4,0,11.6-5.2,11.6-11.6v-74.1
		C252.4,99.3,247.2,94.1,240.8,94.1z M123.1,100.1h117.8c3.1,0,5.6,2.5,5.6,5.6v9.2h-129v-9.2C117.4,102.6,120,100.1,123.1,100.1z
		 M240.8,185.5H123.1c-3.1,0-5.6-2.5-5.6-5.6v-58.9h129v58.9C246.4,182.9,243.9,185.5,240.8,185.5L240.8,185.5z"/>
	<rect x="210.9" y="162.3" width="18.9" height="6"/>
	<rect x="132.2" y="162.3" width="18.9" height="6"/>
	<rect x="132.2" y="145.1" width="38" height="6"/>
</g>
<g>
	<path d="M90.1,246.5v0.5c0,7.4-4.4,11.1-10.7,11.1h-7.5v-22.8h7.5C85.7,235.3,90.1,239,90.1,246.5z M85.6,246.5c0-4.9-2.3-7-6.2-7
		h-3v14.4h3c3.9,0,6.2-2.1,6.2-7V246.5z"/>
	<path d="M93,235.5h4.2v4.2H93V235.5z M93,241.8h4.2v16.3H93V241.8z"/>
	<path d="M99.8,260.3c0-1.5,0.7-2.7,1.8-3.5c-0.8-0.7-1.3-1.7-1.3-2.9c0-1.7,0.9-2.9,2.3-3.6c-0.8-0.9-1.3-2.1-1.3-3.3
		c0-3.2,2.7-5.6,6.3-5.6c0.9,0,1.6,0.1,2.4,0.4h5.6v3.3h-2.1c0.3,0.6,0.4,1.2,0.4,1.9c0,3.2-2.6,5.6-6.2,5.6h-2.4
		c-0.9,0-1.3,0.4-1.3,1.1c0,0.6,0.4,1.1,1.4,1.1h5.1c3.2,0,5.4,2.2,5.4,5c0,2.9-2.3,5.3-6.1,5.3h-4.1C102,265.1,99.8,263,99.8,260.3
		z M109.3,261.8c1.7,0,2.5-0.8,2.5-1.9c0-1.1-0.8-1.8-2.1-1.8h-4.1c-1.2,0-2,0.8-2,1.8c0,1.1,0.9,1.9,2.5,1.9H109.3z M110,247.1
		c0-1.4-1.1-2.5-2.5-2.5c-1.4,0-2.5,1-2.5,2.5c0,1.4,1.1,2.5,2.5,2.5C108.9,249.5,110,248.4,110,247.1z"/>
	<path d="M117.9,235.5h4.2v4.2h-4.2V235.5z M117.9,241.8h4.2v16.3h-4.2V241.8z"/>
	<path d="M126.6,253.2v-7.8h-2.2v-3.6h2.4v-4.9h3.9v4.9h4.2v3.6h-4v7.1c0,1.4,0.7,2,1.9,2h2.1v3.6h-3.2
		C128.5,258.1,126.6,256.5,126.6,253.2z"/>
	<path d="M136.8,253.7v-0.2c0-2.7,1.9-5.2,6.3-5.2h4v-0.5c0-2-1.1-3-2.9-3c-1.5,0-2.6,0.7-3.1,2.1l-3.8-0.7c1.3-3.5,4.2-4.7,7.2-4.7
		c4.3,0,6.7,2.4,6.7,6.1v10.5h-3.9v-1.8c-1,1-2.6,2.1-5.1,2.1C138.9,258.4,136.8,256.4,136.8,253.7z M147.1,251.4V251h-3.5
		c-1.8,0-2.6,0.8-2.6,2.1c0,1.3,0.9,2.1,2.5,2.1C145.5,255.1,147.1,253.7,147.1,251.4z"/>
	<path d="M154.7,253.8v-18.5h4.2v17.8c0,1,0.4,1.4,1.1,1.4h0.9v3.6h-2C156.3,258.1,154.7,256.6,154.7,253.8z"/>
	<path d="M170.2,241.8h3.9v1.6c0.9-1.1,2.4-2,4.6-2c3.7,0,7,2.6,7,7.9v1.2c0,5.3-3.4,7.9-6.9,7.9c-2.1,0-3.5-0.9-4.4-1.9v8.1h-4.2
		V241.8z M181.6,250v-0.2c0-3.1-1.6-4.8-3.7-4.8c-2.1,0-3.6,1.7-3.6,4.8v0.2c0,3.2,1.6,4.8,3.6,4.8C180,254.8,181.6,253.2,181.6,250
		z"/>
	<path d="M187.8,253.7v-0.2c0-2.7,1.9-5.2,6.3-5.2h4v-0.5c0-2-1.1-3-2.9-3c-1.5,0-2.6,0.7-3.1,2.1l-3.8-0.7c1.3-3.5,4.2-4.7,7.2-4.7
		c4.3,0,6.7,2.4,6.7,6.1v10.5h-3.9v-1.8c-1,1-2.6,2.1-5.1,2.1C189.9,258.4,187.8,256.4,187.8,253.7z M198.2,251.4V251h-3.5
		c-1.8,0-2.6,0.8-2.6,2.1c0,1.3,0.9,2.1,2.5,2.1C196.6,255.1,198.2,253.7,198.2,251.4z"/>
	<path d="M206.2,261h1.5c1.1-0.1,1.9-0.4,2.4-1.9l0.3-0.9l-6.6-16.5h4.6l3.1,8.6c0.3,0.9,0.6,1.8,1,3.3c0.3-1.5,0.5-2.5,0.8-3.4
		l2.5-8.5h4.3l-6.3,18.8c-0.9,2.7-2.8,4-5.5,4h-2V261z"/>
	<path d="M222.3,241.8h3.9v1.8c0.9-1.1,2.4-2.1,4.6-2.1c1.8,0,3.3,0.7,4.2,2.2c1.1-1.6,2.8-2.2,4.6-2.2c3.5,0,5.8,2.4,5.8,6v10.6
		h-4.2v-9.7c0-2.1-0.9-3.3-2.5-3.3c-1.8,0-2.8,1.5-2.8,3.6v9.5h-4.2v-9.7c0-2.1-0.8-3.3-2.4-3.3c-1.8,0-2.8,1.5-2.8,3.6v9.5h-4.2
		V241.8z"/>
	<path d="M256,258.6c-4.3,0-8-3.1-8-8.5v-0.3c0-5.4,3.5-8.5,7.8-8.5c4.3,0,7.8,3.1,7.8,8.6v1.1H252c0.1,2.5,1.8,4,4.1,4
		c1.3,0,2.6-0.5,3.3-1.8l3.9,0.7C262.1,256.9,259.1,258.6,256,258.6z M259.5,248.3c-0.2-2.4-1.9-3.7-3.7-3.7c-1.8,0-3.4,1.2-3.6,3.7
		H259.5z"/>
	<path d="M266.5,241.8h3.9v1.8c1.1-1.5,2.8-2.1,4.4-2.1c3.5,0,5.7,2.4,5.7,6v10.6h-4.2v-9.6c0-2.2-1-3.4-2.7-3.4c-1.8,0-3,1.5-3,3.7
		v9.3h-4.2V241.8z"/>
	<path d="M284.9,253.2v-7.8h-2.2v-3.6h2.4v-4.9h3.9v4.9h4.2v3.6h-4v7.1c0,1.4,0.7,2,1.9,2h2.1v3.6h-3.2
		C286.8,258.1,284.9,256.5,284.9,253.2z"/>
</g>
</svg>
