<svg xml:space="preserve" style="enable-background:new 0 0 360 360;" viewBox="0 0 360 360" y="0px" x="0px" id="Lager_1" version="1.1" xmlns:xlink="http://www.w3.org/1999/xlink" xmlns="http://www.w3.org/2000/svg">
<style type="text/css">
	.st0{fill:#EEEEEE;}
	.st1{fill:none;stroke:#B3B3B3;stroke-width:0.5;stroke-miterlimit:10;}
</style>
<g id="Lager_1-2">
	<rect height="360" width="360" class="st0" y="0"></rect>
</g>
<g>
	<path d="M181.9,258l-9.1,6.8c-4.3-3.7-9.8-4.4-12.9-4.4c-3.1,0-6.3,0.9-6.8,3.1c-0.5,2.2,1.5,3.8,5,4.8c3.9,1.1,7.5,2,13,3.6   c8.2,2.3,13.8,5.9,13.8,14.1c0,11.3-10,17.2-23.5,17.2c-13.4,0-22.6-7-25.3-10.3l9.6-7.2c6.8,5.9,11.5,6.7,15.4,6.7   c4.5,0,8.7-1,9.3-3.5c0.4-2-1.3-3.7-5.1-4.6c-4.3-1-8-1.8-12.1-2.9c-11.1-2.9-14.2-9.4-14.2-15.1c0-8,7.4-16.2,21-16.2   C173.7,250,181.9,258,181.9,258 M239.9,250.8h-40.6v50.7h41.3v-11.7h-27.1v-8.2h18.7v-11.2h-18.7v-8.1h26.3V250.8z M188.8,313.2   h3.2v-74.1h-3.2V313.2z M246,313.2h3.2v-74.1H246V313.2z M256.4,301.5H289c8.7,0,15.8-5.3,15.8-13.7c0-6.6-4.3-10.9-10.3-12.8   c0,0-0.2-0.1-0.6-0.1c0.3,0,0.6-0.1,0.6-0.1c3.4-1.4,7.3-5,7.3-11.2c0-7.8-6.9-12.9-15.5-12.9h-29.8V301.5z M270.8,261.4h11.4   c2.6,0,4.7,2.1,4.7,4.4c0,2.4-2.1,4.5-4.7,4.5h-11.4V261.4z M284.7,290.2l-13.9,0V281h13.9c2.5,0,4.5,2,4.5,4.6   C289.1,288.3,287.2,290.2,284.7,290.2z"></path>
</g>
<line y2="360" x2="302" y1="0" x1="302" class="st1"></line>
<line y2="301.7" x2="360" y1="301.7" x1="0" class="st1"></line>
<line y2="301.8" x2="360.2" y1="360" x1="302" class="st1"></line>
<line y2="360" x2="360.2" y1="301.8" x1="302" class="st1"></line>
</svg>