<?xml version="1.0" encoding="utf-8"?>
<!-- Generator: Adobe Illustrator 21.0.2, SVG Export Plug-In . SVG Version: 6.00 Build 0)  -->
<svg version="1.1" id="Lager_1" xmlns="http://www.w3.org/2000/svg" xmlns:xlink="http://www.w3.org/1999/xlink" x="0px" y="0px"
	 viewBox="0 0 676.9 360" style="enable-background:new 0 0 676.9 360;" xml:space="preserve">
<style type="text/css">
	.st0{fill:none;}
	.st1{fill:none;stroke:#41B0EE;stroke-miterlimit:10;stroke-dasharray:2.01,2.01;}
</style>
<title>centered-text</title>
<rect y="0" class="st0" width="676.9" height="360"/>
<path d="M163.4,129.6l2.7-1.1c1.4,2.9,4.3,4.7,7.5,4.5c4,0,6.9-2.1,6.9-5.5c0-3.2-2.6-4.5-5-5l-3.8-0.7c-3.9-0.7-7.7-2.5-7.7-7.3
	v-0.3c0-4.6,4-7.6,9.2-7.6c4.1-0.1,7.9,2.1,9.8,5.8l-2.7,1.1c-1.4-2.7-4.2-4.4-7.2-4.3c-3.5,0-6.2,2-6.2,5.2c0,3.1,2.4,4.3,5.3,4.8
	l3.8,0.7c3.7,0.7,7.4,2.5,7.4,7.1v0.3c0,5-4.1,8.3-9.9,8.3C169.1,135.6,165.4,133.7,163.4,129.6z"/>
<path d="M202.4,122.2v13h-2.8v-12.4c0-3.5-1.9-5.6-4.7-5.6c-3.1,0-5.2,2.5-5.2,5.9v12.1H187v-28h2.8v10.9c1.2-2.1,3.5-3.3,5.9-3.3
	C199.7,114.8,202.4,117.7,202.4,122.2z"/>
<path d="M206,125.4V125c0-6.7,3.9-10.4,8.8-10.4s8.8,3.7,8.8,10.4v0.4c0,6.7-3.9,10.4-8.8,10.4S206,132.1,206,125.4z M220.9,125.3
	v-0.2c0-5.3-2.7-8.1-6-8.1s-6,2.8-6,8.1v0.2c0,5.3,2.7,8.1,6,8.1S220.9,130.6,220.9,125.3L220.9,125.3z"/>
<path d="M227.8,115.2h2.6v4.8c1.2-3.1,4.3-5.1,7.6-5v2.8c-4.5,0-7.4,3.4-7.4,8.2v9.2h-2.8L227.8,115.2z"/>
<path d="M243.8,130.4v-12.7h-3.4v-2.4h3.5v-6h2.6v6h5.7v2.4h-5.6v12.2c0,2.1,1,3,2.7,3h2.9v2.4h-3.6
	C245.7,135.2,243.8,133.8,243.8,130.4z"/>
<path d="M262.8,135.8c-5,0-9-3.7-9-10.4V125c0-6.7,3.9-10.4,8.8-10.4s8.8,3.7,8.8,10.4v0.8h-15c0.1,4.7,2.6,7.7,6.4,7.7
	c2.3,0.1,4.5-1.3,5.4-3.5l2.7,0.5C269.6,133.8,266.4,135.9,262.8,135.8z M268.6,123.9c-0.3-4.6-2.9-7-6-7s-5.8,2.4-6,7H268.6z"/>
<path d="M275.4,115.2h2.6v4.8c1.2-3.1,4.3-5.1,7.6-5v2.8c-4.5,0-7.4,3.4-7.4,8.2v9.2h-2.8L275.4,115.2z"/>
<path d="M299.3,130.4v-12.7h-3.4v-2.4h3.5v-6h2.6v6h5.7v2.4h-5.6v12.2c0,2.1,1,3,2.7,3h2.9v2.4h-3.6
	C301.3,135.2,299.3,133.8,299.3,130.4z"/>
<path d="M318.4,135.8c-5,0-9-3.7-9-10.4V125c0-6.7,3.9-10.4,8.8-10.4s8.8,3.8,8.8,10.4v0.8h-15c0.1,4.7,2.6,7.7,6.4,7.7
	c2.3,0.1,4.5-1.3,5.4-3.5l2.7,0.5C325.1,133.8,321.9,135.9,318.4,135.8z M324.2,123.9c-0.3-4.6-2.9-7-6-7s-5.8,2.4-6,7H324.2z"/>
<path d="M342.5,135.2l-3-4.4c-0.9-1.3-1.7-2.6-2.6-4.1c-0.9,1.5-1.7,2.8-2.6,4.1l-3,4.4h-3.1l7.2-10.3l-6.6-9.7h3.3l3,4.4
	c0.7,1.1,1.3,2.1,2,3.3c0.7-1.2,1.3-2.2,2-3.3l3-4.4h3.1l-6.6,9.5l7.2,10.5H342.5z"/>
<path d="M351.4,130.4v-12.7h-3.4v-2.4h3.5v-6h2.6v6h5.7v2.4h-5.6v12.2c0,2.1,1,3,2.7,3h2.9v2.4h-3.6
	C353.4,135.2,351.4,133.8,351.4,130.4z"/>
<path d="M370.4,125.4V125c0-6.7,3.9-10.4,8.8-10.4s8.8,3.7,8.8,10.4v0.4c0,6.7-3.9,10.4-8.8,10.4S370.4,132.1,370.4,125.4z
	 M385.3,125.3v-0.2c0-5.3-2.7-8.1-6-8.1s-6,2.8-6,8.1v0.2c0,5.3,2.7,8.1,6,8.1S385.3,130.6,385.3,125.3z"/>
<path d="M392.2,115.2h2.6v4.8c1.2-3.1,4.3-5.1,7.6-5v2.8c-4.5,0-7.4,3.4-7.4,8.2v9.2h-2.8L392.2,115.2z"/>
<path d="M413.1,115.2h3.1l3.7,12.2c0.4,1.2,0.7,2.3,1.1,4.1c0.5-1.8,0.8-2.9,1.2-4.1l3.9-12.2h2.6l3.9,12.2c0.4,1.2,0.7,2.4,1.2,4.1
	c0.4-1.7,0.8-2.9,1.2-4.1l3.8-12.2h2.9l-6.6,20h-2.6l-4.1-13c-0.3-1-0.7-2.2-1-3.6c-0.3,1.4-0.7,2.6-1,3.6l-4.1,13h-2.6L413.1,115.2
	z"/>
<path d="M443.4,125.4V125c0-6.7,3.9-10.4,8.8-10.4s8.8,3.8,8.8,10.4v0.4c0,6.7-3.9,10.4-8.8,10.4S443.4,132.1,443.4,125.4z
	 M458.2,125.3v-0.2c0-5.3-2.7-8.1-6-8.1s-6,2.8-6,8.1v0.2c0,5.3,2.7,8.1,6,8.1S458.2,130.6,458.2,125.3z"/>
<path d="M465.1,115.2h2.6v4.8c1.2-3.1,4.3-5.1,7.6-5v2.8c-4.5,0-7.4,3.4-7.4,8.2v9.2h-2.8L465.1,115.2z"/>
<path d="M477.2,125.6v-0.8c0-6.7,3.9-10,8.2-10c2.7-0.1,5.2,1.5,6.3,3.9v-11.5h2.8v28H492v-3.7c-1.1,2.5-3.7,4.2-6.5,4.1
	C481,135.6,477.2,132.3,477.2,125.6z M491.8,125.3v-0.2c0-5.2-2.6-7.9-5.9-7.9s-6,2.7-6,7.9v0.2c0,5.1,2.6,7.9,6,7.9
	S491.8,130.5,491.8,125.3L491.8,125.3z"/>
<line class="st1" x1="330.1" y1="0" x2="330.1" y2="1"/>
<line class="st1" x1="330.1" y1="3" x2="330.1" y2="254.8"/>
<line class="st1" x1="330.1" y1="255.8" x2="330.1" y2="256.8"/>
</svg>
