<?xml version="1.0" encoding="utf-8"?>
<!-- Generator: Adobe Illustrator 26.3.1, SVG Export Plug-In . SVG Version: 6.00 Build 0)  -->
<svg version="1.1" id="Layer_1" xmlns="http://www.w3.org/2000/svg" xmlns:xlink="http://www.w3.org/1999/xlink" x="0px" y="0px"
	 viewBox="0 0 360 360" style="enable-background:new 0 0 360 360;" xml:space="preserve">
<style type="text/css">
	.st0{fill:#EDEDED;}
</style>
<g id="Lager_2">
	<g id="Lager_1-2">
		<rect class="st0" width="360" height="360"/>
		<g>
			<path d="M151,181c7.8,0,14.1-6.3,14.1-14.1s-6.3-14.1-14.1-14.1c-7.8,0-14.1,6.3-14.1,14.1l0,0C137,174.7,143.3,181,151,181z
				 M151,156.7c5.7,0,10.3,4.6,10.3,10.3s-4.6,10.3-10.3,10.3s-10.3-4.6-10.3-10.3l0,0C140.7,161.3,145.3,156.7,151,156.7z"/>
			<path d="M134.5,203.8c-0.1-5.6,4.4-10.2,10-10.3c0,0,0,0,0,0h13c5.6,0.1,10.1,4.7,10,10.3c0,0,0,0,0,0v58.7h3.8v-58.7
				c0.1-7.7-6.1-14-13.8-14.1c0,0,0,0,0,0h-13c-7.7,0.1-13.9,6.4-13.8,14.1c0,0,0,0,0,0v58.7h3.8V203.8z"/>
			<path d="M209,181c7.8,0,14.1-6.3,14.1-14.1c0-7.8-6.3-14.1-14.1-14.1c-7.8,0-14.1,6.3-14.1,14.1c0,0,0,0,0,0
				C194.9,174.7,201.2,181,209,181z M209,156.7c5.7,0,10.3,4.6,10.3,10.3c0,5.7-4.6,10.3-10.3,10.3c-5.7,0-10.3-4.6-10.3-10.3l0,0
				C198.7,161.3,203.3,156.7,209,156.7z"/>
			<path d="M192.3,203.8c-0.1-5.6,4.4-10.2,10-10.3c0,0,0,0,0,0h13c5.6,0.1,10.1,4.7,10,10.3c0,0,0,0,0,0v58.7h3.8v-58.7
				c0.1-7.7-6.1-14-13.8-14.1c0,0,0,0,0,0h-12.9c-7.7,0.1-13.9,6.4-13.8,14.1c0,0,0,0,0,0v58.7h3.8L192.3,203.8z"/>
			<path d="M254.5,126.2H105.5c-1,0-1.9,0.8-1.9,1.9V277c0,1,0.8,1.9,1.9,1.9h149.1c1,0,1.9-0.8,1.9-1.9V128.1
				C256.4,127,255.6,126.2,254.5,126.2z M252.6,275.1H107.4V129.9h145.3V275.1z"/>
			<polygon points="157.3,116 174.7,98.6 172.1,95.9 159.2,108.9 159.2,81.1 155.4,81.1 155.4,108.9 142.5,95.9 139.8,98.6 			"/>
			<polygon points="207.1,81.1 189.7,98.6 192.3,101.2 205.2,88.3 205.2,116 209,116 209,88.3 221.9,101.2 224.7,98.6 			"/>
		</g>
	</g>
</g>
</svg>
