<svg xml:space="preserve" style="enable-background:new 0 0 347 244.2;" viewBox="0 0 347 244.2" y="0px" x="0px" id="Lager_1" version="1.1" xmlns:xlink="http://www.w3.org/1999/xlink" xmlns="http://www.w3.org/2000/svg">
<style type="text/css">
	.st0{fill:none;stroke:#999999;stroke-width:0.5;stroke-miterlimit:10;}
</style>
<g id="Lager_2">
	<g id="Lager_1-2">
		<path d="M131.4,102.2l-9.9,7.4c-4.7-4-10.7-4.8-14-4.8s-6.8,1-7.4,3.4s1.6,4.2,5.4,5.2c4.2,1.2,8.1,2.2,14.1,3.9    c8.9,2.5,14.9,6.4,14.9,15.2c0,12.2-10.9,18.6-25.4,18.6s-24.5-7.6-27.5-11.1l10.4-7.8c7.3,6.4,12.4,7.3,16.7,7.3    c4.9,0,9.4-1,10-3.8c0.5-2.2-1.4-4-5.5-4.9c-4.7-1.1-8.7-2-13.1-3.1c-12-3.2-15.4-10.1-15.4-16.4c0-8.6,8-17.5,22.8-17.5    C122.5,93.5,131.3,102.2,131.4,102.2 M193.7,94.3h-43.2v55.9h45.8v-12.7h-30.5v-10.2h20.3v-12.7h-20.3V107h28L193.7,94.3z     M140.4,162.9h2.5V81.6h-2.5V162.9z M201.4,162.9h2.5V81.6h-2.5V162.9z M211.6,150.2h35.9c9.6,0,17.4-5.8,17.4-15.1    c0-7.2-4.7-12-11.4-14.2c-0.2,0-0.4-0.1-0.6-0.1c0.2,0,0.4-0.1,0.6-0.1c5-2,8.2-7,8-12.3c0-8.7-7.7-14.2-17.1-14.2h-32.9    L211.6,150.2z M226.8,104.5h13c2.8-0.1,5.2,2.1,5.3,4.9s-2.1,5.2-4.9,5.3c-0.2,0-0.3,0-0.5,0h-13L226.8,104.5L226.8,104.5z     M242.1,137.5h-15.3v-10.1h15.3c2.8,0.1,5,2.5,4.9,5.3C246.9,135.3,244.8,137.4,242.1,137.5L242.1,137.5z"></path>
		<line y2="244.2" x2="81.6" y1="0.2" x1="81.6" class="st0"></line>
		<line y2="244.2" x2="265.4" y1="0.2" x1="265.4" class="st0"></line>
		<line y2="81.6" x2="0.3" y1="81.6" x1="346.7" class="st0"></line>
		<line y2="162.9" x2="0.3" y1="162.9" x1="346.7" class="st0"></line>
		<line y2="162.9" x2="346.7" y1="81.6" x1="265.4" class="st0"></line>
		<line y2="81.6" x2="346.7" y1="162.9" x1="265.4" class="st0"></line>
		<line y2="244.2" x2="346.7" y1="162.9" x1="265.4" class="st0"></line>
		<line y2="162.9" x2="346.7" y1="244.2" x1="265.4" class="st0"></line>
		<line y2="81.6" x2="81.6" y1="0.2" x1="0.3" class="st0"></line>
		<line y2="0.2" x2="81.6" y1="81.6" x1="0.3" class="st0"></line>
		<line y2="81.6" x2="346.7" y1="0.2" x1="265.4" class="st0"></line>
		<line y2="0.2" x2="346.7" y1="81.6" x1="265.4" class="st0"></line>
		<line y2="244.2" x2="81.6" y1="162.9" x1="0.3" class="st0"></line>
		<line y2="162.9" x2="81.6" y1="244.2" x1="0.3" class="st0"></line>
		<rect height="244" width="346.5" class="st0" y="0.2" x="0.3"></rect>
	</g>
</g>
</svg>