<svg xml:space="preserve" style="enable-background:new 0 0 566.9 566.9;" viewBox="0 0 566.9 566.9" y="0px" x="0px" id="Layer_1" version="1.0" xmlns:xlink="http://www.w3.org/1999/xlink" xmlns="http://www.w3.org/2000/svg">
<style type="text/css">
	.st0{fill:#EFF0F0;}
	.st1{fill:#E7DDCB;}
</style>
<rect height="566.9" width="566.9" class="st0" y="0"></rect>
<path d="M81.2,469.9V97c0-6.3,5.1-11.5,11.5-11.5h381.6c6.3,0,11.5,5.1,11.5,11.5v372.8c0,6.3-5.1,11.5-11.5,11.5H92.7  C86.3,481.4,81.2,476.2,81.2,469.9z" class="st1"></path>
<g>
	<path d="M126,121.1h2.4v14.8H126V121.1z"></path>
	<path d="M131,125.3h2.1v1.4c0.7-1.1,1.8-1.6,3-1.6c2.2,0,3.7,1.5,3.7,3.9v6.9h-2.2v-6.3c0-1.6-0.8-2.5-2-2.5   c-1.4,0-2.3,1.1-2.3,2.7v6.2H131V125.3z"></path>
	<path d="M142.7,127.2h-1.8v-1.9h1.9v-1.2c0-2.2,1.5-3,3.1-3h1.6v1.9h-1.2c-0.8,0-1.3,0.4-1.3,1.4v0.9h2.6v1.9h-2.5v8.6h-2.2V127.2z"></path>
	<path d="M148,130.7v-0.2c0-3.5,2.2-5.5,4.9-5.5s4.9,2,4.9,5.5v0.2c0,3.5-2.2,5.5-4.9,5.5S148,134.2,148,130.7z M152.9,134.3   c1.5,0,2.7-1.3,2.7-3.6v-0.1c0-2.4-1.2-3.6-2.7-3.6s-2.7,1.3-2.7,3.6v0.1C150.2,133,151.4,134.3,152.9,134.3z"></path>
	<path d="M159.5,125.3h2.1v2c0.7-1.4,2.1-2.1,3.8-2.1v2.2c-2.3,0-3.7,1.5-3.7,3.9v4.5h-2.2V125.3z"></path>
	<path d="M166.8,125.3h2.1v1.4c0.5-0.8,1.5-1.6,3-1.6c1.3,0,2.3,0.6,2.8,1.7c0.7-1.2,1.8-1.7,3-1.7c2.2,0,3.6,1.5,3.6,3.9v6.9h-2.2   v-6.4c0-1.5-0.7-2.4-1.9-2.4c-1.3,0-2.1,1.1-2.1,2.6v6.2H173v-6.4c0-1.5-0.7-2.4-1.8-2.4c-1.3,0-2.1,1.1-2.1,2.6v6.2h-2.2V125.3z"></path>
	<path d="M183,133v-0.1c0-1.7,1.2-3.3,4-3.3h2.8v-0.5c0-1.4-0.8-2.2-2.1-2.2c-1.1,0-1.9,0.5-2.3,1.5l-2-0.4c0.8-2.1,2.6-2.9,4.5-2.9   c2.6,0,4.1,1.5,4.1,3.9v6.9h-2.1v-1.4c-0.7,0.8-1.8,1.6-3.4,1.6C184.3,136.1,183,134.8,183,133z M187,134.3c1.5,0,2.7-1.1,2.7-2.7   V131h-2.5c-1.4,0-2.1,0.7-2.1,1.6C185.2,133.7,185.9,134.3,187,134.3z"></path>
	<path d="M194.7,132.9v-5.7h-1.6v-1.9h1.7v-3.2h2.1v3.2h2.8v1.9h-2.7v5.3c0,1,0.5,1.4,1.3,1.4h1.4v1.9h-2   C195.8,135.8,194.7,134.9,194.7,132.9z"></path>
	<path d="M200.9,121.4h2.3v2.3h-2.3V121.4z M200.9,125.3h2.2v10.5h-2.2V125.3z"></path>
	<path d="M204.7,130.7v-0.2c0-3.5,2.2-5.5,4.9-5.5s4.9,2,4.9,5.5v0.2c0,3.5-2.2,5.5-4.9,5.5S204.7,134.2,204.7,130.7z M209.6,134.3   c1.5,0,2.7-1.3,2.7-3.6v-0.1c0-2.4-1.2-3.6-2.7-3.6s-2.7,1.3-2.7,3.6v0.1C206.9,133,208.2,134.3,209.6,134.3z"></path>
	<path d="M216.2,125.3h2.1v1.4c0.7-1.1,1.8-1.6,3-1.6c2.2,0,3.7,1.5,3.7,3.9v6.9h-2.2v-6.3c0-1.6-0.8-2.5-2-2.5   c-1.4,0-2.3,1.1-2.3,2.7v6.2h-2.2V125.3z"></path>
	<path d="M233.5,134.4v1.4h-2.1v-14.8h2.2v5.6c0.6-0.9,1.6-1.6,3-1.6c2.3,0,4.4,1.7,4.4,5.2v0.6c0,3.5-2.1,5.2-4.5,5.2   C235.1,136.1,234,135.4,233.5,134.4z M236.2,134.2c1.5,0,2.7-1.2,2.7-3.5v-0.1c0-2.3-1.2-3.5-2.7-3.5c-1.5,0-2.7,1.2-2.7,3.5v0.1   C233.5,132.9,234.7,134.2,236.2,134.2z"></path>
	<path d="M242.2,130.7v-0.2c0-3.5,2.2-5.5,4.9-5.5s4.9,2,4.9,5.5v0.2c0,3.5-2.2,5.5-4.9,5.5S242.2,134.2,242.2,130.7z M247.1,134.3   c1.5,0,2.7-1.3,2.7-3.6v-0.1c0-2.4-1.2-3.6-2.7-3.6s-2.7,1.3-2.7,3.6v0.1C244.4,133,245.6,134.3,247.1,134.3z"></path>
	<path d="M259.7,135.8l-1.1-1.7c-0.5-0.7-0.9-1.4-1.4-2.2c-0.5,0.8-0.9,1.5-1.4,2.2l-1.1,1.7h-2.5l3.8-5.4l-3.5-5.1h2.6l1.1,1.7   c0.4,0.5,0.7,1.1,1.1,1.8c0.4-0.7,0.7-1.3,1.1-1.8l1.1-1.7h2.5l-3.5,5l3.8,5.6H259.7z"></path>
	<path d="M276.9,129v6.9h-2.2v-6.3c0-1.6-0.8-2.5-2-2.5c-1.4,0-2.3,1.1-2.3,2.7v6.2h-2.2v-14.8h2.2v5.4c0.7-0.9,1.7-1.4,2.8-1.4   C275.5,125.1,276.9,126.6,276.9,129z"></path>
	<path d="M283.5,136.2c-2.7,0-5-2-5-5.5v-0.2c0-3.5,2.2-5.5,4.9-5.5s4.9,2,4.9,5.5v0.6h-7.7c0,2,1.3,3.2,2.9,3.2   c1,0,1.9-0.4,2.4-1.4l2.1,0.4C287.3,135.1,285.5,136.2,283.5,136.2z M286.1,129.6c-0.2-1.9-1.4-2.9-2.7-2.9s-2.5,1-2.7,2.9H286.1z"></path>
	<path d="M289.4,133v-0.1c0-1.7,1.2-3.3,4-3.3h2.8v-0.5c0-1.4-0.8-2.2-2.1-2.2c-1.1,0-1.9,0.5-2.3,1.5l-2-0.4   c0.8-2.1,2.6-2.9,4.5-2.9c2.6,0,4.1,1.5,4.1,3.9v6.9h-2.1v-1.4c-0.7,0.8-1.8,1.6-3.4,1.6C290.8,136.1,289.4,134.8,289.4,133z    M293.5,134.3c1.5,0,2.7-1.1,2.7-2.7V131h-2.5c-1.4,0-2.1,0.7-2.1,1.6C291.6,133.7,292.3,134.3,293.5,134.3z"></path>
	<path d="M300,130.9v-0.6c0-3.5,2.1-5.2,4.4-5.2c1.4,0,2.5,0.7,3,1.6v-5.6h2.2v14.8h-2.1v-1.4c-0.6,0.9-1.6,1.6-3.2,1.6   C302.1,136.1,300,134.4,300,130.9z M304.9,134.2c1.5,0,2.7-1.2,2.7-3.5v-0.1c0-2.3-1.2-3.5-2.7-3.5c-1.5,0-2.7,1.2-2.7,3.5v0.1   C302.2,132.9,303.3,134.2,304.9,134.2z"></path>
	<path d="M311.8,133.3v-12.2h2.2v11.8c0,0.8,0.3,1.1,0.9,1.1h0.6v1.9h-1.1C312.8,135.8,311.8,135,311.8,133.3z"></path>
	<path d="M316.7,121.4h2.3v2.3h-2.3V121.4z M316.8,125.3h2.2v10.5h-2.2V125.3z"></path>
	<path d="M321.2,125.3h2.1v1.4c0.7-1.1,1.8-1.6,3-1.6c2.2,0,3.7,1.5,3.7,3.9v6.9h-2.2v-6.3c0-1.6-0.8-2.5-2-2.5   c-1.4,0-2.3,1.1-2.3,2.7v6.2h-2.2V125.3z"></path>
	<path d="M336.4,136.2c-2.7,0-5-2-5-5.5v-0.2c0-3.5,2.2-5.5,4.9-5.5c2.7,0,4.9,2,4.9,5.5v0.6h-7.7c0,2,1.3,3.2,2.9,3.2   c1,0,1.9-0.4,2.4-1.4l2.1,0.4C340.2,135.1,338.4,136.2,336.4,136.2z M339,129.6c-0.2-1.9-1.4-2.9-2.7-2.9c-1.4,0-2.5,1-2.7,2.9H339   z"></path>
	<path d="M126.3,159.1h1.6v13.3h5.7v1.5h-7.3V159.1z"></path>
	<path d="M134.6,168.7v-0.2c0-3.5,2.1-5.5,4.7-5.5c2.6,0,4.7,2,4.7,5.5v0.2c0,3.5-2.1,5.5-4.7,5.5   C136.7,174.1,134.6,172.2,134.6,168.7z M139.2,172.9c1.8,0,3.2-1.5,3.2-4.3v-0.1c0-2.8-1.4-4.3-3.2-4.3s-3.2,1.5-3.2,4.3v0.1   C136.1,171.4,137.5,172.9,139.2,172.9z"></path>
	<path d="M145.8,163.3h1.4v2.5c0.7-1.6,2.2-2.6,4-2.6v1.5c-2.4,0-3.9,1.8-3.9,4.3v4.9h-1.5V163.3z"></path>
	<path d="M156.8,174.1c-2.7,0-4.8-2-4.8-5.5v-0.2c0-3.5,2.1-5.5,4.7-5.5s4.7,2,4.7,5.5v0.4h-7.9c0,2.5,1.4,4,3.4,4   c1.2,0,2.3-0.6,2.8-1.8l1.4,0.3C160.3,173.2,158.7,174.1,156.8,174.1z M159.9,167.8c-0.1-2.4-1.5-3.7-3.2-3.7s-3,1.3-3.2,3.7H159.9   z"></path>
	<path d="M163.2,163.3h1.4v1.7c0.5-1,1.6-1.9,3.1-1.9c1.4,0,2.5,0.8,2.9,2.1c0.7-1.4,1.8-2.1,3.1-2.1c2,0,3.5,1.5,3.5,3.9v6.9h-1.5   v-6.6c0-1.8-0.9-2.9-2.3-2.9c-1.5,0-2.5,1.4-2.5,3.1v6.4h-1.5v-6.6c0-1.8-0.9-2.9-2.3-2.9c-1.5,0-2.5,1.4-2.5,3.1v6.4h-1.5V163.3z"></path>
	<path d="M183.8,159.7h1.6v1.7h-1.6V159.7z M183.9,163.3h1.5v10.5h-1.5V163.3z"></path>
	<path d="M187.8,163.3h1.4v1.9c0.6-1.3,1.8-2.1,3.4-2.1c2.3,0,4.4,1.7,4.4,5.3v0.4c0,3.5-2.1,5.3-4.3,5.3c-1.6,0-2.8-0.8-3.3-2.1   v6.1h-1.5V163.3z M192.4,172.8c1.8,0,3.1-1.4,3.1-4.2v-0.1c0-2.7-1.4-4.2-3.1-4.2c-1.7,0-3.1,1.5-3.1,4.2v0.1   C189.3,171.3,190.6,172.8,192.4,172.8z"></path>
	<path d="M198,171.3l1.3-0.5c0.6,1.3,1.6,2,3.1,2c1.5,0,2.5-0.7,2.5-1.9c0-1.1-1-1.6-2.2-1.8l-1.4-0.2c-1.7-0.3-3-1.1-3-2.7   c0-1.7,1.4-3.1,3.7-3.1c1.7,0,3.2,0.8,4.1,2.3l-1.3,0.5c-0.6-1.1-1.6-1.7-2.8-1.7c-1.4,0-2.4,0.7-2.4,1.8c0,1,0.8,1.5,1.9,1.7   l1.3,0.2c2,0.4,3.3,1.2,3.3,2.9c0,1.8-1.5,3.2-3.9,3.2C200.5,174,198.9,173.3,198,171.3z"></path>
	<path d="M215.8,173.8h-1.4v-1.7c-0.7,1.3-1.9,1.9-3.2,1.9c-2.2,0-3.6-1.5-3.6-3.9v-6.9h1.5v6.5c0,1.8,1,2.9,2.5,2.9   c1.6,0,2.7-1.3,2.7-3.1v-6.4h1.5V173.8z"></path>
	<path d="M218.2,163.3h1.4v1.7c0.5-1,1.6-1.9,3.1-1.9c1.4,0,2.5,0.8,2.9,2.1c0.7-1.4,1.8-2.1,3.1-2.1c2,0,3.5,1.5,3.5,3.9v6.9h-1.5   v-6.6c0-1.8-0.9-2.9-2.3-2.9c-1.5,0-2.5,1.4-2.5,3.1v6.4h-1.5v-6.6c0-1.8-0.9-2.9-2.3-2.9c-1.5,0-2.5,1.4-2.5,3.1v6.4h-1.5V163.3z"></path>
	<path d="M238.9,163.3h1.4v1.7c0.7-1.3,1.9-1.9,3.2-1.9c2.2,0,3.6,1.5,3.6,3.9v6.9h-1.5v-6.5c0-1.8-1-3-2.5-3   c-1.6,0-2.7,1.4-2.7,3.1v6.4h-1.5V163.3z"></path>
	<path d="M249.3,159.7h1.6v1.7h-1.6V159.7z M249.4,163.3h1.5v10.5h-1.5V163.3z"></path>
	<path d="M254.7,171.9v1.9h-1.4v-14.8h1.5v6.1c0.6-1.2,1.8-2.1,3.3-2.1c2.3,0,4.3,1.7,4.3,5.3v0.4c0,3.5-2,5.3-4.4,5.3   C256.5,174,255.2,173.2,254.7,171.9z M257.9,172.8c1.8,0,3.1-1.5,3.1-4.2v-0.1c0-2.7-1.4-4.2-3.1-4.2c-1.7,0-3.1,1.4-3.1,4.2v0.1   C254.7,171.3,256.1,172.8,257.9,172.8z"></path>
	<path d="M272.5,167v6.9H271v-6.5c0-1.8-1-2.9-2.5-2.9c-1.6,0-2.7,1.3-2.7,3.1v6.4h-1.5v-14.8h1.5v5.7c0.6-1.1,1.8-1.7,3.1-1.7   C271.1,163.1,272.5,164.6,272.5,167z"></path>
	<path d="M283.3,174.1c-2.7,0-4.8-2-4.8-5.5v-0.2c0-3.5,2.1-5.5,4.7-5.5c2.6,0,4.7,2,4.7,5.5v0.4H280c0,2.5,1.4,4,3.4,4   c1.2,0,2.3-0.6,2.8-1.8l1.4,0.3C286.8,173.2,285.2,174.1,283.3,174.1z M286.4,167.8c-0.1-2.4-1.5-3.7-3.2-3.7s-3,1.3-3.2,3.7H286.4   z"></path>
	<path d="M297.7,173.8h-1.4v-1.7c-0.7,1.3-1.9,1.9-3.2,1.9c-2.2,0-3.6-1.5-3.6-3.9v-6.9h1.5v6.5c0,1.8,1,2.9,2.5,2.9   c1.6,0,2.7-1.3,2.7-3.1v-6.4h1.5V173.8z"></path>
	<path d="M300.1,159.7h1.6v1.7h-1.6V159.7z M300.2,163.3h1.5v10.5h-1.5V163.3z"></path>
	<path d="M303.3,171.3l1.3-0.5c0.6,1.3,1.6,2,3.1,2c1.5,0,2.5-0.7,2.5-1.9c0-1.1-1-1.6-2.2-1.8l-1.4-0.2c-1.7-0.3-3-1.1-3-2.7   c0-1.7,1.4-3.1,3.7-3.1c1.7,0,3.2,0.8,4.1,2.3l-1.3,0.5c-0.6-1.1-1.6-1.7-2.8-1.7c-1.4,0-2.4,0.7-2.4,1.8c0,1,0.8,1.5,1.9,1.7   l1.3,0.2c2,0.4,3.3,1.2,3.3,2.9c0,1.8-1.5,3.2-3.9,3.2C305.8,174,304.1,173.3,303.3,171.3z"></path>
	<path d="M313.2,163.3h1.4v1.7c0.5-1,1.6-1.9,3.1-1.9c1.4,0,2.5,0.8,2.9,2.1c0.7-1.4,1.8-2.1,3.1-2.1c2,0,3.5,1.5,3.5,3.9v6.9h-1.5   v-6.6c0-1.8-0.9-2.9-2.3-2.9c-1.5,0-2.5,1.4-2.5,3.1v6.4h-1.5v-6.6c0-1.8-0.9-2.9-2.3-2.9c-1.5,0-2.5,1.4-2.5,3.1v6.4h-1.5V163.3z"></path>
	<path d="M328.8,168.7v-0.2c0-3.5,2.1-5.5,4.7-5.5c2.6,0,4.7,2,4.7,5.5v0.2c0,3.5-2.1,5.5-4.7,5.5   C330.9,174.1,328.8,172.2,328.8,168.7z M333.5,172.9c1.8,0,3.2-1.5,3.2-4.3v-0.1c0-2.8-1.4-4.3-3.2-4.3c-1.8,0-3.2,1.5-3.2,4.3v0.1   C330.3,171.4,331.7,172.9,333.5,172.9z"></path>
	<path d="M339.5,168.8v-0.4c0-3.5,2.1-5.3,4.3-5.3c1.6,0,2.8,0.8,3.3,2.1v-6.1h1.5v14.8h-1.4v-1.9c-0.6,1.3-1.8,2.1-3.4,2.1   C341.5,174,339.5,172.3,339.5,168.8z M344.1,172.8c1.7,0,3.1-1.5,3.1-4.2v-0.1c0-2.7-1.4-4.2-3.1-4.2c-1.8,0-3.1,1.4-3.1,4.2v0.1   C341,171.3,342.4,172.8,344.1,172.8z"></path>
	<path d="M356.4,171.3v-6.7h-1.8v-1.3h1.8v-3.2h1.4v3.2h3v1.3h-3v6.4c0,1.1,0.5,1.6,1.4,1.6h1.5v1.3h-1.9   C357.4,173.8,356.4,173.1,356.4,171.3z"></path>
	<path d="M362.3,159.7h1.6v1.7h-1.6V159.7z M362.3,163.3h1.5v10.5h-1.5V163.3z"></path>
	<path d="M366.3,163.3h1.4v1.7c0.7-1.3,1.9-1.9,3.2-1.9c2.2,0,3.6,1.5,3.6,3.9v6.9h-1.5v-6.5c0-1.8-1-3-2.5-3   c-1.6,0-2.7,1.4-2.7,3.1v6.4h-1.5V163.3z"></path>
	<path d="M376.1,168.7v-0.2c0-3.5,2.1-5.4,4.6-5.4c1.8,0,3.4,1.1,4.1,3.1l-1.4,0.3c-0.5-1.4-1.6-2.1-2.8-2.1c-1.7,0-3.1,1.4-3.1,4.2   v0.1c0,2.7,1.4,4.2,3.1,4.2c1.1,0,2.3-0.7,2.8-2.1l1.4,0.3c-0.7,2.1-2.3,3.1-4.1,3.1C378.2,174,376.1,172.1,376.1,168.7z"></path>
	<path d="M386.3,159.7h1.6v1.7h-1.6V159.7z M386.4,163.3h1.5v10.5h-1.5V163.3z"></path>
	<path d="M389.7,168.8v-0.4c0-3.5,2.1-5.3,4.3-5.3c1.6,0,2.8,0.8,3.3,2.1v-6.1h1.5v14.8h-1.4v-1.9c-0.6,1.3-1.8,2.1-3.4,2.1   C391.8,174,389.7,172.3,389.7,168.8z M394.4,172.8c1.7,0,3.1-1.5,3.1-4.2v-0.1c0-2.7-1.4-4.2-3.1-4.2c-1.8,0-3.1,1.4-3.1,4.2v0.1   C391.2,171.3,392.6,172.8,394.4,172.8z"></path>
	<path d="M409.4,173.8H408v-1.7c-0.7,1.3-1.9,1.9-3.2,1.9c-2.2,0-3.6-1.5-3.6-3.9v-6.9h1.5v6.5c0,1.8,1,2.9,2.5,2.9   c1.6,0,2.7-1.3,2.7-3.1v-6.4h1.5V173.8z"></path>
	<path d="M411.8,163.3h1.4v1.7c0.7-1.3,1.9-1.9,3.2-1.9c2.2,0,3.6,1.5,3.6,3.9v6.9h-1.5v-6.5c0-1.8-1-3-2.5-3   c-1.6,0-2.7,1.4-2.7,3.1v6.4h-1.5V163.3z"></path>
	<path d="M422.8,171.3v-6.7h-1.8v-1.3h1.8v-3.2h1.4v3.2h3v1.3h-3v6.4c0,1.1,0.5,1.6,1.4,1.6h1.5v1.3h-1.9   C423.9,173.8,422.8,173.1,422.8,171.3z"></path>
	<path d="M125.8,197.9v-12.5h1.5v12.2c0,0.9,0.4,1.3,1.1,1.3h0.5v1.3H128C126.6,200.2,125.8,199.5,125.8,197.9z"></path>
	<path d="M130,197.5v-0.1c0-1.7,1.3-3.2,3.9-3.2h3v-0.8c0-1.7-0.9-2.7-2.5-2.7c-1.3,0-2.2,0.7-2.7,1.9l-1.4-0.3   c0.8-2,2.3-2.8,4.2-2.8c2.5,0,3.9,1.5,3.9,3.8v7H137v-1.7c-0.7,1.1-1.9,1.9-3.6,1.9C131.4,200.4,130,199.2,130,197.5z M133.8,199.2   c1.8,0,3.2-1.3,3.2-3.1v-0.9h-2.9c-1.7,0-2.6,0.9-2.6,2.1C131.5,198.5,132.4,199.2,133.8,199.2z"></path>
	<path d="M140.2,195v-0.2c0-3.5,2.1-5.5,4.7-5.5c2.6,0,4.7,2,4.7,5.5v0.2c0,3.5-2.1,5.5-4.7,5.5C142.3,200.5,140.2,198.5,140.2,195z    M144.8,199.2c1.8,0,3.2-1.5,3.2-4.3v-0.1c0-2.8-1.4-4.3-3.2-4.3c-1.8,0-3.2,1.5-3.2,4.3v0.1C141.7,197.8,143.1,199.2,144.8,199.2z"></path>
	<path d="M151.4,189.7h1.4v2.5c0.7-1.6,2.2-2.6,4-2.6v1.5c-2.4,0-3.9,1.8-3.9,4.3v4.9h-1.5V189.7z"></path>
	<path d="M162.4,200.5c-2.7,0-4.8-2-4.8-5.5v-0.2c0-3.5,2.1-5.5,4.7-5.5s4.7,2,4.7,5.5v0.4h-7.9c0,2.5,1.4,4,3.4,4   c1.2,0,2.3-0.6,2.8-1.8l1.4,0.3C165.9,199.5,164.3,200.5,162.4,200.5z M165.5,194.2c-0.1-2.4-1.5-3.7-3.2-3.7s-3,1.3-3.2,3.7H165.5   z"></path>
	<path d="M173,200.5c-2.7,0-4.8-2-4.8-5.5v-0.2c0-3.5,2.1-5.5,4.7-5.5s4.7,2,4.7,5.5v0.4h-7.9c0,2.5,1.4,4,3.4,4   c1.2,0,2.3-0.6,2.8-1.8l1.4,0.3C176.5,199.5,174.9,200.5,173,200.5z M176.1,194.2c-0.1-2.4-1.5-3.7-3.2-3.7s-3,1.3-3.2,3.7H176.1z"></path>
	<path d="M180,197.6v-6.7h-1.8v-1.3h1.8v-3.2h1.4v3.2h3v1.3h-3v6.4c0,1.1,0.5,1.6,1.4,1.6h1.5v1.3h-1.9   C181,200.2,180,199.4,180,197.6z"></path>
	<path d="M189.7,195.1v-0.4c0-3.5,2.1-5.3,4.3-5.3c1.6,0,2.8,0.8,3.3,2.1v-6.1h1.5v14.8h-1.4v-1.9c-0.6,1.3-1.8,2.1-3.4,2.1   C191.7,200.4,189.7,198.7,189.7,195.1z M194.3,199.1c1.7,0,3.1-1.5,3.1-4.2v-0.1c0-2.7-1.4-4.2-3.1-4.2c-1.8,0-3.1,1.4-3.1,4.2v0.1   C191.1,197.7,192.5,199.1,194.3,199.1z"></path>
	<path d="M200.7,195v-0.2c0-3.5,2.1-5.5,4.7-5.5s4.7,2,4.7,5.5v0.2c0,3.5-2.1,5.5-4.7,5.5S200.7,198.5,200.7,195z M205.3,199.2   c1.8,0,3.2-1.5,3.2-4.3v-0.1c0-2.8-1.4-4.3-3.2-4.3c-1.8,0-3.2,1.5-3.2,4.3v0.1C202.2,197.8,203.6,199.2,205.3,199.2z"></path>
	<path d="M211.9,197.9v-12.5h1.5v12.2c0,0.9,0.4,1.3,1.1,1.3h0.5v1.3h-0.9C212.7,200.2,211.9,199.5,211.9,197.9z"></path>
	<path d="M215.6,195v-0.2c0-3.5,2.1-5.5,4.7-5.5c2.6,0,4.7,2,4.7,5.5v0.2c0,3.5-2.1,5.5-4.7,5.5C217.7,200.5,215.6,198.5,215.6,195z    M220.3,199.2c1.8,0,3.2-1.5,3.2-4.3v-0.1c0-2.8-1.4-4.3-3.2-4.3c-1.8,0-3.2,1.5-3.2,4.3v0.1C217.1,197.8,218.5,199.2,220.3,199.2z"></path>
	<path d="M226.8,189.7h1.4v2.5c0.7-1.6,2.2-2.6,4-2.6v1.5c-2.4,0-3.9,1.8-3.9,4.3v4.9h-1.5V189.7z"></path>
	<path d="M237.8,200.5c-2.7,0-4.8-2-4.8-5.5v-0.2c0-3.5,2.1-5.5,4.7-5.5s4.7,2,4.7,5.5v0.4h-7.9c0,2.5,1.4,4,3.4,4   c1.2,0,2.3-0.6,2.8-1.8l1.4,0.3C241.3,199.5,239.7,200.5,237.8,200.5z M240.9,194.2c-0.1-2.4-1.5-3.7-3.2-3.7s-3,1.3-3.2,3.7H240.9   z"></path>
	<path d="M248.6,189.7h1.4v1.7c0.5-1,1.6-1.9,3.1-1.9c1.4,0,2.5,0.8,2.9,2.1c0.7-1.4,1.8-2.1,3.1-2.1c2,0,3.5,1.5,3.5,3.9v6.9h-1.5   v-6.6c0-1.8-0.9-2.9-2.3-2.9c-1.5,0-2.5,1.4-2.5,3.1v6.4h-1.5v-6.6c0-1.8-0.9-2.9-2.3-2.9c-1.5,0-2.5,1.4-2.5,3.1v6.4h-1.5V189.7z"></path>
	<path d="M264.4,197.5v-0.1c0-1.7,1.3-3.2,3.9-3.2h3v-0.8c0-1.7-0.9-2.7-2.5-2.7c-1.3,0-2.2,0.7-2.7,1.9l-1.4-0.3   c0.8-2,2.3-2.8,4.2-2.8c2.5,0,3.9,1.5,3.9,3.8v7h-1.4v-1.7c-0.7,1.1-1.9,1.9-3.6,1.9C265.8,200.4,264.4,199.2,264.4,197.5z    M268.1,199.2c1.8,0,3.2-1.3,3.2-3.1v-0.9h-2.9c-1.7,0-2.6,0.9-2.6,2.1C265.8,198.5,266.8,199.2,268.1,199.2z"></path>
	<path d="M274.3,201.7c0-1.1,0.7-2,1.6-2.5c-0.6-0.4-0.9-0.9-0.9-1.7c0-1,0.7-1.7,1.5-2c-0.9-0.5-1.5-1.5-1.5-2.7   c0-2,1.6-3.5,3.8-3.5c0.5,0,1,0.1,1.4,0.2h3.2v1.2h-1.8c0.5,0.5,0.9,1.2,0.9,2.1c0,2-1.6,3.5-3.7,3.5h-1.3c-0.9,0-1.3,0.4-1.3,1.1   c0,0.6,0.4,1.1,1.3,1.1h3.1c1.9,0,3.2,1.3,3.2,3c0,1.8-1.4,3.2-3.6,3.2h-2.4C275.6,204.7,274.3,203.4,274.3,201.7z M278.1,203.6h2   c1.5,0,2.4-0.9,2.4-2c0-1.1-0.8-1.9-2.1-1.9h-2.5c-1.2,0-2.1,0.8-2.1,1.9C275.7,202.7,276.6,203.6,278.1,203.6z M278.8,195.3   c1.4,0,2.4-1.1,2.4-2.4c0-1.4-1.1-2.4-2.4-2.4c-1.4,0-2.4,1-2.4,2.4C276.4,194.2,277.5,195.3,278.8,195.3z"></path>
	<path d="M285.2,189.7h1.4v1.7c0.7-1.3,1.9-1.9,3.2-1.9c2.2,0,3.6,1.5,3.6,3.9v6.9h-1.5v-6.5c0-1.8-1-3-2.5-3   c-1.6,0-2.7,1.4-2.7,3.1v6.4h-1.5V189.7z"></path>
	<path d="M295.2,197.5v-0.1c0-1.7,1.3-3.2,3.9-3.2h3v-0.8c0-1.7-0.9-2.7-2.5-2.7c-1.3,0-2.2,0.7-2.7,1.9l-1.4-0.3   c0.8-2,2.3-2.8,4.2-2.8c2.5,0,3.9,1.5,3.9,3.8v7h-1.4v-1.7c-0.7,1.1-1.9,1.9-3.6,1.9C296.6,200.4,295.2,199.2,295.2,197.5z    M298.9,199.2c1.8,0,3.2-1.3,3.2-3.1v-0.9h-2.9c-1.7,0-2.6,0.9-2.6,2.1C296.6,198.5,297.6,199.2,298.9,199.2z"></path>
	<path d="M310,197.5v-0.1c0-1.7,1.3-3.2,3.9-3.2h3v-0.8c0-1.7-0.9-2.7-2.5-2.7c-1.3,0-2.2,0.7-2.7,1.9l-1.4-0.3   c0.8-2,2.3-2.8,4.2-2.8c2.5,0,3.9,1.5,3.9,3.8v7H317v-1.7c-0.7,1.1-1.9,1.9-3.6,1.9C311.4,200.4,310,199.2,310,197.5z M313.8,199.2   c1.8,0,3.2-1.3,3.2-3.1v-0.9h-2.9c-1.7,0-2.6,0.9-2.6,2.1C311.5,198.5,312.5,199.2,313.8,199.2z"></path>
	<path d="M320.8,197.9v-12.5h1.5v12.2c0,0.9,0.4,1.3,1.1,1.3h0.5v1.3H323C321.7,200.2,320.8,199.5,320.8,197.9z"></path>
	<path d="M325.3,186.1h1.6v1.7h-1.6V186.1z M325.4,189.7h1.5v10.5h-1.5V189.7z"></path>
	<path d="M333.1,200.4c-2.3,0-4.3-1.7-4.3-5.3v-0.4c0-3.5,2.1-5.3,4.4-5.3c1.7,0,2.8,0.9,3.4,2.2v-2h1.4v14.8h-1.5v-6.1   C335.8,199.6,334.7,200.4,333.1,200.4z M333.4,199.1c1.7,0,3.1-1.4,3.1-4.2v-0.1c0-2.7-1.4-4.2-3.1-4.2c-1.8,0-3.1,1.5-3.1,4.2v0.1   C330.2,197.7,331.6,199.1,333.4,199.1z"></path>
	<path d="M348.4,200.2H347v-1.7c-0.7,1.3-1.9,1.9-3.2,1.9c-2.2,0-3.6-1.5-3.6-3.9v-6.9h1.5v6.5c0,1.8,1,2.9,2.5,2.9   c1.6,0,2.7-1.3,2.7-3.1v-6.4h1.5V200.2z"></path>
	<path d="M350.3,197.5v-0.1c0-1.7,1.3-3.2,3.9-3.2h3v-0.8c0-1.7-0.9-2.7-2.5-2.7c-1.3,0-2.2,0.7-2.7,1.9l-1.4-0.3   c0.8-2,2.3-2.8,4.2-2.8c2.5,0,3.9,1.5,3.9,3.8v7h-1.4v-1.7c-0.7,1.1-1.9,1.9-3.6,1.9C351.7,200.4,350.3,199.2,350.3,197.5z    M354.1,199.2c1.8,0,3.2-1.3,3.2-3.1v-0.9h-2.9c-1.7,0-2.6,0.9-2.6,2.1C351.8,198.5,352.7,199.2,354.1,199.2z"></path>
	<path d="M361.1,189.7h1.4v1.7c0.5-1,1.6-1.9,3.1-1.9c1.4,0,2.5,0.8,2.9,2.1c0.7-1.4,1.8-2.1,3.1-2.1c2,0,3.5,1.5,3.5,3.9v6.9h-1.5   v-6.6c0-1.8-0.9-2.9-2.3-2.9c-1.5,0-2.5,1.4-2.5,3.1v6.4h-1.5v-6.6c0-1.8-0.9-2.9-2.3-2.9c-1.5,0-2.5,1.4-2.5,3.1v6.4h-1.5V189.7z"></path>
	<path d="M385.8,200.5c-2.7,0-4.8-2-4.8-5.5v-0.2c0-3.5,2.1-5.5,4.7-5.5c2.6,0,4.7,2,4.7,5.5v0.4h-7.9c0,2.5,1.4,4,3.4,4   c1.2,0,2.3-0.6,2.8-1.8l1.4,0.3C389.4,199.5,387.7,200.5,385.8,200.5z M388.9,194.2c-0.1-2.4-1.5-3.7-3.2-3.7c-1.7,0-3,1.3-3.2,3.7   H388.9z"></path>
	<path d="M392.2,189.7h1.4v2.5c0.7-1.6,2.2-2.6,4-2.6v1.5c-2.4,0-3.9,1.8-3.9,4.3v4.9h-1.5V189.7z"></path>
	<path d="M398.7,197.5v-0.1c0-1.7,1.3-3.2,3.9-3.2h3v-0.8c0-1.7-0.9-2.7-2.5-2.7c-1.3,0-2.2,0.7-2.7,1.9l-1.4-0.3   c0.8-2,2.3-2.8,4.2-2.8c2.5,0,3.9,1.5,3.9,3.8v7h-1.4v-1.7c-0.7,1.1-1.9,1.9-3.6,1.9C400.1,200.4,398.7,199.2,398.7,197.5z    M402.4,199.2c1.8,0,3.2-1.3,3.2-3.1v-0.9h-2.9c-1.7,0-2.6,0.9-2.6,2.1C400.1,198.5,401.1,199.2,402.4,199.2z"></path>
	<path d="M410.1,197.6v-6.7h-1.8v-1.3h1.8v-3.2h1.4v3.2h3v1.3h-3v6.4c0,1.1,0.5,1.6,1.4,1.6h1.5v1.3h-1.9   C411.1,200.2,410.1,199.4,410.1,197.6z"></path>
	<path d="M124.9,216h1.6l2.5,6.9c0.2,0.6,0.5,1.3,0.7,2.1c0.2-0.9,0.5-1.5,0.7-2.1l2.5-6.9h1.5l-4,10.5H129L124.9,216z"></path>
	<path d="M135,221.4v-0.2c0-3.5,2.1-5.5,4.7-5.5s4.7,2,4.7,5.5v0.2c0,3.5-2.1,5.5-4.7,5.5S135,224.9,135,221.4z M139.7,225.6   c1.8,0,3.2-1.5,3.2-4.3v-0.1c0-2.8-1.4-4.3-3.2-4.3c-1.8,0-3.2,1.5-3.2,4.3v0.1C136.5,224.1,137.9,225.6,139.7,225.6z"></path>
	<path d="M146.2,224.3v-12.5h1.5V224c0,0.9,0.4,1.3,1.1,1.3h0.5v1.3h-0.9C147.1,226.6,146.2,225.9,146.2,224.3z"></path>
	<path d="M158.6,226.6h-1.4v-1.7c-0.7,1.3-1.9,1.9-3.2,1.9c-2.2,0-3.6-1.5-3.6-3.9V216h1.5v6.5c0,1.8,1,2.9,2.5,2.9   c1.6,0,2.7-1.3,2.7-3.1V216h1.5V226.6z"></path>
	<path d="M161.9,224v-6.7h-1.8V216h1.8v-3.2h1.4v3.2h3v1.3h-3v6.4c0,1.1,0.5,1.6,1.4,1.6h1.5v1.3h-1.9   C162.9,226.6,161.9,225.8,161.9,224z"></path>
	<path d="M167.8,216h1.4v1.9c0.6-1.3,1.8-2.1,3.4-2.1c2.3,0,4.4,1.7,4.4,5.3v0.4c0,3.5-2.1,5.3-4.3,5.3c-1.6,0-2.8-0.8-3.3-2.1v6.1   h-1.5V216z M172.3,225.5c1.8,0,3.1-1.4,3.1-4.2v-0.1c0-2.7-1.4-4.2-3.1-4.2c-1.7,0-3.1,1.5-3.1,4.2v0.1   C169.2,224.1,170.6,225.5,172.3,225.5z"></path>
	<path d="M178.3,223.9v-0.1c0-1.7,1.3-3.2,3.9-3.2h3v-0.8c0-1.7-0.9-2.7-2.5-2.7c-1.3,0-2.2,0.7-2.7,1.9l-1.4-0.3   c0.8-2,2.3-2.8,4.2-2.8c2.5,0,3.9,1.5,3.9,3.8v7h-1.4v-1.7c-0.7,1.1-1.9,1.9-3.6,1.9C179.7,226.8,178.3,225.6,178.3,223.9z    M182,225.6c1.8,0,3.2-1.3,3.2-3.1v-0.9h-2.9c-1.7,0-2.6,0.9-2.6,2.1C179.7,224.9,180.7,225.6,182,225.6z"></path>
	<path d="M189.6,224v-6.7h-1.8V216h1.8v-3.2h1.4v3.2h3v1.3h-3v6.4c0,1.1,0.5,1.6,1.4,1.6h1.5v1.3h-1.9   C190.7,226.6,189.6,225.8,189.6,224z"></path>
	<path d="M195.8,224.7h1.6v1.9h-1.6V224.7z"></path>
	<path d="M204.8,221.9v-10.1h1.6v9.9c0,2.7,1.5,3.7,3.4,3.7c1.8,0,3.4-1,3.4-3.7v-9.9h1.6v10.1c0,3.4-2.3,5-5,5   C207,226.9,204.8,225.3,204.8,221.9z"></path>
	<path d="M218.3,224v-6.7h-1.8V216h1.8v-3.2h1.4v3.2h3v1.3h-3v6.4c0,1.1,0.5,1.6,1.4,1.6h1.5v1.3h-1.9   C219.4,226.6,218.3,225.8,218.3,224z"></path>
	<path d="M227.9,216h1.6l2,6.4c0.2,0.6,0.4,1.2,0.6,2.1c0.3-0.9,0.4-1.5,0.7-2.1l2-6.4h1.4l2.1,6.4c0.2,0.6,0.4,1.2,0.7,2.1   c0.2-0.9,0.4-1.5,0.6-2.1l2-6.4h1.5l-3.5,10.5h-1.4l-2.2-6.9c-0.2-0.5-0.4-1.1-0.5-1.9c-0.2,0.7-0.4,1.4-0.5,1.9l-2.2,6.9h-1.4   L227.9,216z"></path>
	<path d="M244.6,212.4h1.6v1.7h-1.6V212.4z M244.7,216h1.5v10.5h-1.5V216z"></path>
	<path d="M247.7,224.1l1.3-0.5c0.6,1.3,1.6,2,3.1,2c1.5,0,2.5-0.7,2.5-1.9c0-1.1-1-1.6-2.2-1.8l-1.4-0.2c-1.7-0.3-3-1.1-3-2.7   c0-1.7,1.4-3.1,3.7-3.1c1.7,0,3.2,0.8,4.1,2.3l-1.3,0.5c-0.6-1.1-1.6-1.7-2.8-1.7c-1.4,0-2.4,0.7-2.4,1.8c0,1,0.8,1.5,1.9,1.7   l1.3,0.2c2,0.4,3.3,1.2,3.3,2.9c0,1.8-1.5,3.2-3.9,3.2C250.3,226.8,248.6,226,247.7,224.1z"></path>
	<path d="M257.6,212.4h1.6v1.7h-1.6V212.4z M257.6,216h1.5v10.5h-1.5V216z"></path>
	<path d="M270.2,226.9c-2.7,0-4.8-2-4.8-5.5v-0.2c0-3.5,2.1-5.5,4.7-5.5c2.6,0,4.7,2,4.7,5.5v0.4h-7.9c0,2.5,1.4,4,3.4,4   c1.2,0,2.3-0.6,2.8-1.8l1.4,0.3C273.7,225.9,272.1,226.9,270.2,226.9z M273.3,220.6c-0.1-2.4-1.5-3.7-3.2-3.7s-3,1.3-3.2,3.7H273.3   z"></path>
	<path d="M276.6,216h1.4v1.7c0.7-1.3,1.9-1.9,3.2-1.9c2.2,0,3.6,1.5,3.6,3.9v6.9h-1.5V220c0-1.8-1-3-2.5-3c-1.6,0-2.7,1.4-2.7,3.1   v6.4h-1.5V216z"></path>
	<path d="M287,212.4h1.6v1.7H287V212.4z M287.1,216h1.5v10.5h-1.5V216z"></path>
	<path d="M291,216h1.4v1.7c0.5-1,1.6-1.9,3.1-1.9c1.4,0,2.5,0.8,2.9,2.1c0.7-1.4,1.8-2.1,3.1-2.1c2,0,3.5,1.5,3.5,3.9v6.9h-1.5V220   c0-1.8-0.9-2.9-2.3-2.9c-1.5,0-2.5,1.4-2.5,3.1v6.4h-1.5V220c0-1.8-0.9-2.9-2.3-2.9c-1.5,0-2.5,1.4-2.5,3.1v6.4H291V216z"></path>
	<path d="M311.2,223.9v-0.1c0-1.7,1.3-3.2,3.9-3.2h3v-0.8c0-1.7-0.9-2.7-2.5-2.7c-1.3,0-2.2,0.7-2.7,1.9l-1.4-0.3   c0.8-2,2.3-2.8,4.2-2.8c2.5,0,3.9,1.5,3.9,3.8v7h-1.4v-1.7c-0.7,1.1-1.9,1.9-3.6,1.9C312.7,226.8,311.2,225.6,311.2,223.9z    M315,225.6c1.8,0,3.2-1.3,3.2-3.1v-0.9h-2.9c-1.7,0-2.6,0.9-2.6,2.1C312.7,224.9,313.7,225.6,315,225.6z"></path>
	<path d="M321.5,221.5v-0.4c0-3.5,2.1-5.3,4.3-5.3c1.6,0,2.8,0.8,3.3,2.1v-6.1h1.5v14.8h-1.4v-1.9c-0.6,1.3-1.8,2.1-3.4,2.1   C323.5,226.8,321.5,225,321.5,221.5z M326.1,225.5c1.7,0,3.1-1.5,3.1-4.2v-0.1c0-2.7-1.4-4.2-3.1-4.2c-1.8,0-3.1,1.4-3.1,4.2v0.1   C322.9,224.1,324.3,225.5,326.1,225.5z"></path>
	<path d="M337.5,216h1.4v1.7c0.5-1,1.6-1.9,3.1-1.9c1.4,0,2.5,0.8,2.9,2.1c0.7-1.4,1.8-2.1,3.1-2.1c2,0,3.5,1.5,3.5,3.9v6.9H350V220   c0-1.8-0.9-2.9-2.3-2.9c-1.5,0-2.5,1.4-2.5,3.1v6.4h-1.5V220c0-1.8-0.9-2.9-2.3-2.9c-1.5,0-2.5,1.4-2.5,3.1v6.4h-1.5V216z"></path>
	<path d="M353.8,212.4h1.6v1.7h-1.6V212.4z M353.8,216h1.5v10.5h-1.5V216z"></path>
	<path d="M357.8,216h1.4v1.7c0.7-1.3,1.9-1.9,3.2-1.9c2.2,0,3.6,1.5,3.6,3.9v6.9h-1.5V220c0-1.8-1-3-2.5-3c-1.6,0-2.7,1.4-2.7,3.1   v6.4h-1.5V216z"></path>
	<path d="M368.2,212.4h1.6v1.7h-1.6V212.4z M368.3,216h1.5v10.5h-1.5V216z"></path>
	<path d="M372.2,216h1.4v1.7c0.5-1,1.6-1.9,3.1-1.9c1.4,0,2.5,0.8,2.9,2.1c0.7-1.4,1.8-2.1,3.1-2.1c2,0,3.5,1.5,3.5,3.9v6.9h-1.5   V220c0-1.8-0.9-2.9-2.3-2.9c-1.5,0-2.5,1.4-2.5,3.1v6.4h-1.5V220c0-1.8-0.9-2.9-2.3-2.9c-1.5,0-2.5,1.4-2.5,3.1v6.4h-1.5V216z"></path>
	<path d="M124.9,242.4h1.6l2.5,6.9c0.2,0.6,0.5,1.3,0.7,2.1c0.2-0.9,0.5-1.5,0.7-2.1l2.5-6.9h1.5l-4,10.5H129L124.9,242.4z"></path>
	<path d="M139.8,253.3c-2.7,0-4.8-2-4.8-5.5v-0.2c0-3.5,2.1-5.5,4.7-5.5s4.7,2,4.7,5.5v0.4h-7.9c0,2.5,1.4,4,3.4,4   c1.2,0,2.3-0.6,2.8-1.8l1.4,0.3C143.3,252.3,141.7,253.3,139.8,253.3z M142.9,247c-0.1-2.4-1.5-3.7-3.2-3.7s-3,1.3-3.2,3.7H142.9z"></path>
	<path d="M146.2,242.4h1.4v1.7c0.7-1.3,1.9-1.9,3.2-1.9c2.2,0,3.6,1.5,3.6,3.9v6.9h-1.5v-6.5c0-1.8-1-3-2.5-3   c-1.6,0-2.7,1.4-2.7,3.1v6.4h-1.5V242.4z"></path>
	<path d="M156.6,238.8h1.6v1.7h-1.6V238.8z M156.7,242.4h1.5v10.5h-1.5V242.4z"></path>
	<path d="M160,250.2v-0.1c0-1.7,1.3-3.2,3.9-3.2h3v-0.8c0-1.7-0.9-2.7-2.5-2.7c-1.3,0-2.2,0.7-2.7,1.9l-1.4-0.3   c0.8-2,2.3-2.8,4.2-2.8c2.5,0,3.9,1.5,3.9,3.8v7H167v-1.7c-0.7,1.1-1.9,1.9-3.6,1.9C161.5,253.2,160,252,160,250.2z M163.8,252   c1.8,0,3.2-1.3,3.2-3.1v-0.9h-2.9c-1.7,0-2.6,0.9-2.6,2.1C161.5,251.2,162.5,252,163.8,252z"></path>
	<path d="M170.8,242.4h1.4v1.7c0.5-1,1.6-1.9,3.1-1.9c1.4,0,2.5,0.8,2.9,2.1c0.7-1.4,1.8-2.1,3.1-2.1c2,0,3.5,1.5,3.5,3.9v6.9h-1.5   v-6.6c0-1.8-0.9-2.9-2.3-2.9c-1.5,0-2.5,1.4-2.5,3.1v6.4h-1.5v-6.6c0-1.8-0.9-2.9-2.3-2.9c-1.5,0-2.5,1.4-2.5,3.1v6.4h-1.5V242.4z"></path>
	<path d="M187.9,253.9v-1.1h-0.6V251h1.6v2.9c0,1.1-0.6,1.6-1.8,1.6v-0.8C187.7,254.7,187.9,254.5,187.9,253.9z"></path>
	<path d="M199.7,253.2c-2.3,0-4.3-1.7-4.3-5.3v-0.4c0-3.5,2.1-5.3,4.4-5.3c1.7,0,2.8,0.9,3.4,2.2v-2h1.4v14.8H203v-6.1   C202.4,252.3,201.3,253.2,199.7,253.2z M200,251.9c1.7,0,3.1-1.4,3.1-4.2v-0.1c0-2.7-1.4-4.2-3.1-4.2c-1.8,0-3.1,1.5-3.1,4.2v0.1   C196.8,250.5,198.2,251.9,200,251.9z"></path>
	<path d="M215,252.9h-1.4v-1.7c-0.7,1.3-1.9,1.9-3.2,1.9c-2.2,0-3.6-1.5-3.6-3.9v-6.9h1.5v6.5c0,1.8,1,2.9,2.5,2.9   c1.6,0,2.7-1.3,2.7-3.1v-6.4h1.5V252.9z"></path>
	<path d="M217.4,238.8h1.6v1.7h-1.6V238.8z M217.4,242.4h1.5v10.5h-1.5V242.4z"></path>
	<path d="M220.5,250.5l1.3-0.5c0.6,1.3,1.6,2,3.1,2c1.5,0,2.5-0.7,2.5-1.9c0-1.1-1-1.6-2.2-1.8l-1.4-0.2c-1.7-0.3-3-1.1-3-2.7   c0-1.7,1.4-3.1,3.7-3.1c1.7,0,3.2,0.8,4.1,2.3l-1.3,0.5c-0.6-1.1-1.6-1.7-2.8-1.7c-1.4,0-2.4,0.7-2.4,1.8c0,1,0.8,1.5,1.9,1.7   l1.3,0.2c2,0.4,3.3,1.2,3.3,2.9c0,1.8-1.5,3.2-3.9,3.2C223,253.2,221.4,252.4,220.5,250.5z"></path>
	<path d="M234.7,242.4h1.4v1.7c0.7-1.3,1.9-1.9,3.2-1.9c2.2,0,3.6,1.5,3.6,3.9v6.9h-1.5v-6.5c0-1.8-1-3-2.5-3   c-1.6,0-2.7,1.4-2.7,3.1v6.4h-1.5V242.4z"></path>
	<path d="M244.6,247.8v-0.2c0-3.5,2.1-5.5,4.7-5.5s4.7,2,4.7,5.5v0.2c0,3.5-2.1,5.5-4.7,5.5S244.6,251.3,244.6,247.8z M249.3,252   c1.8,0,3.2-1.5,3.2-4.3v-0.1c0-2.8-1.4-4.3-3.2-4.3c-1.8,0-3.2,1.5-3.2,4.3v0.1C246.1,250.5,247.5,252,249.3,252z"></path>
	<path d="M254.9,250.5l1.3-0.5c0.6,1.3,1.6,2,3.1,2c1.5,0,2.5-0.7,2.5-1.9c0-1.1-1-1.6-2.2-1.8l-1.4-0.2c-1.7-0.3-3-1.1-3-2.7   c0-1.7,1.4-3.1,3.7-3.1c1.7,0,3.2,0.8,4.1,2.3l-1.3,0.5c-0.6-1.1-1.6-1.7-2.8-1.7c-1.4,0-2.4,0.7-2.4,1.8c0,1,0.8,1.5,1.9,1.7   l1.3,0.2c2,0.4,3.3,1.2,3.3,2.9c0,1.8-1.5,3.2-3.9,3.2C257.4,253.2,255.8,252.4,254.9,250.5z"></path>
	<path d="M265.6,250.4v-6.7h-1.8v-1.3h1.8v-3.2h1.4v3.2h3v1.3h-3v6.4c0,1.1,0.5,1.6,1.4,1.6h1.5v1.3h-1.9   C266.7,252.9,265.6,252.2,265.6,250.4z"></path>
	<path d="M271.6,242.4h1.4v2.5c0.7-1.6,2.2-2.6,4-2.6v1.5c-2.4,0-3.9,1.8-3.9,4.3v4.9h-1.5V242.4z"></path>
	<path d="M286.6,252.9h-1.4v-1.7c-0.7,1.3-1.9,1.9-3.2,1.9c-2.2,0-3.6-1.5-3.6-3.9v-6.9h1.5v6.5c0,1.8,1,2.9,2.5,2.9   c1.6,0,2.7-1.3,2.7-3.1v-6.4h1.5V252.9z"></path>
	<path d="M288.5,247.9v-0.4c0-3.5,2.1-5.3,4.3-5.3c1.6,0,2.8,0.8,3.3,2.1v-6.1h1.5v14.8h-1.4V251c-0.6,1.3-1.8,2.1-3.4,2.1   C290.5,253.2,288.5,251.4,288.5,247.9z M293.1,251.9c1.7,0,3.1-1.5,3.1-4.2v-0.1c0-2.7-1.4-4.2-3.1-4.2c-1.8,0-3.1,1.4-3.1,4.2v0.1   C290,250.4,291.4,251.9,293.1,251.9z"></path>
	<path d="M308.7,253.3c-2.7,0-4.8-2-4.8-5.5v-0.2c0-3.5,2.1-5.5,4.7-5.5c2.6,0,4.7,2,4.7,5.5v0.4h-7.9c0,2.5,1.4,4,3.4,4   c1.2,0,2.3-0.6,2.8-1.8l1.4,0.3C312.2,252.3,310.5,253.3,308.7,253.3z M311.7,247c-0.1-2.4-1.5-3.7-3.2-3.7s-3,1.3-3.2,3.7H311.7z"></path>
	<path d="M321.3,252.9l-1.6-2.3c-0.5-0.7-0.9-1.4-1.4-2.1c-0.5,0.8-0.9,1.5-1.4,2.1l-1.6,2.3h-1.7l3.8-5.4l-3.5-5.1h1.8l1.6,2.3   c0.4,0.6,0.7,1.1,1.1,1.7c0.4-0.6,0.7-1.2,1.1-1.7l1.6-2.3h1.7l-3.5,5l3.8,5.5H321.3z"></path>
	<path d="M328.3,253.3c-2.7,0-4.8-2-4.8-5.5v-0.2c0-3.5,2.1-5.5,4.7-5.5c2.6,0,4.7,2,4.7,5.5v0.4H325c0,2.5,1.4,4,3.4,4   c1.2,0,2.3-0.6,2.8-1.8l1.4,0.3C331.8,252.3,330.2,253.3,328.3,253.3z M331.4,247c-0.1-2.4-1.5-3.7-3.2-3.7s-3,1.3-3.2,3.7H331.4z"></path>
	<path d="M334.7,242.4h1.4v2.5c0.7-1.6,2.2-2.6,4-2.6v1.5c-2.4,0-3.9,1.8-3.9,4.3v4.9h-1.5V242.4z"></path>
	<path d="M340.9,247.8v-0.2c0-3.5,2.1-5.4,4.6-5.4c1.8,0,3.4,1.1,4.1,3.1l-1.4,0.3c-0.5-1.4-1.6-2.1-2.8-2.1c-1.7,0-3.1,1.4-3.1,4.2   v0.1c0,2.7,1.4,4.2,3.1,4.2c1.1,0,2.3-0.7,2.8-2.1l1.4,0.3c-0.7,2.1-2.3,3.1-4.1,3.1C343,253.2,340.9,251.3,340.9,247.8z"></path>
	<path d="M351.1,238.8h1.6v1.7h-1.6V238.8z M351.2,242.4h1.5v10.5h-1.5V242.4z"></path>
	<path d="M360.4,250.4v-6.7h-1.8v-1.3h1.8v-3.2h1.4v3.2h3v1.3h-3v6.4c0,1.1,0.5,1.6,1.4,1.6h1.5v1.3H363   C361.5,252.9,360.4,252.2,360.4,250.4z"></path>
	<path d="M366,250.2v-0.1c0-1.7,1.3-3.2,3.9-3.2h3v-0.8c0-1.7-0.9-2.7-2.5-2.7c-1.3,0-2.2,0.7-2.7,1.9l-1.4-0.3   c0.8-2,2.3-2.8,4.2-2.8c2.5,0,3.9,1.5,3.9,3.8v7H373v-1.7c-0.7,1.1-1.9,1.9-3.6,1.9C367.5,253.2,366,252,366,250.2z M369.8,252   c1.8,0,3.2-1.3,3.2-3.1v-0.9h-2.9c-1.7,0-2.6,0.9-2.6,2.1C367.5,251.2,368.5,252,369.8,252z"></path>
	<path d="M377.4,250.4v-6.7h-1.8v-1.3h1.8v-3.2h1.4v3.2h3v1.3h-3v6.4c0,1.1,0.5,1.6,1.4,1.6h1.5v1.3H380   C378.5,252.9,377.4,252.2,377.4,250.4z"></path>
	<path d="M383.3,238.8h1.6v1.7h-1.6V238.8z M383.4,242.4h1.5v10.5h-1.5V242.4z"></path>
	<path d="M386.7,247.8v-0.2c0-3.5,2.1-5.5,4.7-5.5s4.7,2,4.7,5.5v0.2c0,3.5-2.1,5.5-4.7,5.5S386.7,251.3,386.7,247.8z M391.4,252   c1.8,0,3.2-1.5,3.2-4.3v-0.1c0-2.8-1.4-4.3-3.2-4.3s-3.2,1.5-3.2,4.3v0.1C388.2,250.5,389.6,252,391.4,252z"></path>
	<path d="M397.9,242.4h1.4v1.7c0.7-1.3,1.9-1.9,3.2-1.9c2.2,0,3.6,1.5,3.6,3.9v6.9h-1.5v-6.5c0-1.8-1-3-2.5-3   c-1.6,0-2.7,1.4-2.7,3.1v6.4h-1.5V242.4z"></path>
	<path d="M133.7,279.3h-1.4v-1.7c-0.7,1.3-1.9,1.9-3.2,1.9c-2.2,0-3.6-1.5-3.6-3.9v-6.9h1.5v6.5c0,1.8,1,2.9,2.5,2.9   c1.6,0,2.7-1.3,2.7-3.1v-6.4h1.5V279.3z"></path>
	<path d="M136.1,277v-12.5h1.5v12.2c0,0.9,0.4,1.3,1.1,1.3h0.5v1.3h-0.9C137,279.3,136.1,278.7,136.1,277z"></path>
	<path d="M140.6,277v-12.5h1.5v12.2c0,0.9,0.4,1.3,1.1,1.3h0.5v1.3h-0.9C141.5,279.3,140.6,278.7,140.6,277z"></path>
	<path d="M144.9,276.6v-0.1c0-1.7,1.3-3.2,3.9-3.2h3v-0.8c0-1.7-0.9-2.7-2.5-2.7c-1.3,0-2.2,0.7-2.7,1.9l-1.4-0.3   c0.8-2,2.3-2.8,4.2-2.8c2.5,0,3.9,1.5,3.9,3.8v7h-1.4v-1.7c-0.7,1.1-1.9,1.9-3.6,1.9C146.3,279.5,144.9,278.4,144.9,276.6z    M148.7,278.4c1.8,0,3.2-1.3,3.2-3.1v-0.9H149c-1.7,0-2.6,0.9-2.6,2.1C146.4,277.6,147.3,278.4,148.7,278.4z"></path>
	<path d="M155.7,268.8h1.4v1.7c0.5-1,1.6-1.9,3.1-1.9c1.4,0,2.5,0.8,2.9,2.1c0.7-1.4,1.8-2.1,3.1-2.1c2,0,3.5,1.5,3.5,3.9v6.9h-1.5   v-6.6c0-1.8-0.9-2.9-2.3-2.9c-1.5,0-2.5,1.4-2.5,3.1v6.4h-1.5v-6.6c0-1.8-0.9-2.9-2.3-2.9c-1.5,0-2.5,1.4-2.5,3.1v6.4h-1.5V268.8z"></path>
	<path d="M171.4,274.2v-0.2c0-3.5,2.1-5.4,4.6-5.4c1.8,0,3.4,1.1,4.1,3.1l-1.4,0.3c-0.5-1.4-1.6-2.1-2.8-2.1c-1.7,0-3.1,1.4-3.1,4.2   v0.1c0,2.7,1.4,4.2,3.1,4.2c1.1,0,2.3-0.7,2.8-2.1l1.4,0.3c-0.7,2.1-2.3,3.1-4.1,3.1C173.4,279.5,171.4,277.6,171.4,274.2z"></path>
	<path d="M181.1,274.2v-0.2c0-3.5,2.1-5.5,4.7-5.5c2.6,0,4.7,2,4.7,5.5v0.2c0,3.5-2.1,5.5-4.7,5.5   C183.1,279.6,181.1,277.7,181.1,274.2z M185.7,278.4c1.8,0,3.2-1.5,3.2-4.3V274c0-2.8-1.4-4.3-3.2-4.3s-3.2,1.5-3.2,4.3v0.1   C182.5,276.9,183.9,278.4,185.7,278.4z"></path>
	<path d="M192.3,268.8h1.4v2.5c0.7-1.6,2.2-2.6,4-2.6v1.5c-2.4,0-3.9,1.8-3.9,4.3v4.9h-1.5V268.8z"></path>
	<path d="M199.3,268.8h1.4v1.9c0.6-1.3,1.8-2.1,3.4-2.1c2.3,0,4.4,1.7,4.4,5.3v0.4c0,3.5-2.1,5.3-4.3,5.3c-1.6,0-2.8-0.8-3.3-2.1   v6.1h-1.5V268.8z M203.8,278.3c1.8,0,3.1-1.4,3.1-4.2V274c0-2.7-1.4-4.2-3.1-4.2c-1.7,0-3.1,1.5-3.1,4.2v0.1   C200.7,276.8,202.1,278.3,203.8,278.3z"></path>
	<path d="M214.5,279.6c-2.7,0-4.8-2-4.8-5.5v-0.2c0-3.5,2.1-5.5,4.7-5.5s4.7,2,4.7,5.5v0.4h-7.9c0,2.5,1.4,4,3.4,4   c1.2,0,2.3-0.6,2.8-1.8l1.4,0.3C218.1,278.7,216.4,279.6,214.5,279.6z M217.6,273.3c-0.1-2.4-1.5-3.7-3.2-3.7s-3,1.3-3.2,3.7H217.6   z"></path>
	<path d="M220.9,268.8h1.4v2.5c0.7-1.6,2.2-2.6,4-2.6v1.5c-2.4,0-3.9,1.8-3.9,4.3v4.9h-1.5V268.8z"></path>
	<path d="M231.6,276.8l1.3-0.5c0.6,1.3,1.6,2,3.1,2c1.5,0,2.5-0.7,2.5-1.9c0-1.1-1-1.6-2.2-1.8l-1.4-0.2c-1.7-0.3-3-1.1-3-2.7   c0-1.7,1.4-3.1,3.7-3.1c1.7,0,3.2,0.8,4.1,2.3l-1.3,0.5c-0.6-1.1-1.6-1.7-2.8-1.7c-1.4,0-2.4,0.7-2.4,1.8c0,1,0.8,1.5,1.9,1.7   l1.3,0.2c2,0.4,3.3,1.2,3.3,2.9c0,1.8-1.5,3.2-3.9,3.2C234.1,279.5,232.5,278.8,231.6,276.8z"></path>
	<path d="M249.4,279.3h-1.4v-1.7c-0.7,1.3-1.9,1.9-3.2,1.9c-2.2,0-3.6-1.5-3.6-3.9v-6.9h1.5v6.5c0,1.8,1,2.9,2.5,2.9   c1.6,0,2.7-1.3,2.7-3.1v-6.4h1.5V279.3z"></path>
	<path d="M251,276.8l1.3-0.5c0.6,1.3,1.6,2,3.1,2c1.5,0,2.5-0.7,2.5-1.9c0-1.1-1-1.6-2.2-1.8l-1.4-0.2c-1.7-0.3-3-1.1-3-2.7   c0-1.7,1.4-3.1,3.7-3.1c1.7,0,3.2,0.8,4.1,2.3l-1.3,0.5c-0.6-1.1-1.6-1.7-2.8-1.7c-1.4,0-2.4,0.7-2.4,1.8c0,1,0.8,1.5,1.9,1.7   l1.3,0.2c2,0.4,3.3,1.2,3.3,2.9c0,1.8-1.5,3.2-3.9,3.2C253.6,279.5,251.9,278.8,251,276.8z"></path>
	<path d="M260.4,274.2v-0.2c0-3.5,2.1-5.4,4.6-5.4c1.8,0,3.4,1.1,4.1,3.1l-1.4,0.3c-0.5-1.4-1.6-2.1-2.8-2.1c-1.7,0-3.1,1.4-3.1,4.2   v0.1c0,2.7,1.4,4.2,3.1,4.2c1.1,0,2.3-0.7,2.8-2.1l1.4,0.3c-0.7,2.1-2.3,3.1-4.1,3.1C262.4,279.5,260.4,277.6,260.4,274.2z"></path>
	<path d="M270.6,265.2h1.6v1.7h-1.6V265.2z M270.6,268.8h1.5v10.5h-1.5V268.8z"></path>
	<path d="M274.5,268.8h1.4v1.9c0.6-1.3,1.8-2.1,3.4-2.1c2.3,0,4.4,1.7,4.4,5.3v0.4c0,3.5-2.1,5.3-4.3,5.3c-1.6,0-2.8-0.8-3.3-2.1   v6.1h-1.5V268.8z M279.1,278.3c1.8,0,3.1-1.4,3.1-4.2V274c0-2.7-1.4-4.2-3.1-4.2c-1.7,0-3.1,1.5-3.1,4.2v0.1   C276,276.8,277.3,278.3,279.1,278.3z"></path>
	<path d="M285.6,265.2h1.6v1.7h-1.6V265.2z M285.6,268.8h1.5v10.5h-1.5V268.8z"></path>
	<path d="M290.4,276.8V270h-1.8v-1.3h1.8v-3.2h1.4v3.2h3v1.3h-3v6.4c0,1.1,0.5,1.6,1.4,1.6h1.5v1.3h-1.9   C291.4,279.3,290.4,278.5,290.4,276.8z"></path>
	<path d="M300.8,277v-12.5h1.5v12.2c0,0.9,0.4,1.3,1.1,1.3h0.5v1.3H303C301.7,279.3,300.8,278.7,300.8,277z"></path>
	<path d="M304.5,274.2v-0.2c0-3.5,2.1-5.5,4.7-5.5c2.6,0,4.7,2,4.7,5.5v0.2c0,3.5-2.1,5.5-4.7,5.5   C306.6,279.6,304.5,277.7,304.5,274.2z M309.2,278.4c1.8,0,3.2-1.5,3.2-4.3V274c0-2.8-1.4-4.3-3.2-4.3c-1.8,0-3.2,1.5-3.2,4.3v0.1   C306,276.9,307.4,278.4,309.2,278.4z"></path>
	<path d="M317.1,277.4v1.9h-1.4v-14.8h1.5v6.1c0.6-1.2,1.8-2.1,3.3-2.1c2.3,0,4.3,1.7,4.3,5.3v0.4c0,3.5-2,5.3-4.4,5.3   C318.9,279.5,317.7,278.7,317.1,277.4z M320.3,278.3c1.8,0,3.1-1.5,3.1-4.2V274c0-2.7-1.4-4.2-3.1-4.2c-1.7,0-3.1,1.4-3.1,4.2v0.1   C317.2,276.8,318.5,278.3,320.3,278.3z"></path>
	<path d="M326.2,274.2v-0.2c0-3.5,2.1-5.5,4.7-5.5c2.6,0,4.7,2,4.7,5.5v0.2c0,3.5-2.1,5.5-4.7,5.5   C328.3,279.6,326.2,277.7,326.2,274.2z M330.9,278.4c1.8,0,3.2-1.5,3.2-4.3V274c0-2.8-1.4-4.3-3.2-4.3c-1.8,0-3.2,1.5-3.2,4.3v0.1   C327.7,276.9,329.1,278.4,330.9,278.4z"></path>
	<path d="M337.5,268.8h1.4v2.5c0.7-1.6,2.2-2.6,4-2.6v1.5c-2.4,0-3.9,1.8-3.9,4.3v4.9h-1.5V268.8z"></path>
	<path d="M345.8,276.8V270H344v-1.3h1.8v-3.2h1.4v3.2h3v1.3h-3v6.4c0,1.1,0.5,1.6,1.4,1.6h1.5v1.3h-1.9   C346.8,279.3,345.8,278.5,345.8,276.8z"></path>
	<path d="M351.6,265.2h1.6v1.7h-1.6V265.2z M351.7,268.8h1.5v10.5h-1.5V268.8z"></path>
	<path d="M354.8,276.8l1.3-0.5c0.6,1.3,1.6,2,3.1,2c1.5,0,2.5-0.7,2.5-1.9c0-1.1-1-1.6-2.2-1.8l-1.4-0.2c-1.7-0.3-3-1.1-3-2.7   c0-1.7,1.4-3.1,3.7-3.1c1.7,0,3.2,0.8,4.1,2.3l-1.3,0.5c-0.6-1.1-1.6-1.7-2.8-1.7c-1.4,0-2.4,0.7-2.4,1.8c0,1,0.8,1.5,1.9,1.7   l1.3,0.2c2,0.4,3.3,1.2,3.3,2.9c0,1.8-1.5,3.2-3.9,3.2C357.3,279.5,355.7,278.8,354.8,276.8z"></path>
	<path d="M369,268.8h1.4v1.7c0.7-1.3,1.9-1.9,3.2-1.9c2.2,0,3.6,1.5,3.6,3.9v6.9h-1.5v-6.5c0-1.8-1-3-2.5-3c-1.6,0-2.7,1.4-2.7,3.1   v6.4H369V268.8z"></path>
	<path d="M379.4,265.2h1.6v1.7h-1.6V265.2z M379.5,268.8h1.5v10.5h-1.5V268.8z"></path>
	<path d="M382.6,276.8l1.3-0.5c0.6,1.3,1.6,2,3.1,2c1.5,0,2.5-0.7,2.5-1.9c0-1.1-1-1.6-2.2-1.8l-1.4-0.2c-1.7-0.3-3-1.1-3-2.7   c0-1.7,1.4-3.1,3.7-3.1c1.7,0,3.2,0.8,4.1,2.3l-1.3,0.5c-0.6-1.1-1.6-1.7-2.8-1.7c-1.4,0-2.4,0.7-2.4,1.8c0,1,0.8,1.5,1.9,1.7   l1.3,0.2c2,0.4,3.3,1.2,3.3,2.9c0,1.8-1.5,3.2-3.9,3.2C385.1,279.5,383.5,278.8,382.6,276.8z"></path>
	<path d="M392.4,277v-12.5h1.5v12.2c0,0.9,0.4,1.3,1.1,1.3h0.5v1.3h-0.9C393.3,279.3,392.4,278.7,392.4,277z"></path>
	<path d="M409.4,279.3h-1.4v-1.7c-0.7,1.3-1.9,1.9-3.2,1.9c-2.2,0-3.6-1.5-3.6-3.9v-6.9h1.5v6.5c0,1.8,1,2.9,2.5,2.9   c1.6,0,2.7-1.3,2.7-3.1v-6.4h1.5V279.3z"></path>
	<path d="M412.7,276.8V270h-1.8v-1.3h1.8v-3.2h1.4v3.2h3v1.3h-3v6.4c0,1.1,0.5,1.6,1.4,1.6h1.5v1.3h-1.9   C413.7,279.3,412.7,278.5,412.7,276.8z"></path>
	<path d="M125.3,303v-0.1c0-1.7,1.3-3.2,3.9-3.2h3v-0.8c0-1.7-0.9-2.7-2.5-2.7c-1.3,0-2.2,0.7-2.7,1.9l-1.4-0.3   c0.8-2,2.3-2.8,4.2-2.8c2.5,0,3.9,1.5,3.9,3.8v7h-1.4V304c-0.7,1.1-1.9,1.9-3.6,1.9C126.7,305.9,125.3,304.7,125.3,303z    M129.1,304.7c1.8,0,3.2-1.3,3.2-3.1v-0.9h-2.9c-1.7,0-2.6,0.9-2.6,2.1C126.8,304,127.7,304.7,129.1,304.7z"></path>
	<path d="M136.1,303.4v-12.5h1.5v12.2c0,0.9,0.4,1.3,1.1,1.3h0.5v1.3h-0.9C136.9,305.7,136.1,305,136.1,303.4z"></path>
	<path d="M140.6,291.6h1.6v1.7h-1.6V291.6z M140.7,295.1h1.5v10.5h-1.5V295.1z"></path>
	<path d="M148.3,305.9c-2.3,0-4.3-1.7-4.3-5.3v-0.4c0-3.5,2.1-5.3,4.4-5.3c1.7,0,2.8,0.9,3.4,2.2v-2h1.4v14.8h-1.5v-6.1   C151.1,305.1,149.9,305.9,148.3,305.9z M148.6,304.6c1.7,0,3.1-1.4,3.1-4.2v-0.1c0-2.7-1.4-4.2-3.1-4.2c-1.8,0-3.1,1.5-3.1,4.2v0.1   C145.5,303.2,146.9,304.6,148.6,304.6z"></path>
	<path d="M163.6,305.7h-1.4V304c-0.7,1.3-1.9,1.9-3.2,1.9c-2.2,0-3.6-1.5-3.6-3.9v-6.9h1.5v6.5c0,1.8,1,2.9,2.5,2.9   c1.6,0,2.7-1.3,2.7-3.1v-6.4h1.5V305.7z"></path>
	<path d="M166,291.6h1.6v1.7H166V291.6z M166.1,295.1h1.5v10.5h-1.5V295.1z"></path>
	<path d="M170,295.1h1.4v1.9c0.6-1.3,1.8-2.1,3.4-2.1c2.3,0,4.4,1.7,4.4,5.3v0.4c0,3.5-2.1,5.3-4.3,5.3c-1.6,0-2.8-0.8-3.3-2.1v6.1   H170V295.1z M174.6,304.6c1.8,0,3.1-1.4,3.1-4.2v-0.1c0-2.7-1.4-4.2-3.1-4.2c-1.7,0-3.1,1.5-3.1,4.2v0.1   C171.4,303.2,172.8,304.6,174.6,304.6z"></path>
	<path d="M189.5,306c-2.7,0-4.8-2-4.8-5.5v-0.2c0-3.5,2.1-5.5,4.7-5.5s4.7,2,4.7,5.5v0.4h-7.9c0,2.5,1.4,4,3.4,4   c1.2,0,2.3-0.6,2.8-1.8l1.4,0.3C193,305,191.4,306,189.5,306z M192.6,299.7c-0.1-2.4-1.5-3.7-3.2-3.7s-3,1.3-3.2,3.7H192.6z"></path>
	<path d="M202.1,305.7l-1.6-2.3c-0.5-0.7-0.9-1.4-1.4-2.1c-0.5,0.8-0.9,1.5-1.4,2.1l-1.6,2.3h-1.7l3.8-5.4l-3.5-5.1h1.8l1.6,2.3   c0.4,0.6,0.7,1.1,1.1,1.7c0.4-0.6,0.7-1.2,1.1-1.7l1.6-2.3h1.7l-3.5,5l3.8,5.5H202.1z"></path>
	<path d="M214.2,306c-2.7,0-4.8-2-4.8-5.5v-0.2c0-3.5,2.1-5.5,4.7-5.5c2.6,0,4.7,2,4.7,5.5v0.4h-7.9c0,2.5,1.4,4,3.4,4   c1.2,0,2.3-0.6,2.8-1.8l1.4,0.3C217.7,305,216.1,306,214.2,306z M217.3,299.7c-0.1-2.4-1.5-3.7-3.2-3.7c-1.7,0-3,1.3-3.2,3.7H217.3   z"></path>
	<path d="M220,303v-0.1c0-1.7,1.3-3.2,3.9-3.2h3v-0.8c0-1.7-0.9-2.7-2.5-2.7c-1.3,0-2.2,0.7-2.7,1.9l-1.4-0.3c0.8-2,2.3-2.8,4.2-2.8   c2.5,0,3.9,1.5,3.9,3.8v7H227V304c-0.7,1.1-1.9,1.9-3.6,1.9C221.4,305.9,220,304.7,220,303z M223.8,304.7c1.8,0,3.2-1.3,3.2-3.1   v-0.9h-2.9c-1.7,0-2.6,0.9-2.6,2.1C221.5,304,222.4,304.7,223.8,304.7z"></path>
	<path d="M234.6,300.5v-0.2c0-3.5,2.1-5.4,4.6-5.4c1.8,0,3.4,1.1,4.1,3.1l-1.4,0.3c-0.5-1.4-1.6-2.1-2.8-2.1c-1.7,0-3.1,1.4-3.1,4.2   v0.1c0,2.7,1.4,4.2,3.1,4.2c1.1,0,2.3-0.7,2.8-2.1l1.4,0.3c-0.7,2.1-2.3,3.1-4.1,3.1C236.7,305.9,234.6,304,234.6,300.5z"></path>
	<path d="M244.3,300.5v-0.2c0-3.5,2.1-5.5,4.7-5.5c2.6,0,4.7,2,4.7,5.5v0.2c0,3.5-2.1,5.5-4.7,5.5C246.4,306,244.3,304,244.3,300.5z    M249,304.7c1.8,0,3.2-1.5,3.2-4.3v-0.1c0-2.8-1.4-4.3-3.2-4.3s-3.2,1.5-3.2,4.3v0.1C245.8,303.3,247.2,304.7,249,304.7z"></path>
	<path d="M255.5,295.1h1.4v1.7c0.5-1,1.6-1.9,3.1-1.9c1.4,0,2.5,0.8,2.9,2.1c0.7-1.4,1.8-2.1,3.1-2.1c2,0,3.5,1.5,3.5,3.9v6.9H268   v-6.6c0-1.8-0.9-2.9-2.3-2.9c-1.5,0-2.5,1.4-2.5,3.1v6.4h-1.5v-6.6c0-1.8-0.9-2.9-2.3-2.9c-1.5,0-2.5,1.4-2.5,3.1v6.4h-1.5V295.1z"></path>
	<path d="M271.8,295.1h1.4v1.7c0.5-1,1.6-1.9,3.1-1.9c1.4,0,2.5,0.8,2.9,2.1c0.7-1.4,1.8-2.1,3.1-2.1c2,0,3.5,1.5,3.5,3.9v6.9h-1.5   v-6.6c0-1.8-0.9-2.9-2.3-2.9c-1.5,0-2.5,1.4-2.5,3.1v6.4H278v-6.6c0-1.8-0.9-2.9-2.3-2.9c-1.5,0-2.5,1.4-2.5,3.1v6.4h-1.5V295.1z"></path>
	<path d="M287.5,300.5v-0.2c0-3.5,2.1-5.5,4.7-5.5c2.6,0,4.7,2,4.7,5.5v0.2c0,3.5-2.1,5.5-4.7,5.5C289.6,306,287.5,304,287.5,300.5z    M292.2,304.7c1.8,0,3.2-1.5,3.2-4.3v-0.1c0-2.8-1.4-4.3-3.2-4.3c-1.8,0-3.2,1.5-3.2,4.3v0.1C289,303.3,290.4,304.7,292.2,304.7z"></path>
	<path d="M298.2,300.6v-0.4c0-3.5,2.1-5.3,4.3-5.3c1.6,0,2.8,0.8,3.3,2.1v-6.1h1.5v14.8H306v-1.9c-0.6,1.3-1.8,2.1-3.4,2.1   C300.2,305.9,298.2,304.2,298.2,300.6z M302.8,304.6c1.7,0,3.1-1.5,3.1-4.2v-0.1c0-2.7-1.4-4.2-3.1-4.2c-1.8,0-3.1,1.4-3.1,4.2v0.1   C299.6,303.2,301,304.6,302.8,304.6z"></path>
	<path d="M309.2,300.5v-0.2c0-3.5,2.1-5.5,4.7-5.5c2.6,0,4.7,2,4.7,5.5v0.2c0,3.5-2.1,5.5-4.7,5.5C311.3,306,309.2,304,309.2,300.5z    M313.8,304.7c1.8,0,3.2-1.5,3.2-4.3v-0.1c0-2.8-1.4-4.3-3.2-4.3c-1.8,0-3.2,1.5-3.2,4.3v0.1C310.7,303.3,312.1,304.7,313.8,304.7z"></path>
	<path d="M324.1,300.5v-0.2c0-3.5,2.1-5.4,4.6-5.4c1.8,0,3.4,1.1,4.1,3.1l-1.4,0.3c-0.5-1.4-1.6-2.1-2.8-2.1c-1.7,0-3.1,1.4-3.1,4.2   v0.1c0,2.7,1.4,4.2,3.1,4.2c1.1,0,2.3-0.7,2.8-2.1l1.4,0.3c-0.7,2.1-2.3,3.1-4.1,3.1C326.1,305.9,324.1,304,324.1,300.5z"></path>
	<path d="M333.7,300.5v-0.2c0-3.5,2.1-5.5,4.7-5.5c2.6,0,4.7,2,4.7,5.5v0.2c0,3.5-2.1,5.5-4.7,5.5C335.8,306,333.7,304,333.7,300.5z    M338.4,304.7c1.8,0,3.2-1.5,3.2-4.3v-0.1c0-2.8-1.4-4.3-3.2-4.3c-1.8,0-3.2,1.5-3.2,4.3v0.1C335.2,303.3,336.6,304.7,338.4,304.7z"></path>
	<path d="M344.9,295.1h1.4v1.7c0.7-1.3,1.9-1.9,3.2-1.9c2.2,0,3.6,1.5,3.6,3.9v6.9h-1.5v-6.5c0-1.8-1-3-2.5-3   c-1.6,0-2.7,1.4-2.7,3.1v6.4h-1.5V295.1z"></path>
	<path d="M354.5,303.2l1.3-0.5c0.6,1.3,1.6,2,3.1,2c1.5,0,2.5-0.7,2.5-1.9c0-1.1-1-1.6-2.2-1.8l-1.4-0.2c-1.7-0.3-3-1.1-3-2.7   c0-1.7,1.4-3.1,3.7-3.1c1.7,0,3.2,0.8,4.1,2.3l-1.3,0.5c-0.6-1.1-1.6-1.7-2.8-1.7c-1.4,0-2.4,0.7-2.4,1.8c0,1,0.8,1.5,1.9,1.7   l1.3,0.2c2,0.4,3.3,1.2,3.3,2.9c0,1.8-1.5,3.2-3.9,3.2C357.1,305.9,355.4,305.1,354.5,303.2z"></path>
	<path d="M368.6,306c-2.7,0-4.8-2-4.8-5.5v-0.2c0-3.5,2.1-5.5,4.7-5.5c2.6,0,4.7,2,4.7,5.5v0.4h-7.9c0,2.5,1.4,4,3.4,4   c1.2,0,2.3-0.6,2.8-1.8l1.4,0.3C372.1,305,370.5,306,368.6,306z M371.7,299.7c-0.1-2.4-1.5-3.7-3.2-3.7s-3,1.3-3.2,3.7H371.7z"></path>
	<path d="M378.8,305.9c-2.3,0-4.3-1.7-4.3-5.3v-0.4c0-3.5,2.1-5.3,4.4-5.3c1.7,0,2.8,0.9,3.4,2.2v-2h1.4v14.8h-1.5v-6.1   C381.5,305.1,380.4,305.9,378.8,305.9z M379.1,304.6c1.7,0,3.1-1.4,3.1-4.2v-0.1c0-2.7-1.4-4.2-3.1-4.2c-1.8,0-3.1,1.5-3.1,4.2v0.1   C375.9,303.2,377.3,304.6,379.1,304.6z"></path>
	<path d="M394.1,305.7h-1.4V304c-0.7,1.3-1.9,1.9-3.2,1.9c-2.2,0-3.6-1.5-3.6-3.9v-6.9h1.5v6.5c0,1.8,1,2.9,2.5,2.9   c1.6,0,2.7-1.3,2.7-3.1v-6.4h1.5V305.7z"></path>
	<path d="M396,303v-0.1c0-1.7,1.3-3.2,3.9-3.2h3v-0.8c0-1.7-0.9-2.7-2.5-2.7c-1.3,0-2.2,0.7-2.7,1.9l-1.4-0.3c0.8-2,2.3-2.8,4.2-2.8   c2.5,0,3.9,1.5,3.9,3.8v7H403V304c-0.7,1.1-1.9,1.9-3.6,1.9C397.4,305.9,396,304.7,396,303z M399.8,304.7c1.8,0,3.2-1.3,3.2-3.1   v-0.9h-2.9c-1.7,0-2.6,0.9-2.6,2.1C397.5,304,398.4,304.7,399.8,304.7z"></path>
	<path d="M407.4,303.1v-6.7h-1.8v-1.3h1.8V292h1.4v3.2h3v1.3h-3v6.4c0,1.1,0.5,1.6,1.4,1.6h1.5v1.3H410   C408.4,305.7,407.4,304.9,407.4,303.1z"></path>
	<path d="M413.5,303.8h1.6v1.9h-1.6V303.8z"></path>
	<path d="M126.3,317.3h4.2c3.9,0,6.5,2.4,6.5,7.2v0.3c0,4.9-2.6,7.2-6.5,7.2h-4.2V317.3z M130.5,330.6c3,0,4.9-1.8,4.9-5.8v-0.2   c0-4-1.9-5.8-4.9-5.8h-2.6v11.8H130.5z"></path>
	<path d="M147.2,332.1h-1.4v-1.7c-0.7,1.3-1.9,1.9-3.2,1.9c-2.2,0-3.6-1.5-3.6-3.9v-6.9h1.5v6.5c0,1.8,1,2.9,2.5,2.9   c1.6,0,2.7-1.3,2.7-3.1v-6.4h1.5V332.1z"></path>
	<path d="M149.6,317.9h1.6v1.7h-1.6V317.9z M149.7,321.5h1.5v10.5h-1.5V321.5z"></path>
	<path d="M152.8,329.6l1.3-0.5c0.6,1.3,1.6,2,3.1,2c1.5,0,2.5-0.7,2.5-1.9c0-1.1-1-1.6-2.2-1.8l-1.4-0.2c-1.7-0.3-3-1.1-3-2.7   c0-1.7,1.4-3.1,3.7-3.1c1.7,0,3.2,0.8,4.1,2.3l-1.3,0.5c-0.6-1.1-1.6-1.7-2.8-1.7c-1.4,0-2.4,0.7-2.4,1.8c0,1,0.8,1.5,1.9,1.7   l1.3,0.2c2,0.4,3.3,1.2,3.3,2.9c0,1.8-1.5,3.2-3.9,3.2C155.3,332.3,153.7,331.5,152.8,329.6z"></path>
	<path d="M166.6,329.4v-0.1c0-1.7,1.3-3.2,3.9-3.2h3v-0.8c0-1.7-0.9-2.7-2.5-2.7c-1.3,0-2.2,0.7-2.7,1.9l-1.4-0.3   c0.8-2,2.3-2.8,4.2-2.8c2.5,0,3.9,1.5,3.9,3.8v7h-1.4v-1.7c-0.7,1.1-1.9,1.9-3.6,1.9C168,332.3,166.6,331.1,166.6,329.4z    M170.3,331.1c1.8,0,3.2-1.3,3.2-3.1V327h-2.9c-1.7,0-2.6,0.9-2.6,2.1C168,330.3,169,331.1,170.3,331.1z"></path>
	<path d="M185.3,332.1H184v-1.7c-0.7,1.3-1.9,1.9-3.2,1.9c-2.2,0-3.6-1.5-3.6-3.9v-6.9h1.5v6.5c0,1.8,1,2.9,2.5,2.9   c1.6,0,2.7-1.3,2.7-3.1v-6.4h1.5V332.1z"></path>
	<path d="M188.6,329.5v-6.7h-1.8v-1.3h1.8v-3.2h1.4v3.2h3v1.3h-3v6.4c0,1.1,0.5,1.6,1.4,1.6h1.5v1.3h-1.9   C189.6,332.1,188.6,331.3,188.6,329.5z"></path>
	<path d="M198.4,332.4c-2.7,0-4.8-2-4.8-5.5v-0.2c0-3.5,2.1-5.5,4.7-5.5c2.6,0,4.7,2,4.7,5.5v0.4h-7.9c0,2.5,1.4,4,3.4,4   c1.2,0,2.3-0.6,2.8-1.8l1.4,0.3C202,331.4,200.3,332.4,198.4,332.4z M201.5,326.1c-0.1-2.4-1.5-3.7-3.2-3.7s-3,1.3-3.2,3.7H201.5z"></path>
	<path d="M204.8,321.5h1.4v1.7c0.5-1,1.6-1.9,3.1-1.9c1.4,0,2.5,0.8,2.9,2.1c0.7-1.4,1.8-2.1,3.1-2.1c2,0,3.5,1.5,3.5,3.9v6.9h-1.5   v-6.6c0-1.8-0.9-2.9-2.3-2.9c-1.5,0-2.5,1.4-2.5,3.1v6.4h-1.5v-6.6c0-1.8-0.9-2.9-2.3-2.9c-1.5,0-2.5,1.4-2.5,3.1v6.4h-1.5V321.5z"></path>
	<path d="M224.7,321.5h1.6l2.5,6.9c0.2,0.6,0.5,1.3,0.7,2.1c0.2-0.9,0.5-1.5,0.7-2.1l2.5-6.9h1.5l-4,10.5h-1.5L224.7,321.5z"></path>
	<path d="M239.6,332.4c-2.7,0-4.8-2-4.8-5.5v-0.2c0-3.5,2.1-5.5,4.7-5.5s4.7,2,4.7,5.5v0.4h-7.9c0,2.5,1.4,4,3.4,4   c1.2,0,2.3-0.6,2.8-1.8l1.4,0.3C243.1,331.4,241.5,332.4,239.6,332.4z M242.6,326.1c-0.1-2.4-1.5-3.7-3.2-3.7s-3,1.3-3.2,3.7H242.6   z"></path>
	<path d="M246,329.8v-12.5h1.5v12.2c0,0.9,0.4,1.3,1.1,1.3h0.5v1.3h-0.9C246.8,332.1,246,331.4,246,329.8z"></path>
	<path d="M259.1,332.4c-2.7,0-4.8-2-4.8-5.5v-0.2c0-3.5,2.1-5.5,4.7-5.5c2.6,0,4.7,2,4.7,5.5v0.4h-7.9c0,2.5,1.4,4,3.4,4   c1.2,0,2.3-0.6,2.8-1.8l1.4,0.3C262.6,331.4,261,332.4,259.1,332.4z M262.2,326.1c-0.1-2.4-1.5-3.7-3.2-3.7s-3,1.3-3.2,3.7H262.2z"></path>
	<path d="M273.5,332.1h-1.4v-1.7c-0.7,1.3-1.9,1.9-3.2,1.9c-2.2,0-3.6-1.5-3.6-3.9v-6.9h1.5v6.5c0,1.8,1,2.9,2.5,2.9   c1.6,0,2.7-1.3,2.7-3.1v-6.4h1.5V332.1z"></path>
	<path d="M275.9,321.5h1.4v1.7c0.5-1,1.6-1.9,3.1-1.9c1.4,0,2.5,0.8,2.9,2.1c0.7-1.4,1.8-2.1,3.1-2.1c2,0,3.5,1.5,3.5,3.9v6.9h-1.5   v-6.6c0-1.8-0.9-2.9-2.3-2.9c-1.5,0-2.5,1.4-2.5,3.1v6.4h-1.5v-6.6c0-1.8-0.9-2.9-2.3-2.9c-1.5,0-2.5,1.4-2.5,3.1v6.4h-1.5V321.5z"></path>
	<path d="M296.6,317.9h1.6v1.7h-1.6V317.9z M296.6,321.5h1.5v10.5h-1.5V321.5z"></path>
	<path d="M300.6,321.5h1.4v2.5c0.7-1.6,2.2-2.6,4-2.6v1.5c-2.4,0-3.9,1.8-3.9,4.3v4.9h-1.5V321.5z"></path>
	<path d="M307.6,317.9h1.6v1.7h-1.6V317.9z M307.6,321.5h1.5v10.5h-1.5V321.5z"></path>
	<path d="M319.5,332.1h-1.4v-1.7c-0.7,1.3-1.9,1.9-3.2,1.9c-2.2,0-3.6-1.5-3.6-3.9v-6.9h1.5v6.5c0,1.8,1,2.9,2.5,2.9   c1.6,0,2.7-1.3,2.7-3.1v-6.4h1.5V332.1z"></path>
	<path d="M322,321.5h1.4v2.5c0.7-1.6,2.2-2.6,4-2.6v1.5c-2.4,0-3.9,1.8-3.9,4.3v4.9H322V321.5z"></path>
	<path d="M333,332.4c-2.7,0-4.8-2-4.8-5.5v-0.2c0-3.5,2.1-5.5,4.7-5.5c2.6,0,4.7,2,4.7,5.5v0.4h-7.9c0,2.5,1.4,4,3.4,4   c1.2,0,2.3-0.6,2.8-1.8l1.4,0.3C336.5,331.4,334.8,332.4,333,332.4z M336,326.1c-0.1-2.4-1.5-3.7-3.2-3.7s-3,1.3-3.2,3.7H336z"></path>
	<path d="M343.1,327v-0.4c0-3.5,2.1-5.3,4.3-5.3c1.6,0,2.8,0.8,3.3,2.1v-6.1h1.5v14.8h-1.4v-1.9c-0.6,1.3-1.8,2.1-3.4,2.1   C345.1,332.3,343.1,330.5,343.1,327z M347.7,331c1.7,0,3.1-1.5,3.1-4.2v-0.1c0-2.7-1.4-4.2-3.1-4.2c-1.8,0-3.1,1.4-3.1,4.2v0.1   C344.6,329.6,345.9,331,347.7,331z"></path>
	<path d="M354.1,326.9v-0.2c0-3.5,2.1-5.5,4.7-5.5c2.6,0,4.7,2,4.7,5.5v0.2c0,3.5-2.1,5.5-4.7,5.5   C356.2,332.4,354.1,330.4,354.1,326.9z M358.8,331.1c1.8,0,3.2-1.5,3.2-4.3v-0.1c0-2.8-1.4-4.3-3.2-4.3c-1.8,0-3.2,1.5-3.2,4.3v0.1   C355.6,329.6,357,331.1,358.8,331.1z"></path>
	<path d="M365.3,329.8v-12.5h1.5v12.2c0,0.9,0.4,1.3,1.1,1.3h0.5v1.3h-0.9C366.2,332.1,365.3,331.4,365.3,329.8z"></path>
	<path d="M369,326.9v-0.2c0-3.5,2.1-5.5,4.7-5.5s4.7,2,4.7,5.5v0.2c0,3.5-2.1,5.5-4.7,5.5S369,330.4,369,326.9z M373.7,331.1   c1.8,0,3.2-1.5,3.2-4.3v-0.1c0-2.8-1.4-4.3-3.2-4.3s-3.2,1.5-3.2,4.3v0.1C370.5,329.6,371.9,331.1,373.7,331.1z"></path>
	<path d="M380.3,321.5h1.4v2.5c0.7-1.6,2.2-2.6,4-2.6v1.5c-2.4,0-3.9,1.8-3.9,4.3v4.9h-1.5V321.5z"></path>
	<path d="M391.9,317.9h1.6v1.7h-1.6V317.9z M392,321.5h1.5v10.5H392V321.5z"></path>
	<path d="M395.9,321.5h1.4v1.7c0.7-1.3,1.9-1.9,3.2-1.9c2.2,0,3.6,1.5,3.6,3.9v6.9h-1.5v-6.5c0-1.8-1-3-2.5-3   c-1.6,0-2.7,1.4-2.7,3.1v6.4h-1.5V321.5z"></path>
	<path d="M133.9,351.6v6.9h-1.5v-6.5c0-1.8-1-2.9-2.5-2.9c-1.6,0-2.7,1.3-2.7,3.1v6.4h-1.5v-14.8h1.5v5.7c0.6-1.1,1.8-1.7,3.1-1.7   C132.5,347.7,133.9,349.2,133.9,351.6z"></path>
	<path d="M140.4,358.8c-2.7,0-4.8-2-4.8-5.5v-0.2c0-3.5,2.1-5.5,4.7-5.5s4.7,2,4.7,5.5v0.4H137c0,2.5,1.4,4,3.4,4   c1.2,0,2.3-0.6,2.8-1.8l1.4,0.3C143.9,357.8,142.2,358.8,140.4,358.8z M143.4,352.5c-0.1-2.4-1.5-3.7-3.2-3.7s-3,1.3-3.2,3.7H143.4   z"></path>
	<path d="M146.7,347.9h1.4v1.7c0.7-1.3,1.9-1.9,3.2-1.9c2.2,0,3.6,1.5,3.6,3.9v6.9h-1.5v-6.5c0-1.8-1-3-2.5-3   c-1.6,0-2.7,1.4-2.7,3.1v6.4h-1.5V347.9z"></path>
	<path d="M156.7,353.4V353c0-3.5,2.1-5.3,4.3-5.3c1.6,0,2.8,0.8,3.3,2.1v-6.1h1.5v14.8h-1.4v-1.9c-0.6,1.3-1.8,2.1-3.4,2.1   C158.7,358.7,156.7,356.9,156.7,353.4z M161.3,357.4c1.7,0,3.1-1.5,3.1-4.2v-0.1c0-2.7-1.4-4.2-3.1-4.2c-1.8,0-3.1,1.4-3.1,4.2v0.1   C158.1,355.9,159.5,357.4,161.3,357.4z"></path>
	<path d="M168.3,347.9h1.4v2.5c0.7-1.6,2.2-2.6,4-2.6v1.5c-2.4,0-3.9,1.8-3.9,4.3v4.9h-1.5V347.9z"></path>
	<path d="M179.3,358.8c-2.7,0-4.8-2-4.8-5.5v-0.2c0-3.5,2.1-5.5,4.7-5.5c2.6,0,4.7,2,4.7,5.5v0.4h-7.9c0,2.5,1.4,4,3.4,4   c1.2,0,2.3-0.6,2.8-1.8l1.4,0.3C182.8,357.8,181.1,358.8,179.3,358.8z M182.3,352.5c-0.1-2.4-1.5-3.7-3.2-3.7s-3,1.3-3.2,3.7H182.3   z"></path>
	<path d="M185.6,347.9h1.4v2.5c0.7-1.6,2.2-2.6,4-2.6v1.5c-2.4,0-3.9,1.8-3.9,4.3v4.9h-1.5V347.9z"></path>
	<path d="M192.6,344.3h1.6v1.7h-1.6V344.3z M192.7,347.9h1.5v10.5h-1.5V347.9z"></path>
	<path d="M197.4,355.9v-6.7h-1.8v-1.3h1.8v-3.2h1.4v3.2h3v1.3h-3v6.4c0,1.1,0.5,1.6,1.4,1.6h1.5v1.3H200   C198.5,358.4,197.4,357.7,197.4,355.9z"></path>
	<path d="M207.8,344.3h1.6v1.7h-1.6V344.3z M207.9,347.9h1.5v10.5h-1.5V347.9z"></path>
	<path d="M211.8,347.9h1.4v1.7c0.7-1.3,1.9-1.9,3.2-1.9c2.2,0,3.6,1.5,3.6,3.9v6.9h-1.5v-6.5c0-1.8-1-3-2.5-3   c-1.6,0-2.7,1.4-2.7,3.1v6.4h-1.5V347.9z"></path>
	<path d="M225.9,347.9h1.6l2.5,6.9c0.2,0.6,0.5,1.3,0.7,2.1c0.2-0.9,0.5-1.5,0.7-2.1l2.5-6.9h1.5l-4,10.5h-1.5L225.9,347.9z"></path>
	<path d="M245,358.4h-1.4v-1.7c-0.7,1.3-1.9,1.9-3.2,1.9c-2.2,0-3.6-1.5-3.6-3.9v-6.9h1.5v6.5c0,1.8,1,2.9,2.5,2.9   c1.6,0,2.7-1.3,2.7-3.1v-6.4h1.5V358.4z"></path>
	<path d="M247.5,356.2v-12.5h1.5v12.2c0,0.9,0.4,1.3,1.1,1.3h0.5v1.3h-0.9C248.3,358.4,247.5,357.8,247.5,356.2z"></path>
	<path d="M252,347.9h1.4v1.9c0.6-1.3,1.8-2.1,3.4-2.1c2.3,0,4.4,1.7,4.4,5.3v0.4c0,3.5-2.1,5.3-4.3,5.3c-1.6,0-2.8-0.8-3.3-2.1v6.1   H252V347.9z M256.6,357.4c1.8,0,3.1-1.4,3.1-4.2v-0.1c0-2.7-1.4-4.2-3.1-4.2c-1.7,0-3.1,1.5-3.1,4.2v0.1   C253.4,356,254.8,357.4,256.6,357.4z"></path>
	<path d="M271.1,358.4h-1.4v-1.7c-0.7,1.3-1.9,1.9-3.2,1.9c-2.2,0-3.6-1.5-3.6-3.9v-6.9h1.5v6.5c0,1.8,1,2.9,2.5,2.9   c1.6,0,2.7-1.3,2.7-3.1v-6.4h1.5V358.4z"></path>
	<path d="M274.3,355.9v-6.7h-1.8v-1.3h1.8v-3.2h1.4v3.2h3v1.3h-3v6.4c0,1.1,0.5,1.6,1.4,1.6h1.5v1.3h-1.9   C275.4,358.4,274.3,357.7,274.3,355.9z"></path>
	<path d="M279.9,355.7v-0.1c0-1.7,1.3-3.2,3.9-3.2h3v-0.8c0-1.7-0.9-2.7-2.5-2.7c-1.3,0-2.2,0.7-2.7,1.9l-1.4-0.3   c0.8-2,2.3-2.8,4.2-2.8c2.5,0,3.9,1.5,3.9,3.8v7h-1.4v-1.7c-0.7,1.1-1.9,1.9-3.6,1.9C281.4,358.7,279.9,357.5,279.9,355.7z    M283.7,357.5c1.8,0,3.2-1.3,3.2-3.1v-0.9H284c-1.7,0-2.6,0.9-2.6,2.1C281.4,356.7,282.4,357.5,283.7,357.5z"></path>
	<path d="M291.3,355.9v-6.7h-1.8v-1.3h1.8v-3.2h1.4v3.2h3v1.3h-3v6.4c0,1.1,0.5,1.6,1.4,1.6h1.5v1.3h-1.9   C292.4,358.4,291.3,357.7,291.3,355.9z"></path>
	<path d="M301.2,358.8c-2.7,0-4.8-2-4.8-5.5v-0.2c0-3.5,2.1-5.5,4.7-5.5c2.6,0,4.7,2,4.7,5.5v0.4h-7.9c0,2.5,1.4,4,3.4,4   c1.2,0,2.3-0.6,2.8-1.8l1.4,0.3C304.7,357.8,303.1,358.8,301.2,358.8z M304.3,352.5c-0.1-2.4-1.5-3.7-3.2-3.7s-3,1.3-3.2,3.7H304.3   z"></path>
	<path d="M311.2,347.9h1.6l2.5,6.9c0.2,0.6,0.5,1.3,0.7,2.1c0.2-0.9,0.5-1.5,0.7-2.1l2.5-6.9h1.5l-4,10.5h-1.5L311.2,347.9z"></path>
	<path d="M326,358.8c-2.7,0-4.8-2-4.8-5.5v-0.2c0-3.5,2.1-5.5,4.7-5.5c2.6,0,4.7,2,4.7,5.5v0.4h-7.9c0,2.5,1.4,4,3.4,4   c1.2,0,2.3-0.6,2.8-1.8l1.4,0.3C329.6,357.8,327.9,358.8,326,358.8z M329.1,352.5c-0.1-2.4-1.5-3.7-3.2-3.7s-3,1.3-3.2,3.7H329.1z"></path>
	<path d="M332.4,356.2v-12.5h1.5v12.2c0,0.9,0.4,1.3,1.1,1.3h0.5v1.3h-0.9C333.3,358.4,332.4,357.8,332.4,356.2z"></path>
	<path d="M337,344.3h1.6v1.7H337V344.3z M337,347.9h1.5v10.5H337V347.9z"></path>
	<path d="M341.8,355.9v-6.7H340v-1.3h1.8v-3.2h1.4v3.2h3v1.3h-3v6.4c0,1.1,0.5,1.6,1.4,1.6h1.5v1.3h-1.9   C342.8,358.4,341.8,357.7,341.8,355.9z"></path>
	<path d="M356.2,358.8c-2.7,0-4.8-2-4.8-5.5v-0.2c0-3.5,2.1-5.5,4.7-5.5c2.6,0,4.7,2,4.7,5.5v0.4h-7.9c0,2.5,1.4,4,3.4,4   c1.2,0,2.3-0.6,2.8-1.8l1.4,0.3C359.7,357.8,358.1,358.8,356.2,358.8z M359.3,352.5c-0.1-2.4-1.5-3.7-3.2-3.7s-3,1.3-3.2,3.7H359.3   z"></path>
	<path d="M361.8,356l1.3-0.5c0.6,1.3,1.6,2,3.1,2c1.5,0,2.5-0.7,2.5-1.9c0-1.1-1-1.6-2.2-1.8l-1.4-0.2c-1.7-0.3-3-1.1-3-2.7   c0-1.7,1.4-3.1,3.7-3.1c1.7,0,3.2,0.8,4.1,2.3l-1.3,0.5c-0.6-1.1-1.6-1.7-2.8-1.7c-1.4,0-2.4,0.7-2.4,1.8c0,1,0.8,1.5,1.9,1.7   l1.3,0.2c2,0.4,3.3,1.2,3.3,2.9c0,1.8-1.5,3.2-3.9,3.2C364.3,358.7,362.7,357.9,361.8,356z"></path>
	<path d="M371,356l1.3-0.5c0.6,1.3,1.6,2,3.1,2c1.5,0,2.5-0.7,2.5-1.9c0-1.1-1-1.6-2.2-1.8l-1.4-0.2c-1.7-0.3-3-1.1-3-2.7   c0-1.7,1.4-3.1,3.7-3.1c1.7,0,3.2,0.8,4.1,2.3l-1.3,0.5c-0.6-1.1-1.6-1.7-2.8-1.7c-1.4,0-2.4,0.7-2.4,1.8c0,1,0.8,1.5,1.9,1.7   l1.3,0.2c2,0.4,3.3,1.2,3.3,2.9c0,1.8-1.5,3.2-3.9,3.2C373.6,358.7,371.9,357.9,371,356z"></path>
	<path d="M385.1,358.8c-2.7,0-4.8-2-4.8-5.5v-0.2c0-3.5,2.1-5.5,4.7-5.5c2.6,0,4.7,2,4.7,5.5v0.4h-7.9c0,2.5,1.4,4,3.4,4   c1.2,0,2.3-0.6,2.8-1.8l1.4,0.3C388.6,357.8,387,358.8,385.1,358.8z M388.2,352.5c-0.1-2.4-1.5-3.7-3.2-3.7s-3,1.3-3.2,3.7H388.2z"></path>
	<path d="M125.7,374.3h1.4v1.7c0.5-1,1.6-1.9,3.1-1.9c1.4,0,2.5,0.8,2.9,2.1c0.7-1.4,1.8-2.1,3.1-2.1c2,0,3.5,1.5,3.5,3.9v6.9h-1.5   v-6.6c0-1.8-0.9-2.9-2.3-2.9c-1.5,0-2.5,1.4-2.5,3.1v6.4H132v-6.6c0-1.8-0.9-2.9-2.3-2.9c-1.5,0-2.5,1.4-2.5,3.1v6.4h-1.5V374.3z"></path>
	<path d="M141.4,379.7v-0.2c0-3.5,2.1-5.5,4.7-5.5c2.6,0,4.7,2,4.7,5.5v0.2c0,3.5-2.1,5.5-4.7,5.5   C143.5,385.1,141.4,383.2,141.4,379.7z M146.1,383.9c1.8,0,3.2-1.5,3.2-4.3v-0.1c0-2.8-1.4-4.3-3.2-4.3s-3.2,1.5-3.2,4.3v0.1   C142.9,382.4,144.3,383.9,146.1,383.9z"></path>
	<path d="M152.6,382.5v-12.5h1.5v12.2c0,0.9,0.4,1.3,1.1,1.3h0.5v1.3h-0.9C153.5,384.8,152.6,384.2,152.6,382.5z"></path>
	<path d="M161.1,385.1c-2.7,0-4.8-2-4.8-5.5v-0.2c0-3.5,2.1-5.5,4.7-5.5c2.6,0,4.7,2,4.7,5.5v0.4h-7.9c0,2.5,1.4,4,3.4,4   c1.2,0,2.3-0.6,2.8-1.8l1.4,0.3C164.6,384.2,163,385.1,161.1,385.1z M164.2,378.8c-0.1-2.4-1.5-3.7-3.2-3.7c-1.7,0-3,1.3-3.2,3.7   H164.2z"></path>
	<path d="M166.7,382.3l1.3-0.5c0.6,1.3,1.6,2,3.1,2c1.5,0,2.5-0.7,2.5-1.9c0-1.1-1-1.6-2.2-1.8l-1.4-0.2c-1.7-0.3-3-1.1-3-2.7   c0-1.7,1.4-3.1,3.7-3.1c1.7,0,3.2,0.8,4.1,2.3l-1.3,0.5c-0.6-1.1-1.6-1.7-2.8-1.7c-1.4,0-2.4,0.7-2.4,1.8c0,1,0.8,1.5,1.9,1.7   l1.3,0.2c2,0.4,3.3,1.2,3.3,2.9c0,1.8-1.5,3.2-3.9,3.2C169.2,385,167.6,384.3,166.7,382.3z"></path>
	<path d="M177.4,382.3v-6.7h-1.8v-1.3h1.8v-3.2h1.4v3.2h3v1.3h-3v6.4c0,1.1,0.5,1.6,1.4,1.6h1.5v1.3H180   C178.5,384.8,177.4,384,177.4,382.3z"></path>
	<path d="M183.3,370.7h1.6v1.7h-1.6V370.7z M183.4,374.3h1.5v10.5h-1.5V374.3z"></path>
	<path d="M191.5,385.1c-2.7,0-4.8-2-4.8-5.5v-0.2c0-3.5,2.1-5.5,4.7-5.5c2.6,0,4.7,2,4.7,5.5v0.4h-7.9c0,2.5,1.4,4,3.4,4   c1.2,0,2.3-0.6,2.8-1.8l1.4,0.3C195,384.2,193.4,385.1,191.5,385.1z M194.6,378.8c-0.1-2.4-1.5-3.7-3.2-3.7s-3,1.3-3.2,3.7H194.6z"></path>
	<path d="M201.6,379.7v-0.2c0-3.5,2.1-5.4,4.6-5.4c1.8,0,3.4,1.1,4.1,3.1l-1.4,0.3c-0.5-1.4-1.6-2.1-2.8-2.1c-1.7,0-3.1,1.4-3.1,4.2   v0.1c0,2.7,1.4,4.2,3.1,4.2c1.1,0,2.3-0.7,2.8-2.1l1.4,0.3c-0.7,2.1-2.3,3.1-4.1,3.1C203.7,385,201.6,383.1,201.6,379.7z"></path>
	<path d="M211.3,379.7v-0.2c0-3.5,2.1-5.5,4.7-5.5s4.7,2,4.7,5.5v0.2c0,3.5-2.1,5.5-4.7,5.5S211.3,383.2,211.3,379.7z M215.9,383.9   c1.8,0,3.2-1.5,3.2-4.3v-0.1c0-2.8-1.4-4.3-3.2-4.3c-1.8,0-3.2,1.5-3.2,4.3v0.1C212.8,382.4,214.2,383.9,215.9,383.9z"></path>
	<path d="M222.5,374.3h1.4v1.7c0.7-1.3,1.9-1.9,3.2-1.9c2.2,0,3.6,1.5,3.6,3.9v6.9h-1.5v-6.5c0-1.8-1-3-2.5-3   c-1.6,0-2.7,1.4-2.7,3.1v6.4h-1.5V374.3z"></path>
	<path d="M232.1,382.3l1.3-0.5c0.6,1.3,1.6,2,3.1,2c1.5,0,2.5-0.7,2.5-1.9c0-1.1-1-1.6-2.2-1.8l-1.4-0.2c-1.7-0.3-3-1.1-3-2.7   c0-1.7,1.4-3.1,3.7-3.1c1.7,0,3.2,0.8,4.1,2.3l-1.3,0.5c-0.6-1.1-1.6-1.7-2.8-1.7c-1.4,0-2.4,0.7-2.4,1.8c0,1,0.8,1.5,1.9,1.7   l1.3,0.2c2,0.4,3.3,1.2,3.3,2.9c0,1.8-1.5,3.2-3.9,3.2C234.6,385,233,384.3,232.1,382.3z"></path>
	<path d="M246.1,385.1c-2.7,0-4.8-2-4.8-5.5v-0.2c0-3.5,2.1-5.5,4.7-5.5s4.7,2,4.7,5.5v0.4h-7.9c0,2.5,1.4,4,3.4,4   c1.2,0,2.3-0.6,2.8-1.8l1.4,0.3C249.7,384.2,248,385.1,246.1,385.1z M249.2,378.8c-0.1-2.4-1.5-3.7-3.2-3.7s-3,1.3-3.2,3.7H249.2z"></path>
	<path d="M256.3,385c-2.3,0-4.3-1.7-4.3-5.3v-0.4c0-3.5,2.1-5.3,4.4-5.3c1.7,0,2.8,0.9,3.4,2.2v-2h1.4V389h-1.5V383   C259.1,384.2,257.9,385,256.3,385z M256.6,383.8c1.7,0,3.1-1.4,3.1-4.2v-0.1c0-2.7-1.4-4.2-3.1-4.2c-1.8,0-3.1,1.5-3.1,4.2v0.1   C253.5,382.3,254.9,383.8,256.6,383.8z"></path>
	<path d="M271.6,384.8h-1.4v-1.7c-0.7,1.3-1.9,1.9-3.2,1.9c-2.2,0-3.6-1.5-3.6-3.9v-6.9h1.5v6.5c0,1.8,1,2.9,2.5,2.9   c1.6,0,2.7-1.3,2.7-3.1v-6.4h1.5V384.8z"></path>
	<path d="M273.6,382.1V382c0-1.7,1.3-3.2,3.9-3.2h3v-0.8c0-1.7-0.9-2.7-2.5-2.7c-1.3,0-2.2,0.7-2.7,1.9l-1.4-0.3   c0.8-2,2.3-2.8,4.2-2.8c2.5,0,3.9,1.5,3.9,3.8v7h-1.4v-1.7c-0.7,1.1-1.9,1.9-3.6,1.9C275,385,273.6,383.9,273.6,382.1z    M277.3,383.9c1.8,0,3.2-1.3,3.2-3.1v-0.9h-2.9c-1.7,0-2.6,0.9-2.6,2.1C275,383.1,276,383.9,277.3,383.9z"></path>
	<path d="M284.9,382.3v-6.7h-1.8v-1.3h1.8v-3.2h1.4v3.2h3v1.3h-3v6.4c0,1.1,0.5,1.6,1.4,1.6h1.5v1.3h-1.9   C286,384.8,284.9,384,284.9,382.3z"></path>
	<path d="M291.7,385.8v-1.1H291v-1.8h1.6v2.9c0,1.1-0.6,1.6-1.8,1.6v-0.8C291.4,386.6,291.7,386.4,291.7,385.8z"></path>
	<path d="M299,374.3h1.6l2.5,6.9c0.2,0.6,0.5,1.3,0.7,2.1c0.2-0.9,0.5-1.5,0.7-2.1l2.5-6.9h1.5l-4,10.5H303L299,374.3z"></path>
	<path d="M313.8,385.1c-2.7,0-4.8-2-4.8-5.5v-0.2c0-3.5,2.1-5.5,4.7-5.5c2.6,0,4.7,2,4.7,5.5v0.4h-7.9c0,2.5,1.4,4,3.4,4   c1.2,0,2.3-0.6,2.8-1.8l1.4,0.3C317.3,384.2,315.7,385.1,313.8,385.1z M316.9,378.8c-0.1-2.4-1.5-3.7-3.2-3.7s-3,1.3-3.2,3.7H316.9   z"></path>
	<path d="M320.2,382.5v-12.5h1.5v12.2c0,0.9,0.4,1.3,1.1,1.3h0.5v1.3h-0.9C321.1,384.8,320.2,384.2,320.2,382.5z"></path>
	<path d="M329.2,370.7h1.6v1.7h-1.6V370.7z M329.3,374.3h1.5v10.5h-1.5V374.3z"></path>
	<path d="M333.2,382.5v-12.5h1.5v12.2c0,0.9,0.4,1.3,1.1,1.3h0.5v1.3h-0.9C334.1,384.8,333.2,384.2,333.2,382.5z"></path>
	<path d="M337.8,382.5v-12.5h1.5v12.2c0,0.9,0.4,1.3,1.1,1.3h0.5v1.3H340C338.7,384.8,337.8,384.2,337.8,382.5z"></path>
	<path d="M350.2,384.8h-1.4v-1.7c-0.7,1.3-1.9,1.9-3.2,1.9c-2.2,0-3.6-1.5-3.6-3.9v-6.9h1.5v6.5c0,1.8,1,2.9,2.5,2.9   c1.6,0,2.7-1.3,2.7-3.1v-6.4h1.5V384.8z"></path>
	<path d="M352.6,374.3h1.4v1.7c0.5-1,1.6-1.9,3.1-1.9c1.4,0,2.5,0.8,2.9,2.1c0.7-1.4,1.8-2.1,3.1-2.1c2,0,3.5,1.5,3.5,3.9v6.9h-1.5   v-6.6c0-1.8-0.9-2.9-2.3-2.9c-1.5,0-2.5,1.4-2.5,3.1v6.4h-1.5v-6.6c0-1.8-0.9-2.9-2.3-2.9c-1.5,0-2.5,1.4-2.5,3.1v6.4h-1.5V374.3z"></path>
	<path d="M372.6,379.8v-0.4c0-3.5,2.1-5.3,4.3-5.3c1.6,0,2.8,0.8,3.3,2.1v-6.1h1.5v14.8h-1.4v-1.9c-0.6,1.3-1.8,2.1-3.4,2.1   C374.6,385,372.6,383.3,372.6,379.8z M377.2,383.8c1.7,0,3.1-1.5,3.1-4.2v-0.1c0-2.7-1.4-4.2-3.1-4.2c-1.8,0-3.1,1.4-3.1,4.2v0.1   C374.1,382.3,375.5,383.8,377.2,383.8z"></path>
	<path d="M383.6,379.7v-0.2c0-3.5,2.1-5.5,4.7-5.5c2.6,0,4.7,2,4.7,5.5v0.2c0,3.5-2.1,5.5-4.7,5.5   C385.7,385.1,383.6,383.2,383.6,379.7z M388.3,383.9c1.8,0,3.2-1.5,3.2-4.3v-0.1c0-2.8-1.4-4.3-3.2-4.3c-1.8,0-3.2,1.5-3.2,4.3v0.1   C385.1,382.4,386.5,383.9,388.3,383.9z"></path>
	<path d="M394.8,382.5v-12.5h1.5v12.2c0,0.9,0.4,1.3,1.1,1.3h0.5v1.3H397C395.7,384.8,394.8,384.2,394.8,382.5z"></path>
	<path d="M398.5,379.7v-0.2c0-3.5,2.1-5.5,4.7-5.5c2.6,0,4.7,2,4.7,5.5v0.2c0,3.5-2.1,5.5-4.7,5.5   C400.6,385.1,398.5,383.2,398.5,379.7z M403.2,383.9c1.8,0,3.2-1.5,3.2-4.3v-0.1c0-2.8-1.4-4.3-3.2-4.3c-1.8,0-3.2,1.5-3.2,4.3v0.1   C400,382.4,401.4,383.9,403.2,383.9z"></path>
	<path d="M409.8,374.3h1.4v2.5c0.7-1.6,2.2-2.6,4-2.6v1.5c-2.4,0-3.9,1.8-3.9,4.3v4.9h-1.5V374.3z"></path>
	<path d="M420.7,385.1c-2.7,0-4.8-2-4.8-5.5v-0.2c0-3.5,2.1-5.5,4.7-5.5c2.6,0,4.7,2,4.7,5.5v0.4h-7.9c0,2.5,1.4,4,3.4,4   c1.2,0,2.3-0.6,2.8-1.8l1.4,0.3C424.3,384.2,422.6,385.1,420.7,385.1z M423.8,378.8c-0.1-2.4-1.5-3.7-3.2-3.7s-3,1.3-3.2,3.7H423.8   z"></path>
	<path d="M435.6,385.1c-2.7,0-4.8-2-4.8-5.5v-0.2c0-3.5,2.1-5.5,4.7-5.5c2.6,0,4.7,2,4.7,5.5v0.4h-7.9c0,2.5,1.4,4,3.4,4   c1.2,0,2.3-0.6,2.8-1.8l1.4,0.3C439.1,384.2,437.5,385.1,435.6,385.1z M438.7,378.8c-0.1-2.4-1.5-3.7-3.2-3.7s-3,1.3-3.2,3.7H438.7   z"></path>
	<path d="M450,384.8h-1.4v-1.7c-0.7,1.3-1.9,1.9-3.2,1.9c-2.2,0-3.6-1.5-3.6-3.9v-6.9h1.5v6.5c0,1.8,1,2.9,2.5,2.9   c1.6,0,2.7-1.3,2.7-3.1v-6.4h1.5V384.8z"></path>
	<path d="M126.8,401.9h-2v-1.3h2.1v-1.5c0-2,1.3-2.7,2.7-2.7h1.4v1.3h-1.2c-0.9,0-1.5,0.4-1.5,1.6v1.3h2.8v1.3h-2.7v9.3h-1.5V401.9z"></path>
	<path d="M136.3,411.5c-2.7,0-4.8-2-4.8-5.5v-0.2c0-3.5,2.1-5.5,4.7-5.5s4.7,2,4.7,5.5v0.4H133c0,2.5,1.4,4,3.4,4   c1.2,0,2.3-0.6,2.8-1.8l1.4,0.3C139.8,410.5,138.2,411.5,136.3,411.5z M139.4,405.2c-0.1-2.4-1.5-3.7-3.2-3.7c-1.7,0-3,1.3-3.2,3.7   H139.4z"></path>
	<path d="M150.7,411.2h-1.4v-1.7c-0.7,1.3-1.9,1.9-3.2,1.9c-2.2,0-3.6-1.5-3.6-3.9v-6.9h1.5v6.5c0,1.8,1,2.9,2.5,2.9   c1.6,0,2.7-1.3,2.7-3.1v-6.4h1.5V411.2z"></path>
	<path d="M152.4,412.7c0-1.1,0.7-2,1.6-2.5c-0.6-0.4-0.9-0.9-0.9-1.7c0-1,0.7-1.7,1.5-2c-0.9-0.5-1.5-1.5-1.5-2.7   c0-2,1.6-3.5,3.8-3.5c0.5,0,1,0.1,1.4,0.2h3.2v1.2h-1.8c0.5,0.5,0.9,1.2,0.9,2.1c0,2-1.6,3.5-3.7,3.5h-1.3c-0.9,0-1.3,0.4-1.3,1.1   c0,0.6,0.4,1.1,1.3,1.1h3.1c1.9,0,3.2,1.3,3.2,3c0,1.8-1.4,3.2-3.6,3.2h-2.4C153.7,415.7,152.4,414.4,152.4,412.7z M156.1,414.6h2   c1.5,0,2.4-0.9,2.4-2c0-1.1-0.8-1.9-2.1-1.9h-2.5c-1.2,0-2.1,0.8-2.1,1.9C153.7,413.7,154.6,414.6,156.1,414.6z M156.9,406.3   c1.4,0,2.4-1.1,2.4-2.4c0-1.4-1.1-2.4-2.4-2.4c-1.4,0-2.4,1-2.4,2.4C154.4,405.2,155.5,406.3,156.9,406.3z"></path>
	<path d="M163.2,397.1h1.6v1.7h-1.6V397.1z M163.3,400.6h1.5v10.5h-1.5V400.6z"></path>
	<path d="M166.7,408.5v-0.1c0-1.7,1.3-3.2,3.9-3.2h3v-0.8c0-1.7-0.9-2.7-2.5-2.7c-1.3,0-2.2,0.7-2.7,1.9l-1.4-0.3   c0.8-2,2.3-2.8,4.2-2.8c2.5,0,3.9,1.5,3.9,3.8v7h-1.4v-1.7c-0.7,1.1-1.9,1.9-3.6,1.9C168.1,411.4,166.7,410.2,166.7,408.5z    M170.4,410.2c1.8,0,3.2-1.3,3.2-3.1v-0.9h-2.9c-1.7,0-2.6,0.9-2.6,2.1C168.2,409.5,169.1,410.2,170.4,410.2z"></path>
	<path d="M178.1,408.6v-6.7h-1.8v-1.3h1.8v-3.2h1.4v3.2h3v1.3h-3v6.4c0,1.1,0.5,1.6,1.4,1.6h1.5v1.3h-1.9   C179.1,411.2,178.1,410.4,178.1,408.6z"></path>
	<path d="M188.5,400.6h1.4v1.7c0.7-1.3,1.9-1.9,3.2-1.9c2.2,0,3.6,1.5,3.6,3.9v6.9h-1.5v-6.5c0-1.8-1-3-2.5-3   c-1.6,0-2.7,1.4-2.7,3.1v6.4h-1.5V400.6z"></path>
	<path d="M206.9,411.2h-1.4v-1.7c-0.7,1.3-1.9,1.9-3.2,1.9c-2.2,0-3.6-1.5-3.6-3.9v-6.9h1.5v6.5c0,1.8,1,2.9,2.5,2.9   c1.6,0,2.7-1.3,2.7-3.1v-6.4h1.5V411.2z"></path>
	<path d="M209.3,408.9v-12.5h1.5v12.2c0,0.9,0.4,1.3,1.1,1.3h0.5v1.3h-0.9C210.2,411.2,209.3,410.5,209.3,408.9z"></path>
	<path d="M213.9,408.9v-12.5h1.5v12.2c0,0.9,0.4,1.3,1.1,1.3h0.5v1.3h-0.9C214.8,411.2,213.9,410.5,213.9,408.9z"></path>
	<path d="M218.1,408.5v-0.1c0-1.7,1.3-3.2,3.9-3.2h3v-0.8c0-1.7-0.9-2.7-2.5-2.7c-1.3,0-2.2,0.7-2.7,1.9l-1.4-0.3   c0.8-2,2.3-2.8,4.2-2.8c2.5,0,3.9,1.5,3.9,3.8v7h-1.4v-1.7c-0.7,1.1-1.9,1.9-3.6,1.9C219.6,411.4,218.1,410.2,218.1,408.5z    M221.9,410.2c1.8,0,3.2-1.3,3.2-3.1v-0.9h-2.9c-1.7,0-2.6,0.9-2.6,2.1C219.6,409.5,220.6,410.2,221.9,410.2z"></path>
	<path d="M234.5,401.9h-2v-1.3h2.1v-1.5c0-2,1.3-2.7,2.7-2.7h1.4v1.3h-1.2c-0.9,0-1.5,0.4-1.5,1.6v1.3h2.8v1.3H236v9.3h-1.5V401.9z"></path>
	<path d="M239.5,408.5v-0.1c0-1.7,1.3-3.2,3.9-3.2h3v-0.8c0-1.7-0.9-2.7-2.5-2.7c-1.3,0-2.2,0.7-2.7,1.9l-1.4-0.3   c0.8-2,2.3-2.8,4.2-2.8c2.5,0,3.9,1.5,3.9,3.8v7h-1.4v-1.7c-0.7,1.1-1.9,1.9-3.6,1.9C240.9,411.4,239.5,410.2,239.5,408.5z    M243.2,410.2c1.8,0,3.2-1.3,3.2-3.1v-0.9h-2.9c-1.7,0-2.6,0.9-2.6,2.1C241,409.5,241.9,410.2,243.2,410.2z"></path>
	<path d="M249.7,406v-0.2c0-3.5,2.1-5.4,4.6-5.4c1.8,0,3.4,1.1,4.1,3.1l-1.4,0.3c-0.5-1.4-1.6-2.1-2.8-2.1c-1.7,0-3.1,1.4-3.1,4.2   v0.1c0,2.7,1.4,4.2,3.1,4.2c1.1,0,2.3-0.7,2.8-2.1l1.4,0.3c-0.7,2.1-2.3,3.1-4.1,3.1C251.7,411.4,249.7,409.5,249.7,406z"></path>
	<path d="M259.9,397.1h1.6v1.7h-1.6V397.1z M259.9,400.6h1.5v10.5h-1.5V400.6z"></path>
	<path d="M263.8,408.9v-12.5h1.5v12.2c0,0.9,0.4,1.3,1.1,1.3h0.5v1.3H266C264.7,411.2,263.8,410.5,263.8,408.9z"></path>
	<path d="M268.4,397.1h1.6v1.7h-1.6V397.1z M268.4,400.6h1.5v10.5h-1.5V400.6z"></path>
	<path d="M271.5,408.7l1.3-0.5c0.6,1.3,1.6,2,3.1,2c1.5,0,2.5-0.7,2.5-1.9c0-1.1-1-1.6-2.2-1.8l-1.4-0.2c-1.7-0.3-3-1.1-3-2.7   c0-1.7,1.4-3.1,3.7-3.1c1.7,0,3.2,0.8,4.1,2.3l-1.3,0.5c-0.6-1.1-1.6-1.7-2.8-1.7c-1.4,0-2.4,0.7-2.4,1.8c0,1,0.8,1.5,1.9,1.7   l1.3,0.2c2,0.4,3.3,1.2,3.3,2.9c0,1.8-1.5,3.2-3.9,3.2C274.1,411.4,272.4,410.6,271.5,408.7z"></path>
	<path d="M281.3,397.1h1.6v1.7h-1.6V397.1z M281.4,400.6h1.5v10.5h-1.5V400.6z"></path>
	<path d="M284.5,408.7l1.3-0.5c0.6,1.3,1.6,2,3.1,2c1.5,0,2.5-0.7,2.5-1.9c0-1.1-1-1.6-2.2-1.8l-1.4-0.2c-1.7-0.3-3-1.1-3-2.7   c0-1.7,1.4-3.1,3.7-3.1c1.7,0,3.2,0.8,4.1,2.3l-1.3,0.5c-0.6-1.1-1.6-1.7-2.8-1.7c-1.4,0-2.4,0.7-2.4,1.8c0,1,0.8,1.5,1.9,1.7   l1.3,0.2c2,0.4,3.3,1.2,3.3,2.9c0,1.8-1.5,3.2-3.9,3.2C287,411.4,285.4,410.6,284.5,408.7z"></path>
	<path d="M298.3,408.5v-0.1c0-1.7,1.3-3.2,3.9-3.2h3v-0.8c0-1.7-0.9-2.7-2.5-2.7c-1.3,0-2.2,0.7-2.7,1.9l-1.4-0.3   c0.8-2,2.3-2.8,4.2-2.8c2.5,0,3.9,1.5,3.9,3.8v7h-1.4v-1.7c-0.7,1.1-1.9,1.9-3.6,1.9C299.7,411.4,298.3,410.2,298.3,408.5z    M302,410.2c1.8,0,3.2-1.3,3.2-3.1v-0.9h-2.9c-1.7,0-2.6,0.9-2.6,2.1C299.8,409.5,300.7,410.2,302,410.2z"></path>
	<path d="M309.7,408.6v-6.7h-1.8v-1.3h1.8v-3.2h1.4v3.2h3v1.3h-3v6.4c0,1.1,0.5,1.6,1.4,1.6h1.5v1.3h-1.9   C310.7,411.2,309.7,410.4,309.7,408.6z"></path>
	<path d="M319.3,400.6h1.6l2.5,6.9c0.2,0.6,0.5,1.3,0.7,2.1c0.2-0.9,0.5-1.5,0.7-2.1l2.5-6.9h1.5l-4,10.5h-1.5L319.3,400.6z"></path>
	<path d="M334.1,411.5c-2.7,0-4.8-2-4.8-5.5v-0.2c0-3.5,2.1-5.5,4.7-5.5c2.6,0,4.7,2,4.7,5.5v0.4h-7.9c0,2.5,1.4,4,3.4,4   c1.2,0,2.3-0.6,2.8-1.8l1.4,0.3C337.6,410.5,336,411.5,334.1,411.5z M337.2,405.2c-0.1-2.4-1.5-3.7-3.2-3.7c-1.7,0-3,1.3-3.2,3.7   H337.2z"></path>
	<path d="M340.5,400.6h1.4v2.5c0.7-1.6,2.2-2.6,4-2.6v1.5c-2.4,0-3.9,1.8-3.9,4.3v4.9h-1.5V400.6z"></path>
	<path d="M346.7,406v-0.2c0-3.5,2.1-5.5,4.7-5.5c2.6,0,4.7,2,4.7,5.5v0.2c0,3.5-2.1,5.5-4.7,5.5C348.8,411.5,346.7,409.5,346.7,406z    M351.4,410.2c1.8,0,3.2-1.5,3.2-4.3v-0.1c0-2.8-1.4-4.3-3.2-4.3c-1.8,0-3.2,1.5-3.2,4.3v0.1C348.2,408.8,349.6,410.2,351.4,410.2z"></path>
	<path d="M366.4,411.5c-2.7,0-4.8-2-4.8-5.5v-0.2c0-3.5,2.1-5.5,4.7-5.5c2.6,0,4.7,2,4.7,5.5v0.4h-7.9c0,2.5,1.4,4,3.4,4   c1.2,0,2.3-0.6,2.8-1.8l1.4,0.3C369.9,410.5,368.3,411.5,366.4,411.5z M369.5,405.2c-0.1-2.4-1.5-3.7-3.2-3.7s-3,1.3-3.2,3.7H369.5   z"></path>
	<path d="M372.8,400.6h1.4v2.5c0.7-1.6,2.2-2.6,4-2.6v1.5c-2.4,0-3.9,1.8-3.9,4.3v4.9h-1.5V400.6z"></path>
	<path d="M379,406v-0.2c0-3.5,2.1-5.5,4.7-5.5s4.7,2,4.7,5.5v0.2c0,3.5-2.1,5.5-4.7,5.5S379,409.5,379,406z M383.7,410.2   c1.8,0,3.2-1.5,3.2-4.3v-0.1c0-2.8-1.4-4.3-3.2-4.3s-3.2,1.5-3.2,4.3v0.1C380.5,408.8,381.9,410.2,383.7,410.2z"></path>
	<path d="M389.3,408.7l1.3-0.5c0.6,1.3,1.6,2,3.1,2c1.5,0,2.5-0.7,2.5-1.9c0-1.1-1-1.6-2.2-1.8l-1.4-0.2c-1.7-0.3-3-1.1-3-2.7   c0-1.7,1.4-3.1,3.7-3.1c1.7,0,3.2,0.8,4.1,2.3l-1.3,0.5c-0.6-1.1-1.6-1.7-2.8-1.7c-1.4,0-2.4,0.7-2.4,1.8c0,1,0.8,1.5,1.9,1.7   l1.3,0.2c2,0.4,3.3,1.2,3.3,2.9c0,1.8-1.5,3.2-3.9,3.2C391.8,411.4,390.2,410.6,389.3,408.7z"></path>
	<path d="M407.5,411.5c-2.7,0-4.8-2-4.8-5.5v-0.2c0-3.5,2.1-5.5,4.7-5.5c2.6,0,4.7,2,4.7,5.5v0.4h-7.9c0,2.5,1.4,4,3.4,4   c1.2,0,2.3-0.6,2.8-1.8l1.4,0.3C411.1,410.5,409.4,411.5,407.5,411.5z M410.6,405.2c-0.1-2.4-1.5-3.7-3.2-3.7s-3,1.3-3.2,3.7H410.6   z"></path>
	<path d="M414.5,408.6v-6.7h-1.8v-1.3h1.8v-3.2h1.4v3.2h3v1.3h-3v6.4c0,1.1,0.5,1.6,1.4,1.6h1.5v1.3h-1.9   C415.5,411.2,414.5,410.4,414.5,408.6z"></path>
	<path d="M125,432.5v-0.4c0-3.5,2.1-5.3,4.3-5.3c1.6,0,2.8,0.8,3.3,2.1v-6.1h1.5v14.8h-1.4v-1.9c-0.6,1.3-1.8,2.1-3.4,2.1   C127.1,437.8,125,436,125,432.5z M129.7,436.5c1.7,0,3.1-1.5,3.1-4.2v-0.1c0-2.7-1.4-4.2-3.1-4.2c-1.8,0-3.1,1.4-3.1,4.2v0.1   C126.5,435.1,127.9,436.5,129.7,436.5z"></path>
	<path d="M140.8,437.9c-2.7,0-4.8-2-4.8-5.5v-0.2c0-3.5,2.1-5.5,4.7-5.5c2.6,0,4.7,2,4.7,5.5v0.4h-7.9c0,2.5,1.4,4,3.4,4   c1.2,0,2.3-0.6,2.8-1.8l1.4,0.3C144.3,436.9,142.7,437.9,140.8,437.9z M143.9,431.6c-0.1-2.4-1.5-3.7-3.2-3.7s-3,1.3-3.2,3.7H143.9   z"></path>
	<path d="M147.2,435.3v-12.5h1.5V435c0,0.9,0.4,1.3,1.1,1.3h0.5v1.3h-0.9C148.1,437.6,147.2,436.9,147.2,435.3z"></path>
	<path d="M155.7,437.9c-2.7,0-4.8-2-4.8-5.5v-0.2c0-3.5,2.1-5.5,4.7-5.5c2.6,0,4.7,2,4.7,5.5v0.4h-7.9c0,2.5,1.4,4,3.4,4   c1.2,0,2.3-0.6,2.8-1.8l1.4,0.3C159.2,436.9,157.6,437.9,155.7,437.9z M158.8,431.6c-0.1-2.4-1.5-3.7-3.2-3.7c-1.7,0-3,1.3-3.2,3.7   H158.8z"></path>
	<path d="M162.1,427h1.4v1.7c0.7-1.3,1.9-1.9,3.2-1.9c2.2,0,3.6,1.5,3.6,3.9v6.9h-1.5V431c0-1.8-1-3-2.5-3c-1.6,0-2.7,1.4-2.7,3.1   v6.4h-1.5V427z"></path>
	<path d="M172.5,423.4h1.6v1.7h-1.6V423.4z M172.6,427h1.5v10.5h-1.5V427z"></path>
	<path d="M177.3,435v-6.7h-1.8V427h1.8v-3.2h1.4v3.2h3v1.3h-3v6.4c0,1.1,0.5,1.6,1.4,1.6h1.5v1.3h-1.9   C178.4,437.6,177.3,436.8,177.3,435z"></path>
	<path d="M187.3,434.9v-0.1c0-1.7,1.3-3.2,3.9-3.2h3v-0.8c0-1.7-0.9-2.7-2.5-2.7c-1.3,0-2.2,0.7-2.7,1.9l-1.4-0.3   c0.8-2,2.3-2.8,4.2-2.8c2.5,0,3.9,1.5,3.9,3.8v7h-1.4v-1.7c-0.7,1.1-1.9,1.9-3.6,1.9C188.7,437.8,187.3,436.6,187.3,434.9z    M191,436.6c1.8,0,3.2-1.3,3.2-3.1v-0.9h-2.9c-1.7,0-2.6,0.9-2.6,2.1C188.8,435.8,189.7,436.6,191,436.6z"></path>
	<path d="M206.1,437.6h-1.4v-1.7c-0.7,1.3-1.9,1.9-3.2,1.9c-2.2,0-3.6-1.5-3.6-3.9V427h1.5v6.5c0,1.8,1,2.9,2.5,2.9   c1.6,0,2.7-1.3,2.7-3.1V427h1.5V437.6z"></path>
	<path d="M207.7,439.1c0-1.1,0.7-2,1.6-2.5c-0.6-0.4-0.9-0.9-0.9-1.7c0-1,0.7-1.7,1.5-2c-0.9-0.5-1.5-1.5-1.5-2.7   c0-2,1.6-3.5,3.8-3.5c0.5,0,1,0.1,1.4,0.2h3.2v1.2h-1.8c0.5,0.5,0.9,1.2,0.9,2.1c0,2-1.6,3.5-3.7,3.5h-1.3c-0.9,0-1.3,0.4-1.3,1.1   c0,0.6,0.4,1.1,1.3,1.1h3.1c1.9,0,3.2,1.3,3.2,3c0,1.8-1.4,3.2-3.6,3.2h-2.4C209,442.1,207.7,440.8,207.7,439.1z M211.4,440.9h2   c1.5,0,2.4-0.9,2.4-2c0-1.1-0.8-1.9-2.1-1.9h-2.5c-1.2,0-2.1,0.8-2.1,1.9C209.1,440.1,209.9,440.9,211.4,440.9z M212.2,432.7   c1.4,0,2.4-1.1,2.4-2.4c0-1.4-1.1-2.4-2.4-2.4c-1.4,0-2.4,1-2.4,2.4C209.8,431.6,210.8,432.7,212.2,432.7z"></path>
	<path d="M226.5,437.6h-1.4v-1.7c-0.7,1.3-1.9,1.9-3.2,1.9c-2.2,0-3.6-1.5-3.6-3.9V427h1.5v6.5c0,1.8,1,2.9,2.5,2.9   c1.6,0,2.7-1.3,2.7-3.1V427h1.5V437.6z"></path>
	<path d="M233.2,437.9c-2.7,0-4.8-2-4.8-5.5v-0.2c0-3.5,2.1-5.5,4.7-5.5c2.6,0,4.7,2,4.7,5.5v0.4h-7.9c0,2.5,1.4,4,3.4,4   c1.2,0,2.3-0.6,2.8-1.8l1.4,0.3C236.7,436.9,235,437.9,233.2,437.9z M236.2,431.6c-0.1-2.4-1.5-3.7-3.2-3.7s-3,1.3-3.2,3.7H236.2z"></path>
	<path d="M243.3,432.5v-0.4c0-3.5,2.1-5.3,4.3-5.3c1.6,0,2.8,0.8,3.3,2.1v-6.1h1.5v14.8h-1.4v-1.9c-0.6,1.3-1.8,2.1-3.4,2.1   C245.3,437.8,243.3,436,243.3,432.5z M247.9,436.5c1.7,0,3.1-1.5,3.1-4.2v-0.1c0-2.7-1.4-4.2-3.1-4.2c-1.8,0-3.1,1.4-3.1,4.2v0.1   C244.7,435.1,246.1,436.5,247.9,436.5z"></path>
	<path d="M262.9,437.6h-1.4v-1.7c-0.7,1.3-1.9,1.9-3.2,1.9c-2.2,0-3.6-1.5-3.6-3.9V427h1.5v6.5c0,1.8,1,2.9,2.5,2.9   c1.6,0,2.7-1.3,2.7-3.1V427h1.5V437.6z"></path>
	<path d="M265.3,423.4h1.6v1.7h-1.6V423.4z M265.4,427h1.5v10.5h-1.5V427z"></path>
	<path d="M268.4,435.1l1.3-0.5c0.6,1.3,1.6,2,3.1,2c1.5,0,2.5-0.7,2.5-1.9c0-1.1-1-1.6-2.2-1.8l-1.4-0.2c-1.7-0.3-3-1.1-3-2.7   c0-1.7,1.4-3.1,3.7-3.1c1.7,0,3.2,0.8,4.1,2.3l-1.3,0.5c-0.6-1.1-1.6-1.7-2.8-1.7c-1.4,0-2.4,0.7-2.4,1.8c0,1,0.8,1.5,1.9,1.7   l1.3,0.2c2,0.4,3.3,1.2,3.3,2.9c0,1.8-1.5,3.2-3.9,3.2C271,437.8,269.3,437,268.4,435.1z"></path>
	<path d="M282,432.5v-0.4c0-3.5,2.1-5.3,4.3-5.3c1.6,0,2.8,0.8,3.3,2.1v-6.1h1.5v14.8h-1.4v-1.9c-0.6,1.3-1.8,2.1-3.4,2.1   C284,437.8,282,436,282,432.5z M286.6,436.5c1.7,0,3.1-1.5,3.1-4.2v-0.1c0-2.7-1.4-4.2-3.1-4.2c-1.8,0-3.1,1.4-3.1,4.2v0.1   C283.4,435.1,284.8,436.5,286.6,436.5z"></path>
	<path d="M293,432.4v-0.2c0-3.5,2.1-5.5,4.7-5.5c2.6,0,4.7,2,4.7,5.5v0.2c0,3.5-2.1,5.5-4.7,5.5C295.1,437.9,293,435.9,293,432.4z    M297.7,436.6c1.8,0,3.2-1.5,3.2-4.3v-0.1c0-2.8-1.4-4.3-3.2-4.3c-1.8,0-3.2,1.5-3.2,4.3v0.1C294.5,435.1,295.9,436.6,297.7,436.6z"></path>
	<path d="M304.2,435.3v-12.5h1.5V435c0,0.9,0.4,1.3,1.1,1.3h0.5v1.3h-0.9C305.1,437.6,304.2,436.9,304.2,435.3z"></path>
	<path d="M307.9,432.4v-0.2c0-3.5,2.1-5.5,4.7-5.5c2.6,0,4.7,2,4.7,5.5v0.2c0,3.5-2.1,5.5-4.7,5.5   C310,437.9,307.9,435.9,307.9,432.4z M312.6,436.6c1.8,0,3.2-1.5,3.2-4.3v-0.1c0-2.8-1.4-4.3-3.2-4.3c-1.8,0-3.2,1.5-3.2,4.3v0.1   C309.4,435.1,310.8,436.6,312.6,436.6z"></path>
	<path d="M319.1,427h1.4v2.5c0.7-1.6,2.2-2.6,4-2.6v1.5c-2.4,0-3.9,1.8-3.9,4.3v4.9h-1.5V427z"></path>
	<path d="M330.1,437.9c-2.7,0-4.8-2-4.8-5.5v-0.2c0-3.5,2.1-5.5,4.7-5.5c2.6,0,4.7,2,4.7,5.5v0.4h-7.9c0,2.5,1.4,4,3.4,4   c1.2,0,2.3-0.6,2.8-1.8l1.4,0.3C333.6,436.9,332,437.9,330.1,437.9z M333.2,431.6c-0.1-2.4-1.5-3.7-3.2-3.7c-1.7,0-3,1.3-3.2,3.7   H333.2z"></path>
	<path d="M336.5,427h1.4v1.7c0.7-1.3,1.9-1.9,3.2-1.9c2.2,0,3.6,1.5,3.6,3.9v6.9h-1.5V431c0-1.8-1-3-2.5-3c-1.6,0-2.7,1.4-2.7,3.1   v6.4h-1.5V427z"></path>
	<path d="M355,437.6h-1.4v-1.7c-0.7,1.3-1.9,1.9-3.2,1.9c-2.2,0-3.6-1.5-3.6-3.9V427h1.5v6.5c0,1.8,1,2.9,2.5,2.9   c1.6,0,2.7-1.3,2.7-3.1V427h1.5V437.6z"></path>
	<path d="M357.4,435.3v-12.5h1.5V435c0,0.9,0.4,1.3,1.1,1.3h0.5v1.3h-0.9C358.3,437.6,357.4,436.9,357.4,435.3z"></path>
	<path d="M361.9,435.3v-12.5h1.5V435c0,0.9,0.4,1.3,1.1,1.3h0.5v1.3h-0.9C362.8,437.6,361.9,436.9,361.9,435.3z"></path>
	<path d="M366.2,434.9v-0.1c0-1.7,1.3-3.2,3.9-3.2h3v-0.8c0-1.7-0.9-2.7-2.5-2.7c-1.3,0-2.2,0.7-2.7,1.9l-1.4-0.3   c0.8-2,2.3-2.8,4.2-2.8c2.5,0,3.9,1.5,3.9,3.8v7h-1.4v-1.7c-0.7,1.1-1.9,1.9-3.6,1.9C367.6,437.8,366.2,436.6,366.2,434.9z    M369.9,436.6c1.8,0,3.2-1.3,3.2-3.1v-0.9h-2.9c-1.7,0-2.6,0.9-2.6,2.1C367.7,435.8,368.6,436.6,369.9,436.6z"></path>
	<path d="M382.5,428.3h-2V427h2.1v-1.5c0-2,1.3-2.7,2.7-2.7h1.4v1.3h-1.2c-0.9,0-1.5,0.4-1.5,1.6v1.3h2.8v1.3H384v9.3h-1.5V428.3z"></path>
	<path d="M387.5,434.9v-0.1c0-1.7,1.3-3.2,3.9-3.2h3v-0.8c0-1.7-0.9-2.7-2.5-2.7c-1.3,0-2.2,0.7-2.7,1.9l-1.4-0.3   c0.8-2,2.3-2.8,4.2-2.8c2.5,0,3.9,1.5,3.9,3.8v7h-1.4v-1.7c-0.7,1.1-1.9,1.9-3.6,1.9C389,437.8,387.5,436.6,387.5,434.9z    M391.3,436.6c1.8,0,3.2-1.3,3.2-3.1v-0.9h-2.9c-1.7,0-2.6,0.9-2.6,2.1C389,435.8,390,436.6,391.3,436.6z"></path>
	<path d="M397.7,432.4v-0.2c0-3.5,2.1-5.4,4.6-5.4c1.8,0,3.4,1.1,4.1,3.1l-1.4,0.3c-0.5-1.4-1.6-2.1-2.8-2.1c-1.7,0-3.1,1.4-3.1,4.2   v0.1c0,2.7,1.4,4.2,3.1,4.2c1.1,0,2.3-0.7,2.8-2.1l1.4,0.3c-0.7,2.1-2.3,3.1-4.1,3.1C399.8,437.8,397.7,435.9,397.7,432.4z"></path>
	<path d="M407.9,423.4h1.6v1.7h-1.6V423.4z M408,427h1.5v10.5H408V427z"></path>
	<path d="M411.9,435.3v-12.5h1.5V435c0,0.9,0.4,1.3,1.1,1.3h0.5v1.3h-0.9C412.8,437.6,411.9,436.9,411.9,435.3z"></path>
	<path d="M416.4,423.4h1.6v1.7h-1.6V423.4z M416.5,427h1.5v10.5h-1.5V427z"></path>
	<path d="M419.6,435.1l1.3-0.5c0.6,1.3,1.6,2,3.1,2c1.5,0,2.5-0.7,2.5-1.9c0-1.1-1-1.6-2.2-1.8l-1.4-0.2c-1.7-0.3-3-1.1-3-2.7   c0-1.7,1.4-3.1,3.7-3.1c1.7,0,3.2,0.8,4.1,2.3l-1.3,0.5c-0.6-1.1-1.6-1.7-2.8-1.7c-1.4,0-2.4,0.7-2.4,1.8c0,1,0.8,1.5,1.9,1.7   l1.3,0.2c2,0.4,3.3,1.2,3.3,2.9c0,1.8-1.5,3.2-3.9,3.2C422.1,437.8,420.5,437,419.6,435.1z"></path>
	<path d="M429.4,423.4h1.6v1.7h-1.6V423.4z M429.5,427h1.5v10.5h-1.5V427z"></path>
	<path d="M433.5,435.7h1.6v1.9h-1.6V435.7z"></path>
</g>
</svg>