<?xml version="1.0" encoding="utf-8"?>
<!-- Generator: Adobe Illustrator 26.3.1, SVG Export Plug-In . SVG Version: 6.00 Build 0)  -->
<svg version="1.1" id="Layer_1" xmlns="http://www.w3.org/2000/svg" xmlns:xlink="http://www.w3.org/1999/xlink" x="0px" y="0px"
	 viewBox="0 0 360 360" style="enable-background:new 0 0 360 360;" xml:space="preserve">
<style type="text/css">
	.st0{fill:#EDEDED;}
	.st1{fill:#EF3529;}
</style>
<g id="Lager_2">
	<g id="Lager_1-2">
		<rect class="st0" width="360" height="360"/>
		<path d="M258.1,212.5c8.2,0,15.3-5.7,17.1-13.7h2.3c3.7,0,6.7-3,6.7-6.7v-9.6c0-0.6-0.5-1.2-1.2-1.2l0,0h-7.5v-1.9
			c0-0.6-0.5-1.2-1.2-1.2l0,0h-32.6c-0.6,0-1.2,0.5-1.2,1.2l0,0v15.8C240.7,204.8,248.5,212.5,258.1,212.5z M281.9,183.6v8.4
			c0,2.4-2,4.4-4.4,4.3h-2c0-0.4,0.1-0.8,0.1-1.3v-11.5H281.9z M242.9,180.5h30.3v14.7c0,8.4-6.8,15.1-15.1,15.1
			s-15.1-6.8-15.1-15.1l0,0V180.5z"/>
		<path d="M255.5,163.6c3.9,0,7.1-3.2,7.1-7.1h-2.3c0,2.6-2.2,4.7-4.8,4.7c-3.9,0-7.1,3.2-7.1,7.1h2.3
			C250.8,165.7,252.9,163.6,255.5,163.6z"/>
		<path d="M258.3,173.4h2.3c0-2.6,2.2-4.7,4.8-4.7c3.9,0,7.1-3.2,7.1-7.1h-2.3c0,2.6-2.2,4.7-4.8,4.7
			C261.5,166.4,258.4,169.5,258.3,173.4z"/>
		<path d="M286.8,211.2c0,2.9-2.3,5.2-5.2,5.2h-47c-2.9,0-5.2-2.3-5.2-5.2H227c0,4.2,3.4,7.5,7.5,7.5h47c4.2,0,7.5-3.4,7.5-7.5
			H286.8z"/>
		<path d="M234,142.2c-0.3-1-1-1.7-1.9-2L114.6,98.4c-1.6-0.6-3.3,0.2-4,1.8c0,0,0,0,0,0.1l-16.4,46.2c-0.5,1.6,0.3,3.3,1.8,3.9
			l35.1,12.6v13.4c0,16.8-13.6,30.4-30.4,30.4l0,0H87.4v-23.1c0-1.7-1.4-3.1-3.1-3.1H70.9v6.1h10.5V236H70.9v6.1h13.6
			c1.7,0,3.1-1.4,3.1-3.1v-26.3h13.3c20.1-0.1,36.4-16.3,36.4-36.4v-11.2l61.4,21.8l1,0.2c1,0,1.9-0.5,2.4-1.2l31.3-41
			C234,144.1,234.2,143.1,234,142.2z M115.4,105.2l71.3,25.4l-14.4,40.5L101,145.7L115.4,105.2z M198.6,180.5l-20.6-7.3l14.4-40.5
			l33.6,11.9L198.6,180.5z"/>
	</g>
</g>
<rect x="-73.1" y="179.5" transform="matrix(0.7071 -0.7071 0.7071 0.7071 -74.5559 179.999)" class="st1" width="506.3" height="1"/>
<rect x="179.5" y="-73.1" transform="matrix(0.7071 -0.7071 0.7071 0.7071 -74.561 180.001)" class="st1" width="1" height="506.3"/>
</svg>
