<svg xmlns="http://www.w3.org/2000/svg" viewBox="0 0 365.88 167.15"><defs><style>.cls-1{fill:none;}</style></defs><title>arial</title><g id="Lager_2" data-name="Lager 2"><g id="Lager_1-2" data-name="Lager 1"><path d="M0,35.79,13.75,0h5.1L33.5,35.79H28.1L23.93,25H9L5,35.79Zm10.33-14.7H22.46l-3.74-9.91Q17,6.67,16.19,3.76a45.66,45.66,0,0,1-1.93,6.84Z"/><path d="M36.58,35.79V9.86h4v3.93a10.71,10.71,0,0,1,2.8-3.64,4.88,4.88,0,0,1,2.82-.88,8.58,8.58,0,0,1,4.52,1.42l-1.51,4.08a6.29,6.29,0,0,0-3.22-1,4.18,4.18,0,0,0-2.59.87,4.69,4.69,0,0,0-1.64,2.4A17.12,17.12,0,0,0,41,22.22V35.79Z"/><path d="M53.2,5.05V0h4.39V5.05Zm0,30.74V9.86h4.39V35.79Z"/><path d="M80.32,32.59a16.37,16.37,0,0,1-4.7,2.93,13.59,13.59,0,0,1-4.85.85q-4.27,0-6.57-2.09A6.89,6.89,0,0,1,61.91,29a7.09,7.09,0,0,1,.87-3.48A7.17,7.17,0,0,1,65,22.95a10.69,10.69,0,0,1,3.16-1.44,31.4,31.4,0,0,1,3.91-.66A40.17,40.17,0,0,0,80,19.34c0-.6,0-1,0-1.15q0-2.69-1.25-3.78a7.36,7.36,0,0,0-5-1.49A7.76,7.76,0,0,0,69.15,14,6.64,6.64,0,0,0,67,17.85l-4.3-.59a10.64,10.64,0,0,1,1.93-4.46,8.45,8.45,0,0,1,3.88-2.61,17.31,17.31,0,0,1,5.88-.92,15.58,15.58,0,0,1,5.4.78,7.12,7.12,0,0,1,3.05,2,6.92,6.92,0,0,1,1.37,3,24.74,24.74,0,0,1,.22,4.05v5.86a62.37,62.37,0,0,0,.28,7.75,9.78,9.78,0,0,0,1.11,3.11H81.2A9.3,9.3,0,0,1,80.32,32.59ZM80,22.78a32.25,32.25,0,0,1-7.18,1.66,16.6,16.6,0,0,0-3.83.88,3.82,3.82,0,0,0-1.73,1.43,3.88,3.88,0,0,0,.72,5,5.73,5.73,0,0,0,3.89,1.17,9.06,9.06,0,0,0,4.52-1.11,6.84,6.84,0,0,0,2.91-3A10.62,10.62,0,0,0,80,24.39Z"/><path d="M90.17,35.79V0h4.39V35.79Z"/><path d="M151.26,35.79V0h15.87a21.12,21.12,0,0,1,7.28,1,8,8,0,0,1,4,3.41,10.17,10.17,0,0,1,1.49,5.4,9,9,0,0,1-2.47,6.42q-2.47,2.61-7.62,3.32a12.3,12.3,0,0,1,2.86,1.78A24.65,24.65,0,0,1,176.58,26l6.23,9.74h-6l-4.74-7.45q-2.08-3.22-3.42-4.93A10.74,10.74,0,0,0,166.29,21a7.1,7.1,0,0,0-2.16-1,14.24,14.24,0,0,0-2.64-.17H156V35.79Zm4.74-20h10.18a15.27,15.27,0,0,0,5.08-.67A5.4,5.4,0,0,0,174,13a5.81,5.81,0,0,0,1-3.21,5.33,5.33,0,0,0-1.84-4.17Q171.3,4,167.32,4H156Z"/><path d="M202.93,27.44l4.54.56a11.08,11.08,0,0,1-4,6.18A13.48,13.48,0,0,1,187,32.87q-3.33-3.5-3.33-9.83,0-6.54,3.37-10.16a11.4,11.4,0,0,1,8.74-3.61,11.09,11.09,0,0,1,8.5,3.54q3.3,3.54,3.3,10,0,.39,0,1.17H188.25a10,10,0,0,0,2.42,6.54,7.19,7.19,0,0,0,5.42,2.27,6.72,6.72,0,0,0,4.13-1.27A8.44,8.44,0,0,0,202.93,27.44Zm-14.43-7.1H203a8.79,8.79,0,0,0-1.66-4.91,6.74,6.74,0,0,0-5.44-2.54,7,7,0,0,0-5.09,2A8,8,0,0,0,188.5,20.34Z"/><path d="M211.52,37.94l4.27.63a4.07,4.07,0,0,0,1.49,2.88,7.31,7.31,0,0,0,4.47,1.22,7.85,7.85,0,0,0,4.71-1.22A6,6,0,0,0,228.7,38,28.14,28.14,0,0,0,229,32.4a9,9,0,0,1-7.18,3.39,9.79,9.79,0,0,1-8.28-3.86,14.85,14.85,0,0,1-2.93-9.25A17.22,17.22,0,0,1,212,15.83,10.74,10.74,0,0,1,215.87,11a10.52,10.52,0,0,1,6-1.71A9.3,9.3,0,0,1,229.44,13V9.86h4.05V32.28q0,6.05-1.23,8.58a9,9,0,0,1-3.91,4,13.54,13.54,0,0,1-6.58,1.46,12.41,12.41,0,0,1-7.5-2.09A7.06,7.06,0,0,1,211.52,37.94Zm3.64-15.58q0,5.1,2,7.45a6.68,6.68,0,0,0,10.16,0q2.05-2.33,2.05-7.31,0-4.76-2.11-7.18a6.53,6.53,0,0,0-5.09-2.42,6.34,6.34,0,0,0-5,2.38Q215.15,17.68,215.15,22.36Z"/><path d="M256.21,35.79V32A9.49,9.49,0,0,1,248,36.38a10.49,10.49,0,0,1-4.29-.88,7.05,7.05,0,0,1-3-2.21A8.26,8.26,0,0,1,239.39,30a22.25,22.25,0,0,1-.27-4.1V9.86h4.39V24.24a25.56,25.56,0,0,0,.27,4.64,4.58,4.58,0,0,0,1.76,2.72,5.44,5.44,0,0,0,3.32,1,7.23,7.23,0,0,0,3.71-1A5.63,5.63,0,0,0,255,28.82a13.83,13.83,0,0,0,.72-5.07V9.86h4.39V35.79Z"/><path d="M265.91,35.79V0h4.39V35.79Z"/><path d="M293.07,32.59a16.37,16.37,0,0,1-4.7,2.93,13.59,13.59,0,0,1-4.85.85q-4.27,0-6.57-2.09A6.89,6.89,0,0,1,274.66,29a7.09,7.09,0,0,1,.87-3.48,7.17,7.17,0,0,1,2.27-2.53A10.69,10.69,0,0,1,281,21.51a31.4,31.4,0,0,1,3.91-.66,40.17,40.17,0,0,0,7.84-1.51c0-.6,0-1,0-1.15q0-2.69-1.25-3.78a7.36,7.36,0,0,0-5-1.49A7.76,7.76,0,0,0,281.9,14a6.64,6.64,0,0,0-2.18,3.85l-4.3-.59a10.64,10.64,0,0,1,1.93-4.46,8.45,8.45,0,0,1,3.88-2.61,17.31,17.31,0,0,1,5.88-.92,15.58,15.58,0,0,1,5.4.78,7.12,7.12,0,0,1,3.05,2,6.92,6.92,0,0,1,1.37,3,24.74,24.74,0,0,1,.22,4.05v5.86a62.37,62.37,0,0,0,.28,7.75,9.78,9.78,0,0,0,1.11,3.11h-4.59A9.3,9.3,0,0,1,293.07,32.59Zm-.37-9.81a32.25,32.25,0,0,1-7.18,1.66,16.6,16.6,0,0,0-3.83.88A3.82,3.82,0,0,0,280,26.75a3.88,3.88,0,0,0,.72,5,5.73,5.73,0,0,0,3.89,1.17,9.06,9.06,0,0,0,4.52-1.11,6.84,6.84,0,0,0,2.91-3,10.62,10.62,0,0,0,.71-4.39Z"/><path d="M303,35.79V9.86h4v3.93a10.71,10.71,0,0,1,2.8-3.64,4.88,4.88,0,0,1,2.82-.88,8.58,8.58,0,0,1,4.52,1.42l-1.51,4.08a6.29,6.29,0,0,0-3.22-1,4.18,4.18,0,0,0-2.59.87,4.69,4.69,0,0,0-1.64,2.4,17.12,17.12,0,0,0-.73,5.13V35.79Z"/><path d="M151,52H165.3a41.37,41.37,0,0,1,6.34.35,9.31,9.31,0,0,1,3.73,1.48,9.18,9.18,0,0,1,2.75,3,8.1,8.1,0,0,1,1.1,4.19,8.49,8.49,0,0,1-5,7.76,9.42,9.42,0,0,1,5,3.25,8.62,8.62,0,0,1,1.76,5.4,10.65,10.65,0,0,1-1.13,4.75,9.57,9.57,0,0,1-3.1,3.69,10.24,10.24,0,0,1-4.85,1.7q-1.81.2-8.72.24H151Zm7.23,6v8.28H163q4.22,0,5.25-.12a4.77,4.77,0,0,0,2.92-1.28,3.78,3.78,0,0,0,1.06-2.8,3.92,3.92,0,0,0-.92-2.7,4.14,4.14,0,0,0-2.72-1.26q-1.08-.12-6.18-.12Zm0,14.23v9.57h6.69a32.7,32.7,0,0,0,5-.22,4.48,4.48,0,0,0,2.62-1.43,4.39,4.39,0,0,0,1-3,4.67,4.67,0,0,0-.78-2.73,4.42,4.42,0,0,0-2.26-1.64,24.56,24.56,0,0,0-6.41-.51Z"/><path d="M184.59,74.46a14,14,0,0,1,1.68-6.62A11.56,11.56,0,0,1,191,63a14.17,14.17,0,0,1,6.9-1.68,13,13,0,0,1,9.64,3.82,13.2,13.2,0,0,1,3.76,9.66,13.36,13.36,0,0,1-3.8,9.75A12.83,12.83,0,0,1,198,88.38a15.06,15.06,0,0,1-6.8-1.61A11.05,11.05,0,0,1,186.27,82,15.74,15.74,0,0,1,184.59,74.46Zm7,.37a8.59,8.59,0,0,0,1.83,5.91,6,6,0,0,0,9,0,8.71,8.71,0,0,0,1.82-6,8.55,8.55,0,0,0-1.82-5.86,6,6,0,0,0-9,0A8.59,8.59,0,0,0,191.62,74.83Z"/><path d="M216.15,87.79V52H223V87.79Z"/><path d="M253.37,87.79H247V84a10.29,10.29,0,0,1-3.75,3.31,9.62,9.62,0,0,1-4.36,1.09,9.88,9.88,0,0,1-7.65-3.6q-3.18-3.6-3.19-10t3.1-10A10.11,10.11,0,0,1,239,61.28a9.71,9.71,0,0,1,7.52,3.61V52h6.86ZM235.06,74.27q0,4.15,1.15,6A5.18,5.18,0,0,0,240.84,83a5.05,5.05,0,0,0,4-2q1.66-2,1.66-6,0-4.47-1.61-6.43a5.1,5.1,0,0,0-4.13-2,5.16,5.16,0,0,0-4.09,1.94Q235.06,70.41,235.06,74.27Z"/><rect class="cls-1" width="365.88" height="167.15"/></g></g></svg>