<svg xmlns="http://www.w3.org/2000/svg" viewBox="0 0 360 360"><defs><style>.cls-1{fill:#ededed;}.cls-2{fill:none;stroke:#b2b2b2;stroke-miterlimit:10;}</style></defs><title>p-do-3</title><g id="Lager_2" data-name="Lager 2"><g id="Lager_1-2" data-name="Lager 1"><rect class="cls-1" width="360" height="360"/><line class="cls-2" x1="39.52" y1="110.55" x2="202.21" y2="58.6"/><line class="cls-2" x1="40.28" y1="249.83" x2="200.21" y2="300.74"/><rect x="61.99" y="230.21" width="16.06" height="6"/><path d="M97,109.5H43.08a14,14,0,0,0-14,14v113a14,14,0,0,0,14,14H97a14,14,0,0,0,14-14v-113A14,14,0,0,0,97,109.5Zm-53.89,6H97a8,8,0,0,1,8,8v12.87H35.08V123.5A8,8,0,0,1,43.08,115.5ZM105,142.37v74.9H35.08v-74.9ZM97,244.5H43.08a8,8,0,0,1-8-8V223.28H105V236.5A8,8,0,0,1,97,244.5Z"/><rect x="239.93" y="267.16" width="27.89" height="10.42"/><path d="M300.65,57.62H207.1a24.33,24.33,0,0,0-24.3,24.3V278.08a24.33,24.33,0,0,0,24.3,24.3h93.55a24.33,24.33,0,0,0,24.3-24.3V81.92A24.33,24.33,0,0,0,300.65,57.62ZM207.1,68h93.55a13.9,13.9,0,0,1,13.89,13.89v22.35H193.22V81.92A13.9,13.9,0,0,1,207.1,68Zm107.44,46.65v130H193.22v-130ZM300.65,292H207.1a13.9,13.9,0,0,1-13.89-13.89v-23H314.54v23A13.9,13.9,0,0,1,300.65,292Z"/></g></g></svg>