<svg xml:space="preserve" style="enable-background:new 0 0 360 361.4;" viewBox="0 0 360 361.4" y="0px" x="0px" id="Layer_1" version="1.1" xmlns:xlink="http://www.w3.org/1999/xlink" xmlns="http://www.w3.org/2000/svg">
<style type="text/css">
	.st0{fill:#EDEDED;}
	.st1{fill:#CBCBCB;}
	.st2{fill:#EF3529;}
</style>
<g id="Lager_2">
	<g id="Lager_1-2">
		<rect height="360" width="360" class="st0" y="1.4"></rect>
		<path d="M121.9,166.1l-10.9,12c-5.9-3.1-12.7-4-19.2-2.7c-4.4,0.9-8.5,3-8.7,6.2c-0.2,3.3,3.2,4.9,8.2,5.2    c5.8,0.4,11,0.7,19.1,1.4c12.1,1,20.9,4.4,23.1,15.9c3.1,15.8-9.3,26.8-28.1,30.4c-18.8,3.7-33.5-3.6-38.2-7.4l11.5-12.7    c11.1,6.4,17.9,6.3,23.3,5.2c6.3-1.2,11.9-3.7,12-7.4c0.1-3-2.8-4.8-8.4-5c-6.3-0.2-11.7-0.3-17.7-0.7c-16.3-1-22.4-9.2-24-17.3    c-2.2-11.1,6-24.6,24.9-28.3C100.2,158.6,111.9,160.4,121.9,166.1 M200.4,140.2l-55.7,10.9l14.1,72.1l59-11.5l-3.2-16.4l-39.3,7.7    l-2.6-13.1l26.2-5.1l-3.2-16.4l-26.2,5.1l-1.9-9.8l36.1-7L200.4,140.2z M148.9,242.1l3.3-0.6l-20.5-104.9l-3.3,0.6L148.9,242.1z     M227.6,226.8l3.3-0.6l-20.5-104.9l-3.3,0.6L227.6,226.8z M237.5,207.8l46.4-9.1c12.4-2.4,21-11.9,18.6-23.8    c-1.8-9.3-9.1-14.3-18.2-15.4c-0.3,0-0.6,0.1-0.8,0.2c0.3-0.1,0.5-0.2,0.8-0.3c5.9-3.9,8.8-11,7.2-17.9    c-2.2-11.2-13.5-16.4-25.6-14l-42.4,8.3L237.5,207.8z M245.6,145l16.8-3.3c3.6-0.7,7.1,1.7,7.8,5.3s-1.7,7.1-5.3,7.8l-16.8,3.3    L245.6,145z M273.6,183.7l-19.7,3.8l-2.6-13.1l19.7-3.8c3.6-0.7,7.1,1.7,7.8,5.3S277.2,183,273.6,183.7z"></path>
		<rect height="1" width="1" class="st1" y="0" x="89.5"></rect>
		
			<rect height="1" width="506.3" class="st2" transform="matrix(0.7071 -0.7071 0.7071 0.7071 -75.5482 180.4174)" y="180.9" x="-73.1"></rect>
		
			<rect height="506.3" width="1" class="st2" transform="matrix(0.7071 -0.7071 0.7071 0.7071 -75.5503 180.4124)" y="-71.7" x="179.5"></rect>
	</g>
</g>
</svg>