<svg xml:space="preserve" style="enable-background:new 0 0 566.9 566.9;" viewBox="0 0 566.9 566.9" y="0px" x="0px" id="Layer_1" version="1.0" xmlns:xlink="http://www.w3.org/1999/xlink" xmlns="http://www.w3.org/2000/svg">
<style type="text/css">
	.st0{fill:#EFF0F0;}
	.st1{fill:#BFC3C1;}
</style>
<rect height="566.9" width="566.9" class="st0"></rect>
<g>
	<path d="M36.2,383h39.3v8.6h-30v21.3h25.1v8.6H45.5v29.9h-9.3V383z"></path>
	<path d="M79.2,385.1h9.1v9.5h-9.1V385.1z M79.4,402.5h8.6v48.9h-8.6V402.5z"></path>
	<path d="M95.3,402.5h8V413c3.2-6.9,10-11,18.2-11v8.6c-10.9,0-17.5,7.7-17.5,19.1v21.7h-8.6V402.5z"></path>
	<path d="M122,439.7l7.4-2.9c2.6,5.7,6.8,8.7,13.2,8.7c6.2,0,10.3-2.9,10.3-7.7c0-4.6-3.9-6.4-9-7.3l-6.6-1.2   c-8.9-1.6-14.3-5.6-14.3-12.9c0-8,6.4-14.7,18-14.7c8.2,0,15.4,3.4,19.6,11l-7.3,3c-2.5-4.8-6.8-7.1-11.9-7.1c-5.9,0-9.8,3-9.8,7.4   c0,4,3.3,5.9,7.8,6.7l6.5,1.2c9.8,1.8,15.4,5.8,15.4,13.5c0,8.5-6.8,15.1-18.7,15.1C134.3,452.4,126.4,448.9,122,439.7z"></path>
	<path d="M169.4,438.6v-28.7h-7.7v-7.4h8.1v-14.7h8.1v14.7h13.5v7.4h-13.2v27.1c0,4.9,2.4,6.9,6.3,6.9h6.9v7.4h-9.1   C174.5,451.4,169.4,447.4,169.4,438.6z"></path>
	<path d="M214.3,402.5h8V413c3.2-6.9,10-11,18.2-11v8.6c-10.9,0-17.5,7.7-17.5,19.1v21.7h-8.6V402.5z"></path>
	<path d="M240.8,427.4v-0.8c0-16.3,9.9-25.5,22.2-25.5c12.2,0,22.2,9.2,22.2,25.5v0.8c0,16.3-10,25.5-22.2,25.5   C250.7,452.9,240.8,443.7,240.8,427.4z M263,445.5c7.5,0,13.5-6.4,13.5-18.3v-0.5c0-11.9-6-18.3-13.5-18.3   c-7.6,0-13.6,6.4-13.6,18.3v0.5C249.4,439.1,255.4,445.5,263,445.5z"></path>
	<path d="M283.9,402.5h9.6l7.9,27.1c0.8,2.8,1.5,5.5,2.7,10.1c1.3-4.6,2-7.3,2.9-10.1l8.4-27.1h8.1l8.5,27.1c0.9,2.9,1.8,5.7,3,10.1   l2.9-10.1l8.2-27.1h9l-16.1,48.9h-8.1l-9.2-29.8c-0.7-2.2-1.4-4.9-2.2-8.2c-0.7,3.3-1.5,6-2.2,8.2l-9.1,29.8h-8.1L283.9,402.5z"></path>
	<path d="M30,521.1l8.5-3.4c3.4,6.9,9.3,10.7,17.1,10.7c8.9,0,15.3-4.6,15.3-12.1c0-7.1-5.7-9.9-11-10.9l-9.4-1.7   c-9.5-1.7-19.2-6.1-19.2-18.2v-0.7c0-11.2,9.8-19,23.1-19c10.3,0,19.3,4.8,24.5,14.5l-8.6,3.5c-3.6-6.7-9.5-9.9-16.2-9.9   c-7.8,0-13.6,4.5-13.6,11.4c0,6.6,5.2,9.4,11.9,10.6l9.4,1.7c9,1.6,18.3,6,18.3,17.5v0.7c0,12.5-10.3,20.7-24.6,20.7   C44.4,536.4,34.8,531.4,30,521.1z" class="st1"></path>
	<path d="M105.4,536.9c-12.5,0-22.7-9.2-22.7-25.5v-0.8c0-16.3,9.9-25.5,22.2-25.5c12.2,0,22.2,9.2,22.2,25.5v2.3h-36   c0.2,10.3,6.2,16.6,14.5,16.6c5.1,0,9.7-2.4,12.1-7.5l8.1,1.5C122.3,532.2,114.3,536.9,105.4,536.9z M118.4,507.1   c-0.7-10-6.7-15.2-13.5-15.2c-6.9,0-12.9,5.2-13.5,15.2H118.4z" class="st1"></path>
	<path d="M129.1,511.4v-0.8c0-16.1,9.9-25,21.8-25c9,0,16.6,5.2,19.8,15.1l-8.1,1.5c-2.2-6.2-6.8-9.2-11.7-9.2   c-7.1,0-13.1,6.1-13.1,17.8v0.5c0,11.7,6,17.8,13.1,17.8c4.9,0,9.5-3,11.7-9.2l8.1,1.5c-3.2,9.9-10.8,15.1-19.8,15.1   C139,536.4,129.1,527.5,129.1,511.4z" class="st1"></path>
	<path d="M171.3,511.4v-0.8c0-16.3,9.9-25.5,22.2-25.5c12.2,0,22.2,9.2,22.2,25.5v0.8c0,16.3-10,25.5-22.2,25.5   C181.3,536.9,171.3,527.7,171.3,511.4z M193.6,529.5c7.5,0,13.5-6.4,13.5-18.3v-0.5c0-11.9-6-18.3-13.5-18.3   c-7.6,0-13.6,6.4-13.6,18.3v0.5C180,523.1,186,529.5,193.6,529.5z" class="st1"></path>
	<path d="M220.3,486.5h8v7c3.1-5.5,8.6-8,14.3-8c10.2,0,16.8,7.1,16.8,18v31.9h-8.6v-29.8c0-7.9-4.1-12.6-10.4-12.6   c-6.8,0-11.4,5.8-11.4,13.4v29h-8.6V486.5z" class="st1"></path>
	<path d="M263.5,512.2v-2.4c0-16.2,9.7-24.2,20.4-24.2c6.9,0,12.1,3.5,14.7,8.4v-27h8.6v68.4h-8v-7.7   c-2.7,5-7.9,8.6-15.2,8.6C273.2,536.4,263.5,528.4,263.5,512.2z M285.6,529c7.5,0,13.4-6.2,13.4-17.8v-0.5   c0-11.7-5.9-17.8-13.4-17.8c-7.5,0-13.4,6.1-13.4,17.8v0.5C272.1,522.8,278.1,529,285.6,529z" class="st1"></path>
	<path d="M334.6,486.5h8V497c3.2-6.9,10-11,18.2-11v8.6c-10.9,0-17.5,7.7-17.5,19.1v21.7h-8.6V486.5z" class="st1"></path>
	<path d="M361.1,511.4v-0.8c0-16.3,9.9-25.5,22.2-25.5c12.2,0,22.2,9.2,22.2,25.5v0.8c0,16.3-10,25.5-22.2,25.5   C371,536.9,361.1,527.7,361.1,511.4z M383.3,529.5c7.5,0,13.5-6.4,13.5-18.3v-0.5c0-11.9-6-18.3-13.5-18.3   c-7.6,0-13.6,6.4-13.6,18.3v0.5C369.7,523.1,375.7,529.5,383.3,529.5z" class="st1"></path>
	<path d="M404.2,486.5h9.6l7.9,27.1c0.8,2.8,1.5,5.5,2.7,10.1c1.3-4.6,2-7.3,2.9-10.1l8.4-27.1h8.1l8.5,27.1   c0.9,2.9,1.8,5.7,3,10.1l2.9-10.1l8.2-27.1h9l-16.1,48.9h-8.1l-9.2-29.8c-0.7-2.2-1.4-4.9-2.2-8.2c-0.7,3.3-1.5,6-2.2,8.2   l-9.1,29.8h-8.1L404.2,486.5z" class="st1"></path>
</g>
</svg>