<svg xml:space="preserve" style="enable-background:new 0 0 360 360;" viewBox="0 0 360 360" y="0px" x="0px" id="Lager_1" version="1.1" xmlns:xlink="http://www.w3.org/1999/xlink" xmlns="http://www.w3.org/2000/svg">
<style type="text/css">
	.st0{fill:#EEEEEE;}
	.st1{fill:none;stroke:#B3B3B3;stroke-width:0.5;stroke-miterlimit:10;}
</style>
<g id="Lager_1-2">
	<rect height="360" width="360" class="st0" y="0"></rect>
</g>
<g>
	<path d="M130.7,67.1l-11.6,8.7c-5.5-4.7-12.6-5.7-16.5-5.7c-4,0-8.1,1.1-8.7,4c-0.6,2.8,1.9,4.9,6.3,6.1c5,1.4,9.6,2.5,16.6,4.6   c10.5,3,17.6,7.5,17.6,18c0,14.5-12.8,22-30,22c-17.2,0-28.9-9-32.4-13.1l12.3-9.2c8.6,7.5,14.7,8.6,19.7,8.6   c5.8,0,11.2-1.2,11.9-4.5c0.6-2.6-1.6-4.7-6.5-5.8c-5.6-1.3-10.2-2.3-15.5-3.7c-14.2-3.7-18.2-12-18.2-19.4   c0-10.2,9.5-20.7,26.9-20.7C120.3,56.9,130.7,67.1,130.7,67.1 M205,57.9h-51.9v64.9h52.9v-15h-34.6V97.4h23.9V83.1h-23.9V72.7H205   V57.9z M139.6,137.8h4V42.9h-4V137.8z M212.7,137.8h4V42.9h-4V137.8z M226.1,122.8h41.7c11.1,0,20.2-6.7,20.2-17.5   c0-8.4-5.5-14-13.2-16.4c0,0-0.3-0.1-0.7-0.1c0.4,0,0.7-0.1,0.7-0.1c4.4-1.7,9.3-6.4,9.3-14.3c0-10-8.9-16.4-19.8-16.4h-38.1V122.8   z M244.5,71.4H259c3.4,0,6.1,2.6,6.1,5.7c0,3-2.7,5.7-6.1,5.7h-14.6V71.4z M262.3,108.4l-17.8,0V96.5h17.8c3.2,0,5.7,2.6,5.7,5.9   C268,105.8,265.4,108.4,262.3,108.4z"></path>
</g>
<line y2="57.8" x2="360" y1="57.8" x1="0" class="st1"></line>
</svg>