<svg xml:space="preserve" style="enable-background:new 0 0 360 195.6;" viewBox="0 0 360 195.6" y="0px" x="0px" id="Lager_1" version="1.1" xmlns:xlink="http://www.w3.org/1999/xlink" xmlns="http://www.w3.org/2000/svg">
<style type="text/css">
	.st0{fill:none;stroke:#B3B3B3;stroke-width:0.5;stroke-miterlimit:10;}
</style>
<g>
	<path d="M122.4,70.6l-13.6,10.2c-6.4-5.5-14.7-6.6-19.3-6.6c-4.6,0-9.5,1.3-10.2,4.6c-0.7,3.2,2.3,5.7,7.4,7.1   c5.9,1.6,11.2,3,19.4,5.3c12.2,3.5,20.6,8.8,20.6,21.1c0,16.9-15,25.7-35.1,25.7s-33.8-10.5-37.9-15.4L68,111.9   c10.1,8.8,17.1,10.1,23,10.1c6.7,0,13.1-1.4,13.9-5.2c0.7-3.1-1.9-5.5-7.6-6.8c-6.5-1.5-12-2.7-18.1-4.3   c-16.6-4.4-21.3-14-21.3-22.7c0-11.9,11.1-24.2,31.4-24.2C110.2,58.7,122.4,70.6,122.4,70.6 M209.2,59.9h-60.7v75.9h61.8v-17.5   h-40.5v-12.2h27.9V89.4h-27.9V77.3h39.4L209.2,59.9L209.2,59.9z M132.8,153.3h4.7v-111h-4.7V153.3z M218.3,153.3h4.7v-111h-4.7   V153.3z M234,135.8h48.8c13,0,23.6-7.9,23.6-20.4c0-9.8-6.4-16.3-15.4-19.2c0,0-0.4-0.1-0.9-0.1c0.5,0,0.9-0.2,0.9-0.2   c5.2-2,10.9-7.5,10.9-16.7c0-11.7-10.4-19.2-23.2-19.2H234V135.8z M255.4,75.6h17c3.9,0,7.1,3.1,7.1,6.7c0,3.6-3.2,6.7-7.1,6.7h-17   V75.6z M276.2,118.9h-20.8v-13.8h20.8c3.7,0,6.7,3,6.7,6.9C282.9,115.9,279.9,118.9,276.2,118.9z"></path>
</g>
<line y2="59.9" x2="360" y1="59.9" x1="0" class="st0"></line>
<g>
	<line y2="195.6" x2="58" y1="0" x1="58" class="st0"></line>
	<line y2="195.6" x2="302" y1="0" x1="302" class="st0"></line>
</g>
<line y2="135.8" x2="360" y1="135.8" x1="0" class="st0"></line>
</svg>