<?xml version="1.0" encoding="utf-8"?>
<!-- Generator: Adobe Illustrator 26.3.1, SVG Export Plug-In . SVG Version: 6.00 Build 0)  -->
<svg version="1.1" id="Layer_1" xmlns="http://www.w3.org/2000/svg" xmlns:xlink="http://www.w3.org/1999/xlink" x="0px" y="0px"
	 viewBox="0 0 360 360" style="enable-background:new 0 0 360 360;" xml:space="preserve">
<style type="text/css">
	.st0{fill:#EDEDED;}
</style>
<g id="Lager_2">
	<g id="Lager_1-2">
		<rect class="st0" width="360" height="360"/>
		<path d="M231.3,213.1c12.7,0,23.7-8.8,26.4-21.3h3.6c5.7,0,10.4-4.6,10.4-10.3v-14.9c0-1-0.8-1.8-1.8-1.8l0,0h-11.6v-3
			c0-1-0.8-1.8-1.8-1.8l0,0h-50.5c-1,0-1.8,0.8-1.8,1.8l0,0v24.4C204.4,201.2,216.4,213.2,231.3,213.1z M268.1,168.5v13.1
			c0,3.7-3.1,6.7-6.8,6.7h-3.1c0-0.6,0.1-1.3,0.1-2v-17.8H268.1z M207.9,163.6h46.9v22.7c0,12.9-10.5,23.4-23.4,23.4
			s-23.4-10.5-23.4-23.4l0,0V163.6z"/>
		<path d="M227.3,137.4c6,0,11-4.9,11-10.9h-3.6c0,4.1-3.3,7.3-7.4,7.3c-6,0-11,4.9-11,10.9h3.6C220,140.7,223.3,137.4,227.3,137.4z
			"/>
		<path d="M231.7,152.6h3.6c0-4.1,3.3-7.3,7.4-7.3c6,0,11-4.9,11-10.9h-3.6c0,4.1-3.3,7.3-7.4,7.3
			C236.6,141.7,231.7,146.6,231.7,152.6z"/>
		<path d="M275.7,211.1c0,4.4-3.6,8.1-8.1,8.1h-72.8c-4.4,0-8.1-3.6-8.1-8.1h-3.6c0,6.4,5.2,11.6,11.7,11.7h72.7
			c6.4,0,11.6-5.2,11.7-11.7H275.7z"/>
		<path d="M180.2,155.9c-0.2-0.6-0.7-1.1-1.3-1.4l-78.5-27.9c-1.1-0.4-2.2,0.1-2.6,1.2c0,0,0,0,0,0l-11,30.9
			c-0.4,1.1,0.2,2.2,1.2,2.6l23.5,8.4v8.9c0,11.2-9.1,20.3-20.3,20.3l0,0h-8.9v-15.4c0-1.1-0.9-2-2-2h-9v4.1h7v33h-7v4.1h9.1
			c1.1,0,2-0.9,2-2v-17.6h8.9c13.4,0,24.3-10.9,24.4-24.4v-7.5l41.1,14.6l0.7,0.1c0.6,0,1.3-0.3,1.6-0.8l20.9-27.4
			C180.2,157.2,180.3,156.5,180.2,155.9z M100.9,131.2l47.7,17l-9.6,27.1l-47.7-17L100.9,131.2z M156.6,181.5l-13.8-4.9l9.6-27.1
			l22.4,8L156.6,181.5z"/>
	</g>
</g>
</svg>
