<svg xml:space="preserve" style="enable-background:new 0 0 360 361.4;" viewBox="0 0 360 361.4" y="0px" x="0px" id="Layer_1" version="1.1" xmlns:xlink="http://www.w3.org/1999/xlink" xmlns="http://www.w3.org/2000/svg">
<style type="text/css">
	.st0{fill:#EDEDED;}
	.st1{fill:#CBCBCB;}
	.st2{fill:#EF3529;}
</style>
<g id="Lager_2">
	<g id="Lager_1-2">
		<rect height="360" width="360" class="st0" y="1.4"></rect>
		<path d="M143.1,155.1l-8.9,9.7c-3.6-4.2-8-6.4-12.6-6.3c-3.1,0-6.1,1.3-6.7,4.5c-0.6,3.2,1.5,5.5,4.9,6.7    c3.8,1.5,7.3,2.8,12.7,5.1c8,3.3,13.5,8.4,13.5,20c0,16.1-9.8,24.5-23,24.5s-22.1-10-24.8-14.6l9.4-10.2    c6.6,8.4,11.2,9.6,15.1,9.6c4.4,0,8.5-1.4,9.1-5c0.4-2.9-1.2-5.2-5-6.5c-4.3-1.4-7.8-2.6-11.9-4.1c-10.9-4.1-13.9-13.4-13.9-21.6    c0-11.4,7.3-23,20.6-23C129.5,143.5,137.1,147.6,143.1,155.1 M199.6,144.7h-39.1v73.5h41.3v-16.7h-27.6v-13.4h18.4v-16.7h-18.4    v-10h25.3L199.6,144.7z M151.3,234.9h2.3V128h-2.3V234.9z M206.4,234.9h2.3V128h-2.3V234.9z M215.6,218.2h32.5    c8.7,0,15.7-7.6,15.7-19.8c0-9.5-4.3-15.8-10.3-18.6c-0.2,0-0.4,0-0.6,0c0.2,0,0.4-0.1,0.6-0.2c4.5-2.7,7.4-9.1,7.2-16.2    c0-11.4-6.9-18.6-15.5-18.6h-29.7L215.6,218.2z M229.4,158h11.7c2.5,0,4.6,3,4.6,6.7s-2.1,6.7-4.6,6.7h-11.7V158z M243.2,201.5    h-13.8v-13.4h13.8c2.5,0,4.6,3,4.6,6.7C247.8,198.5,245.7,201.5,243.2,201.5z"></path>
		<rect height="1" width="1" class="st1" y="0" x="89.5"></rect>
		
			<rect height="1" width="506.3" class="st2" transform="matrix(0.7071 -0.7071 0.7071 0.7071 -75.5482 180.4174)" y="180.9" x="-73.1"></rect>
		
			<rect height="506.3" width="1" class="st2" transform="matrix(0.7071 -0.7071 0.7071 0.7071 -75.5503 180.4124)" y="-71.7" x="179.5"></rect>
	</g>
</g>
</svg>